G04 #@! TF.GenerationSoftware,KiCad,Pcbnew,5.0.0-rc2-unknown-a288d61~65~ubuntu18.04.1*
G04 #@! TF.CreationDate,2018-06-29T09:55:29+02:00*
G04 #@! TF.ProjectId,STM32_Sensor_V4,53544D33325F53656E736F725F56342E,rev?*
G04 #@! TF.SameCoordinates,Original*
G04 #@! TF.FileFunction,Other,Fab,Top*
%FSLAX46Y46*%
G04 Gerber Fmt 4.6, Leading zero omitted, Abs format (unit mm)*
G04 Created by KiCad (PCBNEW 5.0.0-rc2-unknown-a288d61~65~ubuntu18.04.1) date Fri Jun 29 09:55:29 2018*
%MOMM*%
%LPD*%
G01*
G04 APERTURE LIST*
%ADD10C,0.300000*%
%ADD11C,0.100000*%
%ADD12C,0.030000*%
%ADD13C,0.080000*%
%ADD14C,0.150000*%
%ADD15C,0.060000*%
G04 APERTURE END LIST*
D10*
X122018571Y-94365714D02*
X122090000Y-94437142D01*
X122161428Y-94580000D01*
X122161428Y-94937142D01*
X122090000Y-95080000D01*
X122018571Y-95151428D01*
X121875714Y-95222857D01*
X121732857Y-95222857D01*
X121518571Y-95151428D01*
X120661428Y-94294285D01*
X120661428Y-95222857D01*
X122161428Y-96151428D02*
X122161428Y-96294285D01*
X122090000Y-96437142D01*
X122018571Y-96508571D01*
X121875714Y-96580000D01*
X121590000Y-96651428D01*
X121232857Y-96651428D01*
X120947142Y-96580000D01*
X120804285Y-96508571D01*
X120732857Y-96437142D01*
X120661428Y-96294285D01*
X120661428Y-96151428D01*
X120732857Y-96008571D01*
X120804285Y-95937142D01*
X120947142Y-95865714D01*
X121232857Y-95794285D01*
X121590000Y-95794285D01*
X121875714Y-95865714D01*
X122018571Y-95937142D01*
X122090000Y-96008571D01*
X122161428Y-96151428D01*
X120732857Y-97365714D02*
X120661428Y-97365714D01*
X120518571Y-97294285D01*
X120447142Y-97222857D01*
X122161428Y-97865714D02*
X122161428Y-98794285D01*
X121590000Y-98294285D01*
X121590000Y-98508571D01*
X121518571Y-98651428D01*
X121447142Y-98722857D01*
X121304285Y-98794285D01*
X120947142Y-98794285D01*
X120804285Y-98722857D01*
X120732857Y-98651428D01*
X120661428Y-98508571D01*
X120661428Y-98080000D01*
X120732857Y-97937142D01*
X120804285Y-97865714D01*
X122018571Y-99365714D02*
X122090000Y-99437142D01*
X122161428Y-99580000D01*
X122161428Y-99937142D01*
X122090000Y-100080000D01*
X122018571Y-100151428D01*
X121875714Y-100222857D01*
X121732857Y-100222857D01*
X121518571Y-100151428D01*
X120661428Y-99294285D01*
X120661428Y-100222857D01*
X122161428Y-101151428D02*
X122161428Y-101294285D01*
X122090000Y-101437142D01*
X122018571Y-101508571D01*
X121875714Y-101580000D01*
X121590000Y-101651428D01*
X121232857Y-101651428D01*
X120947142Y-101580000D01*
X120804285Y-101508571D01*
X120732857Y-101437142D01*
X120661428Y-101294285D01*
X120661428Y-101151428D01*
X120732857Y-101008571D01*
X120804285Y-100937142D01*
X120947142Y-100865714D01*
X121232857Y-100794285D01*
X121590000Y-100794285D01*
X121875714Y-100865714D01*
X122018571Y-100937142D01*
X122090000Y-101008571D01*
X122161428Y-101151428D01*
X120661428Y-103437142D02*
X121661428Y-103437142D01*
X121518571Y-103437142D02*
X121590000Y-103508571D01*
X121661428Y-103651428D01*
X121661428Y-103865714D01*
X121590000Y-104008571D01*
X121447142Y-104080000D01*
X120661428Y-104080000D01*
X121447142Y-104080000D02*
X121590000Y-104151428D01*
X121661428Y-104294285D01*
X121661428Y-104508571D01*
X121590000Y-104651428D01*
X121447142Y-104722857D01*
X120661428Y-104722857D01*
X120661428Y-105437142D02*
X121661428Y-105437142D01*
X121518571Y-105437142D02*
X121590000Y-105508571D01*
X121661428Y-105651428D01*
X121661428Y-105865714D01*
X121590000Y-106008571D01*
X121447142Y-106080000D01*
X120661428Y-106080000D01*
X121447142Y-106080000D02*
X121590000Y-106151428D01*
X121661428Y-106294285D01*
X121661428Y-106508571D01*
X121590000Y-106651428D01*
X121447142Y-106722857D01*
X120661428Y-106722857D01*
X123440000Y-90420000D02*
X123440000Y-110740000D01*
X126890000Y-90420000D02*
X122853579Y-90420000D01*
X126890000Y-110740000D02*
X122853579Y-110740000D01*
X123440000Y-110740000D02*
X122853579Y-109613496D01*
X123440000Y-110740000D02*
X124026421Y-109613496D01*
X123440000Y-90420000D02*
X122853579Y-91546504D01*
X123440000Y-90420000D02*
X124026421Y-91546504D01*
X138384285Y-84928572D02*
X139312857Y-84928572D01*
X138812857Y-85500001D01*
X139027142Y-85500001D01*
X139170000Y-85571429D01*
X139241428Y-85642858D01*
X139312857Y-85785715D01*
X139312857Y-86142858D01*
X139241428Y-86285715D01*
X139170000Y-86357143D01*
X139027142Y-86428572D01*
X138598571Y-86428572D01*
X138455714Y-86357143D01*
X138384285Y-86285715D01*
X140670000Y-84928572D02*
X139955714Y-84928572D01*
X139884285Y-85642858D01*
X139955714Y-85571429D01*
X140098571Y-85500001D01*
X140455714Y-85500001D01*
X140598571Y-85571429D01*
X140670000Y-85642858D01*
X140741428Y-85785715D01*
X140741428Y-86142858D01*
X140670000Y-86285715D01*
X140598571Y-86357143D01*
X140455714Y-86428572D01*
X140098571Y-86428572D01*
X139955714Y-86357143D01*
X139884285Y-86285715D01*
X141455714Y-86357143D02*
X141455714Y-86428572D01*
X141384285Y-86571429D01*
X141312857Y-86642858D01*
X142812857Y-84928572D02*
X142098571Y-84928572D01*
X142027142Y-85642858D01*
X142098571Y-85571429D01*
X142241428Y-85500001D01*
X142598571Y-85500001D01*
X142741428Y-85571429D01*
X142812857Y-85642858D01*
X142884285Y-85785715D01*
X142884285Y-86142858D01*
X142812857Y-86285715D01*
X142741428Y-86357143D01*
X142598571Y-86428572D01*
X142241428Y-86428572D01*
X142098571Y-86357143D01*
X142027142Y-86285715D01*
X144170000Y-84928572D02*
X143884285Y-84928572D01*
X143741428Y-85000001D01*
X143670000Y-85071429D01*
X143527142Y-85285715D01*
X143455714Y-85571429D01*
X143455714Y-86142858D01*
X143527142Y-86285715D01*
X143598571Y-86357143D01*
X143741428Y-86428572D01*
X144027142Y-86428572D01*
X144170000Y-86357143D01*
X144241428Y-86285715D01*
X144312857Y-86142858D01*
X144312857Y-85785715D01*
X144241428Y-85642858D01*
X144170000Y-85571429D01*
X144027142Y-85500001D01*
X143741428Y-85500001D01*
X143598571Y-85571429D01*
X143527142Y-85642858D01*
X143455714Y-85785715D01*
X145241428Y-84928572D02*
X145384285Y-84928572D01*
X145527142Y-85000001D01*
X145598571Y-85071429D01*
X145670000Y-85214286D01*
X145741428Y-85500001D01*
X145741428Y-85857143D01*
X145670000Y-86142858D01*
X145598571Y-86285715D01*
X145527142Y-86357143D01*
X145384285Y-86428572D01*
X145241428Y-86428572D01*
X145098571Y-86357143D01*
X145027142Y-86285715D01*
X144955714Y-86142858D01*
X144884285Y-85857143D01*
X144884285Y-85500001D01*
X144955714Y-85214286D01*
X145027142Y-85071429D01*
X145098571Y-85000001D01*
X145241428Y-84928572D01*
X147527142Y-86428572D02*
X147527142Y-85428572D01*
X147527142Y-85571429D02*
X147598571Y-85500001D01*
X147741428Y-85428572D01*
X147955714Y-85428572D01*
X148098571Y-85500001D01*
X148170000Y-85642858D01*
X148170000Y-86428572D01*
X148170000Y-85642858D02*
X148241428Y-85500001D01*
X148384285Y-85428572D01*
X148598571Y-85428572D01*
X148741428Y-85500001D01*
X148812857Y-85642858D01*
X148812857Y-86428572D01*
X149527142Y-86428572D02*
X149527142Y-85428572D01*
X149527142Y-85571429D02*
X149598571Y-85500001D01*
X149741428Y-85428572D01*
X149955714Y-85428572D01*
X150098571Y-85500001D01*
X150170000Y-85642858D01*
X150170000Y-86428572D01*
X150170000Y-85642858D02*
X150241428Y-85500001D01*
X150384285Y-85428572D01*
X150598571Y-85428572D01*
X150741428Y-85500001D01*
X150812857Y-85642858D01*
X150812857Y-86428572D01*
X126890000Y-87850001D02*
X162450000Y-87850001D01*
X126890000Y-90420000D02*
X126890000Y-87263580D01*
X162450000Y-90420000D02*
X162450000Y-87263580D01*
X162450000Y-87850001D02*
X161323496Y-88436422D01*
X162450000Y-87850001D02*
X161323496Y-87263580D01*
X126890000Y-87850001D02*
X128016504Y-88436422D01*
X126890000Y-87850001D02*
X128016504Y-87263580D01*
D11*
G04 #@! TO.C,Y2*
X138730000Y-94060000D02*
X138730000Y-95660000D01*
X138730000Y-95660000D02*
X141730000Y-95660000D01*
X141230000Y-94060000D02*
X141730000Y-94560000D01*
X141230000Y-94060000D02*
X138730000Y-94060000D01*
X141730000Y-94560000D02*
X141730000Y-95660000D01*
G04 #@! TO.C,J1*
X126890000Y-110740000D02*
X126890000Y-90420000D01*
X129430000Y-110740000D02*
X126890000Y-110740000D01*
X129430000Y-91055000D02*
X129430000Y-110740000D01*
X128795000Y-90420000D02*
X129430000Y-91055000D01*
X126890000Y-90420000D02*
X128795000Y-90420000D01*
G04 #@! TO.C,J4*
X159910000Y-110740000D02*
X159910000Y-90420000D01*
X162450000Y-110740000D02*
X159910000Y-110740000D01*
X162450000Y-91055000D02*
X162450000Y-110740000D01*
X161815000Y-90420000D02*
X162450000Y-91055000D01*
X159910000Y-90420000D02*
X161815000Y-90420000D01*
G04 #@! TO.C,J2*
X129430000Y-110105000D02*
X129430000Y-108200000D01*
X129430000Y-108200000D02*
X159910000Y-108200000D01*
X159910000Y-108200000D02*
X159910000Y-110740000D01*
X159910000Y-110740000D02*
X130065000Y-110740000D01*
X130065000Y-110740000D02*
X129430000Y-110105000D01*
G04 #@! TO.C,J3*
X159910000Y-91055000D02*
X159910000Y-92960000D01*
X159910000Y-92960000D02*
X129430000Y-92960000D01*
X129430000Y-92960000D02*
X129430000Y-90420000D01*
X129430000Y-90420000D02*
X159275000Y-90420000D01*
X159275000Y-90420000D02*
X159910000Y-91055000D01*
G04 #@! TO.C,SW1*
X136940000Y-103800000D02*
X136940000Y-107400000D01*
X130940000Y-103800000D02*
X130940000Y-107400000D01*
X130940000Y-103800000D02*
X136940000Y-103800000D01*
X130940000Y-107400000D02*
X136940000Y-107400000D01*
X132440000Y-104800000D02*
X132440000Y-106400000D01*
X135440000Y-104800000D02*
X135440000Y-106400000D01*
X132440000Y-104800000D02*
X135440000Y-104800000D01*
X132440000Y-106400000D02*
X135440000Y-106400000D01*
X132190000Y-106600000D02*
X132190000Y-104600000D01*
X135690000Y-106600000D02*
X132190000Y-106600000D01*
X135690000Y-104600000D02*
X135690000Y-106600000D01*
X132190000Y-104600000D02*
X135690000Y-104600000D01*
G04 #@! TO.C,C1*
X136300000Y-103200000D02*
X136300000Y-102400000D01*
X136300000Y-102400000D02*
X137900000Y-102400000D01*
X137900000Y-102400000D02*
X137900000Y-103200000D01*
X137900000Y-103200000D02*
X136300000Y-103200000D01*
G04 #@! TO.C,C2*
X151950000Y-101050000D02*
X151950000Y-102650000D01*
X151150000Y-101050000D02*
X151950000Y-101050000D01*
X151150000Y-102650000D02*
X151150000Y-101050000D01*
X151950000Y-102650000D02*
X151150000Y-102650000D01*
G04 #@! TO.C,C3*
X147700000Y-94600000D02*
X147700000Y-93800000D01*
X147700000Y-93800000D02*
X149300000Y-93800000D01*
X149300000Y-93800000D02*
X149300000Y-94600000D01*
X149300000Y-94600000D02*
X147700000Y-94600000D01*
G04 #@! TO.C,C4*
X140850000Y-106350000D02*
X142450000Y-106350000D01*
X140850000Y-107150000D02*
X140850000Y-106350000D01*
X142450000Y-107150000D02*
X140850000Y-107150000D01*
X142450000Y-106350000D02*
X142450000Y-107150000D01*
G04 #@! TO.C,C5*
X138050000Y-99350000D02*
X138050000Y-100150000D01*
X138050000Y-100150000D02*
X136450000Y-100150000D01*
X136450000Y-100150000D02*
X136450000Y-99350000D01*
X136450000Y-99350000D02*
X138050000Y-99350000D01*
G04 #@! TO.C,C6*
X138050000Y-97850000D02*
X138050000Y-98650000D01*
X138050000Y-98650000D02*
X136450000Y-98650000D01*
X136450000Y-98650000D02*
X136450000Y-97850000D01*
X136450000Y-97850000D02*
X138050000Y-97850000D01*
G04 #@! TO.C,C7*
X144800000Y-93800000D02*
X146400000Y-93800000D01*
X144800000Y-94600000D02*
X144800000Y-93800000D01*
X146400000Y-94600000D02*
X144800000Y-94600000D01*
X146400000Y-93800000D02*
X146400000Y-94600000D01*
G04 #@! TO.C,C8*
X133500000Y-97150000D02*
X133500000Y-96350000D01*
X133500000Y-96350000D02*
X135100000Y-96350000D01*
X135100000Y-96350000D02*
X135100000Y-97150000D01*
X135100000Y-97150000D02*
X133500000Y-97150000D01*
G04 #@! TO.C,C9*
X136400000Y-96350000D02*
X138000000Y-96350000D01*
X136400000Y-97150000D02*
X136400000Y-96350000D01*
X138000000Y-97150000D02*
X136400000Y-97150000D01*
X138000000Y-96350000D02*
X138000000Y-97150000D01*
G04 #@! TO.C,R1*
X137950000Y-100900000D02*
X137950000Y-101700000D01*
X137950000Y-101700000D02*
X136350000Y-101700000D01*
X136350000Y-101700000D02*
X136350000Y-100900000D01*
X136350000Y-100900000D02*
X137950000Y-100900000D01*
G04 #@! TO.C,R2*
X153425000Y-100850000D02*
X153425000Y-102450000D01*
X152625000Y-100850000D02*
X153425000Y-100850000D01*
X152625000Y-102450000D02*
X152625000Y-100850000D01*
X153425000Y-102450000D02*
X152625000Y-102450000D01*
G04 #@! TO.C,R3*
X152625000Y-98750000D02*
X152625000Y-97150000D01*
X153425000Y-98750000D02*
X152625000Y-98750000D01*
X153425000Y-97150000D02*
X153425000Y-98750000D01*
X152625000Y-97150000D02*
X153425000Y-97150000D01*
G04 #@! TO.C,R4*
X139350000Y-105700000D02*
X139350000Y-104900000D01*
X139350000Y-104900000D02*
X140950000Y-104900000D01*
X140950000Y-104900000D02*
X140950000Y-105700000D01*
X140950000Y-105700000D02*
X139350000Y-105700000D01*
G04 #@! TO.C,U1*
X145832107Y-96482359D02*
X150074747Y-100725000D01*
X150074747Y-100725000D02*
X145125000Y-105674747D01*
X145125000Y-105674747D02*
X140175253Y-100725000D01*
X140175253Y-100725000D02*
X144417893Y-96482359D01*
X144417893Y-96482359D02*
X145832107Y-96482359D01*
G04 #@! TO.C,J5*
X157860000Y-95770000D02*
X158160000Y-95470000D01*
X158160000Y-96070000D02*
X157860000Y-95770000D01*
X156910000Y-95770000D02*
G75*
G03X156910000Y-95770000I-50000J0D01*
G01*
X156985000Y-95770000D02*
G75*
G03X156985000Y-95770000I-125000J0D01*
G01*
X157760000Y-95770000D02*
G75*
G03X157760000Y-95770000I-900000J0D01*
G01*
X155560000Y-97070000D02*
X155560000Y-94470000D01*
X155560000Y-97070000D02*
X157860000Y-97070000D01*
X157860000Y-97070000D02*
X158160000Y-96770000D01*
X155560000Y-94470000D02*
X158160000Y-94470000D01*
X158160000Y-96770000D02*
X158160000Y-94470000D01*
X157060000Y-95770000D02*
G75*
G03X157060000Y-95770000I-200000J0D01*
G01*
G04 #@! TO.C,SW2*
X153740000Y-104590000D02*
X157240000Y-104590000D01*
X157240000Y-104590000D02*
X157240000Y-106590000D01*
X157240000Y-106590000D02*
X153740000Y-106590000D01*
X153740000Y-106590000D02*
X153740000Y-104590000D01*
X153990000Y-106390000D02*
X156990000Y-106390000D01*
X153990000Y-104790000D02*
X156990000Y-104790000D01*
X156990000Y-104790000D02*
X156990000Y-106390000D01*
X153990000Y-104790000D02*
X153990000Y-106390000D01*
X152490000Y-107390000D02*
X158490000Y-107390000D01*
X152490000Y-103790000D02*
X158490000Y-103790000D01*
X152490000Y-103790000D02*
X152490000Y-107390000D01*
X158490000Y-103790000D02*
X158490000Y-107390000D01*
G04 #@! TD*
G04 #@! TO.C,Y2*
D12*
X139925238Y-93036190D02*
X139906190Y-93026666D01*
X139896666Y-93017142D01*
X139887142Y-92998095D01*
X139887142Y-92988571D01*
X139896666Y-92969523D01*
X139906190Y-92960000D01*
X139925238Y-92950476D01*
X139963333Y-92950476D01*
X139982380Y-92960000D01*
X139991904Y-92969523D01*
X140001428Y-92988571D01*
X140001428Y-92998095D01*
X139991904Y-93017142D01*
X139982380Y-93026666D01*
X139963333Y-93036190D01*
X139925238Y-93036190D01*
X139906190Y-93045714D01*
X139896666Y-93055238D01*
X139887142Y-93074285D01*
X139887142Y-93112380D01*
X139896666Y-93131428D01*
X139906190Y-93140952D01*
X139925238Y-93150476D01*
X139963333Y-93150476D01*
X139982380Y-93140952D01*
X139991904Y-93131428D01*
X140001428Y-93112380D01*
X140001428Y-93074285D01*
X139991904Y-93055238D01*
X139982380Y-93045714D01*
X139963333Y-93036190D01*
X140087142Y-93150476D02*
X140087142Y-92950476D01*
X140153809Y-93093333D01*
X140220476Y-92950476D01*
X140220476Y-93150476D01*
X140315714Y-93150476D02*
X140315714Y-92950476D01*
X140401428Y-93150476D02*
X140401428Y-93045714D01*
X140391904Y-93026666D01*
X140372857Y-93017142D01*
X140344285Y-93017142D01*
X140325238Y-93026666D01*
X140315714Y-93036190D01*
X140477619Y-93017142D02*
X140582380Y-93017142D01*
X140477619Y-93150476D01*
X140582380Y-93150476D01*
D13*
X139844285Y-94895714D02*
X139844285Y-95181428D01*
X139644285Y-94581428D02*
X139844285Y-94895714D01*
X140044285Y-94581428D01*
X140215714Y-94638571D02*
X140244285Y-94610000D01*
X140301428Y-94581428D01*
X140444285Y-94581428D01*
X140501428Y-94610000D01*
X140530000Y-94638571D01*
X140558571Y-94695714D01*
X140558571Y-94752857D01*
X140530000Y-94838571D01*
X140187142Y-95181428D01*
X140558571Y-95181428D01*
G04 #@! TO.C,J1*
D14*
X125136190Y-112597142D02*
X125088571Y-112644761D01*
X124945714Y-112692380D01*
X124850476Y-112692380D01*
X124707619Y-112644761D01*
X124612380Y-112549523D01*
X124564761Y-112454285D01*
X124517142Y-112263809D01*
X124517142Y-112120952D01*
X124564761Y-111930476D01*
X124612380Y-111835238D01*
X124707619Y-111740000D01*
X124850476Y-111692380D01*
X124945714Y-111692380D01*
X125088571Y-111740000D01*
X125136190Y-111787619D01*
X125707619Y-112692380D02*
X125612380Y-112644761D01*
X125564761Y-112597142D01*
X125517142Y-112501904D01*
X125517142Y-112216190D01*
X125564761Y-112120952D01*
X125612380Y-112073333D01*
X125707619Y-112025714D01*
X125850476Y-112025714D01*
X125945714Y-112073333D01*
X125993333Y-112120952D01*
X126040952Y-112216190D01*
X126040952Y-112501904D01*
X125993333Y-112597142D01*
X125945714Y-112644761D01*
X125850476Y-112692380D01*
X125707619Y-112692380D01*
X126469523Y-112025714D02*
X126469523Y-112692380D01*
X126469523Y-112120952D02*
X126517142Y-112073333D01*
X126612380Y-112025714D01*
X126755238Y-112025714D01*
X126850476Y-112073333D01*
X126898095Y-112168571D01*
X126898095Y-112692380D01*
X127374285Y-112025714D02*
X127374285Y-112692380D01*
X127374285Y-112120952D02*
X127421904Y-112073333D01*
X127517142Y-112025714D01*
X127660000Y-112025714D01*
X127755238Y-112073333D01*
X127802857Y-112168571D01*
X127802857Y-112692380D01*
X128993333Y-112644761D02*
X129136190Y-112692380D01*
X129374285Y-112692380D01*
X129469523Y-112644761D01*
X129517142Y-112597142D01*
X129564761Y-112501904D01*
X129564761Y-112406666D01*
X129517142Y-112311428D01*
X129469523Y-112263809D01*
X129374285Y-112216190D01*
X129183809Y-112168571D01*
X129088571Y-112120952D01*
X129040952Y-112073333D01*
X128993333Y-111978095D01*
X128993333Y-111882857D01*
X129040952Y-111787619D01*
X129088571Y-111740000D01*
X129183809Y-111692380D01*
X129421904Y-111692380D01*
X129564761Y-111740000D01*
X129993333Y-112692380D02*
X129993333Y-112025714D01*
X129993333Y-111692380D02*
X129945714Y-111740000D01*
X129993333Y-111787619D01*
X130040952Y-111740000D01*
X129993333Y-111692380D01*
X129993333Y-111787619D01*
X130898095Y-112692380D02*
X130898095Y-111692380D01*
X130898095Y-112644761D02*
X130802857Y-112692380D01*
X130612380Y-112692380D01*
X130517142Y-112644761D01*
X130469523Y-112597142D01*
X130421904Y-112501904D01*
X130421904Y-112216190D01*
X130469523Y-112120952D01*
X130517142Y-112073333D01*
X130612380Y-112025714D01*
X130802857Y-112025714D01*
X130898095Y-112073333D01*
X131755238Y-112644761D02*
X131660000Y-112692380D01*
X131469523Y-112692380D01*
X131374285Y-112644761D01*
X131326666Y-112549523D01*
X131326666Y-112168571D01*
X131374285Y-112073333D01*
X131469523Y-112025714D01*
X131660000Y-112025714D01*
X131755238Y-112073333D01*
X131802857Y-112168571D01*
X131802857Y-112263809D01*
X131326666Y-112359047D01*
X127612380Y-100913333D02*
X128326666Y-100913333D01*
X128469523Y-100960952D01*
X128564761Y-101056190D01*
X128612380Y-101199047D01*
X128612380Y-101294285D01*
X128612380Y-99913333D02*
X128612380Y-100484761D01*
X128612380Y-100199047D02*
X127612380Y-100199047D01*
X127755238Y-100294285D01*
X127850476Y-100389523D01*
X127898095Y-100484761D01*
G04 #@! TO.C,J4*
X158037142Y-112597142D02*
X157989523Y-112644761D01*
X157846666Y-112692380D01*
X157751428Y-112692380D01*
X157608571Y-112644761D01*
X157513333Y-112549523D01*
X157465714Y-112454285D01*
X157418095Y-112263809D01*
X157418095Y-112120952D01*
X157465714Y-111930476D01*
X157513333Y-111835238D01*
X157608571Y-111740000D01*
X157751428Y-111692380D01*
X157846666Y-111692380D01*
X157989523Y-111740000D01*
X158037142Y-111787619D01*
X158608571Y-112692380D02*
X158513333Y-112644761D01*
X158465714Y-112597142D01*
X158418095Y-112501904D01*
X158418095Y-112216190D01*
X158465714Y-112120952D01*
X158513333Y-112073333D01*
X158608571Y-112025714D01*
X158751428Y-112025714D01*
X158846666Y-112073333D01*
X158894285Y-112120952D01*
X158941904Y-112216190D01*
X158941904Y-112501904D01*
X158894285Y-112597142D01*
X158846666Y-112644761D01*
X158751428Y-112692380D01*
X158608571Y-112692380D01*
X159370476Y-112025714D02*
X159370476Y-112692380D01*
X159370476Y-112120952D02*
X159418095Y-112073333D01*
X159513333Y-112025714D01*
X159656190Y-112025714D01*
X159751428Y-112073333D01*
X159799047Y-112168571D01*
X159799047Y-112692380D01*
X160275238Y-112025714D02*
X160275238Y-112692380D01*
X160275238Y-112120952D02*
X160322857Y-112073333D01*
X160418095Y-112025714D01*
X160560952Y-112025714D01*
X160656190Y-112073333D01*
X160703809Y-112168571D01*
X160703809Y-112692380D01*
X161941904Y-112692380D02*
X161941904Y-111692380D01*
X162322857Y-111692380D01*
X162418095Y-111740000D01*
X162465714Y-111787619D01*
X162513333Y-111882857D01*
X162513333Y-112025714D01*
X162465714Y-112120952D01*
X162418095Y-112168571D01*
X162322857Y-112216190D01*
X161941904Y-112216190D01*
X162941904Y-112692380D02*
X162941904Y-112025714D01*
X162941904Y-112216190D02*
X162989523Y-112120952D01*
X163037142Y-112073333D01*
X163132380Y-112025714D01*
X163227619Y-112025714D01*
X163703809Y-112692380D02*
X163608571Y-112644761D01*
X163560952Y-112597142D01*
X163513333Y-112501904D01*
X163513333Y-112216190D01*
X163560952Y-112120952D01*
X163608571Y-112073333D01*
X163703809Y-112025714D01*
X163846666Y-112025714D01*
X163941904Y-112073333D01*
X163989523Y-112120952D01*
X164037142Y-112216190D01*
X164037142Y-112501904D01*
X163989523Y-112597142D01*
X163941904Y-112644761D01*
X163846666Y-112692380D01*
X163703809Y-112692380D01*
X164894285Y-112025714D02*
X164894285Y-112835238D01*
X164846666Y-112930476D01*
X164799047Y-112978095D01*
X164703809Y-113025714D01*
X164560952Y-113025714D01*
X164465714Y-112978095D01*
X164894285Y-112644761D02*
X164799047Y-112692380D01*
X164608571Y-112692380D01*
X164513333Y-112644761D01*
X164465714Y-112597142D01*
X164418095Y-112501904D01*
X164418095Y-112216190D01*
X164465714Y-112120952D01*
X164513333Y-112073333D01*
X164608571Y-112025714D01*
X164799047Y-112025714D01*
X164894285Y-112073333D01*
X160632380Y-100913333D02*
X161346666Y-100913333D01*
X161489523Y-100960952D01*
X161584761Y-101056190D01*
X161632380Y-101199047D01*
X161632380Y-101294285D01*
X160965714Y-100008571D02*
X161632380Y-100008571D01*
X160584761Y-100246666D02*
X161299047Y-100484761D01*
X161299047Y-99865714D01*
G04 #@! TO.C,J2*
X161327142Y-112827142D02*
X161374761Y-112874761D01*
X161422380Y-113017619D01*
X161422380Y-113112857D01*
X161374761Y-113255714D01*
X161279523Y-113350952D01*
X161184285Y-113398571D01*
X160993809Y-113446190D01*
X160850952Y-113446190D01*
X160660476Y-113398571D01*
X160565238Y-113350952D01*
X160470000Y-113255714D01*
X160422380Y-113112857D01*
X160422380Y-113017619D01*
X160470000Y-112874761D01*
X160517619Y-112827142D01*
X161422380Y-112255714D02*
X161374761Y-112350952D01*
X161327142Y-112398571D01*
X161231904Y-112446190D01*
X160946190Y-112446190D01*
X160850952Y-112398571D01*
X160803333Y-112350952D01*
X160755714Y-112255714D01*
X160755714Y-112112857D01*
X160803333Y-112017619D01*
X160850952Y-111970000D01*
X160946190Y-111922380D01*
X161231904Y-111922380D01*
X161327142Y-111970000D01*
X161374761Y-112017619D01*
X161422380Y-112112857D01*
X161422380Y-112255714D01*
X160755714Y-111493809D02*
X161422380Y-111493809D01*
X160850952Y-111493809D02*
X160803333Y-111446190D01*
X160755714Y-111350952D01*
X160755714Y-111208095D01*
X160803333Y-111112857D01*
X160898571Y-111065238D01*
X161422380Y-111065238D01*
X160755714Y-110589047D02*
X161422380Y-110589047D01*
X160850952Y-110589047D02*
X160803333Y-110541428D01*
X160755714Y-110446190D01*
X160755714Y-110303333D01*
X160803333Y-110208095D01*
X160898571Y-110160476D01*
X161422380Y-110160476D01*
X161422380Y-108922380D02*
X160422380Y-108922380D01*
X160422380Y-108684285D01*
X160470000Y-108541428D01*
X160565238Y-108446190D01*
X160660476Y-108398571D01*
X160850952Y-108350952D01*
X160993809Y-108350952D01*
X161184285Y-108398571D01*
X161279523Y-108446190D01*
X161374761Y-108541428D01*
X161422380Y-108684285D01*
X161422380Y-108922380D01*
X161422380Y-107779523D02*
X161374761Y-107874761D01*
X161327142Y-107922380D01*
X161231904Y-107970000D01*
X160946190Y-107970000D01*
X160850952Y-107922380D01*
X160803333Y-107874761D01*
X160755714Y-107779523D01*
X160755714Y-107636666D01*
X160803333Y-107541428D01*
X160850952Y-107493809D01*
X160946190Y-107446190D01*
X161231904Y-107446190D01*
X161327142Y-107493809D01*
X161374761Y-107541428D01*
X161422380Y-107636666D01*
X161422380Y-107779523D01*
X160755714Y-107112857D02*
X161422380Y-106922380D01*
X160946190Y-106731904D01*
X161422380Y-106541428D01*
X160755714Y-106350952D01*
X160755714Y-105970000D02*
X161422380Y-105970000D01*
X160850952Y-105970000D02*
X160803333Y-105922380D01*
X160755714Y-105827142D01*
X160755714Y-105684285D01*
X160803333Y-105589047D01*
X160898571Y-105541428D01*
X161422380Y-105541428D01*
X144336666Y-108922380D02*
X144336666Y-109636666D01*
X144289047Y-109779523D01*
X144193809Y-109874761D01*
X144050952Y-109922380D01*
X143955714Y-109922380D01*
X144765238Y-109017619D02*
X144812857Y-108970000D01*
X144908095Y-108922380D01*
X145146190Y-108922380D01*
X145241428Y-108970000D01*
X145289047Y-109017619D01*
X145336666Y-109112857D01*
X145336666Y-109208095D01*
X145289047Y-109350952D01*
X144717619Y-109922380D01*
X145336666Y-109922380D01*
G04 #@! TO.C,J3*
X128727142Y-94094761D02*
X128774761Y-94142380D01*
X128822380Y-94285238D01*
X128822380Y-94380476D01*
X128774761Y-94523333D01*
X128679523Y-94618571D01*
X128584285Y-94666190D01*
X128393809Y-94713809D01*
X128250952Y-94713809D01*
X128060476Y-94666190D01*
X127965238Y-94618571D01*
X127870000Y-94523333D01*
X127822380Y-94380476D01*
X127822380Y-94285238D01*
X127870000Y-94142380D01*
X127917619Y-94094761D01*
X128822380Y-93523333D02*
X128774761Y-93618571D01*
X128727142Y-93666190D01*
X128631904Y-93713809D01*
X128346190Y-93713809D01*
X128250952Y-93666190D01*
X128203333Y-93618571D01*
X128155714Y-93523333D01*
X128155714Y-93380476D01*
X128203333Y-93285238D01*
X128250952Y-93237619D01*
X128346190Y-93190000D01*
X128631904Y-93190000D01*
X128727142Y-93237619D01*
X128774761Y-93285238D01*
X128822380Y-93380476D01*
X128822380Y-93523333D01*
X128155714Y-92761428D02*
X128822380Y-92761428D01*
X128250952Y-92761428D02*
X128203333Y-92713809D01*
X128155714Y-92618571D01*
X128155714Y-92475714D01*
X128203333Y-92380476D01*
X128298571Y-92332857D01*
X128822380Y-92332857D01*
X128155714Y-91856666D02*
X128822380Y-91856666D01*
X128250952Y-91856666D02*
X128203333Y-91809047D01*
X128155714Y-91713809D01*
X128155714Y-91570952D01*
X128203333Y-91475714D01*
X128298571Y-91428095D01*
X128822380Y-91428095D01*
X127822380Y-90190000D02*
X128631904Y-90190000D01*
X128727142Y-90142380D01*
X128774761Y-90094761D01*
X128822380Y-89999523D01*
X128822380Y-89809047D01*
X128774761Y-89713809D01*
X128727142Y-89666190D01*
X128631904Y-89618571D01*
X127822380Y-89618571D01*
X128155714Y-89142380D02*
X129155714Y-89142380D01*
X128203333Y-89142380D02*
X128155714Y-89047142D01*
X128155714Y-88856666D01*
X128203333Y-88761428D01*
X128250952Y-88713809D01*
X128346190Y-88666190D01*
X128631904Y-88666190D01*
X128727142Y-88713809D01*
X128774761Y-88761428D01*
X128822380Y-88856666D01*
X128822380Y-89047142D01*
X128774761Y-89142380D01*
X144336666Y-91142380D02*
X144336666Y-91856666D01*
X144289047Y-91999523D01*
X144193809Y-92094761D01*
X144050952Y-92142380D01*
X143955714Y-92142380D01*
X144717619Y-91142380D02*
X145336666Y-91142380D01*
X145003333Y-91523333D01*
X145146190Y-91523333D01*
X145241428Y-91570952D01*
X145289047Y-91618571D01*
X145336666Y-91713809D01*
X145336666Y-91951904D01*
X145289047Y-92047142D01*
X145241428Y-92094761D01*
X145146190Y-92142380D01*
X144860476Y-92142380D01*
X144765238Y-92094761D01*
X144717619Y-92047142D01*
G04 #@! TO.C,SW1*
X130654285Y-109004761D02*
X130797142Y-109052380D01*
X131035238Y-109052380D01*
X131130476Y-109004761D01*
X131178095Y-108957142D01*
X131225714Y-108861904D01*
X131225714Y-108766666D01*
X131178095Y-108671428D01*
X131130476Y-108623809D01*
X131035238Y-108576190D01*
X130844761Y-108528571D01*
X130749523Y-108480952D01*
X130701904Y-108433333D01*
X130654285Y-108338095D01*
X130654285Y-108242857D01*
X130701904Y-108147619D01*
X130749523Y-108100000D01*
X130844761Y-108052380D01*
X131082857Y-108052380D01*
X131225714Y-108100000D01*
X131559047Y-108052380D02*
X131797142Y-109052380D01*
X131987619Y-108338095D01*
X132178095Y-109052380D01*
X132416190Y-108052380D01*
X132559047Y-109147619D02*
X133320952Y-109147619D01*
X134130476Y-109052380D02*
X133797142Y-108576190D01*
X133559047Y-109052380D02*
X133559047Y-108052380D01*
X133940000Y-108052380D01*
X134035238Y-108100000D01*
X134082857Y-108147619D01*
X134130476Y-108242857D01*
X134130476Y-108385714D01*
X134082857Y-108480952D01*
X134035238Y-108528571D01*
X133940000Y-108576190D01*
X133559047Y-108576190D01*
X134940000Y-109004761D02*
X134844761Y-109052380D01*
X134654285Y-109052380D01*
X134559047Y-109004761D01*
X134511428Y-108909523D01*
X134511428Y-108528571D01*
X134559047Y-108433333D01*
X134654285Y-108385714D01*
X134844761Y-108385714D01*
X134940000Y-108433333D01*
X134987619Y-108528571D01*
X134987619Y-108623809D01*
X134511428Y-108719047D01*
X135368571Y-109004761D02*
X135463809Y-109052380D01*
X135654285Y-109052380D01*
X135749523Y-109004761D01*
X135797142Y-108909523D01*
X135797142Y-108861904D01*
X135749523Y-108766666D01*
X135654285Y-108719047D01*
X135511428Y-108719047D01*
X135416190Y-108671428D01*
X135368571Y-108576190D01*
X135368571Y-108528571D01*
X135416190Y-108433333D01*
X135511428Y-108385714D01*
X135654285Y-108385714D01*
X135749523Y-108433333D01*
X136606666Y-109004761D02*
X136511428Y-109052380D01*
X136320952Y-109052380D01*
X136225714Y-109004761D01*
X136178095Y-108909523D01*
X136178095Y-108528571D01*
X136225714Y-108433333D01*
X136320952Y-108385714D01*
X136511428Y-108385714D01*
X136606666Y-108433333D01*
X136654285Y-108528571D01*
X136654285Y-108623809D01*
X136178095Y-108719047D01*
X136940000Y-108385714D02*
X137320952Y-108385714D01*
X137082857Y-108052380D02*
X137082857Y-108909523D01*
X137130476Y-109004761D01*
X137225714Y-109052380D01*
X137320952Y-109052380D01*
X132606666Y-103404761D02*
X132749523Y-103452380D01*
X132987619Y-103452380D01*
X133082857Y-103404761D01*
X133130476Y-103357142D01*
X133178095Y-103261904D01*
X133178095Y-103166666D01*
X133130476Y-103071428D01*
X133082857Y-103023809D01*
X132987619Y-102976190D01*
X132797142Y-102928571D01*
X132701904Y-102880952D01*
X132654285Y-102833333D01*
X132606666Y-102738095D01*
X132606666Y-102642857D01*
X132654285Y-102547619D01*
X132701904Y-102500000D01*
X132797142Y-102452380D01*
X133035238Y-102452380D01*
X133178095Y-102500000D01*
X133511428Y-102452380D02*
X133749523Y-103452380D01*
X133940000Y-102738095D01*
X134130476Y-103452380D01*
X134368571Y-102452380D01*
X135273333Y-103452380D02*
X134701904Y-103452380D01*
X134987619Y-103452380D02*
X134987619Y-102452380D01*
X134892380Y-102595238D01*
X134797142Y-102690476D01*
X134701904Y-102738095D01*
G04 #@! TO.C,C1*
X136504761Y-104682380D02*
X135933333Y-104682380D01*
X136219047Y-104682380D02*
X136219047Y-103682380D01*
X136123809Y-103825238D01*
X136028571Y-103920476D01*
X135933333Y-103968095D01*
X137361904Y-104015714D02*
X137361904Y-104682380D01*
X136933333Y-104015714D02*
X136933333Y-104539523D01*
X136980952Y-104634761D01*
X137076190Y-104682380D01*
X137219047Y-104682380D01*
X137314285Y-104634761D01*
X137361904Y-104587142D01*
X138171428Y-104158571D02*
X137838095Y-104158571D01*
X137838095Y-104682380D02*
X137838095Y-103682380D01*
X138314285Y-103682380D01*
D15*
X137033333Y-102942857D02*
X137014285Y-102961904D01*
X136957142Y-102980952D01*
X136919047Y-102980952D01*
X136861904Y-102961904D01*
X136823809Y-102923809D01*
X136804761Y-102885714D01*
X136785714Y-102809523D01*
X136785714Y-102752380D01*
X136804761Y-102676190D01*
X136823809Y-102638095D01*
X136861904Y-102600000D01*
X136919047Y-102580952D01*
X136957142Y-102580952D01*
X137014285Y-102600000D01*
X137033333Y-102619047D01*
X137414285Y-102980952D02*
X137185714Y-102980952D01*
X137300000Y-102980952D02*
X137300000Y-102580952D01*
X137261904Y-102638095D01*
X137223809Y-102676190D01*
X137185714Y-102695238D01*
G04 #@! TO.C,C2*
D14*
X152432380Y-103492857D02*
X152432380Y-103397619D01*
X152480000Y-103302380D01*
X152527619Y-103254761D01*
X152622857Y-103207142D01*
X152813333Y-103159523D01*
X153051428Y-103159523D01*
X153241904Y-103207142D01*
X153337142Y-103254761D01*
X153384761Y-103302380D01*
X153432380Y-103397619D01*
X153432380Y-103492857D01*
X153384761Y-103588095D01*
X153337142Y-103635714D01*
X153241904Y-103683333D01*
X153051428Y-103730952D01*
X152813333Y-103730952D01*
X152622857Y-103683333D01*
X152527619Y-103635714D01*
X152480000Y-103588095D01*
X152432380Y-103492857D01*
X153337142Y-102730952D02*
X153384761Y-102683333D01*
X153432380Y-102730952D01*
X153384761Y-102778571D01*
X153337142Y-102730952D01*
X153432380Y-102730952D01*
X153432380Y-101730952D02*
X153432380Y-102302380D01*
X153432380Y-102016666D02*
X152432380Y-102016666D01*
X152575238Y-102111904D01*
X152670476Y-102207142D01*
X152718095Y-102302380D01*
X152765714Y-100873809D02*
X153432380Y-100873809D01*
X152765714Y-101302380D02*
X153289523Y-101302380D01*
X153384761Y-101254761D01*
X153432380Y-101159523D01*
X153432380Y-101016666D01*
X153384761Y-100921428D01*
X153337142Y-100873809D01*
X152908571Y-100064285D02*
X152908571Y-100397619D01*
X153432380Y-100397619D02*
X152432380Y-100397619D01*
X152432380Y-99921428D01*
D15*
X151692857Y-101916666D02*
X151711904Y-101935714D01*
X151730952Y-101992857D01*
X151730952Y-102030952D01*
X151711904Y-102088095D01*
X151673809Y-102126190D01*
X151635714Y-102145238D01*
X151559523Y-102164285D01*
X151502380Y-102164285D01*
X151426190Y-102145238D01*
X151388095Y-102126190D01*
X151350000Y-102088095D01*
X151330952Y-102030952D01*
X151330952Y-101992857D01*
X151350000Y-101935714D01*
X151369047Y-101916666D01*
X151369047Y-101764285D02*
X151350000Y-101745238D01*
X151330952Y-101707142D01*
X151330952Y-101611904D01*
X151350000Y-101573809D01*
X151369047Y-101554761D01*
X151407142Y-101535714D01*
X151445238Y-101535714D01*
X151502380Y-101554761D01*
X151730952Y-101783333D01*
X151730952Y-101535714D01*
G04 #@! TO.C,C3*
D14*
X146857142Y-95082380D02*
X146952380Y-95082380D01*
X147047619Y-95130000D01*
X147095238Y-95177619D01*
X147142857Y-95272857D01*
X147190476Y-95463333D01*
X147190476Y-95701428D01*
X147142857Y-95891904D01*
X147095238Y-95987142D01*
X147047619Y-96034761D01*
X146952380Y-96082380D01*
X146857142Y-96082380D01*
X146761904Y-96034761D01*
X146714285Y-95987142D01*
X146666666Y-95891904D01*
X146619047Y-95701428D01*
X146619047Y-95463333D01*
X146666666Y-95272857D01*
X146714285Y-95177619D01*
X146761904Y-95130000D01*
X146857142Y-95082380D01*
X147619047Y-95987142D02*
X147666666Y-96034761D01*
X147619047Y-96082380D01*
X147571428Y-96034761D01*
X147619047Y-95987142D01*
X147619047Y-96082380D01*
X148619047Y-96082380D02*
X148047619Y-96082380D01*
X148333333Y-96082380D02*
X148333333Y-95082380D01*
X148238095Y-95225238D01*
X148142857Y-95320476D01*
X148047619Y-95368095D01*
X149476190Y-95415714D02*
X149476190Y-96082380D01*
X149047619Y-95415714D02*
X149047619Y-95939523D01*
X149095238Y-96034761D01*
X149190476Y-96082380D01*
X149333333Y-96082380D01*
X149428571Y-96034761D01*
X149476190Y-95987142D01*
X150285714Y-95558571D02*
X149952380Y-95558571D01*
X149952380Y-96082380D02*
X149952380Y-95082380D01*
X150428571Y-95082380D01*
D15*
X148433333Y-94342857D02*
X148414285Y-94361904D01*
X148357142Y-94380952D01*
X148319047Y-94380952D01*
X148261904Y-94361904D01*
X148223809Y-94323809D01*
X148204761Y-94285714D01*
X148185714Y-94209523D01*
X148185714Y-94152380D01*
X148204761Y-94076190D01*
X148223809Y-94038095D01*
X148261904Y-94000000D01*
X148319047Y-93980952D01*
X148357142Y-93980952D01*
X148414285Y-94000000D01*
X148433333Y-94019047D01*
X148566666Y-93980952D02*
X148814285Y-93980952D01*
X148680952Y-94133333D01*
X148738095Y-94133333D01*
X148776190Y-94152380D01*
X148795238Y-94171428D01*
X148814285Y-94209523D01*
X148814285Y-94304761D01*
X148795238Y-94342857D01*
X148776190Y-94361904D01*
X148738095Y-94380952D01*
X148623809Y-94380952D01*
X148585714Y-94361904D01*
X148566666Y-94342857D01*
G04 #@! TO.C,C4*
D14*
X140007142Y-104772380D02*
X140102380Y-104772380D01*
X140197619Y-104820000D01*
X140245238Y-104867619D01*
X140292857Y-104962857D01*
X140340476Y-105153333D01*
X140340476Y-105391428D01*
X140292857Y-105581904D01*
X140245238Y-105677142D01*
X140197619Y-105724761D01*
X140102380Y-105772380D01*
X140007142Y-105772380D01*
X139911904Y-105724761D01*
X139864285Y-105677142D01*
X139816666Y-105581904D01*
X139769047Y-105391428D01*
X139769047Y-105153333D01*
X139816666Y-104962857D01*
X139864285Y-104867619D01*
X139911904Y-104820000D01*
X140007142Y-104772380D01*
X140769047Y-105677142D02*
X140816666Y-105724761D01*
X140769047Y-105772380D01*
X140721428Y-105724761D01*
X140769047Y-105677142D01*
X140769047Y-105772380D01*
X141769047Y-105772380D02*
X141197619Y-105772380D01*
X141483333Y-105772380D02*
X141483333Y-104772380D01*
X141388095Y-104915238D01*
X141292857Y-105010476D01*
X141197619Y-105058095D01*
X142626190Y-105105714D02*
X142626190Y-105772380D01*
X142197619Y-105105714D02*
X142197619Y-105629523D01*
X142245238Y-105724761D01*
X142340476Y-105772380D01*
X142483333Y-105772380D01*
X142578571Y-105724761D01*
X142626190Y-105677142D01*
X143435714Y-105248571D02*
X143102380Y-105248571D01*
X143102380Y-105772380D02*
X143102380Y-104772380D01*
X143578571Y-104772380D01*
D15*
X141583333Y-106892857D02*
X141564285Y-106911904D01*
X141507142Y-106930952D01*
X141469047Y-106930952D01*
X141411904Y-106911904D01*
X141373809Y-106873809D01*
X141354761Y-106835714D01*
X141335714Y-106759523D01*
X141335714Y-106702380D01*
X141354761Y-106626190D01*
X141373809Y-106588095D01*
X141411904Y-106550000D01*
X141469047Y-106530952D01*
X141507142Y-106530952D01*
X141564285Y-106550000D01*
X141583333Y-106569047D01*
X141926190Y-106664285D02*
X141926190Y-106930952D01*
X141830952Y-106511904D02*
X141735714Y-106797619D01*
X141983333Y-106797619D01*
G04 #@! TO.C,C5*
D14*
X135607142Y-97772380D02*
X135702380Y-97772380D01*
X135797619Y-97820000D01*
X135845238Y-97867619D01*
X135892857Y-97962857D01*
X135940476Y-98153333D01*
X135940476Y-98391428D01*
X135892857Y-98581904D01*
X135845238Y-98677142D01*
X135797619Y-98724761D01*
X135702380Y-98772380D01*
X135607142Y-98772380D01*
X135511904Y-98724761D01*
X135464285Y-98677142D01*
X135416666Y-98581904D01*
X135369047Y-98391428D01*
X135369047Y-98153333D01*
X135416666Y-97962857D01*
X135464285Y-97867619D01*
X135511904Y-97820000D01*
X135607142Y-97772380D01*
X136369047Y-98677142D02*
X136416666Y-98724761D01*
X136369047Y-98772380D01*
X136321428Y-98724761D01*
X136369047Y-98677142D01*
X136369047Y-98772380D01*
X137369047Y-98772380D02*
X136797619Y-98772380D01*
X137083333Y-98772380D02*
X137083333Y-97772380D01*
X136988095Y-97915238D01*
X136892857Y-98010476D01*
X136797619Y-98058095D01*
X138226190Y-98105714D02*
X138226190Y-98772380D01*
X137797619Y-98105714D02*
X137797619Y-98629523D01*
X137845238Y-98724761D01*
X137940476Y-98772380D01*
X138083333Y-98772380D01*
X138178571Y-98724761D01*
X138226190Y-98677142D01*
X139035714Y-98248571D02*
X138702380Y-98248571D01*
X138702380Y-98772380D02*
X138702380Y-97772380D01*
X139178571Y-97772380D01*
D15*
X137183333Y-99892857D02*
X137164285Y-99911904D01*
X137107142Y-99930952D01*
X137069047Y-99930952D01*
X137011904Y-99911904D01*
X136973809Y-99873809D01*
X136954761Y-99835714D01*
X136935714Y-99759523D01*
X136935714Y-99702380D01*
X136954761Y-99626190D01*
X136973809Y-99588095D01*
X137011904Y-99550000D01*
X137069047Y-99530952D01*
X137107142Y-99530952D01*
X137164285Y-99550000D01*
X137183333Y-99569047D01*
X137545238Y-99530952D02*
X137354761Y-99530952D01*
X137335714Y-99721428D01*
X137354761Y-99702380D01*
X137392857Y-99683333D01*
X137488095Y-99683333D01*
X137526190Y-99702380D01*
X137545238Y-99721428D01*
X137564285Y-99759523D01*
X137564285Y-99854761D01*
X137545238Y-99892857D01*
X137526190Y-99911904D01*
X137488095Y-99930952D01*
X137392857Y-99930952D01*
X137354761Y-99911904D01*
X137335714Y-99892857D01*
G04 #@! TO.C,C6*
D14*
X136178571Y-97272380D02*
X135607142Y-97272380D01*
X135892857Y-97272380D02*
X135892857Y-96272380D01*
X135797619Y-96415238D01*
X135702380Y-96510476D01*
X135607142Y-96558095D01*
X136797619Y-96272380D02*
X136892857Y-96272380D01*
X136988095Y-96320000D01*
X137035714Y-96367619D01*
X137083333Y-96462857D01*
X137130952Y-96653333D01*
X137130952Y-96891428D01*
X137083333Y-97081904D01*
X137035714Y-97177142D01*
X136988095Y-97224761D01*
X136892857Y-97272380D01*
X136797619Y-97272380D01*
X136702380Y-97224761D01*
X136654761Y-97177142D01*
X136607142Y-97081904D01*
X136559523Y-96891428D01*
X136559523Y-96653333D01*
X136607142Y-96462857D01*
X136654761Y-96367619D01*
X136702380Y-96320000D01*
X136797619Y-96272380D01*
X137988095Y-96605714D02*
X137988095Y-97272380D01*
X137559523Y-96605714D02*
X137559523Y-97129523D01*
X137607142Y-97224761D01*
X137702380Y-97272380D01*
X137845238Y-97272380D01*
X137940476Y-97224761D01*
X137988095Y-97177142D01*
X138797619Y-96748571D02*
X138464285Y-96748571D01*
X138464285Y-97272380D02*
X138464285Y-96272380D01*
X138940476Y-96272380D01*
D15*
X137183333Y-98392857D02*
X137164285Y-98411904D01*
X137107142Y-98430952D01*
X137069047Y-98430952D01*
X137011904Y-98411904D01*
X136973809Y-98373809D01*
X136954761Y-98335714D01*
X136935714Y-98259523D01*
X136935714Y-98202380D01*
X136954761Y-98126190D01*
X136973809Y-98088095D01*
X137011904Y-98050000D01*
X137069047Y-98030952D01*
X137107142Y-98030952D01*
X137164285Y-98050000D01*
X137183333Y-98069047D01*
X137526190Y-98030952D02*
X137450000Y-98030952D01*
X137411904Y-98050000D01*
X137392857Y-98069047D01*
X137354761Y-98126190D01*
X137335714Y-98202380D01*
X137335714Y-98354761D01*
X137354761Y-98392857D01*
X137373809Y-98411904D01*
X137411904Y-98430952D01*
X137488095Y-98430952D01*
X137526190Y-98411904D01*
X137545238Y-98392857D01*
X137564285Y-98354761D01*
X137564285Y-98259523D01*
X137545238Y-98221428D01*
X137526190Y-98202380D01*
X137488095Y-98183333D01*
X137411904Y-98183333D01*
X137373809Y-98202380D01*
X137354761Y-98221428D01*
X137335714Y-98259523D01*
G04 #@! TO.C,C7*
D14*
X144052380Y-93222380D02*
X143480952Y-93222380D01*
X143766666Y-93222380D02*
X143766666Y-92222380D01*
X143671428Y-92365238D01*
X143576190Y-92460476D01*
X143480952Y-92508095D01*
X144671428Y-92222380D02*
X144766666Y-92222380D01*
X144861904Y-92270000D01*
X144909523Y-92317619D01*
X144957142Y-92412857D01*
X145004761Y-92603333D01*
X145004761Y-92841428D01*
X144957142Y-93031904D01*
X144909523Y-93127142D01*
X144861904Y-93174761D01*
X144766666Y-93222380D01*
X144671428Y-93222380D01*
X144576190Y-93174761D01*
X144528571Y-93127142D01*
X144480952Y-93031904D01*
X144433333Y-92841428D01*
X144433333Y-92603333D01*
X144480952Y-92412857D01*
X144528571Y-92317619D01*
X144576190Y-92270000D01*
X144671428Y-92222380D01*
X145623809Y-92222380D02*
X145719047Y-92222380D01*
X145814285Y-92270000D01*
X145861904Y-92317619D01*
X145909523Y-92412857D01*
X145957142Y-92603333D01*
X145957142Y-92841428D01*
X145909523Y-93031904D01*
X145861904Y-93127142D01*
X145814285Y-93174761D01*
X145719047Y-93222380D01*
X145623809Y-93222380D01*
X145528571Y-93174761D01*
X145480952Y-93127142D01*
X145433333Y-93031904D01*
X145385714Y-92841428D01*
X145385714Y-92603333D01*
X145433333Y-92412857D01*
X145480952Y-92317619D01*
X145528571Y-92270000D01*
X145623809Y-92222380D01*
X146385714Y-92555714D02*
X146385714Y-93222380D01*
X146385714Y-92650952D02*
X146433333Y-92603333D01*
X146528571Y-92555714D01*
X146671428Y-92555714D01*
X146766666Y-92603333D01*
X146814285Y-92698571D01*
X146814285Y-93222380D01*
X147623809Y-92698571D02*
X147290476Y-92698571D01*
X147290476Y-93222380D02*
X147290476Y-92222380D01*
X147766666Y-92222380D01*
D15*
X145533333Y-94342857D02*
X145514285Y-94361904D01*
X145457142Y-94380952D01*
X145419047Y-94380952D01*
X145361904Y-94361904D01*
X145323809Y-94323809D01*
X145304761Y-94285714D01*
X145285714Y-94209523D01*
X145285714Y-94152380D01*
X145304761Y-94076190D01*
X145323809Y-94038095D01*
X145361904Y-94000000D01*
X145419047Y-93980952D01*
X145457142Y-93980952D01*
X145514285Y-94000000D01*
X145533333Y-94019047D01*
X145666666Y-93980952D02*
X145933333Y-93980952D01*
X145761904Y-94380952D01*
G04 #@! TO.C,C8*
D14*
X133228571Y-98632380D02*
X132657142Y-98632380D01*
X132942857Y-98632380D02*
X132942857Y-97632380D01*
X132847619Y-97775238D01*
X132752380Y-97870476D01*
X132657142Y-97918095D01*
X133847619Y-97632380D02*
X133942857Y-97632380D01*
X134038095Y-97680000D01*
X134085714Y-97727619D01*
X134133333Y-97822857D01*
X134180952Y-98013333D01*
X134180952Y-98251428D01*
X134133333Y-98441904D01*
X134085714Y-98537142D01*
X134038095Y-98584761D01*
X133942857Y-98632380D01*
X133847619Y-98632380D01*
X133752380Y-98584761D01*
X133704761Y-98537142D01*
X133657142Y-98441904D01*
X133609523Y-98251428D01*
X133609523Y-98013333D01*
X133657142Y-97822857D01*
X133704761Y-97727619D01*
X133752380Y-97680000D01*
X133847619Y-97632380D01*
X134609523Y-97965714D02*
X134609523Y-98965714D01*
X134609523Y-98013333D02*
X134704761Y-97965714D01*
X134895238Y-97965714D01*
X134990476Y-98013333D01*
X135038095Y-98060952D01*
X135085714Y-98156190D01*
X135085714Y-98441904D01*
X135038095Y-98537142D01*
X134990476Y-98584761D01*
X134895238Y-98632380D01*
X134704761Y-98632380D01*
X134609523Y-98584761D01*
X135847619Y-98108571D02*
X135514285Y-98108571D01*
X135514285Y-98632380D02*
X135514285Y-97632380D01*
X135990476Y-97632380D01*
D15*
X134233333Y-96892857D02*
X134214285Y-96911904D01*
X134157142Y-96930952D01*
X134119047Y-96930952D01*
X134061904Y-96911904D01*
X134023809Y-96873809D01*
X134004761Y-96835714D01*
X133985714Y-96759523D01*
X133985714Y-96702380D01*
X134004761Y-96626190D01*
X134023809Y-96588095D01*
X134061904Y-96550000D01*
X134119047Y-96530952D01*
X134157142Y-96530952D01*
X134214285Y-96550000D01*
X134233333Y-96569047D01*
X134461904Y-96702380D02*
X134423809Y-96683333D01*
X134404761Y-96664285D01*
X134385714Y-96626190D01*
X134385714Y-96607142D01*
X134404761Y-96569047D01*
X134423809Y-96550000D01*
X134461904Y-96530952D01*
X134538095Y-96530952D01*
X134576190Y-96550000D01*
X134595238Y-96569047D01*
X134614285Y-96607142D01*
X134614285Y-96626190D01*
X134595238Y-96664285D01*
X134576190Y-96683333D01*
X134538095Y-96702380D01*
X134461904Y-96702380D01*
X134423809Y-96721428D01*
X134404761Y-96740476D01*
X134385714Y-96778571D01*
X134385714Y-96854761D01*
X134404761Y-96892857D01*
X134423809Y-96911904D01*
X134461904Y-96930952D01*
X134538095Y-96930952D01*
X134576190Y-96911904D01*
X134595238Y-96892857D01*
X134614285Y-96854761D01*
X134614285Y-96778571D01*
X134595238Y-96740476D01*
X134576190Y-96721428D01*
X134538095Y-96702380D01*
G04 #@! TO.C,C9*
D14*
X136128571Y-95772380D02*
X135557142Y-95772380D01*
X135842857Y-95772380D02*
X135842857Y-94772380D01*
X135747619Y-94915238D01*
X135652380Y-95010476D01*
X135557142Y-95058095D01*
X136747619Y-94772380D02*
X136842857Y-94772380D01*
X136938095Y-94820000D01*
X136985714Y-94867619D01*
X137033333Y-94962857D01*
X137080952Y-95153333D01*
X137080952Y-95391428D01*
X137033333Y-95581904D01*
X136985714Y-95677142D01*
X136938095Y-95724761D01*
X136842857Y-95772380D01*
X136747619Y-95772380D01*
X136652380Y-95724761D01*
X136604761Y-95677142D01*
X136557142Y-95581904D01*
X136509523Y-95391428D01*
X136509523Y-95153333D01*
X136557142Y-94962857D01*
X136604761Y-94867619D01*
X136652380Y-94820000D01*
X136747619Y-94772380D01*
X137509523Y-95105714D02*
X137509523Y-96105714D01*
X137509523Y-95153333D02*
X137604761Y-95105714D01*
X137795238Y-95105714D01*
X137890476Y-95153333D01*
X137938095Y-95200952D01*
X137985714Y-95296190D01*
X137985714Y-95581904D01*
X137938095Y-95677142D01*
X137890476Y-95724761D01*
X137795238Y-95772380D01*
X137604761Y-95772380D01*
X137509523Y-95724761D01*
X138747619Y-95248571D02*
X138414285Y-95248571D01*
X138414285Y-95772380D02*
X138414285Y-94772380D01*
X138890476Y-94772380D01*
D15*
X137133333Y-96892857D02*
X137114285Y-96911904D01*
X137057142Y-96930952D01*
X137019047Y-96930952D01*
X136961904Y-96911904D01*
X136923809Y-96873809D01*
X136904761Y-96835714D01*
X136885714Y-96759523D01*
X136885714Y-96702380D01*
X136904761Y-96626190D01*
X136923809Y-96588095D01*
X136961904Y-96550000D01*
X137019047Y-96530952D01*
X137057142Y-96530952D01*
X137114285Y-96550000D01*
X137133333Y-96569047D01*
X137323809Y-96930952D02*
X137400000Y-96930952D01*
X137438095Y-96911904D01*
X137457142Y-96892857D01*
X137495238Y-96835714D01*
X137514285Y-96759523D01*
X137514285Y-96607142D01*
X137495238Y-96569047D01*
X137476190Y-96550000D01*
X137438095Y-96530952D01*
X137361904Y-96530952D01*
X137323809Y-96550000D01*
X137304761Y-96569047D01*
X137285714Y-96607142D01*
X137285714Y-96702380D01*
X137304761Y-96740476D01*
X137323809Y-96759523D01*
X137361904Y-96778571D01*
X137438095Y-96778571D01*
X137476190Y-96759523D01*
X137495238Y-96740476D01*
X137514285Y-96702380D01*
G04 #@! TO.C,R1*
D14*
X136459523Y-100322380D02*
X135888095Y-100322380D01*
X136173809Y-100322380D02*
X136173809Y-99322380D01*
X136078571Y-99465238D01*
X135983333Y-99560476D01*
X135888095Y-99608095D01*
X137078571Y-99322380D02*
X137173809Y-99322380D01*
X137269047Y-99370000D01*
X137316666Y-99417619D01*
X137364285Y-99512857D01*
X137411904Y-99703333D01*
X137411904Y-99941428D01*
X137364285Y-100131904D01*
X137316666Y-100227142D01*
X137269047Y-100274761D01*
X137173809Y-100322380D01*
X137078571Y-100322380D01*
X136983333Y-100274761D01*
X136935714Y-100227142D01*
X136888095Y-100131904D01*
X136840476Y-99941428D01*
X136840476Y-99703333D01*
X136888095Y-99512857D01*
X136935714Y-99417619D01*
X136983333Y-99370000D01*
X137078571Y-99322380D01*
X137840476Y-100322380D02*
X137840476Y-99322380D01*
X138411904Y-100322380D02*
X137983333Y-99750952D01*
X138411904Y-99322380D02*
X137840476Y-99893809D01*
D15*
X137083333Y-101480952D02*
X136950000Y-101290476D01*
X136854761Y-101480952D02*
X136854761Y-101080952D01*
X137007142Y-101080952D01*
X137045238Y-101100000D01*
X137064285Y-101119047D01*
X137083333Y-101157142D01*
X137083333Y-101214285D01*
X137064285Y-101252380D01*
X137045238Y-101271428D01*
X137007142Y-101290476D01*
X136854761Y-101290476D01*
X137464285Y-101480952D02*
X137235714Y-101480952D01*
X137350000Y-101480952D02*
X137350000Y-101080952D01*
X137311904Y-101138095D01*
X137273809Y-101176190D01*
X137235714Y-101195238D01*
G04 #@! TO.C,R2*
D11*
X154635952Y-101926190D02*
X154635952Y-102154761D01*
X154635952Y-102040476D02*
X154235952Y-102040476D01*
X154293095Y-102078571D01*
X154331190Y-102116666D01*
X154350238Y-102154761D01*
X154235952Y-101678571D02*
X154235952Y-101640476D01*
X154255000Y-101602380D01*
X154274047Y-101583333D01*
X154312142Y-101564285D01*
X154388333Y-101545238D01*
X154483571Y-101545238D01*
X154559761Y-101564285D01*
X154597857Y-101583333D01*
X154616904Y-101602380D01*
X154635952Y-101640476D01*
X154635952Y-101678571D01*
X154616904Y-101716666D01*
X154597857Y-101735714D01*
X154559761Y-101754761D01*
X154483571Y-101773809D01*
X154388333Y-101773809D01*
X154312142Y-101754761D01*
X154274047Y-101735714D01*
X154255000Y-101716666D01*
X154235952Y-101678571D01*
X154635952Y-101373809D02*
X154235952Y-101373809D01*
X154635952Y-101145238D02*
X154407380Y-101316666D01*
X154235952Y-101145238D02*
X154464523Y-101373809D01*
D15*
X153205952Y-101716666D02*
X153015476Y-101850000D01*
X153205952Y-101945238D02*
X152805952Y-101945238D01*
X152805952Y-101792857D01*
X152825000Y-101754761D01*
X152844047Y-101735714D01*
X152882142Y-101716666D01*
X152939285Y-101716666D01*
X152977380Y-101735714D01*
X152996428Y-101754761D01*
X153015476Y-101792857D01*
X153015476Y-101945238D01*
X152844047Y-101564285D02*
X152825000Y-101545238D01*
X152805952Y-101507142D01*
X152805952Y-101411904D01*
X152825000Y-101373809D01*
X152844047Y-101354761D01*
X152882142Y-101335714D01*
X152920238Y-101335714D01*
X152977380Y-101354761D01*
X153205952Y-101583333D01*
X153205952Y-101335714D01*
G04 #@! TO.C,R3*
D14*
X152047380Y-99116666D02*
X152047380Y-99688095D01*
X152047380Y-99402380D02*
X151047380Y-99402380D01*
X151190238Y-99497619D01*
X151285476Y-99592857D01*
X151333095Y-99688095D01*
X151047380Y-98497619D02*
X151047380Y-98402380D01*
X151095000Y-98307142D01*
X151142619Y-98259523D01*
X151237857Y-98211904D01*
X151428333Y-98164285D01*
X151666428Y-98164285D01*
X151856904Y-98211904D01*
X151952142Y-98259523D01*
X151999761Y-98307142D01*
X152047380Y-98402380D01*
X152047380Y-98497619D01*
X151999761Y-98592857D01*
X151952142Y-98640476D01*
X151856904Y-98688095D01*
X151666428Y-98735714D01*
X151428333Y-98735714D01*
X151237857Y-98688095D01*
X151142619Y-98640476D01*
X151095000Y-98592857D01*
X151047380Y-98497619D01*
X151047380Y-97545238D02*
X151047380Y-97450000D01*
X151095000Y-97354761D01*
X151142619Y-97307142D01*
X151237857Y-97259523D01*
X151428333Y-97211904D01*
X151666428Y-97211904D01*
X151856904Y-97259523D01*
X151952142Y-97307142D01*
X151999761Y-97354761D01*
X152047380Y-97450000D01*
X152047380Y-97545238D01*
X151999761Y-97640476D01*
X151952142Y-97688095D01*
X151856904Y-97735714D01*
X151666428Y-97783333D01*
X151428333Y-97783333D01*
X151237857Y-97735714D01*
X151142619Y-97688095D01*
X151095000Y-97640476D01*
X151047380Y-97545238D01*
X152047380Y-96783333D02*
X151047380Y-96783333D01*
X152047380Y-96211904D02*
X151475952Y-96640476D01*
X151047380Y-96211904D02*
X151618809Y-96783333D01*
D15*
X153205952Y-98016666D02*
X153015476Y-98150000D01*
X153205952Y-98245238D02*
X152805952Y-98245238D01*
X152805952Y-98092857D01*
X152825000Y-98054761D01*
X152844047Y-98035714D01*
X152882142Y-98016666D01*
X152939285Y-98016666D01*
X152977380Y-98035714D01*
X152996428Y-98054761D01*
X153015476Y-98092857D01*
X153015476Y-98245238D01*
X152805952Y-97883333D02*
X152805952Y-97635714D01*
X152958333Y-97769047D01*
X152958333Y-97711904D01*
X152977380Y-97673809D01*
X152996428Y-97654761D01*
X153034523Y-97635714D01*
X153129761Y-97635714D01*
X153167857Y-97654761D01*
X153186904Y-97673809D01*
X153205952Y-97711904D01*
X153205952Y-97826190D01*
X153186904Y-97864285D01*
X153167857Y-97883333D01*
G04 #@! TO.C,R4*
D14*
X138983333Y-107182380D02*
X138411904Y-107182380D01*
X138697619Y-107182380D02*
X138697619Y-106182380D01*
X138602380Y-106325238D01*
X138507142Y-106420476D01*
X138411904Y-106468095D01*
X139602380Y-106182380D02*
X139697619Y-106182380D01*
X139792857Y-106230000D01*
X139840476Y-106277619D01*
X139888095Y-106372857D01*
X139935714Y-106563333D01*
X139935714Y-106801428D01*
X139888095Y-106991904D01*
X139840476Y-107087142D01*
X139792857Y-107134761D01*
X139697619Y-107182380D01*
X139602380Y-107182380D01*
X139507142Y-107134761D01*
X139459523Y-107087142D01*
X139411904Y-106991904D01*
X139364285Y-106801428D01*
X139364285Y-106563333D01*
X139411904Y-106372857D01*
X139459523Y-106277619D01*
X139507142Y-106230000D01*
X139602380Y-106182380D01*
X140554761Y-106182380D02*
X140650000Y-106182380D01*
X140745238Y-106230000D01*
X140792857Y-106277619D01*
X140840476Y-106372857D01*
X140888095Y-106563333D01*
X140888095Y-106801428D01*
X140840476Y-106991904D01*
X140792857Y-107087142D01*
X140745238Y-107134761D01*
X140650000Y-107182380D01*
X140554761Y-107182380D01*
X140459523Y-107134761D01*
X140411904Y-107087142D01*
X140364285Y-106991904D01*
X140316666Y-106801428D01*
X140316666Y-106563333D01*
X140364285Y-106372857D01*
X140411904Y-106277619D01*
X140459523Y-106230000D01*
X140554761Y-106182380D01*
X141316666Y-107182380D02*
X141316666Y-106182380D01*
X141888095Y-107182380D02*
X141459523Y-106610952D01*
X141888095Y-106182380D02*
X141316666Y-106753809D01*
D15*
X140083333Y-105480952D02*
X139950000Y-105290476D01*
X139854761Y-105480952D02*
X139854761Y-105080952D01*
X140007142Y-105080952D01*
X140045238Y-105100000D01*
X140064285Y-105119047D01*
X140083333Y-105157142D01*
X140083333Y-105214285D01*
X140064285Y-105252380D01*
X140045238Y-105271428D01*
X140007142Y-105290476D01*
X139854761Y-105290476D01*
X140426190Y-105214285D02*
X140426190Y-105480952D01*
X140330952Y-105061904D02*
X140235714Y-105347619D01*
X140483333Y-105347619D01*
G04 #@! TO.C,U1*
D14*
X144973477Y-99799026D02*
X144401057Y-100371446D01*
X144367385Y-100472461D01*
X144367385Y-100539805D01*
X144401057Y-100640820D01*
X144535744Y-100775507D01*
X144636759Y-100809179D01*
X144704103Y-100809179D01*
X144805118Y-100775507D01*
X145377538Y-100203087D01*
X145377538Y-101617301D02*
X144973477Y-101213240D01*
X145175507Y-101415270D02*
X145882614Y-100708164D01*
X145714255Y-100741835D01*
X145579568Y-100741835D01*
X145478553Y-100708164D01*
G04 #@! TO.C,J5*
X153343714Y-96627142D02*
X154010380Y-96627142D01*
X153343714Y-97055714D02*
X153867523Y-97055714D01*
X153962761Y-97008095D01*
X154010380Y-96912857D01*
X154010380Y-96770000D01*
X153962761Y-96674761D01*
X153915142Y-96627142D01*
X153915142Y-96150952D02*
X153962761Y-96103333D01*
X154010380Y-96150952D01*
X153962761Y-96198571D01*
X153915142Y-96150952D01*
X154010380Y-96150952D01*
X153486571Y-95341428D02*
X153486571Y-95674761D01*
X154010380Y-95674761D02*
X153010380Y-95674761D01*
X153010380Y-95198571D01*
X154010380Y-94341428D02*
X154010380Y-94817619D01*
X153010380Y-94817619D01*
X159812380Y-96103333D02*
X160526666Y-96103333D01*
X160669523Y-96150952D01*
X160764761Y-96246190D01*
X160812380Y-96389047D01*
X160812380Y-96484285D01*
X159812380Y-95150952D02*
X159812380Y-95627142D01*
X160288571Y-95674761D01*
X160240952Y-95627142D01*
X160193333Y-95531904D01*
X160193333Y-95293809D01*
X160240952Y-95198571D01*
X160288571Y-95150952D01*
X160383809Y-95103333D01*
X160621904Y-95103333D01*
X160717142Y-95150952D01*
X160764761Y-95198571D01*
X160812380Y-95293809D01*
X160812380Y-95531904D01*
X160764761Y-95627142D01*
X160717142Y-95674761D01*
G04 #@! TO.C,SW2*
X152323333Y-108994761D02*
X152466190Y-109042380D01*
X152704285Y-109042380D01*
X152799523Y-108994761D01*
X152847142Y-108947142D01*
X152894761Y-108851904D01*
X152894761Y-108756666D01*
X152847142Y-108661428D01*
X152799523Y-108613809D01*
X152704285Y-108566190D01*
X152513809Y-108518571D01*
X152418571Y-108470952D01*
X152370952Y-108423333D01*
X152323333Y-108328095D01*
X152323333Y-108232857D01*
X152370952Y-108137619D01*
X152418571Y-108090000D01*
X152513809Y-108042380D01*
X152751904Y-108042380D01*
X152894761Y-108090000D01*
X153228095Y-108042380D02*
X153466190Y-109042380D01*
X153656666Y-108328095D01*
X153847142Y-109042380D01*
X154085238Y-108042380D01*
X154228095Y-109137619D02*
X154990000Y-109137619D01*
X155561428Y-108518571D02*
X155704285Y-108566190D01*
X155751904Y-108613809D01*
X155799523Y-108709047D01*
X155799523Y-108851904D01*
X155751904Y-108947142D01*
X155704285Y-108994761D01*
X155609047Y-109042380D01*
X155228095Y-109042380D01*
X155228095Y-108042380D01*
X155561428Y-108042380D01*
X155656666Y-108090000D01*
X155704285Y-108137619D01*
X155751904Y-108232857D01*
X155751904Y-108328095D01*
X155704285Y-108423333D01*
X155656666Y-108470952D01*
X155561428Y-108518571D01*
X155228095Y-108518571D01*
X156418571Y-108042380D02*
X156609047Y-108042380D01*
X156704285Y-108090000D01*
X156799523Y-108185238D01*
X156847142Y-108375714D01*
X156847142Y-108709047D01*
X156799523Y-108899523D01*
X156704285Y-108994761D01*
X156609047Y-109042380D01*
X156418571Y-109042380D01*
X156323333Y-108994761D01*
X156228095Y-108899523D01*
X156180476Y-108709047D01*
X156180476Y-108375714D01*
X156228095Y-108185238D01*
X156323333Y-108090000D01*
X156418571Y-108042380D01*
X157466190Y-108042380D02*
X157656666Y-108042380D01*
X157751904Y-108090000D01*
X157847142Y-108185238D01*
X157894761Y-108375714D01*
X157894761Y-108709047D01*
X157847142Y-108899523D01*
X157751904Y-108994761D01*
X157656666Y-109042380D01*
X157466190Y-109042380D01*
X157370952Y-108994761D01*
X157275714Y-108899523D01*
X157228095Y-108709047D01*
X157228095Y-108375714D01*
X157275714Y-108185238D01*
X157370952Y-108090000D01*
X157466190Y-108042380D01*
X158180476Y-108042380D02*
X158751904Y-108042380D01*
X158466190Y-109042380D02*
X158466190Y-108042380D01*
X154156666Y-103394761D02*
X154299523Y-103442380D01*
X154537619Y-103442380D01*
X154632857Y-103394761D01*
X154680476Y-103347142D01*
X154728095Y-103251904D01*
X154728095Y-103156666D01*
X154680476Y-103061428D01*
X154632857Y-103013809D01*
X154537619Y-102966190D01*
X154347142Y-102918571D01*
X154251904Y-102870952D01*
X154204285Y-102823333D01*
X154156666Y-102728095D01*
X154156666Y-102632857D01*
X154204285Y-102537619D01*
X154251904Y-102490000D01*
X154347142Y-102442380D01*
X154585238Y-102442380D01*
X154728095Y-102490000D01*
X155061428Y-102442380D02*
X155299523Y-103442380D01*
X155490000Y-102728095D01*
X155680476Y-103442380D01*
X155918571Y-102442380D01*
X156251904Y-102537619D02*
X156299523Y-102490000D01*
X156394761Y-102442380D01*
X156632857Y-102442380D01*
X156728095Y-102490000D01*
X156775714Y-102537619D01*
X156823333Y-102632857D01*
X156823333Y-102728095D01*
X156775714Y-102870952D01*
X156204285Y-103442380D01*
X156823333Y-103442380D01*
G04 #@! TD*
M02*
