G04 #@! TF.GenerationSoftware,KiCad,Pcbnew,6.0.0-rc1-unknown-a6325aa~66~ubuntu18.04.1*
G04 #@! TF.CreationDate,2018-09-06T22:09:02+02:00*
G04 #@! TF.ProjectId,STM32_Sensor_V4,53544D33325F53656E736F725F56342E,rev?*
G04 #@! TF.SameCoordinates,Original*
G04 #@! TF.FileFunction,Legend,Top*
G04 #@! TF.FilePolarity,Positive*
%FSLAX46Y46*%
G04 Gerber Fmt 4.6, Leading zero omitted, Abs format (unit mm)*
G04 Created by KiCad (PCBNEW 6.0.0-rc1-unknown-a6325aa~66~ubuntu18.04.1) date Thu Sep  6 22:09:02 2018*
%MOMM*%
%LPD*%
G01*
G04 APERTURE LIST*
%ADD10C,0.100000*%
%ADD11C,0.120000*%
%ADD12C,0.150000*%
G04 APERTURE END LIST*
D10*
X154533333Y-103264285D02*
X154604761Y-103288095D01*
X154628571Y-103311904D01*
X154652380Y-103359523D01*
X154652380Y-103430952D01*
X154628571Y-103478571D01*
X154604761Y-103502380D01*
X154557142Y-103526190D01*
X154366666Y-103526190D01*
X154366666Y-103026190D01*
X154533333Y-103026190D01*
X154580952Y-103050000D01*
X154604761Y-103073809D01*
X154628571Y-103121428D01*
X154628571Y-103169047D01*
X154604761Y-103216666D01*
X154580952Y-103240476D01*
X154533333Y-103264285D01*
X154366666Y-103264285D01*
X154961904Y-103026190D02*
X155057142Y-103026190D01*
X155104761Y-103050000D01*
X155152380Y-103097619D01*
X155176190Y-103192857D01*
X155176190Y-103359523D01*
X155152380Y-103454761D01*
X155104761Y-103502380D01*
X155057142Y-103526190D01*
X154961904Y-103526190D01*
X154914285Y-103502380D01*
X154866666Y-103454761D01*
X154842857Y-103359523D01*
X154842857Y-103192857D01*
X154866666Y-103097619D01*
X154914285Y-103050000D01*
X154961904Y-103026190D01*
X155485714Y-103026190D02*
X155580952Y-103026190D01*
X155628571Y-103050000D01*
X155676190Y-103097619D01*
X155700000Y-103192857D01*
X155700000Y-103359523D01*
X155676190Y-103454761D01*
X155628571Y-103502380D01*
X155580952Y-103526190D01*
X155485714Y-103526190D01*
X155438095Y-103502380D01*
X155390476Y-103454761D01*
X155366666Y-103359523D01*
X155366666Y-103192857D01*
X155390476Y-103097619D01*
X155438095Y-103050000D01*
X155485714Y-103026190D01*
X155842857Y-103026190D02*
X156128571Y-103026190D01*
X155985714Y-103526190D02*
X155985714Y-103026190D01*
X156390476Y-103026190D02*
X156438095Y-103026190D01*
X156485714Y-103050000D01*
X156509523Y-103073809D01*
X156533333Y-103121428D01*
X156557142Y-103216666D01*
X156557142Y-103335714D01*
X156533333Y-103430952D01*
X156509523Y-103478571D01*
X156485714Y-103502380D01*
X156438095Y-103526190D01*
X156390476Y-103526190D01*
X156342857Y-103502380D01*
X156319047Y-103478571D01*
X156295238Y-103430952D01*
X156271428Y-103335714D01*
X156271428Y-103216666D01*
X156295238Y-103121428D01*
X156319047Y-103073809D01*
X156342857Y-103050000D01*
X156390476Y-103026190D01*
X133373809Y-103526190D02*
X133207142Y-103288095D01*
X133088095Y-103526190D02*
X133088095Y-103026190D01*
X133278571Y-103026190D01*
X133326190Y-103050000D01*
X133350000Y-103073809D01*
X133373809Y-103121428D01*
X133373809Y-103192857D01*
X133350000Y-103240476D01*
X133326190Y-103264285D01*
X133278571Y-103288095D01*
X133088095Y-103288095D01*
X133588095Y-103264285D02*
X133754761Y-103264285D01*
X133826190Y-103526190D02*
X133588095Y-103526190D01*
X133588095Y-103026190D01*
X133826190Y-103026190D01*
X134016666Y-103502380D02*
X134088095Y-103526190D01*
X134207142Y-103526190D01*
X134254761Y-103502380D01*
X134278571Y-103478571D01*
X134302380Y-103430952D01*
X134302380Y-103383333D01*
X134278571Y-103335714D01*
X134254761Y-103311904D01*
X134207142Y-103288095D01*
X134111904Y-103264285D01*
X134064285Y-103240476D01*
X134040476Y-103216666D01*
X134016666Y-103169047D01*
X134016666Y-103121428D01*
X134040476Y-103073809D01*
X134064285Y-103050000D01*
X134111904Y-103026190D01*
X134230952Y-103026190D01*
X134302380Y-103050000D01*
X134516666Y-103264285D02*
X134683333Y-103264285D01*
X134754761Y-103526190D02*
X134516666Y-103526190D01*
X134516666Y-103026190D01*
X134754761Y-103026190D01*
X134897619Y-103026190D02*
X135183333Y-103026190D01*
X135040476Y-103526190D02*
X135040476Y-103026190D01*
X158560952Y-99026190D02*
X158870476Y-99026190D01*
X158703809Y-99216666D01*
X158775238Y-99216666D01*
X158822857Y-99240476D01*
X158846666Y-99264285D01*
X158870476Y-99311904D01*
X158870476Y-99430952D01*
X158846666Y-99478571D01*
X158822857Y-99502380D01*
X158775238Y-99526190D01*
X158632380Y-99526190D01*
X158584761Y-99502380D01*
X158560952Y-99478571D01*
X159013333Y-99026190D02*
X159180000Y-99526190D01*
X159346666Y-99026190D01*
X159465714Y-99026190D02*
X159775238Y-99026190D01*
X159608571Y-99216666D01*
X159680000Y-99216666D01*
X159727619Y-99240476D01*
X159751428Y-99264285D01*
X159775238Y-99311904D01*
X159775238Y-99430952D01*
X159751428Y-99478571D01*
X159727619Y-99502380D01*
X159680000Y-99526190D01*
X159537142Y-99526190D01*
X159489523Y-99502380D01*
X159465714Y-99478571D01*
X158441428Y-101627380D02*
X158512857Y-101651190D01*
X158631904Y-101651190D01*
X158679523Y-101627380D01*
X158703333Y-101603571D01*
X158727142Y-101555952D01*
X158727142Y-101508333D01*
X158703333Y-101460714D01*
X158679523Y-101436904D01*
X158631904Y-101413095D01*
X158536666Y-101389285D01*
X158489047Y-101365476D01*
X158465238Y-101341666D01*
X158441428Y-101294047D01*
X158441428Y-101246428D01*
X158465238Y-101198809D01*
X158489047Y-101175000D01*
X158536666Y-101151190D01*
X158655714Y-101151190D01*
X158727142Y-101175000D01*
X158893809Y-101151190D02*
X159012857Y-101651190D01*
X159108095Y-101294047D01*
X159203333Y-101651190D01*
X159322380Y-101151190D01*
X159512857Y-101651190D02*
X159512857Y-101151190D01*
X159631904Y-101151190D01*
X159703333Y-101175000D01*
X159750952Y-101222619D01*
X159774761Y-101270238D01*
X159798571Y-101365476D01*
X159798571Y-101436904D01*
X159774761Y-101532142D01*
X159750952Y-101579761D01*
X159703333Y-101627380D01*
X159631904Y-101651190D01*
X159512857Y-101651190D01*
X158822380Y-102453571D02*
X158798571Y-102477380D01*
X158727142Y-102501190D01*
X158679523Y-102501190D01*
X158608095Y-102477380D01*
X158560476Y-102429761D01*
X158536666Y-102382142D01*
X158512857Y-102286904D01*
X158512857Y-102215476D01*
X158536666Y-102120238D01*
X158560476Y-102072619D01*
X158608095Y-102025000D01*
X158679523Y-102001190D01*
X158727142Y-102001190D01*
X158798571Y-102025000D01*
X158822380Y-102048809D01*
X159274761Y-102501190D02*
X159036666Y-102501190D01*
X159036666Y-102001190D01*
X159441428Y-102501190D02*
X159441428Y-102001190D01*
X159727142Y-102501190D02*
X159512857Y-102215476D01*
X159727142Y-102001190D02*
X159441428Y-102286904D01*
X159146666Y-107146190D02*
X158980000Y-106908095D01*
X158860952Y-107146190D02*
X158860952Y-106646190D01*
X159051428Y-106646190D01*
X159099047Y-106670000D01*
X159122857Y-106693809D01*
X159146666Y-106741428D01*
X159146666Y-106812857D01*
X159122857Y-106860476D01*
X159099047Y-106884285D01*
X159051428Y-106908095D01*
X158860952Y-106908095D01*
X159313333Y-106646190D02*
X159646666Y-107146190D01*
X159646666Y-106646190D02*
X159313333Y-107146190D01*
X158441428Y-103597380D02*
X158512857Y-103621190D01*
X158631904Y-103621190D01*
X158679523Y-103597380D01*
X158703333Y-103573571D01*
X158727142Y-103525952D01*
X158727142Y-103478333D01*
X158703333Y-103430714D01*
X158679523Y-103406904D01*
X158631904Y-103383095D01*
X158536666Y-103359285D01*
X158489047Y-103335476D01*
X158465238Y-103311666D01*
X158441428Y-103264047D01*
X158441428Y-103216428D01*
X158465238Y-103168809D01*
X158489047Y-103145000D01*
X158536666Y-103121190D01*
X158655714Y-103121190D01*
X158727142Y-103145000D01*
X158893809Y-103121190D02*
X159012857Y-103621190D01*
X159108095Y-103264047D01*
X159203333Y-103621190D01*
X159322380Y-103121190D01*
X159512857Y-103621190D02*
X159512857Y-103121190D01*
X159631904Y-103121190D01*
X159703333Y-103145000D01*
X159750952Y-103192619D01*
X159774761Y-103240238D01*
X159798571Y-103335476D01*
X159798571Y-103406904D01*
X159774761Y-103502142D01*
X159750952Y-103549761D01*
X159703333Y-103597380D01*
X159631904Y-103621190D01*
X159512857Y-103621190D01*
X158858095Y-104471190D02*
X158858095Y-103971190D01*
X159191428Y-103971190D02*
X159286666Y-103971190D01*
X159334285Y-103995000D01*
X159381904Y-104042619D01*
X159405714Y-104137857D01*
X159405714Y-104304523D01*
X159381904Y-104399761D01*
X159334285Y-104447380D01*
X159286666Y-104471190D01*
X159191428Y-104471190D01*
X159143809Y-104447380D01*
X159096190Y-104399761D01*
X159072380Y-104304523D01*
X159072380Y-104137857D01*
X159096190Y-104042619D01*
X159143809Y-103995000D01*
X159191428Y-103971190D01*
X158608571Y-94673333D02*
X158846666Y-94673333D01*
X158560952Y-94816190D02*
X158727619Y-94316190D01*
X158894285Y-94816190D01*
X159060952Y-94816190D02*
X159060952Y-94316190D01*
X159346666Y-94816190D01*
X159346666Y-94316190D01*
X159513333Y-94316190D02*
X159799047Y-94316190D01*
X159656190Y-94816190D02*
X159656190Y-94316190D01*
X158779047Y-96640000D02*
X158731428Y-96616190D01*
X158660000Y-96616190D01*
X158588571Y-96640000D01*
X158540952Y-96687619D01*
X158517142Y-96735238D01*
X158493333Y-96830476D01*
X158493333Y-96901904D01*
X158517142Y-96997142D01*
X158540952Y-97044761D01*
X158588571Y-97092380D01*
X158660000Y-97116190D01*
X158707619Y-97116190D01*
X158779047Y-97092380D01*
X158802857Y-97068571D01*
X158802857Y-96901904D01*
X158707619Y-96901904D01*
X159017142Y-97116190D02*
X159017142Y-96616190D01*
X159302857Y-97116190D01*
X159302857Y-96616190D01*
X159540952Y-97116190D02*
X159540952Y-96616190D01*
X159660000Y-96616190D01*
X159731428Y-96640000D01*
X159779047Y-96687619D01*
X159802857Y-96735238D01*
X159826666Y-96830476D01*
X159826666Y-96901904D01*
X159802857Y-96997142D01*
X159779047Y-97044761D01*
X159731428Y-97092380D01*
X159660000Y-97116190D01*
X159540952Y-97116190D01*
X129134285Y-107176190D02*
X129134285Y-106676190D01*
X129300952Y-107033333D01*
X129467619Y-106676190D01*
X129467619Y-107176190D01*
X129800952Y-106676190D02*
X129896190Y-106676190D01*
X129943809Y-106700000D01*
X129991428Y-106747619D01*
X130015238Y-106842857D01*
X130015238Y-107009523D01*
X129991428Y-107104761D01*
X129943809Y-107152380D01*
X129896190Y-107176190D01*
X129800952Y-107176190D01*
X129753333Y-107152380D01*
X129705714Y-107104761D01*
X129681904Y-107009523D01*
X129681904Y-106842857D01*
X129705714Y-106747619D01*
X129753333Y-106700000D01*
X129800952Y-106676190D01*
X130205714Y-107152380D02*
X130277142Y-107176190D01*
X130396190Y-107176190D01*
X130443809Y-107152380D01*
X130467619Y-107128571D01*
X130491428Y-107080952D01*
X130491428Y-107033333D01*
X130467619Y-106985714D01*
X130443809Y-106961904D01*
X130396190Y-106938095D01*
X130300952Y-106914285D01*
X130253333Y-106890476D01*
X130229523Y-106866666D01*
X130205714Y-106819047D01*
X130205714Y-106771428D01*
X130229523Y-106723809D01*
X130253333Y-106700000D01*
X130300952Y-106676190D01*
X130420000Y-106676190D01*
X130491428Y-106700000D01*
X130705714Y-107176190D02*
X130705714Y-106676190D01*
X129544285Y-103626190D02*
X129544285Y-103126190D01*
X129710952Y-103483333D01*
X129877619Y-103126190D01*
X129877619Y-103626190D01*
X130115714Y-103626190D02*
X130115714Y-103126190D01*
X130330000Y-103602380D02*
X130401428Y-103626190D01*
X130520476Y-103626190D01*
X130568095Y-103602380D01*
X130591904Y-103578571D01*
X130615714Y-103530952D01*
X130615714Y-103483333D01*
X130591904Y-103435714D01*
X130568095Y-103411904D01*
X130520476Y-103388095D01*
X130425238Y-103364285D01*
X130377619Y-103340476D01*
X130353809Y-103316666D01*
X130330000Y-103269047D01*
X130330000Y-103221428D01*
X130353809Y-103173809D01*
X130377619Y-103150000D01*
X130425238Y-103126190D01*
X130544285Y-103126190D01*
X130615714Y-103150000D01*
X130925238Y-103126190D02*
X131020476Y-103126190D01*
X131068095Y-103150000D01*
X131115714Y-103197619D01*
X131139523Y-103292857D01*
X131139523Y-103459523D01*
X131115714Y-103554761D01*
X131068095Y-103602380D01*
X131020476Y-103626190D01*
X130925238Y-103626190D01*
X130877619Y-103602380D01*
X130830000Y-103554761D01*
X130806190Y-103459523D01*
X130806190Y-103292857D01*
X130830000Y-103197619D01*
X130877619Y-103150000D01*
X130925238Y-103126190D01*
X129517142Y-102044380D02*
X129588571Y-102068190D01*
X129707619Y-102068190D01*
X129755238Y-102044380D01*
X129779047Y-102020571D01*
X129802857Y-101972952D01*
X129802857Y-101925333D01*
X129779047Y-101877714D01*
X129755238Y-101853904D01*
X129707619Y-101830095D01*
X129612380Y-101806285D01*
X129564761Y-101782476D01*
X129540952Y-101758666D01*
X129517142Y-101711047D01*
X129517142Y-101663428D01*
X129540952Y-101615809D01*
X129564761Y-101592000D01*
X129612380Y-101568190D01*
X129731428Y-101568190D01*
X129802857Y-101592000D01*
X130302857Y-102020571D02*
X130279047Y-102044380D01*
X130207619Y-102068190D01*
X130160000Y-102068190D01*
X130088571Y-102044380D01*
X130040952Y-101996761D01*
X130017142Y-101949142D01*
X129993333Y-101853904D01*
X129993333Y-101782476D01*
X130017142Y-101687238D01*
X130040952Y-101639619D01*
X130088571Y-101592000D01*
X130160000Y-101568190D01*
X130207619Y-101568190D01*
X130279047Y-101592000D01*
X130302857Y-101615809D01*
X130517142Y-102068190D02*
X130517142Y-101568190D01*
X130802857Y-102068190D02*
X130588571Y-101782476D01*
X130802857Y-101568190D02*
X130517142Y-101853904D01*
X129540952Y-99524190D02*
X129540952Y-99024190D01*
X129826666Y-99524190D01*
X129826666Y-99024190D01*
X130040952Y-99500380D02*
X130112380Y-99524190D01*
X130231428Y-99524190D01*
X130279047Y-99500380D01*
X130302857Y-99476571D01*
X130326666Y-99428952D01*
X130326666Y-99381333D01*
X130302857Y-99333714D01*
X130279047Y-99309904D01*
X130231428Y-99286095D01*
X130136190Y-99262285D01*
X130088571Y-99238476D01*
X130064761Y-99214666D01*
X130040952Y-99167047D01*
X130040952Y-99119428D01*
X130064761Y-99071809D01*
X130088571Y-99048000D01*
X130136190Y-99024190D01*
X130255238Y-99024190D01*
X130326666Y-99048000D01*
X130517142Y-99500380D02*
X130588571Y-99524190D01*
X130707619Y-99524190D01*
X130755238Y-99500380D01*
X130779047Y-99476571D01*
X130802857Y-99428952D01*
X130802857Y-99381333D01*
X130779047Y-99333714D01*
X130755238Y-99309904D01*
X130707619Y-99286095D01*
X130612380Y-99262285D01*
X130564761Y-99238476D01*
X130540952Y-99214666D01*
X130517142Y-99167047D01*
X130517142Y-99119428D01*
X130540952Y-99071809D01*
X130564761Y-99048000D01*
X130612380Y-99024190D01*
X130731428Y-99024190D01*
X130802857Y-99048000D01*
X129576666Y-96980190D02*
X129576666Y-96480190D01*
X129767142Y-96480190D01*
X129814761Y-96504000D01*
X129838571Y-96527809D01*
X129862380Y-96575428D01*
X129862380Y-96646857D01*
X129838571Y-96694476D01*
X129814761Y-96718285D01*
X129767142Y-96742095D01*
X129576666Y-96742095D01*
X130052857Y-96837333D02*
X130290952Y-96837333D01*
X130005238Y-96980190D02*
X130171904Y-96480190D01*
X130338571Y-96980190D01*
X130457619Y-96480190D02*
X130767142Y-96480190D01*
X130600476Y-96670666D01*
X130671904Y-96670666D01*
X130719523Y-96694476D01*
X130743333Y-96718285D01*
X130767142Y-96765904D01*
X130767142Y-96884952D01*
X130743333Y-96932571D01*
X130719523Y-96956380D01*
X130671904Y-96980190D01*
X130529047Y-96980190D01*
X130481428Y-96956380D01*
X130457619Y-96932571D01*
X129576666Y-94726190D02*
X129576666Y-94226190D01*
X129767142Y-94226190D01*
X129814761Y-94250000D01*
X129838571Y-94273809D01*
X129862380Y-94321428D01*
X129862380Y-94392857D01*
X129838571Y-94440476D01*
X129814761Y-94464285D01*
X129767142Y-94488095D01*
X129576666Y-94488095D01*
X130052857Y-94583333D02*
X130290952Y-94583333D01*
X130005238Y-94726190D02*
X130171904Y-94226190D01*
X130338571Y-94726190D01*
X130481428Y-94273809D02*
X130505238Y-94250000D01*
X130552857Y-94226190D01*
X130671904Y-94226190D01*
X130719523Y-94250000D01*
X130743333Y-94273809D01*
X130767142Y-94321428D01*
X130767142Y-94369047D01*
X130743333Y-94440476D01*
X130457619Y-94726190D01*
X130767142Y-94726190D01*
X159574238Y-107247013D02*
X159776269Y-107449043D01*
X159321700Y-107701582D02*
X159675253Y-107348028D01*
X159860448Y-107533223D02*
X159742597Y-108122478D01*
X160096150Y-107768925D02*
X159506895Y-107886776D01*
X159163849Y-93722597D02*
X159113341Y-93739433D01*
X159062834Y-93789940D01*
X159029162Y-93857284D01*
X159029162Y-93924627D01*
X159045998Y-93975135D01*
X159096505Y-94059314D01*
X159147013Y-94109822D01*
X159231192Y-94160330D01*
X159281700Y-94177165D01*
X159349043Y-94177165D01*
X159416387Y-94143494D01*
X159450059Y-94109822D01*
X159483730Y-94042478D01*
X159483730Y-94008807D01*
X159365879Y-93890956D01*
X159298536Y-93958299D01*
X159668925Y-93890956D02*
X159315372Y-93537402D01*
X159870956Y-93688925D01*
X159517402Y-93335372D01*
X160039314Y-93520566D02*
X159685761Y-93167013D01*
X159769940Y-93082834D01*
X159837284Y-93049162D01*
X159904627Y-93049162D01*
X159955135Y-93065998D01*
X160039314Y-93116505D01*
X160089822Y-93167013D01*
X160140330Y-93251192D01*
X160157165Y-93301700D01*
X160157165Y-93369043D01*
X160123494Y-93436387D01*
X160039314Y-93520566D01*
X129252208Y-108527673D02*
X128898654Y-108174120D01*
X129033341Y-108039433D01*
X129083849Y-108022597D01*
X129117521Y-108022597D01*
X129168028Y-108039433D01*
X129218536Y-108089940D01*
X129235372Y-108140448D01*
X129235372Y-108174120D01*
X129218536Y-108224627D01*
X129083849Y-108359314D01*
X129538417Y-107871074D02*
X129605761Y-107837402D01*
X129639433Y-107837402D01*
X129689940Y-107854238D01*
X129740448Y-107904746D01*
X129757284Y-107955253D01*
X129757284Y-107988925D01*
X129740448Y-108039433D01*
X129605761Y-108174120D01*
X129252208Y-107820566D01*
X129370059Y-107702715D01*
X129420566Y-107685879D01*
X129454238Y-107685879D01*
X129504746Y-107702715D01*
X129538417Y-107736387D01*
X129555253Y-107786895D01*
X129555253Y-107820566D01*
X129538417Y-107871074D01*
X129420566Y-107988925D01*
X129673104Y-107399669D02*
X129706776Y-107365998D01*
X129757284Y-107349162D01*
X129790956Y-107349162D01*
X129841463Y-107365998D01*
X129925643Y-107416505D01*
X130009822Y-107500685D01*
X130060330Y-107584864D01*
X130077165Y-107635372D01*
X130077165Y-107669043D01*
X130060330Y-107719551D01*
X130026658Y-107753223D01*
X129976150Y-107770059D01*
X129942478Y-107770059D01*
X129891971Y-107753223D01*
X129807791Y-107702715D01*
X129723612Y-107618536D01*
X129673104Y-107534356D01*
X129656269Y-107483849D01*
X129656269Y-107450177D01*
X129673104Y-107399669D01*
X129217580Y-93237461D02*
X129571133Y-92883908D01*
X129705820Y-93018595D01*
X129722656Y-93069103D01*
X129722656Y-93102774D01*
X129705820Y-93153282D01*
X129655312Y-93203790D01*
X129604805Y-93220625D01*
X129571133Y-93220625D01*
X129520625Y-93203790D01*
X129385938Y-93069103D01*
X129655312Y-93473164D02*
X129823671Y-93641522D01*
X129520625Y-93540507D02*
X129992030Y-93304805D01*
X129756328Y-93776209D01*
X130059374Y-94079255D02*
X129857343Y-93877225D01*
X129958358Y-93978240D02*
X130311912Y-93624687D01*
X130227732Y-93641522D01*
X130160389Y-93641522D01*
X130109881Y-93624687D01*
X140002857Y-108076190D02*
X140002857Y-107576190D01*
X140193333Y-107576190D01*
X140240952Y-107600000D01*
X140264761Y-107623809D01*
X140288571Y-107671428D01*
X140288571Y-107742857D01*
X140264761Y-107790476D01*
X140240952Y-107814285D01*
X140193333Y-107838095D01*
X140002857Y-107838095D01*
X140669523Y-107814285D02*
X140740952Y-107838095D01*
X140764761Y-107861904D01*
X140788571Y-107909523D01*
X140788571Y-107980952D01*
X140764761Y-108028571D01*
X140740952Y-108052380D01*
X140693333Y-108076190D01*
X140502857Y-108076190D01*
X140502857Y-107576190D01*
X140669523Y-107576190D01*
X140717142Y-107600000D01*
X140740952Y-107623809D01*
X140764761Y-107671428D01*
X140764761Y-107719047D01*
X140740952Y-107766666D01*
X140717142Y-107790476D01*
X140669523Y-107814285D01*
X140502857Y-107814285D01*
X141264761Y-108076190D02*
X140979047Y-108076190D01*
X141121904Y-108076190D02*
X141121904Y-107576190D01*
X141074285Y-107647619D01*
X141026666Y-107695238D01*
X140979047Y-107719047D01*
X141455238Y-107623809D02*
X141479047Y-107600000D01*
X141526666Y-107576190D01*
X141645714Y-107576190D01*
X141693333Y-107600000D01*
X141717142Y-107623809D01*
X141740952Y-107671428D01*
X141740952Y-107719047D01*
X141717142Y-107790476D01*
X141431428Y-108076190D01*
X141740952Y-108076190D01*
X134922857Y-108076190D02*
X134922857Y-107576190D01*
X135113333Y-107576190D01*
X135160952Y-107600000D01*
X135184761Y-107623809D01*
X135208571Y-107671428D01*
X135208571Y-107742857D01*
X135184761Y-107790476D01*
X135160952Y-107814285D01*
X135113333Y-107838095D01*
X134922857Y-107838095D01*
X135589523Y-107814285D02*
X135660952Y-107838095D01*
X135684761Y-107861904D01*
X135708571Y-107909523D01*
X135708571Y-107980952D01*
X135684761Y-108028571D01*
X135660952Y-108052380D01*
X135613333Y-108076190D01*
X135422857Y-108076190D01*
X135422857Y-107576190D01*
X135589523Y-107576190D01*
X135637142Y-107600000D01*
X135660952Y-107623809D01*
X135684761Y-107671428D01*
X135684761Y-107719047D01*
X135660952Y-107766666D01*
X135637142Y-107790476D01*
X135589523Y-107814285D01*
X135422857Y-107814285D01*
X136184761Y-108076190D02*
X135899047Y-108076190D01*
X136041904Y-108076190D02*
X136041904Y-107576190D01*
X135994285Y-107647619D01*
X135946666Y-107695238D01*
X135899047Y-107719047D01*
X136494285Y-107576190D02*
X136541904Y-107576190D01*
X136589523Y-107600000D01*
X136613333Y-107623809D01*
X136637142Y-107671428D01*
X136660952Y-107766666D01*
X136660952Y-107885714D01*
X136637142Y-107980952D01*
X136613333Y-108028571D01*
X136589523Y-108052380D01*
X136541904Y-108076190D01*
X136494285Y-108076190D01*
X136446666Y-108052380D01*
X136422857Y-108028571D01*
X136399047Y-107980952D01*
X136375238Y-107885714D01*
X136375238Y-107766666D01*
X136399047Y-107671428D01*
X136422857Y-107623809D01*
X136446666Y-107600000D01*
X136494285Y-107576190D01*
X130220952Y-108076190D02*
X130220952Y-107576190D01*
X130411428Y-107576190D01*
X130459047Y-107600000D01*
X130482857Y-107623809D01*
X130506666Y-107671428D01*
X130506666Y-107742857D01*
X130482857Y-107790476D01*
X130459047Y-107814285D01*
X130411428Y-107838095D01*
X130220952Y-107838095D01*
X130887619Y-107814285D02*
X130959047Y-107838095D01*
X130982857Y-107861904D01*
X131006666Y-107909523D01*
X131006666Y-107980952D01*
X130982857Y-108028571D01*
X130959047Y-108052380D01*
X130911428Y-108076190D01*
X130720952Y-108076190D01*
X130720952Y-107576190D01*
X130887619Y-107576190D01*
X130935238Y-107600000D01*
X130959047Y-107623809D01*
X130982857Y-107671428D01*
X130982857Y-107719047D01*
X130959047Y-107766666D01*
X130935238Y-107790476D01*
X130887619Y-107814285D01*
X130720952Y-107814285D01*
X131482857Y-108076190D02*
X131197142Y-108076190D01*
X131340000Y-108076190D02*
X131340000Y-107576190D01*
X131292380Y-107647619D01*
X131244761Y-107695238D01*
X131197142Y-107719047D01*
X132620952Y-108076190D02*
X132620952Y-107576190D01*
X132811428Y-107576190D01*
X132859047Y-107600000D01*
X132882857Y-107623809D01*
X132906666Y-107671428D01*
X132906666Y-107742857D01*
X132882857Y-107790476D01*
X132859047Y-107814285D01*
X132811428Y-107838095D01*
X132620952Y-107838095D01*
X133287619Y-107814285D02*
X133359047Y-107838095D01*
X133382857Y-107861904D01*
X133406666Y-107909523D01*
X133406666Y-107980952D01*
X133382857Y-108028571D01*
X133359047Y-108052380D01*
X133311428Y-108076190D01*
X133120952Y-108076190D01*
X133120952Y-107576190D01*
X133287619Y-107576190D01*
X133335238Y-107600000D01*
X133359047Y-107623809D01*
X133382857Y-107671428D01*
X133382857Y-107719047D01*
X133359047Y-107766666D01*
X133335238Y-107790476D01*
X133287619Y-107814285D01*
X133120952Y-107814285D01*
X133597142Y-107623809D02*
X133620952Y-107600000D01*
X133668571Y-107576190D01*
X133787619Y-107576190D01*
X133835238Y-107600000D01*
X133859047Y-107623809D01*
X133882857Y-107671428D01*
X133882857Y-107719047D01*
X133859047Y-107790476D01*
X133573333Y-108076190D01*
X133882857Y-108076190D01*
X137462857Y-108076190D02*
X137462857Y-107576190D01*
X137653333Y-107576190D01*
X137700952Y-107600000D01*
X137724761Y-107623809D01*
X137748571Y-107671428D01*
X137748571Y-107742857D01*
X137724761Y-107790476D01*
X137700952Y-107814285D01*
X137653333Y-107838095D01*
X137462857Y-107838095D01*
X138129523Y-107814285D02*
X138200952Y-107838095D01*
X138224761Y-107861904D01*
X138248571Y-107909523D01*
X138248571Y-107980952D01*
X138224761Y-108028571D01*
X138200952Y-108052380D01*
X138153333Y-108076190D01*
X137962857Y-108076190D01*
X137962857Y-107576190D01*
X138129523Y-107576190D01*
X138177142Y-107600000D01*
X138200952Y-107623809D01*
X138224761Y-107671428D01*
X138224761Y-107719047D01*
X138200952Y-107766666D01*
X138177142Y-107790476D01*
X138129523Y-107814285D01*
X137962857Y-107814285D01*
X138724761Y-108076190D02*
X138439047Y-108076190D01*
X138581904Y-108076190D02*
X138581904Y-107576190D01*
X138534285Y-107647619D01*
X138486666Y-107695238D01*
X138439047Y-107719047D01*
X139200952Y-108076190D02*
X138915238Y-108076190D01*
X139058095Y-108076190D02*
X139058095Y-107576190D01*
X139010476Y-107647619D01*
X138962857Y-107695238D01*
X138915238Y-107719047D01*
X145082857Y-108076190D02*
X145082857Y-107576190D01*
X145273333Y-107576190D01*
X145320952Y-107600000D01*
X145344761Y-107623809D01*
X145368571Y-107671428D01*
X145368571Y-107742857D01*
X145344761Y-107790476D01*
X145320952Y-107814285D01*
X145273333Y-107838095D01*
X145082857Y-107838095D01*
X145749523Y-107814285D02*
X145820952Y-107838095D01*
X145844761Y-107861904D01*
X145868571Y-107909523D01*
X145868571Y-107980952D01*
X145844761Y-108028571D01*
X145820952Y-108052380D01*
X145773333Y-108076190D01*
X145582857Y-108076190D01*
X145582857Y-107576190D01*
X145749523Y-107576190D01*
X145797142Y-107600000D01*
X145820952Y-107623809D01*
X145844761Y-107671428D01*
X145844761Y-107719047D01*
X145820952Y-107766666D01*
X145797142Y-107790476D01*
X145749523Y-107814285D01*
X145582857Y-107814285D01*
X146344761Y-108076190D02*
X146059047Y-108076190D01*
X146201904Y-108076190D02*
X146201904Y-107576190D01*
X146154285Y-107647619D01*
X146106666Y-107695238D01*
X146059047Y-107719047D01*
X146773333Y-107742857D02*
X146773333Y-108076190D01*
X146654285Y-107552380D02*
X146535238Y-107909523D01*
X146844761Y-107909523D01*
X158020952Y-107576190D02*
X158330476Y-107576190D01*
X158163809Y-107766666D01*
X158235238Y-107766666D01*
X158282857Y-107790476D01*
X158306666Y-107814285D01*
X158330476Y-107861904D01*
X158330476Y-107980952D01*
X158306666Y-108028571D01*
X158282857Y-108052380D01*
X158235238Y-108076190D01*
X158092380Y-108076190D01*
X158044761Y-108052380D01*
X158020952Y-108028571D01*
X158473333Y-107576190D02*
X158640000Y-108076190D01*
X158806666Y-107576190D01*
X158925714Y-107576190D02*
X159235238Y-107576190D01*
X159068571Y-107766666D01*
X159140000Y-107766666D01*
X159187619Y-107790476D01*
X159211428Y-107814285D01*
X159235238Y-107861904D01*
X159235238Y-107980952D01*
X159211428Y-108028571D01*
X159187619Y-108052380D01*
X159140000Y-108076190D01*
X158997142Y-108076190D01*
X158949523Y-108052380D01*
X158925714Y-108028571D01*
X147622857Y-108076190D02*
X147622857Y-107576190D01*
X147813333Y-107576190D01*
X147860952Y-107600000D01*
X147884761Y-107623809D01*
X147908571Y-107671428D01*
X147908571Y-107742857D01*
X147884761Y-107790476D01*
X147860952Y-107814285D01*
X147813333Y-107838095D01*
X147622857Y-107838095D01*
X148289523Y-107814285D02*
X148360952Y-107838095D01*
X148384761Y-107861904D01*
X148408571Y-107909523D01*
X148408571Y-107980952D01*
X148384761Y-108028571D01*
X148360952Y-108052380D01*
X148313333Y-108076190D01*
X148122857Y-108076190D01*
X148122857Y-107576190D01*
X148289523Y-107576190D01*
X148337142Y-107600000D01*
X148360952Y-107623809D01*
X148384761Y-107671428D01*
X148384761Y-107719047D01*
X148360952Y-107766666D01*
X148337142Y-107790476D01*
X148289523Y-107814285D01*
X148122857Y-107814285D01*
X148884761Y-108076190D02*
X148599047Y-108076190D01*
X148741904Y-108076190D02*
X148741904Y-107576190D01*
X148694285Y-107647619D01*
X148646666Y-107695238D01*
X148599047Y-107719047D01*
X149337142Y-107576190D02*
X149099047Y-107576190D01*
X149075238Y-107814285D01*
X149099047Y-107790476D01*
X149146666Y-107766666D01*
X149265714Y-107766666D01*
X149313333Y-107790476D01*
X149337142Y-107814285D01*
X149360952Y-107861904D01*
X149360952Y-107980952D01*
X149337142Y-108028571D01*
X149313333Y-108052380D01*
X149265714Y-108076190D01*
X149146666Y-108076190D01*
X149099047Y-108052380D01*
X149075238Y-108028571D01*
X155278571Y-108076190D02*
X155278571Y-107576190D01*
X155469047Y-107576190D01*
X155516666Y-107600000D01*
X155540476Y-107623809D01*
X155564285Y-107671428D01*
X155564285Y-107742857D01*
X155540476Y-107790476D01*
X155516666Y-107814285D01*
X155469047Y-107838095D01*
X155278571Y-107838095D01*
X155754761Y-107933333D02*
X155992857Y-107933333D01*
X155707142Y-108076190D02*
X155873809Y-107576190D01*
X156040476Y-108076190D01*
X156469047Y-108076190D02*
X156183333Y-108076190D01*
X156326190Y-108076190D02*
X156326190Y-107576190D01*
X156278571Y-107647619D01*
X156230952Y-107695238D01*
X156183333Y-107719047D01*
X156659523Y-107623809D02*
X156683333Y-107600000D01*
X156730952Y-107576190D01*
X156850000Y-107576190D01*
X156897619Y-107600000D01*
X156921428Y-107623809D01*
X156945238Y-107671428D01*
X156945238Y-107719047D01*
X156921428Y-107790476D01*
X156635714Y-108076190D01*
X156945238Y-108076190D01*
X142542857Y-108076190D02*
X142542857Y-107576190D01*
X142733333Y-107576190D01*
X142780952Y-107600000D01*
X142804761Y-107623809D01*
X142828571Y-107671428D01*
X142828571Y-107742857D01*
X142804761Y-107790476D01*
X142780952Y-107814285D01*
X142733333Y-107838095D01*
X142542857Y-107838095D01*
X143209523Y-107814285D02*
X143280952Y-107838095D01*
X143304761Y-107861904D01*
X143328571Y-107909523D01*
X143328571Y-107980952D01*
X143304761Y-108028571D01*
X143280952Y-108052380D01*
X143233333Y-108076190D01*
X143042857Y-108076190D01*
X143042857Y-107576190D01*
X143209523Y-107576190D01*
X143257142Y-107600000D01*
X143280952Y-107623809D01*
X143304761Y-107671428D01*
X143304761Y-107719047D01*
X143280952Y-107766666D01*
X143257142Y-107790476D01*
X143209523Y-107814285D01*
X143042857Y-107814285D01*
X143804761Y-108076190D02*
X143519047Y-108076190D01*
X143661904Y-108076190D02*
X143661904Y-107576190D01*
X143614285Y-107647619D01*
X143566666Y-107695238D01*
X143519047Y-107719047D01*
X143971428Y-107576190D02*
X144280952Y-107576190D01*
X144114285Y-107766666D01*
X144185714Y-107766666D01*
X144233333Y-107790476D01*
X144257142Y-107814285D01*
X144280952Y-107861904D01*
X144280952Y-107980952D01*
X144257142Y-108028571D01*
X144233333Y-108052380D01*
X144185714Y-108076190D01*
X144042857Y-108076190D01*
X143995238Y-108052380D01*
X143971428Y-108028571D01*
X150436666Y-108076190D02*
X150436666Y-107576190D01*
X150627142Y-107576190D01*
X150674761Y-107600000D01*
X150698571Y-107623809D01*
X150722380Y-107671428D01*
X150722380Y-107742857D01*
X150698571Y-107790476D01*
X150674761Y-107814285D01*
X150627142Y-107838095D01*
X150436666Y-107838095D01*
X150912857Y-107933333D02*
X151150952Y-107933333D01*
X150865238Y-108076190D02*
X151031904Y-107576190D01*
X151198571Y-108076190D01*
X151436666Y-107790476D02*
X151389047Y-107766666D01*
X151365238Y-107742857D01*
X151341428Y-107695238D01*
X151341428Y-107671428D01*
X151365238Y-107623809D01*
X151389047Y-107600000D01*
X151436666Y-107576190D01*
X151531904Y-107576190D01*
X151579523Y-107600000D01*
X151603333Y-107623809D01*
X151627142Y-107671428D01*
X151627142Y-107695238D01*
X151603333Y-107742857D01*
X151579523Y-107766666D01*
X151531904Y-107790476D01*
X151436666Y-107790476D01*
X151389047Y-107814285D01*
X151365238Y-107838095D01*
X151341428Y-107885714D01*
X151341428Y-107980952D01*
X151365238Y-108028571D01*
X151389047Y-108052380D01*
X151436666Y-108076190D01*
X151531904Y-108076190D01*
X151579523Y-108052380D01*
X151603333Y-108028571D01*
X151627142Y-107980952D01*
X151627142Y-107885714D01*
X151603333Y-107838095D01*
X151579523Y-107814285D01*
X151531904Y-107790476D01*
X152738571Y-108076190D02*
X152738571Y-107576190D01*
X152929047Y-107576190D01*
X152976666Y-107600000D01*
X153000476Y-107623809D01*
X153024285Y-107671428D01*
X153024285Y-107742857D01*
X153000476Y-107790476D01*
X152976666Y-107814285D01*
X152929047Y-107838095D01*
X152738571Y-107838095D01*
X153214761Y-107933333D02*
X153452857Y-107933333D01*
X153167142Y-108076190D02*
X153333809Y-107576190D01*
X153500476Y-108076190D01*
X153929047Y-108076190D02*
X153643333Y-108076190D01*
X153786190Y-108076190D02*
X153786190Y-107576190D01*
X153738571Y-107647619D01*
X153690952Y-107695238D01*
X153643333Y-107719047D01*
X154405238Y-108076190D02*
X154119523Y-108076190D01*
X154262380Y-108076190D02*
X154262380Y-107576190D01*
X154214761Y-107647619D01*
X154167142Y-107695238D01*
X154119523Y-107719047D01*
X150370952Y-93586190D02*
X150370952Y-93086190D01*
X150561428Y-93086190D01*
X150609047Y-93110000D01*
X150632857Y-93133809D01*
X150656666Y-93181428D01*
X150656666Y-93252857D01*
X150632857Y-93300476D01*
X150609047Y-93324285D01*
X150561428Y-93348095D01*
X150370952Y-93348095D01*
X151037619Y-93324285D02*
X151109047Y-93348095D01*
X151132857Y-93371904D01*
X151156666Y-93419523D01*
X151156666Y-93490952D01*
X151132857Y-93538571D01*
X151109047Y-93562380D01*
X151061428Y-93586190D01*
X150870952Y-93586190D01*
X150870952Y-93086190D01*
X151037619Y-93086190D01*
X151085238Y-93110000D01*
X151109047Y-93133809D01*
X151132857Y-93181428D01*
X151132857Y-93229047D01*
X151109047Y-93276666D01*
X151085238Y-93300476D01*
X151037619Y-93324285D01*
X150870952Y-93324285D01*
X151609047Y-93086190D02*
X151370952Y-93086190D01*
X151347142Y-93324285D01*
X151370952Y-93300476D01*
X151418571Y-93276666D01*
X151537619Y-93276666D01*
X151585238Y-93300476D01*
X151609047Y-93324285D01*
X151632857Y-93371904D01*
X151632857Y-93490952D01*
X151609047Y-93538571D01*
X151585238Y-93562380D01*
X151537619Y-93586190D01*
X151418571Y-93586190D01*
X151370952Y-93562380D01*
X151347142Y-93538571D01*
X155450952Y-93566190D02*
X155450952Y-93066190D01*
X155641428Y-93066190D01*
X155689047Y-93090000D01*
X155712857Y-93113809D01*
X155736666Y-93161428D01*
X155736666Y-93232857D01*
X155712857Y-93280476D01*
X155689047Y-93304285D01*
X155641428Y-93328095D01*
X155450952Y-93328095D01*
X156117619Y-93304285D02*
X156189047Y-93328095D01*
X156212857Y-93351904D01*
X156236666Y-93399523D01*
X156236666Y-93470952D01*
X156212857Y-93518571D01*
X156189047Y-93542380D01*
X156141428Y-93566190D01*
X155950952Y-93566190D01*
X155950952Y-93066190D01*
X156117619Y-93066190D01*
X156165238Y-93090000D01*
X156189047Y-93113809D01*
X156212857Y-93161428D01*
X156212857Y-93209047D01*
X156189047Y-93256666D01*
X156165238Y-93280476D01*
X156117619Y-93304285D01*
X155950952Y-93304285D01*
X156403333Y-93066190D02*
X156712857Y-93066190D01*
X156546190Y-93256666D01*
X156617619Y-93256666D01*
X156665238Y-93280476D01*
X156689047Y-93304285D01*
X156712857Y-93351904D01*
X156712857Y-93470952D01*
X156689047Y-93518571D01*
X156665238Y-93542380D01*
X156617619Y-93566190D01*
X156474761Y-93566190D01*
X156427142Y-93542380D01*
X156403333Y-93518571D01*
X157508571Y-93566190D02*
X157508571Y-93066190D01*
X157699047Y-93066190D01*
X157746666Y-93090000D01*
X157770476Y-93113809D01*
X157794285Y-93161428D01*
X157794285Y-93232857D01*
X157770476Y-93280476D01*
X157746666Y-93304285D01*
X157699047Y-93328095D01*
X157508571Y-93328095D01*
X157984761Y-93423333D02*
X158222857Y-93423333D01*
X157937142Y-93566190D02*
X158103809Y-93066190D01*
X158270476Y-93566190D01*
X158699047Y-93566190D02*
X158413333Y-93566190D01*
X158556190Y-93566190D02*
X158556190Y-93066190D01*
X158508571Y-93137619D01*
X158460952Y-93185238D01*
X158413333Y-93209047D01*
X159151428Y-93066190D02*
X158913333Y-93066190D01*
X158889523Y-93304285D01*
X158913333Y-93280476D01*
X158960952Y-93256666D01*
X159080000Y-93256666D01*
X159127619Y-93280476D01*
X159151428Y-93304285D01*
X159175238Y-93351904D01*
X159175238Y-93470952D01*
X159151428Y-93518571D01*
X159127619Y-93542380D01*
X159080000Y-93566190D01*
X158960952Y-93566190D01*
X158913333Y-93542380D01*
X158889523Y-93518571D01*
X152910952Y-93586190D02*
X152910952Y-93086190D01*
X153101428Y-93086190D01*
X153149047Y-93110000D01*
X153172857Y-93133809D01*
X153196666Y-93181428D01*
X153196666Y-93252857D01*
X153172857Y-93300476D01*
X153149047Y-93324285D01*
X153101428Y-93348095D01*
X152910952Y-93348095D01*
X153577619Y-93324285D02*
X153649047Y-93348095D01*
X153672857Y-93371904D01*
X153696666Y-93419523D01*
X153696666Y-93490952D01*
X153672857Y-93538571D01*
X153649047Y-93562380D01*
X153601428Y-93586190D01*
X153410952Y-93586190D01*
X153410952Y-93086190D01*
X153577619Y-93086190D01*
X153625238Y-93110000D01*
X153649047Y-93133809D01*
X153672857Y-93181428D01*
X153672857Y-93229047D01*
X153649047Y-93276666D01*
X153625238Y-93300476D01*
X153577619Y-93324285D01*
X153410952Y-93324285D01*
X154125238Y-93252857D02*
X154125238Y-93586190D01*
X154006190Y-93062380D02*
X153887142Y-93419523D01*
X154196666Y-93419523D01*
X145290952Y-93586190D02*
X145290952Y-93086190D01*
X145481428Y-93086190D01*
X145529047Y-93110000D01*
X145552857Y-93133809D01*
X145576666Y-93181428D01*
X145576666Y-93252857D01*
X145552857Y-93300476D01*
X145529047Y-93324285D01*
X145481428Y-93348095D01*
X145290952Y-93348095D01*
X145957619Y-93324285D02*
X146029047Y-93348095D01*
X146052857Y-93371904D01*
X146076666Y-93419523D01*
X146076666Y-93490952D01*
X146052857Y-93538571D01*
X146029047Y-93562380D01*
X145981428Y-93586190D01*
X145790952Y-93586190D01*
X145790952Y-93086190D01*
X145957619Y-93086190D01*
X146005238Y-93110000D01*
X146029047Y-93133809D01*
X146052857Y-93181428D01*
X146052857Y-93229047D01*
X146029047Y-93276666D01*
X146005238Y-93300476D01*
X145957619Y-93324285D01*
X145790952Y-93324285D01*
X146243333Y-93086190D02*
X146576666Y-93086190D01*
X146362380Y-93586190D01*
X140220952Y-93576190D02*
X140220952Y-93076190D01*
X140411428Y-93076190D01*
X140459047Y-93100000D01*
X140482857Y-93123809D01*
X140506666Y-93171428D01*
X140506666Y-93242857D01*
X140482857Y-93290476D01*
X140459047Y-93314285D01*
X140411428Y-93338095D01*
X140220952Y-93338095D01*
X140887619Y-93314285D02*
X140959047Y-93338095D01*
X140982857Y-93361904D01*
X141006666Y-93409523D01*
X141006666Y-93480952D01*
X140982857Y-93528571D01*
X140959047Y-93552380D01*
X140911428Y-93576190D01*
X140720952Y-93576190D01*
X140720952Y-93076190D01*
X140887619Y-93076190D01*
X140935238Y-93100000D01*
X140959047Y-93123809D01*
X140982857Y-93171428D01*
X140982857Y-93219047D01*
X140959047Y-93266666D01*
X140935238Y-93290476D01*
X140887619Y-93314285D01*
X140720952Y-93314285D01*
X141244761Y-93576190D02*
X141340000Y-93576190D01*
X141387619Y-93552380D01*
X141411428Y-93528571D01*
X141459047Y-93457142D01*
X141482857Y-93361904D01*
X141482857Y-93171428D01*
X141459047Y-93123809D01*
X141435238Y-93100000D01*
X141387619Y-93076190D01*
X141292380Y-93076190D01*
X141244761Y-93100000D01*
X141220952Y-93123809D01*
X141197142Y-93171428D01*
X141197142Y-93290476D01*
X141220952Y-93338095D01*
X141244761Y-93361904D01*
X141292380Y-93385714D01*
X141387619Y-93385714D01*
X141435238Y-93361904D01*
X141459047Y-93338095D01*
X141482857Y-93290476D01*
X142760952Y-93576190D02*
X142760952Y-93076190D01*
X142951428Y-93076190D01*
X142999047Y-93100000D01*
X143022857Y-93123809D01*
X143046666Y-93171428D01*
X143046666Y-93242857D01*
X143022857Y-93290476D01*
X142999047Y-93314285D01*
X142951428Y-93338095D01*
X142760952Y-93338095D01*
X143427619Y-93314285D02*
X143499047Y-93338095D01*
X143522857Y-93361904D01*
X143546666Y-93409523D01*
X143546666Y-93480952D01*
X143522857Y-93528571D01*
X143499047Y-93552380D01*
X143451428Y-93576190D01*
X143260952Y-93576190D01*
X143260952Y-93076190D01*
X143427619Y-93076190D01*
X143475238Y-93100000D01*
X143499047Y-93123809D01*
X143522857Y-93171428D01*
X143522857Y-93219047D01*
X143499047Y-93266666D01*
X143475238Y-93290476D01*
X143427619Y-93314285D01*
X143260952Y-93314285D01*
X143832380Y-93290476D02*
X143784761Y-93266666D01*
X143760952Y-93242857D01*
X143737142Y-93195238D01*
X143737142Y-93171428D01*
X143760952Y-93123809D01*
X143784761Y-93100000D01*
X143832380Y-93076190D01*
X143927619Y-93076190D01*
X143975238Y-93100000D01*
X143999047Y-93123809D01*
X144022857Y-93171428D01*
X144022857Y-93195238D01*
X143999047Y-93242857D01*
X143975238Y-93266666D01*
X143927619Y-93290476D01*
X143832380Y-93290476D01*
X143784761Y-93314285D01*
X143760952Y-93338095D01*
X143737142Y-93385714D01*
X143737142Y-93480952D01*
X143760952Y-93528571D01*
X143784761Y-93552380D01*
X143832380Y-93576190D01*
X143927619Y-93576190D01*
X143975238Y-93552380D01*
X143999047Y-93528571D01*
X144022857Y-93480952D01*
X144022857Y-93385714D01*
X143999047Y-93338095D01*
X143975238Y-93314285D01*
X143927619Y-93290476D01*
X147830952Y-93586190D02*
X147830952Y-93086190D01*
X148021428Y-93086190D01*
X148069047Y-93110000D01*
X148092857Y-93133809D01*
X148116666Y-93181428D01*
X148116666Y-93252857D01*
X148092857Y-93300476D01*
X148069047Y-93324285D01*
X148021428Y-93348095D01*
X147830952Y-93348095D01*
X148497619Y-93324285D02*
X148569047Y-93348095D01*
X148592857Y-93371904D01*
X148616666Y-93419523D01*
X148616666Y-93490952D01*
X148592857Y-93538571D01*
X148569047Y-93562380D01*
X148521428Y-93586190D01*
X148330952Y-93586190D01*
X148330952Y-93086190D01*
X148497619Y-93086190D01*
X148545238Y-93110000D01*
X148569047Y-93133809D01*
X148592857Y-93181428D01*
X148592857Y-93229047D01*
X148569047Y-93276666D01*
X148545238Y-93300476D01*
X148497619Y-93324285D01*
X148330952Y-93324285D01*
X149045238Y-93086190D02*
X148950000Y-93086190D01*
X148902380Y-93110000D01*
X148878571Y-93133809D01*
X148830952Y-93205238D01*
X148807142Y-93300476D01*
X148807142Y-93490952D01*
X148830952Y-93538571D01*
X148854761Y-93562380D01*
X148902380Y-93586190D01*
X148997619Y-93586190D01*
X149045238Y-93562380D01*
X149069047Y-93538571D01*
X149092857Y-93490952D01*
X149092857Y-93371904D01*
X149069047Y-93324285D01*
X149045238Y-93300476D01*
X148997619Y-93276666D01*
X148902380Y-93276666D01*
X148854761Y-93300476D01*
X148830952Y-93324285D01*
X148807142Y-93371904D01*
X134902857Y-93576190D02*
X134902857Y-93076190D01*
X135093333Y-93076190D01*
X135140952Y-93100000D01*
X135164761Y-93123809D01*
X135188571Y-93171428D01*
X135188571Y-93242857D01*
X135164761Y-93290476D01*
X135140952Y-93314285D01*
X135093333Y-93338095D01*
X134902857Y-93338095D01*
X135688571Y-93528571D02*
X135664761Y-93552380D01*
X135593333Y-93576190D01*
X135545714Y-93576190D01*
X135474285Y-93552380D01*
X135426666Y-93504761D01*
X135402857Y-93457142D01*
X135379047Y-93361904D01*
X135379047Y-93290476D01*
X135402857Y-93195238D01*
X135426666Y-93147619D01*
X135474285Y-93100000D01*
X135545714Y-93076190D01*
X135593333Y-93076190D01*
X135664761Y-93100000D01*
X135688571Y-93123809D01*
X136164761Y-93576190D02*
X135879047Y-93576190D01*
X136021904Y-93576190D02*
X136021904Y-93076190D01*
X135974285Y-93147619D01*
X135926666Y-93195238D01*
X135879047Y-93219047D01*
X136331428Y-93076190D02*
X136640952Y-93076190D01*
X136474285Y-93266666D01*
X136545714Y-93266666D01*
X136593333Y-93290476D01*
X136617142Y-93314285D01*
X136640952Y-93361904D01*
X136640952Y-93480952D01*
X136617142Y-93528571D01*
X136593333Y-93552380D01*
X136545714Y-93576190D01*
X136402857Y-93576190D01*
X136355238Y-93552380D01*
X136331428Y-93528571D01*
X137478571Y-93076190D02*
X137645238Y-93576190D01*
X137811904Y-93076190D01*
X138145238Y-93314285D02*
X138216666Y-93338095D01*
X138240476Y-93361904D01*
X138264285Y-93409523D01*
X138264285Y-93480952D01*
X138240476Y-93528571D01*
X138216666Y-93552380D01*
X138169047Y-93576190D01*
X137978571Y-93576190D01*
X137978571Y-93076190D01*
X138145238Y-93076190D01*
X138192857Y-93100000D01*
X138216666Y-93123809D01*
X138240476Y-93171428D01*
X138240476Y-93219047D01*
X138216666Y-93266666D01*
X138192857Y-93290476D01*
X138145238Y-93314285D01*
X137978571Y-93314285D01*
X138454761Y-93433333D02*
X138692857Y-93433333D01*
X138407142Y-93576190D02*
X138573809Y-93076190D01*
X138740476Y-93576190D01*
X138835714Y-93076190D02*
X139121428Y-93076190D01*
X138978571Y-93576190D02*
X138978571Y-93076190D01*
X132946190Y-93576190D02*
X132779523Y-93338095D01*
X132660476Y-93576190D02*
X132660476Y-93076190D01*
X132850952Y-93076190D01*
X132898571Y-93100000D01*
X132922380Y-93123809D01*
X132946190Y-93171428D01*
X132946190Y-93242857D01*
X132922380Y-93290476D01*
X132898571Y-93314285D01*
X132850952Y-93338095D01*
X132660476Y-93338095D01*
X133136666Y-93552380D02*
X133208095Y-93576190D01*
X133327142Y-93576190D01*
X133374761Y-93552380D01*
X133398571Y-93528571D01*
X133422380Y-93480952D01*
X133422380Y-93433333D01*
X133398571Y-93385714D01*
X133374761Y-93361904D01*
X133327142Y-93338095D01*
X133231904Y-93314285D01*
X133184285Y-93290476D01*
X133160476Y-93266666D01*
X133136666Y-93219047D01*
X133136666Y-93171428D01*
X133160476Y-93123809D01*
X133184285Y-93100000D01*
X133231904Y-93076190D01*
X133350952Y-93076190D01*
X133422380Y-93100000D01*
X133565238Y-93076190D02*
X133850952Y-93076190D01*
X133708095Y-93576190D02*
X133708095Y-93076190D01*
X130436666Y-93566190D02*
X130436666Y-93066190D01*
X130627142Y-93066190D01*
X130674761Y-93090000D01*
X130698571Y-93113809D01*
X130722380Y-93161428D01*
X130722380Y-93232857D01*
X130698571Y-93280476D01*
X130674761Y-93304285D01*
X130627142Y-93328095D01*
X130436666Y-93328095D01*
X130912857Y-93423333D02*
X131150952Y-93423333D01*
X130865238Y-93566190D02*
X131031904Y-93066190D01*
X131198571Y-93566190D01*
X131460476Y-93066190D02*
X131508095Y-93066190D01*
X131555714Y-93090000D01*
X131579523Y-93113809D01*
X131603333Y-93161428D01*
X131627142Y-93256666D01*
X131627142Y-93375714D01*
X131603333Y-93470952D01*
X131579523Y-93518571D01*
X131555714Y-93542380D01*
X131508095Y-93566190D01*
X131460476Y-93566190D01*
X131412857Y-93542380D01*
X131389047Y-93518571D01*
X131365238Y-93470952D01*
X131341428Y-93375714D01*
X131341428Y-93256666D01*
X131365238Y-93161428D01*
X131389047Y-93113809D01*
X131412857Y-93090000D01*
X131460476Y-93066190D01*
D11*
G04 #@! TO.C,R2*
X153535000Y-101821267D02*
X153535000Y-101478733D01*
X152515000Y-101821267D02*
X152515000Y-101478733D01*
G04 #@! TO.C,Y2*
X138430000Y-93660000D02*
X139230000Y-93660000D01*
X138430000Y-96060000D02*
X138430000Y-94060000D01*
X139230000Y-96060000D02*
X138430000Y-96060000D01*
X142030000Y-96060000D02*
X141030000Y-96060000D01*
X142030000Y-94060000D02*
X142030000Y-96060000D01*
X141030000Y-93660000D02*
X142030000Y-93660000D01*
X141030000Y-93660000D02*
X141030000Y-93260000D01*
X142230000Y-96060000D02*
X142230000Y-94060000D01*
X138430000Y-94060000D02*
X138430000Y-93660000D01*
X142030000Y-94060000D02*
X142030000Y-93660000D01*
X142230000Y-94060000D02*
X142230000Y-93660000D01*
G04 #@! TO.C,SW1*
X130880000Y-107450000D02*
X130880000Y-103750000D01*
X137000000Y-107450000D02*
X130880000Y-107450000D01*
X137000000Y-103750000D02*
X137000000Y-107450000D01*
X130880000Y-103750000D02*
X137000000Y-103750000D01*
G04 #@! TO.C,C1*
X137262779Y-103310000D02*
X136937221Y-103310000D01*
X137262779Y-102290000D02*
X136937221Y-102290000D01*
G04 #@! TO.C,C2*
X152060000Y-102012779D02*
X152060000Y-101687221D01*
X151040000Y-102012779D02*
X151040000Y-101687221D01*
G04 #@! TO.C,C3*
X148337221Y-93690000D02*
X148662779Y-93690000D01*
X148337221Y-94710000D02*
X148662779Y-94710000D01*
G04 #@! TO.C,C4*
X141812779Y-106240000D02*
X141487221Y-106240000D01*
X141812779Y-107260000D02*
X141487221Y-107260000D01*
G04 #@! TO.C,C5*
X137412779Y-100260000D02*
X137087221Y-100260000D01*
X137412779Y-99240000D02*
X137087221Y-99240000D01*
G04 #@! TO.C,C6*
X137412779Y-98760000D02*
X137087221Y-98760000D01*
X137412779Y-97740000D02*
X137087221Y-97740000D01*
G04 #@! TO.C,C7*
X145762779Y-93690000D02*
X145437221Y-93690000D01*
X145762779Y-94710000D02*
X145437221Y-94710000D01*
G04 #@! TO.C,C8*
X134137221Y-96240000D02*
X134462779Y-96240000D01*
X134137221Y-97260000D02*
X134462779Y-97260000D01*
G04 #@! TO.C,C9*
X137362779Y-96240000D02*
X137037221Y-96240000D01*
X137362779Y-97260000D02*
X137037221Y-97260000D01*
G04 #@! TO.C,R1*
X137321267Y-101810000D02*
X136978733Y-101810000D01*
X137321267Y-100790000D02*
X136978733Y-100790000D01*
G04 #@! TO.C,R3*
X152515000Y-97778733D02*
X152515000Y-98121267D01*
X153535000Y-97778733D02*
X153535000Y-98121267D01*
G04 #@! TO.C,R4*
X139978733Y-104790000D02*
X140321267Y-104790000D01*
X139978733Y-105810000D02*
X140321267Y-105810000D01*
G04 #@! TO.C,U1*
X150159600Y-100725000D02*
X149862615Y-101021985D01*
X145125000Y-105759600D02*
X145421985Y-105462615D01*
X140090400Y-100725000D02*
X140387385Y-100428015D01*
X145125000Y-95690400D02*
X145421985Y-95987385D01*
X145125000Y-105759600D02*
X144828015Y-105462615D01*
X150159600Y-100725000D02*
X149862615Y-100428015D01*
X144828015Y-95987385D02*
X143852208Y-95011577D01*
X145125000Y-95690400D02*
X144828015Y-95987385D01*
X140090400Y-100725000D02*
X140387385Y-101021985D01*
D12*
G04 #@! TO.C,Y1*
X138150000Y-93750000D02*
X138050000Y-93650000D01*
X138050000Y-93650000D02*
X137850000Y-93650000D01*
X137850000Y-93650000D02*
X137750000Y-93650000D01*
X134150000Y-95750000D02*
X134250000Y-95850000D01*
X134250000Y-95850000D02*
X138050000Y-95850000D01*
X138050000Y-95850000D02*
X138150000Y-95750000D01*
X134150000Y-93750000D02*
X134250000Y-93650000D01*
X134250000Y-93650000D02*
X137950000Y-93650000D01*
D11*
G04 #@! TO.C,J5*
X158360000Y-95070000D02*
X158860000Y-95070000D01*
X158360000Y-96470000D02*
X158860000Y-96470000D01*
X158360000Y-96470000D02*
X158360000Y-97070000D01*
X158360000Y-97070000D02*
X158160000Y-97270000D01*
X158160000Y-94270000D02*
X158360000Y-94270000D01*
X158360000Y-94270000D02*
X158360000Y-95070000D01*
X155360000Y-95070000D02*
X155360000Y-94270000D01*
X155360000Y-94270000D02*
X155560000Y-94270000D01*
X155560000Y-97270000D02*
X155360000Y-97270000D01*
X155360000Y-97270000D02*
X155360000Y-96470000D01*
G04 #@! TO.C,SW2*
X152430000Y-103740000D02*
X158550000Y-103740000D01*
X158550000Y-103740000D02*
X158550000Y-107440000D01*
X158550000Y-107440000D02*
X152430000Y-107440000D01*
X152430000Y-107440000D02*
X152430000Y-103740000D01*
G04 #@! TO.C,R2*
D10*
X153205952Y-101716666D02*
X153015476Y-101850000D01*
X153205952Y-101945238D02*
X152805952Y-101945238D01*
X152805952Y-101792857D01*
X152825000Y-101754761D01*
X152844047Y-101735714D01*
X152882142Y-101716666D01*
X152939285Y-101716666D01*
X152977380Y-101735714D01*
X152996428Y-101754761D01*
X153015476Y-101792857D01*
X153015476Y-101945238D01*
X152844047Y-101564285D02*
X152825000Y-101545238D01*
X152805952Y-101507142D01*
X152805952Y-101411904D01*
X152825000Y-101373809D01*
X152844047Y-101354761D01*
X152882142Y-101335714D01*
X152920238Y-101335714D01*
X152977380Y-101354761D01*
X153205952Y-101583333D01*
X153205952Y-101335714D01*
G04 #@! TO.C,Y2*
D12*
X139815809Y-94994190D02*
X139815809Y-95470380D01*
X139482476Y-94470380D02*
X139815809Y-94994190D01*
X140149142Y-94470380D01*
X140434857Y-94565619D02*
X140482476Y-94518000D01*
X140577714Y-94470380D01*
X140815809Y-94470380D01*
X140911047Y-94518000D01*
X140958666Y-94565619D01*
X141006285Y-94660857D01*
X141006285Y-94756095D01*
X140958666Y-94898952D01*
X140387238Y-95470380D01*
X141006285Y-95470380D01*
G04 #@! TO.C,SW1*
X133130000Y-105832857D02*
X133215714Y-105861428D01*
X133358571Y-105861428D01*
X133415714Y-105832857D01*
X133444285Y-105804285D01*
X133472857Y-105747142D01*
X133472857Y-105690000D01*
X133444285Y-105632857D01*
X133415714Y-105604285D01*
X133358571Y-105575714D01*
X133244285Y-105547142D01*
X133187142Y-105518571D01*
X133158571Y-105490000D01*
X133130000Y-105432857D01*
X133130000Y-105375714D01*
X133158571Y-105318571D01*
X133187142Y-105290000D01*
X133244285Y-105261428D01*
X133387142Y-105261428D01*
X133472857Y-105290000D01*
X133672857Y-105261428D02*
X133815714Y-105861428D01*
X133930000Y-105432857D01*
X134044285Y-105861428D01*
X134187142Y-105261428D01*
X134730000Y-105861428D02*
X134387142Y-105861428D01*
X134558571Y-105861428D02*
X134558571Y-105261428D01*
X134501428Y-105347142D01*
X134444285Y-105404285D01*
X134387142Y-105432857D01*
G04 #@! TO.C,C1*
D10*
X137005334Y-102932357D02*
X136986286Y-102951404D01*
X136929143Y-102970452D01*
X136891048Y-102970452D01*
X136833905Y-102951404D01*
X136795810Y-102913309D01*
X136776762Y-102875214D01*
X136757715Y-102799023D01*
X136757715Y-102741880D01*
X136776762Y-102665690D01*
X136795810Y-102627595D01*
X136833905Y-102589500D01*
X136891048Y-102570452D01*
X136929143Y-102570452D01*
X136986286Y-102589500D01*
X137005334Y-102608547D01*
X137386286Y-102970452D02*
X137157715Y-102970452D01*
X137272001Y-102970452D02*
X137272001Y-102570452D01*
X137233905Y-102627595D01*
X137195810Y-102665690D01*
X137157715Y-102684738D01*
G04 #@! TO.C,C2*
X151748357Y-101916666D02*
X151767404Y-101935714D01*
X151786452Y-101992857D01*
X151786452Y-102030952D01*
X151767404Y-102088095D01*
X151729309Y-102126190D01*
X151691214Y-102145238D01*
X151615023Y-102164285D01*
X151557880Y-102164285D01*
X151481690Y-102145238D01*
X151443595Y-102126190D01*
X151405500Y-102088095D01*
X151386452Y-102030952D01*
X151386452Y-101992857D01*
X151405500Y-101935714D01*
X151424547Y-101916666D01*
X151424547Y-101764285D02*
X151405500Y-101745238D01*
X151386452Y-101707142D01*
X151386452Y-101611904D01*
X151405500Y-101573809D01*
X151424547Y-101554761D01*
X151462642Y-101535714D01*
X151500738Y-101535714D01*
X151557880Y-101554761D01*
X151786452Y-101783333D01*
X151786452Y-101535714D01*
G04 #@! TO.C,C3*
X148409905Y-94403357D02*
X148390857Y-94422404D01*
X148333714Y-94441452D01*
X148295619Y-94441452D01*
X148238476Y-94422404D01*
X148200381Y-94384309D01*
X148181333Y-94346214D01*
X148162286Y-94270023D01*
X148162286Y-94212880D01*
X148181333Y-94136690D01*
X148200381Y-94098595D01*
X148238476Y-94060500D01*
X148295619Y-94041452D01*
X148333714Y-94041452D01*
X148390857Y-94060500D01*
X148409905Y-94079547D01*
X148543238Y-94041452D02*
X148790857Y-94041452D01*
X148657524Y-94193833D01*
X148714667Y-94193833D01*
X148752762Y-94212880D01*
X148771810Y-94231928D01*
X148790857Y-94270023D01*
X148790857Y-94365261D01*
X148771810Y-94403357D01*
X148752762Y-94422404D01*
X148714667Y-94441452D01*
X148600381Y-94441452D01*
X148562286Y-94422404D01*
X148543238Y-94403357D01*
G04 #@! TO.C,C4*
X141583333Y-106857357D02*
X141564285Y-106876404D01*
X141507142Y-106895452D01*
X141469047Y-106895452D01*
X141411904Y-106876404D01*
X141373809Y-106838309D01*
X141354761Y-106800214D01*
X141335714Y-106724023D01*
X141335714Y-106666880D01*
X141354761Y-106590690D01*
X141373809Y-106552595D01*
X141411904Y-106514500D01*
X141469047Y-106495452D01*
X141507142Y-106495452D01*
X141564285Y-106514500D01*
X141583333Y-106533547D01*
X141926190Y-106628785D02*
X141926190Y-106895452D01*
X141830952Y-106476404D02*
X141735714Y-106762119D01*
X141983333Y-106762119D01*
G04 #@! TO.C,C5*
X137191761Y-99897357D02*
X137172713Y-99916404D01*
X137115570Y-99935452D01*
X137077475Y-99935452D01*
X137020332Y-99916404D01*
X136982237Y-99878309D01*
X136963189Y-99840214D01*
X136944142Y-99764023D01*
X136944142Y-99706880D01*
X136963189Y-99630690D01*
X136982237Y-99592595D01*
X137020332Y-99554500D01*
X137077475Y-99535452D01*
X137115570Y-99535452D01*
X137172713Y-99554500D01*
X137191761Y-99573547D01*
X137553666Y-99535452D02*
X137363189Y-99535452D01*
X137344142Y-99725928D01*
X137363189Y-99706880D01*
X137401285Y-99687833D01*
X137496523Y-99687833D01*
X137534618Y-99706880D01*
X137553666Y-99725928D01*
X137572713Y-99764023D01*
X137572713Y-99859261D01*
X137553666Y-99897357D01*
X137534618Y-99916404D01*
X137496523Y-99935452D01*
X137401285Y-99935452D01*
X137363189Y-99916404D01*
X137344142Y-99897357D01*
G04 #@! TO.C,C6*
X137193333Y-98352857D02*
X137174285Y-98371904D01*
X137117142Y-98390952D01*
X137079047Y-98390952D01*
X137021904Y-98371904D01*
X136983809Y-98333809D01*
X136964761Y-98295714D01*
X136945714Y-98219523D01*
X136945714Y-98162380D01*
X136964761Y-98086190D01*
X136983809Y-98048095D01*
X137021904Y-98010000D01*
X137079047Y-97990952D01*
X137117142Y-97990952D01*
X137174285Y-98010000D01*
X137193333Y-98029047D01*
X137536190Y-97990952D02*
X137460000Y-97990952D01*
X137421904Y-98010000D01*
X137402857Y-98029047D01*
X137364761Y-98086190D01*
X137345714Y-98162380D01*
X137345714Y-98314761D01*
X137364761Y-98352857D01*
X137383809Y-98371904D01*
X137421904Y-98390952D01*
X137498095Y-98390952D01*
X137536190Y-98371904D01*
X137555238Y-98352857D01*
X137574285Y-98314761D01*
X137574285Y-98219523D01*
X137555238Y-98181428D01*
X137536190Y-98162380D01*
X137498095Y-98143333D01*
X137421904Y-98143333D01*
X137383809Y-98162380D01*
X137364761Y-98181428D01*
X137345714Y-98219523D01*
G04 #@! TO.C,C7*
X145524857Y-94332357D02*
X145505809Y-94351404D01*
X145448666Y-94370452D01*
X145410571Y-94370452D01*
X145353428Y-94351404D01*
X145315333Y-94313309D01*
X145296285Y-94275214D01*
X145277238Y-94199023D01*
X145277238Y-94141880D01*
X145296285Y-94065690D01*
X145315333Y-94027595D01*
X145353428Y-93989500D01*
X145410571Y-93970452D01*
X145448666Y-93970452D01*
X145505809Y-93989500D01*
X145524857Y-94008547D01*
X145658190Y-93970452D02*
X145924857Y-93970452D01*
X145753428Y-94370452D01*
G04 #@! TO.C,C8*
X134223000Y-96898357D02*
X134203952Y-96917404D01*
X134146809Y-96936452D01*
X134108714Y-96936452D01*
X134051571Y-96917404D01*
X134013476Y-96879309D01*
X133994428Y-96841214D01*
X133975381Y-96765023D01*
X133975381Y-96707880D01*
X133994428Y-96631690D01*
X134013476Y-96593595D01*
X134051571Y-96555500D01*
X134108714Y-96536452D01*
X134146809Y-96536452D01*
X134203952Y-96555500D01*
X134223000Y-96574547D01*
X134451571Y-96707880D02*
X134413476Y-96688833D01*
X134394428Y-96669785D01*
X134375381Y-96631690D01*
X134375381Y-96612642D01*
X134394428Y-96574547D01*
X134413476Y-96555500D01*
X134451571Y-96536452D01*
X134527762Y-96536452D01*
X134565857Y-96555500D01*
X134584905Y-96574547D01*
X134603952Y-96612642D01*
X134603952Y-96631690D01*
X134584905Y-96669785D01*
X134565857Y-96688833D01*
X134527762Y-96707880D01*
X134451571Y-96707880D01*
X134413476Y-96726928D01*
X134394428Y-96745976D01*
X134375381Y-96784071D01*
X134375381Y-96860261D01*
X134394428Y-96898357D01*
X134413476Y-96917404D01*
X134451571Y-96936452D01*
X134527762Y-96936452D01*
X134565857Y-96917404D01*
X134584905Y-96898357D01*
X134603952Y-96860261D01*
X134603952Y-96784071D01*
X134584905Y-96745976D01*
X134565857Y-96726928D01*
X134527762Y-96707880D01*
G04 #@! TO.C,C9*
X137133333Y-96932857D02*
X137114285Y-96951904D01*
X137057142Y-96970952D01*
X137019047Y-96970952D01*
X136961904Y-96951904D01*
X136923809Y-96913809D01*
X136904761Y-96875714D01*
X136885714Y-96799523D01*
X136885714Y-96742380D01*
X136904761Y-96666190D01*
X136923809Y-96628095D01*
X136961904Y-96590000D01*
X137019047Y-96570952D01*
X137057142Y-96570952D01*
X137114285Y-96590000D01*
X137133333Y-96609047D01*
X137323809Y-96970952D02*
X137400000Y-96970952D01*
X137438095Y-96951904D01*
X137457142Y-96932857D01*
X137495238Y-96875714D01*
X137514285Y-96799523D01*
X137514285Y-96647142D01*
X137495238Y-96609047D01*
X137476190Y-96590000D01*
X137438095Y-96570952D01*
X137361904Y-96570952D01*
X137323809Y-96590000D01*
X137304761Y-96609047D01*
X137285714Y-96647142D01*
X137285714Y-96742380D01*
X137304761Y-96780476D01*
X137323809Y-96799523D01*
X137361904Y-96818571D01*
X137438095Y-96818571D01*
X137476190Y-96799523D01*
X137495238Y-96780476D01*
X137514285Y-96742380D01*
G04 #@! TO.C,R1*
X137060334Y-101445452D02*
X136927001Y-101254976D01*
X136831762Y-101445452D02*
X136831762Y-101045452D01*
X136984143Y-101045452D01*
X137022239Y-101064500D01*
X137041286Y-101083547D01*
X137060334Y-101121642D01*
X137060334Y-101178785D01*
X137041286Y-101216880D01*
X137022239Y-101235928D01*
X136984143Y-101254976D01*
X136831762Y-101254976D01*
X137441286Y-101445452D02*
X137212715Y-101445452D01*
X137327001Y-101445452D02*
X137327001Y-101045452D01*
X137288905Y-101102595D01*
X137250810Y-101140690D01*
X137212715Y-101159738D01*
G04 #@! TO.C,R3*
X153205952Y-98006666D02*
X153015476Y-98140000D01*
X153205952Y-98235238D02*
X152805952Y-98235238D01*
X152805952Y-98082857D01*
X152825000Y-98044761D01*
X152844047Y-98025714D01*
X152882142Y-98006666D01*
X152939285Y-98006666D01*
X152977380Y-98025714D01*
X152996428Y-98044761D01*
X153015476Y-98082857D01*
X153015476Y-98235238D01*
X152805952Y-97873333D02*
X152805952Y-97625714D01*
X152958333Y-97759047D01*
X152958333Y-97701904D01*
X152977380Y-97663809D01*
X152996428Y-97644761D01*
X153034523Y-97625714D01*
X153129761Y-97625714D01*
X153167857Y-97644761D01*
X153186904Y-97663809D01*
X153205952Y-97701904D01*
X153205952Y-97816190D01*
X153186904Y-97854285D01*
X153167857Y-97873333D01*
G04 #@! TO.C,R4*
X140082762Y-105466452D02*
X139949429Y-105275976D01*
X139854190Y-105466452D02*
X139854190Y-105066452D01*
X140006571Y-105066452D01*
X140044667Y-105085500D01*
X140063714Y-105104547D01*
X140082762Y-105142642D01*
X140082762Y-105199785D01*
X140063714Y-105237880D01*
X140044667Y-105256928D01*
X140006571Y-105275976D01*
X139854190Y-105275976D01*
X140425619Y-105199785D02*
X140425619Y-105466452D01*
X140330381Y-105047404D02*
X140235143Y-105333119D01*
X140482762Y-105333119D01*
G04 #@! TO.C,U1*
D12*
X146763477Y-97979026D02*
X146191057Y-98551446D01*
X146157385Y-98652461D01*
X146157385Y-98719805D01*
X146191057Y-98820820D01*
X146325744Y-98955507D01*
X146426759Y-98989179D01*
X146494103Y-98989179D01*
X146595118Y-98955507D01*
X147167538Y-98383087D01*
X147167538Y-99797301D02*
X146763477Y-99393240D01*
X146965507Y-99595270D02*
X147672614Y-98888164D01*
X147504255Y-98921835D01*
X147369568Y-98921835D01*
X147268553Y-98888164D01*
G04 #@! TO.C,Y1*
D10*
X135996761Y-94773976D02*
X135996761Y-94964452D01*
X135863428Y-94564452D02*
X135996761Y-94773976D01*
X136130095Y-94564452D01*
X136472952Y-94964452D02*
X136244380Y-94964452D01*
X136358666Y-94964452D02*
X136358666Y-94564452D01*
X136320571Y-94621595D01*
X136282476Y-94659690D01*
X136244380Y-94678738D01*
G04 #@! TO.C,J5*
X156676666Y-95500952D02*
X156676666Y-95786666D01*
X156657619Y-95843809D01*
X156619523Y-95881904D01*
X156562380Y-95900952D01*
X156524285Y-95900952D01*
X157057619Y-95500952D02*
X156867142Y-95500952D01*
X156848095Y-95691428D01*
X156867142Y-95672380D01*
X156905238Y-95653333D01*
X157000476Y-95653333D01*
X157038571Y-95672380D01*
X157057619Y-95691428D01*
X157076666Y-95729523D01*
X157076666Y-95824761D01*
X157057619Y-95862857D01*
X157038571Y-95881904D01*
X157000476Y-95900952D01*
X156905238Y-95900952D01*
X156867142Y-95881904D01*
X156848095Y-95862857D01*
G04 #@! TO.C,SW2*
D12*
X154690000Y-105752857D02*
X154775714Y-105781428D01*
X154918571Y-105781428D01*
X154975714Y-105752857D01*
X155004285Y-105724285D01*
X155032857Y-105667142D01*
X155032857Y-105610000D01*
X155004285Y-105552857D01*
X154975714Y-105524285D01*
X154918571Y-105495714D01*
X154804285Y-105467142D01*
X154747142Y-105438571D01*
X154718571Y-105410000D01*
X154690000Y-105352857D01*
X154690000Y-105295714D01*
X154718571Y-105238571D01*
X154747142Y-105210000D01*
X154804285Y-105181428D01*
X154947142Y-105181428D01*
X155032857Y-105210000D01*
X155232857Y-105181428D02*
X155375714Y-105781428D01*
X155490000Y-105352857D01*
X155604285Y-105781428D01*
X155747142Y-105181428D01*
X155947142Y-105238571D02*
X155975714Y-105210000D01*
X156032857Y-105181428D01*
X156175714Y-105181428D01*
X156232857Y-105210000D01*
X156261428Y-105238571D01*
X156290000Y-105295714D01*
X156290000Y-105352857D01*
X156261428Y-105438571D01*
X155918571Y-105781428D01*
X156290000Y-105781428D01*
G04 #@! TD*
M02*
