G04 #@! TF.GenerationSoftware,KiCad,Pcbnew,5.0.0-rc2-unknown-a288d61~65~ubuntu18.04.1*
G04 #@! TF.CreationDate,2018-07-04T19:13:21+02:00*
G04 #@! TF.ProjectId,STM32_Sensor_V4,53544D33325F53656E736F725F56342E,rev?*
G04 #@! TF.SameCoordinates,Original*
G04 #@! TF.FileFunction,Legend,Bot*
G04 #@! TF.FilePolarity,Positive*
%FSLAX46Y46*%
G04 Gerber Fmt 4.6, Leading zero omitted, Abs format (unit mm)*
G04 Created by KiCad (PCBNEW 5.0.0-rc2-unknown-a288d61~65~ubuntu18.04.1) date Wed Jul  4 19:13:21 2018*
%MOMM*%
%LPD*%
G01*
G04 APERTURE LIST*
%ADD10C,0.200000*%
%ADD11C,0.150000*%
%ADD12C,0.175000*%
%ADD13C,0.100000*%
%ADD14C,0.203200*%
%ADD15C,0.120000*%
G04 APERTURE END LIST*
D10*
X148888285Y-106533904D02*
X149154952Y-106152952D01*
X149345428Y-106533904D02*
X149345428Y-105733904D01*
X149040666Y-105733904D01*
X148964476Y-105772000D01*
X148926380Y-105810095D01*
X148888285Y-105886285D01*
X148888285Y-106000571D01*
X148926380Y-106076761D01*
X148964476Y-106114857D01*
X149040666Y-106152952D01*
X149345428Y-106152952D01*
X148278761Y-106114857D02*
X148545428Y-106114857D01*
X148545428Y-106533904D02*
X148545428Y-105733904D01*
X148164476Y-105733904D01*
X147859714Y-106533904D02*
X147859714Y-105733904D01*
X147593047Y-106305333D01*
X147326380Y-105733904D01*
X147326380Y-106533904D01*
X146602571Y-105733904D02*
X146754952Y-105733904D01*
X146831142Y-105772000D01*
X146869238Y-105810095D01*
X146945428Y-105924380D01*
X146983523Y-106076761D01*
X146983523Y-106381523D01*
X146945428Y-106457714D01*
X146907333Y-106495809D01*
X146831142Y-106533904D01*
X146678761Y-106533904D01*
X146602571Y-106495809D01*
X146564476Y-106457714D01*
X146526380Y-106381523D01*
X146526380Y-106191047D01*
X146564476Y-106114857D01*
X146602571Y-106076761D01*
X146678761Y-106038666D01*
X146831142Y-106038666D01*
X146907333Y-106076761D01*
X146945428Y-106114857D01*
X146983523Y-106191047D01*
X146145428Y-106533904D02*
X145993047Y-106533904D01*
X145916857Y-106495809D01*
X145878761Y-106457714D01*
X145802571Y-106343428D01*
X145764476Y-106191047D01*
X145764476Y-105886285D01*
X145802571Y-105810095D01*
X145840666Y-105772000D01*
X145916857Y-105733904D01*
X146069238Y-105733904D01*
X146145428Y-105772000D01*
X146183523Y-105810095D01*
X146221619Y-105886285D01*
X146221619Y-106076761D01*
X146183523Y-106152952D01*
X146145428Y-106191047D01*
X146069238Y-106229142D01*
X145916857Y-106229142D01*
X145840666Y-106191047D01*
X145802571Y-106152952D01*
X145764476Y-106076761D01*
D11*
X150985714Y-95680000D02*
X150700000Y-95680000D01*
X151042857Y-95851428D02*
X150842857Y-95251428D01*
X150642857Y-95851428D01*
X150442857Y-95851428D02*
X150442857Y-95251428D01*
X150100000Y-95851428D01*
X150100000Y-95251428D01*
X149900000Y-95251428D02*
X149557142Y-95251428D01*
X149728571Y-95851428D02*
X149728571Y-95251428D01*
D12*
X150886666Y-99134333D02*
X150786666Y-99167666D01*
X150620000Y-99167666D01*
X150553333Y-99134333D01*
X150520000Y-99101000D01*
X150486666Y-99034333D01*
X150486666Y-98967666D01*
X150520000Y-98901000D01*
X150553333Y-98867666D01*
X150620000Y-98834333D01*
X150753333Y-98801000D01*
X150820000Y-98767666D01*
X150853333Y-98734333D01*
X150886666Y-98667666D01*
X150886666Y-98601000D01*
X150853333Y-98534333D01*
X150820000Y-98501000D01*
X150753333Y-98467666D01*
X150586666Y-98467666D01*
X150486666Y-98501000D01*
X150286666Y-98467666D02*
X149886666Y-98467666D01*
X150086666Y-99167666D02*
X150086666Y-98467666D01*
X149653333Y-99167666D02*
X149653333Y-98467666D01*
X149420000Y-98967666D01*
X149186666Y-98467666D01*
X149186666Y-99167666D01*
X148920000Y-98467666D02*
X148486666Y-98467666D01*
X148720000Y-98734333D01*
X148620000Y-98734333D01*
X148553333Y-98767666D01*
X148520000Y-98801000D01*
X148486666Y-98867666D01*
X148486666Y-99034333D01*
X148520000Y-99101000D01*
X148553333Y-99134333D01*
X148620000Y-99167666D01*
X148820000Y-99167666D01*
X148886666Y-99134333D01*
X148920000Y-99101000D01*
X148220000Y-98534333D02*
X148186666Y-98501000D01*
X148120000Y-98467666D01*
X147953333Y-98467666D01*
X147886666Y-98501000D01*
X147853333Y-98534333D01*
X147820000Y-98601000D01*
X147820000Y-98667666D01*
X147853333Y-98767666D01*
X148253333Y-99167666D01*
X147820000Y-99167666D01*
X147020000Y-99134333D02*
X146920000Y-99167666D01*
X146753333Y-99167666D01*
X146686666Y-99134333D01*
X146653333Y-99101000D01*
X146620000Y-99034333D01*
X146620000Y-98967666D01*
X146653333Y-98901000D01*
X146686666Y-98867666D01*
X146753333Y-98834333D01*
X146886666Y-98801000D01*
X146953333Y-98767666D01*
X146986666Y-98734333D01*
X147020000Y-98667666D01*
X147020000Y-98601000D01*
X146986666Y-98534333D01*
X146953333Y-98501000D01*
X146886666Y-98467666D01*
X146720000Y-98467666D01*
X146620000Y-98501000D01*
X146053333Y-99134333D02*
X146120000Y-99167666D01*
X146253333Y-99167666D01*
X146320000Y-99134333D01*
X146353333Y-99067666D01*
X146353333Y-98801000D01*
X146320000Y-98734333D01*
X146253333Y-98701000D01*
X146120000Y-98701000D01*
X146053333Y-98734333D01*
X146020000Y-98801000D01*
X146020000Y-98867666D01*
X146353333Y-98934333D01*
X145720000Y-98701000D02*
X145720000Y-99167666D01*
X145720000Y-98767666D02*
X145686666Y-98734333D01*
X145620000Y-98701000D01*
X145520000Y-98701000D01*
X145453333Y-98734333D01*
X145420000Y-98801000D01*
X145420000Y-99167666D01*
X145120000Y-99134333D02*
X145053333Y-99167666D01*
X144920000Y-99167666D01*
X144853333Y-99134333D01*
X144820000Y-99067666D01*
X144820000Y-99034333D01*
X144853333Y-98967666D01*
X144920000Y-98934333D01*
X145020000Y-98934333D01*
X145086666Y-98901000D01*
X145120000Y-98834333D01*
X145120000Y-98801000D01*
X145086666Y-98734333D01*
X145020000Y-98701000D01*
X144920000Y-98701000D01*
X144853333Y-98734333D01*
X144420000Y-99167666D02*
X144486666Y-99134333D01*
X144520000Y-99101000D01*
X144553333Y-99034333D01*
X144553333Y-98834333D01*
X144520000Y-98767666D01*
X144486666Y-98734333D01*
X144420000Y-98701000D01*
X144320000Y-98701000D01*
X144253333Y-98734333D01*
X144220000Y-98767666D01*
X144186666Y-98834333D01*
X144186666Y-99034333D01*
X144220000Y-99101000D01*
X144253333Y-99134333D01*
X144320000Y-99167666D01*
X144420000Y-99167666D01*
X143886666Y-99167666D02*
X143886666Y-98701000D01*
X143886666Y-98834333D02*
X143853333Y-98767666D01*
X143820000Y-98734333D01*
X143753333Y-98701000D01*
X143686666Y-98701000D01*
X147886666Y-99692666D02*
X147653333Y-100392666D01*
X147420000Y-99692666D01*
X146886666Y-99926000D02*
X146886666Y-100392666D01*
X147053333Y-99659333D02*
X147220000Y-100159333D01*
X146786666Y-100159333D01*
X150136666Y-101617666D02*
X150136666Y-100917666D01*
X150136666Y-101184333D02*
X150070000Y-101151000D01*
X149936666Y-101151000D01*
X149870000Y-101184333D01*
X149836666Y-101217666D01*
X149803333Y-101284333D01*
X149803333Y-101484333D01*
X149836666Y-101551000D01*
X149870000Y-101584333D01*
X149936666Y-101617666D01*
X150070000Y-101617666D01*
X150136666Y-101584333D01*
X149570000Y-101151000D02*
X149403333Y-101617666D01*
X149236666Y-101151000D02*
X149403333Y-101617666D01*
X149470000Y-101784333D01*
X149503333Y-101817666D01*
X149570000Y-101851000D01*
X148536666Y-101151000D02*
X148270000Y-101151000D01*
X148436666Y-101617666D02*
X148436666Y-101017666D01*
X148403333Y-100951000D01*
X148336666Y-100917666D01*
X148270000Y-100917666D01*
X148036666Y-101617666D02*
X148036666Y-101151000D01*
X148036666Y-101284333D02*
X148003333Y-101217666D01*
X147970000Y-101184333D01*
X147903333Y-101151000D01*
X147836666Y-101151000D01*
X147336666Y-101584333D02*
X147403333Y-101617666D01*
X147536666Y-101617666D01*
X147603333Y-101584333D01*
X147636666Y-101517666D01*
X147636666Y-101251000D01*
X147603333Y-101184333D01*
X147536666Y-101151000D01*
X147403333Y-101151000D01*
X147336666Y-101184333D01*
X147303333Y-101251000D01*
X147303333Y-101317666D01*
X147636666Y-101384333D01*
X147070000Y-101151000D02*
X146903333Y-101617666D01*
X146736666Y-101151000D02*
X146903333Y-101617666D01*
X146970000Y-101784333D01*
X147003333Y-101817666D01*
X147070000Y-101851000D01*
X146470000Y-101151000D02*
X146470000Y-101617666D01*
X146470000Y-101217666D02*
X146436666Y-101184333D01*
X146370000Y-101151000D01*
X146270000Y-101151000D01*
X146203333Y-101184333D01*
X146170000Y-101251000D01*
X146170000Y-101617666D01*
X145536666Y-101617666D02*
X145536666Y-100917666D01*
X145536666Y-101584333D02*
X145603333Y-101617666D01*
X145736666Y-101617666D01*
X145803333Y-101584333D01*
X145836666Y-101551000D01*
X145870000Y-101484333D01*
X145870000Y-101284333D01*
X145836666Y-101217666D01*
X145803333Y-101184333D01*
X145736666Y-101151000D01*
X145603333Y-101151000D01*
X145536666Y-101184333D01*
X144936666Y-101584333D02*
X145003333Y-101617666D01*
X145136666Y-101617666D01*
X145203333Y-101584333D01*
X145236666Y-101517666D01*
X145236666Y-101251000D01*
X145203333Y-101184333D01*
X145136666Y-101151000D01*
X145003333Y-101151000D01*
X144936666Y-101184333D01*
X144903333Y-101251000D01*
X144903333Y-101317666D01*
X145236666Y-101384333D01*
X144603333Y-101617666D02*
X144603333Y-101151000D01*
X144603333Y-101284333D02*
X144570000Y-101217666D01*
X144536666Y-101184333D01*
X144470000Y-101151000D01*
X144403333Y-101151000D01*
D11*
X154785714Y-94750000D02*
X154500000Y-94750000D01*
X154842857Y-94921428D02*
X154642857Y-94321428D01*
X154442857Y-94921428D01*
X154242857Y-94921428D02*
X154242857Y-94321428D01*
X153900000Y-94921428D01*
X153900000Y-94321428D01*
X153700000Y-94321428D02*
X153357142Y-94321428D01*
X153528571Y-94921428D02*
X153528571Y-94321428D01*
X138605714Y-95171428D02*
X138405714Y-95771428D01*
X138205714Y-95171428D01*
X137805714Y-95457142D02*
X137720000Y-95485714D01*
X137691428Y-95514285D01*
X137662857Y-95571428D01*
X137662857Y-95657142D01*
X137691428Y-95714285D01*
X137720000Y-95742857D01*
X137777142Y-95771428D01*
X138005714Y-95771428D01*
X138005714Y-95171428D01*
X137805714Y-95171428D01*
X137748571Y-95200000D01*
X137720000Y-95228571D01*
X137691428Y-95285714D01*
X137691428Y-95342857D01*
X137720000Y-95400000D01*
X137748571Y-95428571D01*
X137805714Y-95457142D01*
X138005714Y-95457142D01*
X137434285Y-95600000D02*
X137148571Y-95600000D01*
X137491428Y-95771428D02*
X137291428Y-95171428D01*
X137091428Y-95771428D01*
X136977142Y-95171428D02*
X136634285Y-95171428D01*
X136805714Y-95771428D02*
X136805714Y-95171428D01*
D13*
X159798571Y-104187380D02*
X159727142Y-104211190D01*
X159608095Y-104211190D01*
X159560476Y-104187380D01*
X159536666Y-104163571D01*
X159512857Y-104115952D01*
X159512857Y-104068333D01*
X159536666Y-104020714D01*
X159560476Y-103996904D01*
X159608095Y-103973095D01*
X159703333Y-103949285D01*
X159750952Y-103925476D01*
X159774761Y-103901666D01*
X159798571Y-103854047D01*
X159798571Y-103806428D01*
X159774761Y-103758809D01*
X159750952Y-103735000D01*
X159703333Y-103711190D01*
X159584285Y-103711190D01*
X159512857Y-103735000D01*
X159346190Y-103711190D02*
X159227142Y-104211190D01*
X159131904Y-103854047D01*
X159036666Y-104211190D01*
X158917619Y-103711190D01*
X158727142Y-104211190D02*
X158727142Y-103711190D01*
X158608095Y-103711190D01*
X158536666Y-103735000D01*
X158489047Y-103782619D01*
X158465238Y-103830238D01*
X158441428Y-103925476D01*
X158441428Y-103996904D01*
X158465238Y-104092142D01*
X158489047Y-104139761D01*
X158536666Y-104187380D01*
X158608095Y-104211190D01*
X158727142Y-104211190D01*
X159381904Y-105061190D02*
X159381904Y-104561190D01*
X159048571Y-104561190D02*
X158953333Y-104561190D01*
X158905714Y-104585000D01*
X158858095Y-104632619D01*
X158834285Y-104727857D01*
X158834285Y-104894523D01*
X158858095Y-104989761D01*
X158905714Y-105037380D01*
X158953333Y-105061190D01*
X159048571Y-105061190D01*
X159096190Y-105037380D01*
X159143809Y-104989761D01*
X159167619Y-104894523D01*
X159167619Y-104727857D01*
X159143809Y-104632619D01*
X159096190Y-104585000D01*
X159048571Y-104561190D01*
X141509938Y-93574728D02*
X141509938Y-93074728D01*
X141319462Y-93074728D01*
X141271843Y-93098538D01*
X141248033Y-93122347D01*
X141224224Y-93169966D01*
X141224224Y-93241395D01*
X141248033Y-93289014D01*
X141271843Y-93312823D01*
X141319462Y-93336633D01*
X141509938Y-93336633D01*
X140843271Y-93312823D02*
X140771843Y-93336633D01*
X140748033Y-93360442D01*
X140724224Y-93408061D01*
X140724224Y-93479490D01*
X140748033Y-93527109D01*
X140771843Y-93550918D01*
X140819462Y-93574728D01*
X141009938Y-93574728D01*
X141009938Y-93074728D01*
X140843271Y-93074728D01*
X140795652Y-93098538D01*
X140771843Y-93122347D01*
X140748033Y-93169966D01*
X140748033Y-93217585D01*
X140771843Y-93265204D01*
X140795652Y-93289014D01*
X140843271Y-93312823D01*
X141009938Y-93312823D01*
X140486129Y-93574728D02*
X140390891Y-93574728D01*
X140343271Y-93550918D01*
X140319462Y-93527109D01*
X140271843Y-93455680D01*
X140248033Y-93360442D01*
X140248033Y-93169966D01*
X140271843Y-93122347D01*
X140295652Y-93098538D01*
X140343271Y-93074728D01*
X140438510Y-93074728D01*
X140486129Y-93098538D01*
X140509938Y-93122347D01*
X140533748Y-93169966D01*
X140533748Y-93289014D01*
X140509938Y-93336633D01*
X140486129Y-93360442D01*
X140438510Y-93384252D01*
X140343271Y-93384252D01*
X140295652Y-93360442D01*
X140271843Y-93336633D01*
X140248033Y-93289014D01*
X130823748Y-102082918D02*
X130752319Y-102106728D01*
X130633271Y-102106728D01*
X130585652Y-102082918D01*
X130561843Y-102059109D01*
X130538033Y-102011490D01*
X130538033Y-101963871D01*
X130561843Y-101916252D01*
X130585652Y-101892442D01*
X130633271Y-101868633D01*
X130728510Y-101844823D01*
X130776129Y-101821014D01*
X130799938Y-101797204D01*
X130823748Y-101749585D01*
X130823748Y-101701966D01*
X130799938Y-101654347D01*
X130776129Y-101630538D01*
X130728510Y-101606728D01*
X130609462Y-101606728D01*
X130538033Y-101630538D01*
X130038033Y-102059109D02*
X130061843Y-102082918D01*
X130133271Y-102106728D01*
X130180891Y-102106728D01*
X130252319Y-102082918D01*
X130299938Y-102035299D01*
X130323748Y-101987680D01*
X130347557Y-101892442D01*
X130347557Y-101821014D01*
X130323748Y-101725776D01*
X130299938Y-101678157D01*
X130252319Y-101630538D01*
X130180891Y-101606728D01*
X130133271Y-101606728D01*
X130061843Y-101630538D01*
X130038033Y-101654347D01*
X129823748Y-102106728D02*
X129823748Y-101606728D01*
X129538033Y-102106728D02*
X129752319Y-101821014D01*
X129538033Y-101606728D02*
X129823748Y-101892442D01*
X159732597Y-93143849D02*
X159749433Y-93093341D01*
X159799940Y-93042834D01*
X159867284Y-93009162D01*
X159934627Y-93009162D01*
X159985135Y-93025998D01*
X160069314Y-93076505D01*
X160119822Y-93127013D01*
X160170330Y-93211192D01*
X160187165Y-93261700D01*
X160187165Y-93329043D01*
X160153494Y-93396387D01*
X160119822Y-93430059D01*
X160052478Y-93463730D01*
X160018807Y-93463730D01*
X159900956Y-93345879D01*
X159968299Y-93278536D01*
X159900956Y-93648925D02*
X159547402Y-93295372D01*
X159698925Y-93850956D01*
X159345372Y-93497402D01*
X159530566Y-94019314D02*
X159177013Y-93665761D01*
X159092834Y-93749940D01*
X159059162Y-93817284D01*
X159059162Y-93884627D01*
X159075998Y-93935135D01*
X159126505Y-94019314D01*
X159177013Y-94069822D01*
X159261192Y-94120330D01*
X159311700Y-94137165D01*
X159379043Y-94137165D01*
X159446387Y-94103494D01*
X159530566Y-94019314D01*
X141778033Y-108044728D02*
X141778033Y-107544728D01*
X141587557Y-107544728D01*
X141539938Y-107568538D01*
X141516129Y-107592347D01*
X141492319Y-107639966D01*
X141492319Y-107711395D01*
X141516129Y-107759014D01*
X141539938Y-107782823D01*
X141587557Y-107806633D01*
X141778033Y-107806633D01*
X141111367Y-107782823D02*
X141039938Y-107806633D01*
X141016129Y-107830442D01*
X140992319Y-107878061D01*
X140992319Y-107949490D01*
X141016129Y-107997109D01*
X141039938Y-108020918D01*
X141087557Y-108044728D01*
X141278033Y-108044728D01*
X141278033Y-107544728D01*
X141111367Y-107544728D01*
X141063748Y-107568538D01*
X141039938Y-107592347D01*
X141016129Y-107639966D01*
X141016129Y-107687585D01*
X141039938Y-107735204D01*
X141063748Y-107759014D01*
X141111367Y-107782823D01*
X141278033Y-107782823D01*
X140516129Y-108044728D02*
X140801843Y-108044728D01*
X140658986Y-108044728D02*
X140658986Y-107544728D01*
X140706605Y-107616157D01*
X140754224Y-107663776D01*
X140801843Y-107687585D01*
X140325652Y-107592347D02*
X140301843Y-107568538D01*
X140254224Y-107544728D01*
X140135176Y-107544728D01*
X140087557Y-107568538D01*
X140063748Y-107592347D01*
X140039938Y-107639966D01*
X140039938Y-107687585D01*
X140063748Y-107759014D01*
X140349462Y-108044728D01*
X140039938Y-108044728D01*
X159493333Y-107126190D02*
X159660000Y-106888095D01*
X159779047Y-107126190D02*
X159779047Y-106626190D01*
X159588571Y-106626190D01*
X159540952Y-106650000D01*
X159517142Y-106673809D01*
X159493333Y-106721428D01*
X159493333Y-106792857D01*
X159517142Y-106840476D01*
X159540952Y-106864285D01*
X159588571Y-106888095D01*
X159779047Y-106888095D01*
X159326666Y-106626190D02*
X158993333Y-107126190D01*
X158993333Y-106626190D02*
X159326666Y-107126190D01*
X130764224Y-99562728D02*
X130764224Y-99062728D01*
X130573748Y-99062728D01*
X130526129Y-99086538D01*
X130502319Y-99110347D01*
X130478510Y-99157966D01*
X130478510Y-99229395D01*
X130502319Y-99277014D01*
X130526129Y-99300823D01*
X130573748Y-99324633D01*
X130764224Y-99324633D01*
X130288033Y-99419871D02*
X130049938Y-99419871D01*
X130335652Y-99562728D02*
X130168986Y-99062728D01*
X130002319Y-99562728D01*
X129621367Y-99229395D02*
X129621367Y-99562728D01*
X129740414Y-99038918D02*
X129859462Y-99396061D01*
X129549938Y-99396061D01*
X149129938Y-93574728D02*
X149129938Y-93074728D01*
X148939462Y-93074728D01*
X148891843Y-93098538D01*
X148868033Y-93122347D01*
X148844224Y-93169966D01*
X148844224Y-93241395D01*
X148868033Y-93289014D01*
X148891843Y-93312823D01*
X148939462Y-93336633D01*
X149129938Y-93336633D01*
X148463271Y-93312823D02*
X148391843Y-93336633D01*
X148368033Y-93360442D01*
X148344224Y-93408061D01*
X148344224Y-93479490D01*
X148368033Y-93527109D01*
X148391843Y-93550918D01*
X148439462Y-93574728D01*
X148629938Y-93574728D01*
X148629938Y-93074728D01*
X148463271Y-93074728D01*
X148415652Y-93098538D01*
X148391843Y-93122347D01*
X148368033Y-93169966D01*
X148368033Y-93217585D01*
X148391843Y-93265204D01*
X148415652Y-93289014D01*
X148463271Y-93312823D01*
X148629938Y-93312823D01*
X147915652Y-93074728D02*
X148010891Y-93074728D01*
X148058510Y-93098538D01*
X148082319Y-93122347D01*
X148129938Y-93193776D01*
X148153748Y-93289014D01*
X148153748Y-93479490D01*
X148129938Y-93527109D01*
X148106129Y-93550918D01*
X148058510Y-93574728D01*
X147963271Y-93574728D01*
X147915652Y-93550918D01*
X147891843Y-93527109D01*
X147868033Y-93479490D01*
X147868033Y-93360442D01*
X147891843Y-93312823D01*
X147915652Y-93289014D01*
X147963271Y-93265204D01*
X148058510Y-93265204D01*
X148106129Y-93289014D01*
X148129938Y-93312823D01*
X148153748Y-93360442D01*
X159241428Y-93526190D02*
X159241428Y-93026190D01*
X159050952Y-93026190D01*
X159003333Y-93050000D01*
X158979523Y-93073809D01*
X158955714Y-93121428D01*
X158955714Y-93192857D01*
X158979523Y-93240476D01*
X159003333Y-93264285D01*
X159050952Y-93288095D01*
X159241428Y-93288095D01*
X158765238Y-93383333D02*
X158527142Y-93383333D01*
X158812857Y-93526190D02*
X158646190Y-93026190D01*
X158479523Y-93526190D01*
X158050952Y-93526190D02*
X158336666Y-93526190D01*
X158193809Y-93526190D02*
X158193809Y-93026190D01*
X158241428Y-93097619D01*
X158289047Y-93145238D01*
X158336666Y-93169047D01*
X157598571Y-93026190D02*
X157836666Y-93026190D01*
X157860476Y-93264285D01*
X157836666Y-93240476D01*
X157789047Y-93216666D01*
X157670000Y-93216666D01*
X157622380Y-93240476D01*
X157598571Y-93264285D01*
X157574761Y-93311904D01*
X157574761Y-93430952D01*
X157598571Y-93478571D01*
X157622380Y-93502380D01*
X157670000Y-93526190D01*
X157789047Y-93526190D01*
X157836666Y-93502380D01*
X157860476Y-93478571D01*
X130783333Y-94826190D02*
X130783333Y-94326190D01*
X130592857Y-94326190D01*
X130545238Y-94350000D01*
X130521428Y-94373809D01*
X130497619Y-94421428D01*
X130497619Y-94492857D01*
X130521428Y-94540476D01*
X130545238Y-94564285D01*
X130592857Y-94588095D01*
X130783333Y-94588095D01*
X130307142Y-94683333D02*
X130069047Y-94683333D01*
X130354761Y-94826190D02*
X130188095Y-94326190D01*
X130021428Y-94826190D01*
X129878571Y-94373809D02*
X129854761Y-94350000D01*
X129807142Y-94326190D01*
X129688095Y-94326190D01*
X129640476Y-94350000D01*
X129616666Y-94373809D01*
X129592857Y-94421428D01*
X129592857Y-94469047D01*
X129616666Y-94540476D01*
X129902380Y-94826190D01*
X129592857Y-94826190D01*
X159852986Y-107825761D02*
X159650956Y-107623730D01*
X159398417Y-108078299D02*
X159751971Y-107724746D01*
X159566776Y-107539551D02*
X158977521Y-107657402D01*
X159331074Y-107303849D02*
X159213223Y-107893104D01*
X136668033Y-93574728D02*
X136668033Y-93074728D01*
X136477557Y-93074728D01*
X136429938Y-93098538D01*
X136406129Y-93122347D01*
X136382319Y-93169966D01*
X136382319Y-93241395D01*
X136406129Y-93289014D01*
X136429938Y-93312823D01*
X136477557Y-93336633D01*
X136668033Y-93336633D01*
X135882319Y-93527109D02*
X135906129Y-93550918D01*
X135977557Y-93574728D01*
X136025176Y-93574728D01*
X136096605Y-93550918D01*
X136144224Y-93503299D01*
X136168033Y-93455680D01*
X136191843Y-93360442D01*
X136191843Y-93289014D01*
X136168033Y-93193776D01*
X136144224Y-93146157D01*
X136096605Y-93098538D01*
X136025176Y-93074728D01*
X135977557Y-93074728D01*
X135906129Y-93098538D01*
X135882319Y-93122347D01*
X135406129Y-93574728D02*
X135691843Y-93574728D01*
X135548986Y-93574728D02*
X135548986Y-93074728D01*
X135596605Y-93146157D01*
X135644224Y-93193776D01*
X135691843Y-93217585D01*
X135239462Y-93074728D02*
X134929938Y-93074728D01*
X135096605Y-93265204D01*
X135025176Y-93265204D01*
X134977557Y-93289014D01*
X134953748Y-93312823D01*
X134929938Y-93360442D01*
X134929938Y-93479490D01*
X134953748Y-93527109D01*
X134977557Y-93550918D01*
X135025176Y-93574728D01*
X135168033Y-93574728D01*
X135215652Y-93550918D01*
X135239462Y-93527109D01*
X159769047Y-99074728D02*
X159459523Y-99074728D01*
X159626190Y-99265204D01*
X159554761Y-99265204D01*
X159507142Y-99289014D01*
X159483333Y-99312823D01*
X159459523Y-99360442D01*
X159459523Y-99479490D01*
X159483333Y-99527109D01*
X159507142Y-99550918D01*
X159554761Y-99574728D01*
X159697619Y-99574728D01*
X159745238Y-99550918D01*
X159769047Y-99527109D01*
X159316666Y-99074728D02*
X159150000Y-99574728D01*
X158983333Y-99074728D01*
X158864285Y-99074728D02*
X158554761Y-99074728D01*
X158721428Y-99265204D01*
X158650000Y-99265204D01*
X158602380Y-99289014D01*
X158578571Y-99312823D01*
X158554761Y-99360442D01*
X158554761Y-99479490D01*
X158578571Y-99527109D01*
X158602380Y-99550918D01*
X158650000Y-99574728D01*
X158792857Y-99574728D01*
X158840476Y-99550918D01*
X158864285Y-99527109D01*
X136698033Y-108044728D02*
X136698033Y-107544728D01*
X136507557Y-107544728D01*
X136459938Y-107568538D01*
X136436129Y-107592347D01*
X136412319Y-107639966D01*
X136412319Y-107711395D01*
X136436129Y-107759014D01*
X136459938Y-107782823D01*
X136507557Y-107806633D01*
X136698033Y-107806633D01*
X136031367Y-107782823D02*
X135959938Y-107806633D01*
X135936129Y-107830442D01*
X135912319Y-107878061D01*
X135912319Y-107949490D01*
X135936129Y-107997109D01*
X135959938Y-108020918D01*
X136007557Y-108044728D01*
X136198033Y-108044728D01*
X136198033Y-107544728D01*
X136031367Y-107544728D01*
X135983748Y-107568538D01*
X135959938Y-107592347D01*
X135936129Y-107639966D01*
X135936129Y-107687585D01*
X135959938Y-107735204D01*
X135983748Y-107759014D01*
X136031367Y-107782823D01*
X136198033Y-107782823D01*
X135436129Y-108044728D02*
X135721843Y-108044728D01*
X135578986Y-108044728D02*
X135578986Y-107544728D01*
X135626605Y-107616157D01*
X135674224Y-107663776D01*
X135721843Y-107687585D01*
X135126605Y-107544728D02*
X135078986Y-107544728D01*
X135031367Y-107568538D01*
X135007557Y-107592347D01*
X134983748Y-107639966D01*
X134959938Y-107735204D01*
X134959938Y-107854252D01*
X134983748Y-107949490D01*
X135007557Y-107997109D01*
X135031367Y-108020918D01*
X135078986Y-108044728D01*
X135126605Y-108044728D01*
X135174224Y-108020918D01*
X135198033Y-107997109D01*
X135221843Y-107949490D01*
X135245652Y-107854252D01*
X135245652Y-107735204D01*
X135221843Y-107639966D01*
X135198033Y-107592347D01*
X135174224Y-107568538D01*
X135126605Y-107544728D01*
X139172319Y-93074728D02*
X139005652Y-93574728D01*
X138838986Y-93074728D01*
X138505652Y-93312823D02*
X138434224Y-93336633D01*
X138410414Y-93360442D01*
X138386605Y-93408061D01*
X138386605Y-93479490D01*
X138410414Y-93527109D01*
X138434224Y-93550918D01*
X138481843Y-93574728D01*
X138672319Y-93574728D01*
X138672319Y-93074728D01*
X138505652Y-93074728D01*
X138458033Y-93098538D01*
X138434224Y-93122347D01*
X138410414Y-93169966D01*
X138410414Y-93217585D01*
X138434224Y-93265204D01*
X138458033Y-93289014D01*
X138505652Y-93312823D01*
X138672319Y-93312823D01*
X138196129Y-93431871D02*
X137958033Y-93431871D01*
X138243748Y-93574728D02*
X138077081Y-93074728D01*
X137910414Y-93574728D01*
X137815176Y-93074728D02*
X137529462Y-93074728D01*
X137672319Y-93574728D02*
X137672319Y-93074728D01*
X131703333Y-93566190D02*
X131703333Y-93066190D01*
X131512857Y-93066190D01*
X131465238Y-93090000D01*
X131441428Y-93113809D01*
X131417619Y-93161428D01*
X131417619Y-93232857D01*
X131441428Y-93280476D01*
X131465238Y-93304285D01*
X131512857Y-93328095D01*
X131703333Y-93328095D01*
X131227142Y-93423333D02*
X130989047Y-93423333D01*
X131274761Y-93566190D02*
X131108095Y-93066190D01*
X130941428Y-93566190D01*
X130679523Y-93066190D02*
X130631904Y-93066190D01*
X130584285Y-93090000D01*
X130560476Y-93113809D01*
X130536666Y-93161428D01*
X130512857Y-93256666D01*
X130512857Y-93375714D01*
X130536666Y-93470952D01*
X130560476Y-93518571D01*
X130584285Y-93542380D01*
X130631904Y-93566190D01*
X130679523Y-93566190D01*
X130727142Y-93542380D01*
X130750952Y-93518571D01*
X130774761Y-93470952D01*
X130798571Y-93375714D01*
X130798571Y-93256666D01*
X130774761Y-93161428D01*
X130750952Y-93113809D01*
X130727142Y-93090000D01*
X130679523Y-93066190D01*
X130617673Y-107012208D02*
X130264120Y-106658654D01*
X130129433Y-106793341D01*
X130112597Y-106843849D01*
X130112597Y-106877521D01*
X130129433Y-106928028D01*
X130179940Y-106978536D01*
X130230448Y-106995372D01*
X130264120Y-106995372D01*
X130314627Y-106978536D01*
X130449314Y-106843849D01*
X129961074Y-107298417D02*
X129927402Y-107365761D01*
X129927402Y-107399433D01*
X129944238Y-107449940D01*
X129994746Y-107500448D01*
X130045253Y-107517284D01*
X130078925Y-107517284D01*
X130129433Y-107500448D01*
X130264120Y-107365761D01*
X129910566Y-107012208D01*
X129792715Y-107130059D01*
X129775879Y-107180566D01*
X129775879Y-107214238D01*
X129792715Y-107264746D01*
X129826387Y-107298417D01*
X129876895Y-107315253D01*
X129910566Y-107315253D01*
X129961074Y-107298417D01*
X130078925Y-107180566D01*
X129489669Y-107433104D02*
X129455998Y-107466776D01*
X129439162Y-107517284D01*
X129439162Y-107550956D01*
X129455998Y-107601463D01*
X129506505Y-107685643D01*
X129590685Y-107769822D01*
X129674864Y-107820330D01*
X129725372Y-107837165D01*
X129759043Y-107837165D01*
X129809551Y-107820330D01*
X129843223Y-107786658D01*
X129860059Y-107736150D01*
X129860059Y-107702478D01*
X129843223Y-107651971D01*
X129792715Y-107567791D01*
X129708536Y-107483612D01*
X129624356Y-107433104D01*
X129573849Y-107416269D01*
X129540177Y-107416269D01*
X129489669Y-107433104D01*
X131379938Y-108044728D02*
X131379938Y-107544728D01*
X131189462Y-107544728D01*
X131141843Y-107568538D01*
X131118033Y-107592347D01*
X131094224Y-107639966D01*
X131094224Y-107711395D01*
X131118033Y-107759014D01*
X131141843Y-107782823D01*
X131189462Y-107806633D01*
X131379938Y-107806633D01*
X130713271Y-107782823D02*
X130641843Y-107806633D01*
X130618033Y-107830442D01*
X130594224Y-107878061D01*
X130594224Y-107949490D01*
X130618033Y-107997109D01*
X130641843Y-108020918D01*
X130689462Y-108044728D01*
X130879938Y-108044728D01*
X130879938Y-107544728D01*
X130713271Y-107544728D01*
X130665652Y-107568538D01*
X130641843Y-107592347D01*
X130618033Y-107639966D01*
X130618033Y-107687585D01*
X130641843Y-107735204D01*
X130665652Y-107759014D01*
X130713271Y-107782823D01*
X130879938Y-107782823D01*
X130118033Y-108044728D02*
X130403748Y-108044728D01*
X130260891Y-108044728D02*
X130260891Y-107544728D01*
X130308510Y-107616157D01*
X130356129Y-107663776D01*
X130403748Y-107687585D01*
X156749938Y-93574728D02*
X156749938Y-93074728D01*
X156559462Y-93074728D01*
X156511843Y-93098538D01*
X156488033Y-93122347D01*
X156464224Y-93169966D01*
X156464224Y-93241395D01*
X156488033Y-93289014D01*
X156511843Y-93312823D01*
X156559462Y-93336633D01*
X156749938Y-93336633D01*
X156083271Y-93312823D02*
X156011843Y-93336633D01*
X155988033Y-93360442D01*
X155964224Y-93408061D01*
X155964224Y-93479490D01*
X155988033Y-93527109D01*
X156011843Y-93550918D01*
X156059462Y-93574728D01*
X156249938Y-93574728D01*
X156249938Y-93074728D01*
X156083271Y-93074728D01*
X156035652Y-93098538D01*
X156011843Y-93122347D01*
X155988033Y-93169966D01*
X155988033Y-93217585D01*
X156011843Y-93265204D01*
X156035652Y-93289014D01*
X156083271Y-93312823D01*
X156249938Y-93312823D01*
X155797557Y-93074728D02*
X155488033Y-93074728D01*
X155654700Y-93265204D01*
X155583271Y-93265204D01*
X155535652Y-93289014D01*
X155511843Y-93312823D01*
X155488033Y-93360442D01*
X155488033Y-93479490D01*
X155511843Y-93527109D01*
X155535652Y-93550918D01*
X155583271Y-93574728D01*
X155726129Y-93574728D01*
X155773748Y-93550918D01*
X155797557Y-93527109D01*
X133919938Y-108044728D02*
X133919938Y-107544728D01*
X133729462Y-107544728D01*
X133681843Y-107568538D01*
X133658033Y-107592347D01*
X133634224Y-107639966D01*
X133634224Y-107711395D01*
X133658033Y-107759014D01*
X133681843Y-107782823D01*
X133729462Y-107806633D01*
X133919938Y-107806633D01*
X133253271Y-107782823D02*
X133181843Y-107806633D01*
X133158033Y-107830442D01*
X133134224Y-107878061D01*
X133134224Y-107949490D01*
X133158033Y-107997109D01*
X133181843Y-108020918D01*
X133229462Y-108044728D01*
X133419938Y-108044728D01*
X133419938Y-107544728D01*
X133253271Y-107544728D01*
X133205652Y-107568538D01*
X133181843Y-107592347D01*
X133158033Y-107639966D01*
X133158033Y-107687585D01*
X133181843Y-107735204D01*
X133205652Y-107759014D01*
X133253271Y-107782823D01*
X133419938Y-107782823D01*
X132943748Y-107592347D02*
X132919938Y-107568538D01*
X132872319Y-107544728D01*
X132753271Y-107544728D01*
X132705652Y-107568538D01*
X132681843Y-107592347D01*
X132658033Y-107639966D01*
X132658033Y-107687585D01*
X132681843Y-107759014D01*
X132967557Y-108044728D01*
X132658033Y-108044728D01*
X139238033Y-108044728D02*
X139238033Y-107544728D01*
X139047557Y-107544728D01*
X138999938Y-107568538D01*
X138976129Y-107592347D01*
X138952319Y-107639966D01*
X138952319Y-107711395D01*
X138976129Y-107759014D01*
X138999938Y-107782823D01*
X139047557Y-107806633D01*
X139238033Y-107806633D01*
X138571367Y-107782823D02*
X138499938Y-107806633D01*
X138476129Y-107830442D01*
X138452319Y-107878061D01*
X138452319Y-107949490D01*
X138476129Y-107997109D01*
X138499938Y-108020918D01*
X138547557Y-108044728D01*
X138738033Y-108044728D01*
X138738033Y-107544728D01*
X138571367Y-107544728D01*
X138523748Y-107568538D01*
X138499938Y-107592347D01*
X138476129Y-107639966D01*
X138476129Y-107687585D01*
X138499938Y-107735204D01*
X138523748Y-107759014D01*
X138571367Y-107782823D01*
X138738033Y-107782823D01*
X137976129Y-108044728D02*
X138261843Y-108044728D01*
X138118986Y-108044728D02*
X138118986Y-107544728D01*
X138166605Y-107616157D01*
X138214224Y-107663776D01*
X138261843Y-107687585D01*
X137499938Y-108044728D02*
X137785652Y-108044728D01*
X137642795Y-108044728D02*
X137642795Y-107544728D01*
X137690414Y-107616157D01*
X137738033Y-107663776D01*
X137785652Y-107687585D01*
X146858033Y-108044728D02*
X146858033Y-107544728D01*
X146667557Y-107544728D01*
X146619938Y-107568538D01*
X146596129Y-107592347D01*
X146572319Y-107639966D01*
X146572319Y-107711395D01*
X146596129Y-107759014D01*
X146619938Y-107782823D01*
X146667557Y-107806633D01*
X146858033Y-107806633D01*
X146191367Y-107782823D02*
X146119938Y-107806633D01*
X146096129Y-107830442D01*
X146072319Y-107878061D01*
X146072319Y-107949490D01*
X146096129Y-107997109D01*
X146119938Y-108020918D01*
X146167557Y-108044728D01*
X146358033Y-108044728D01*
X146358033Y-107544728D01*
X146191367Y-107544728D01*
X146143748Y-107568538D01*
X146119938Y-107592347D01*
X146096129Y-107639966D01*
X146096129Y-107687585D01*
X146119938Y-107735204D01*
X146143748Y-107759014D01*
X146191367Y-107782823D01*
X146358033Y-107782823D01*
X145596129Y-108044728D02*
X145881843Y-108044728D01*
X145738986Y-108044728D02*
X145738986Y-107544728D01*
X145786605Y-107616157D01*
X145834224Y-107663776D01*
X145881843Y-107687585D01*
X145167557Y-107711395D02*
X145167557Y-108044728D01*
X145286605Y-107520918D02*
X145405652Y-107878061D01*
X145096129Y-107878061D01*
X158879047Y-107536190D02*
X158569523Y-107536190D01*
X158736190Y-107726666D01*
X158664761Y-107726666D01*
X158617142Y-107750476D01*
X158593333Y-107774285D01*
X158569523Y-107821904D01*
X158569523Y-107940952D01*
X158593333Y-107988571D01*
X158617142Y-108012380D01*
X158664761Y-108036190D01*
X158807619Y-108036190D01*
X158855238Y-108012380D01*
X158879047Y-107988571D01*
X158426666Y-107536190D02*
X158260000Y-108036190D01*
X158093333Y-107536190D01*
X157974285Y-107536190D02*
X157664761Y-107536190D01*
X157831428Y-107726666D01*
X157760000Y-107726666D01*
X157712380Y-107750476D01*
X157688571Y-107774285D01*
X157664761Y-107821904D01*
X157664761Y-107940952D01*
X157688571Y-107988571D01*
X157712380Y-108012380D01*
X157760000Y-108036190D01*
X157902857Y-108036190D01*
X157950476Y-108012380D01*
X157974285Y-107988571D01*
X149398033Y-108044728D02*
X149398033Y-107544728D01*
X149207557Y-107544728D01*
X149159938Y-107568538D01*
X149136129Y-107592347D01*
X149112319Y-107639966D01*
X149112319Y-107711395D01*
X149136129Y-107759014D01*
X149159938Y-107782823D01*
X149207557Y-107806633D01*
X149398033Y-107806633D01*
X148731367Y-107782823D02*
X148659938Y-107806633D01*
X148636129Y-107830442D01*
X148612319Y-107878061D01*
X148612319Y-107949490D01*
X148636129Y-107997109D01*
X148659938Y-108020918D01*
X148707557Y-108044728D01*
X148898033Y-108044728D01*
X148898033Y-107544728D01*
X148731367Y-107544728D01*
X148683748Y-107568538D01*
X148659938Y-107592347D01*
X148636129Y-107639966D01*
X148636129Y-107687585D01*
X148659938Y-107735204D01*
X148683748Y-107759014D01*
X148731367Y-107782823D01*
X148898033Y-107782823D01*
X148136129Y-108044728D02*
X148421843Y-108044728D01*
X148278986Y-108044728D02*
X148278986Y-107544728D01*
X148326605Y-107616157D01*
X148374224Y-107663776D01*
X148421843Y-107687585D01*
X147683748Y-107544728D02*
X147921843Y-107544728D01*
X147945652Y-107782823D01*
X147921843Y-107759014D01*
X147874224Y-107735204D01*
X147755176Y-107735204D01*
X147707557Y-107759014D01*
X147683748Y-107782823D01*
X147659938Y-107830442D01*
X147659938Y-107949490D01*
X147683748Y-107997109D01*
X147707557Y-108020918D01*
X147755176Y-108044728D01*
X147874224Y-108044728D01*
X147921843Y-108020918D01*
X147945652Y-107997109D01*
X156982319Y-108044728D02*
X156982319Y-107544728D01*
X156791843Y-107544728D01*
X156744224Y-107568538D01*
X156720414Y-107592347D01*
X156696605Y-107639966D01*
X156696605Y-107711395D01*
X156720414Y-107759014D01*
X156744224Y-107782823D01*
X156791843Y-107806633D01*
X156982319Y-107806633D01*
X156506129Y-107901871D02*
X156268033Y-107901871D01*
X156553748Y-108044728D02*
X156387081Y-107544728D01*
X156220414Y-108044728D01*
X155791843Y-108044728D02*
X156077557Y-108044728D01*
X155934700Y-108044728D02*
X155934700Y-107544728D01*
X155982319Y-107616157D01*
X156029938Y-107663776D01*
X156077557Y-107687585D01*
X155601367Y-107592347D02*
X155577557Y-107568538D01*
X155529938Y-107544728D01*
X155410891Y-107544728D01*
X155363271Y-107568538D01*
X155339462Y-107592347D01*
X155315652Y-107639966D01*
X155315652Y-107687585D01*
X155339462Y-107759014D01*
X155625176Y-108044728D01*
X155315652Y-108044728D01*
X146589938Y-93574728D02*
X146589938Y-93074728D01*
X146399462Y-93074728D01*
X146351843Y-93098538D01*
X146328033Y-93122347D01*
X146304224Y-93169966D01*
X146304224Y-93241395D01*
X146328033Y-93289014D01*
X146351843Y-93312823D01*
X146399462Y-93336633D01*
X146589938Y-93336633D01*
X145923271Y-93312823D02*
X145851843Y-93336633D01*
X145828033Y-93360442D01*
X145804224Y-93408061D01*
X145804224Y-93479490D01*
X145828033Y-93527109D01*
X145851843Y-93550918D01*
X145899462Y-93574728D01*
X146089938Y-93574728D01*
X146089938Y-93074728D01*
X145923271Y-93074728D01*
X145875652Y-93098538D01*
X145851843Y-93122347D01*
X145828033Y-93169966D01*
X145828033Y-93217585D01*
X145851843Y-93265204D01*
X145875652Y-93289014D01*
X145923271Y-93312823D01*
X146089938Y-93312823D01*
X145637557Y-93074728D02*
X145304224Y-93074728D01*
X145518510Y-93574728D01*
X133544700Y-93574728D02*
X133711367Y-93336633D01*
X133830414Y-93574728D02*
X133830414Y-93074728D01*
X133639938Y-93074728D01*
X133592319Y-93098538D01*
X133568510Y-93122347D01*
X133544700Y-93169966D01*
X133544700Y-93241395D01*
X133568510Y-93289014D01*
X133592319Y-93312823D01*
X133639938Y-93336633D01*
X133830414Y-93336633D01*
X133354224Y-93550918D02*
X133282795Y-93574728D01*
X133163748Y-93574728D01*
X133116129Y-93550918D01*
X133092319Y-93527109D01*
X133068510Y-93479490D01*
X133068510Y-93431871D01*
X133092319Y-93384252D01*
X133116129Y-93360442D01*
X133163748Y-93336633D01*
X133258986Y-93312823D01*
X133306605Y-93289014D01*
X133330414Y-93265204D01*
X133354224Y-93217585D01*
X133354224Y-93169966D01*
X133330414Y-93122347D01*
X133306605Y-93098538D01*
X133258986Y-93074728D01*
X133139938Y-93074728D01*
X133068510Y-93098538D01*
X132925652Y-93074728D02*
X132639938Y-93074728D01*
X132782795Y-93574728D02*
X132782795Y-93074728D01*
X159798571Y-101657380D02*
X159727142Y-101681190D01*
X159608095Y-101681190D01*
X159560476Y-101657380D01*
X159536666Y-101633571D01*
X159512857Y-101585952D01*
X159512857Y-101538333D01*
X159536666Y-101490714D01*
X159560476Y-101466904D01*
X159608095Y-101443095D01*
X159703333Y-101419285D01*
X159750952Y-101395476D01*
X159774761Y-101371666D01*
X159798571Y-101324047D01*
X159798571Y-101276428D01*
X159774761Y-101228809D01*
X159750952Y-101205000D01*
X159703333Y-101181190D01*
X159584285Y-101181190D01*
X159512857Y-101205000D01*
X159346190Y-101181190D02*
X159227142Y-101681190D01*
X159131904Y-101324047D01*
X159036666Y-101681190D01*
X158917619Y-101181190D01*
X158727142Y-101681190D02*
X158727142Y-101181190D01*
X158608095Y-101181190D01*
X158536666Y-101205000D01*
X158489047Y-101252619D01*
X158465238Y-101300238D01*
X158441428Y-101395476D01*
X158441428Y-101466904D01*
X158465238Y-101562142D01*
X158489047Y-101609761D01*
X158536666Y-101657380D01*
X158608095Y-101681190D01*
X158727142Y-101681190D01*
X159417619Y-102483571D02*
X159441428Y-102507380D01*
X159512857Y-102531190D01*
X159560476Y-102531190D01*
X159631904Y-102507380D01*
X159679523Y-102459761D01*
X159703333Y-102412142D01*
X159727142Y-102316904D01*
X159727142Y-102245476D01*
X159703333Y-102150238D01*
X159679523Y-102102619D01*
X159631904Y-102055000D01*
X159560476Y-102031190D01*
X159512857Y-102031190D01*
X159441428Y-102055000D01*
X159417619Y-102078809D01*
X158965238Y-102531190D02*
X159203333Y-102531190D01*
X159203333Y-102031190D01*
X158798571Y-102531190D02*
X158798571Y-102031190D01*
X158512857Y-102531190D02*
X158727142Y-102245476D01*
X158512857Y-102031190D02*
X158798571Y-102316904D01*
X130744224Y-97008728D02*
X130744224Y-96508728D01*
X130553748Y-96508728D01*
X130506129Y-96532538D01*
X130482319Y-96556347D01*
X130458510Y-96603966D01*
X130458510Y-96675395D01*
X130482319Y-96723014D01*
X130506129Y-96746823D01*
X130553748Y-96770633D01*
X130744224Y-96770633D01*
X130268033Y-96865871D02*
X130029938Y-96865871D01*
X130315652Y-97008728D02*
X130148986Y-96508728D01*
X129982319Y-97008728D01*
X129863271Y-96508728D02*
X129553748Y-96508728D01*
X129720414Y-96699204D01*
X129648986Y-96699204D01*
X129601367Y-96723014D01*
X129577557Y-96746823D01*
X129553748Y-96794442D01*
X129553748Y-96913490D01*
X129577557Y-96961109D01*
X129601367Y-96984918D01*
X129648986Y-97008728D01*
X129791843Y-97008728D01*
X129839462Y-96984918D01*
X129863271Y-96961109D01*
X154209938Y-93574728D02*
X154209938Y-93074728D01*
X154019462Y-93074728D01*
X153971843Y-93098538D01*
X153948033Y-93122347D01*
X153924224Y-93169966D01*
X153924224Y-93241395D01*
X153948033Y-93289014D01*
X153971843Y-93312823D01*
X154019462Y-93336633D01*
X154209938Y-93336633D01*
X153543271Y-93312823D02*
X153471843Y-93336633D01*
X153448033Y-93360442D01*
X153424224Y-93408061D01*
X153424224Y-93479490D01*
X153448033Y-93527109D01*
X153471843Y-93550918D01*
X153519462Y-93574728D01*
X153709938Y-93574728D01*
X153709938Y-93074728D01*
X153543271Y-93074728D01*
X153495652Y-93098538D01*
X153471843Y-93122347D01*
X153448033Y-93169966D01*
X153448033Y-93217585D01*
X153471843Y-93265204D01*
X153495652Y-93289014D01*
X153543271Y-93312823D01*
X153709938Y-93312823D01*
X152995652Y-93241395D02*
X152995652Y-93574728D01*
X153114700Y-93050918D02*
X153233748Y-93408061D01*
X152924224Y-93408061D01*
X130162538Y-94162419D02*
X130516091Y-93808866D01*
X130381404Y-93674179D01*
X130330896Y-93657343D01*
X130297225Y-93657343D01*
X130246717Y-93674179D01*
X130196209Y-93724687D01*
X130179374Y-93775194D01*
X130179374Y-93808866D01*
X130196209Y-93859374D01*
X130330896Y-93994061D01*
X129926835Y-93724687D02*
X129758477Y-93556328D01*
X129859492Y-93859374D02*
X130095194Y-93387969D01*
X129623790Y-93623671D01*
X129320744Y-93320625D02*
X129522774Y-93522656D01*
X129421759Y-93421641D02*
X129775312Y-93068087D01*
X129758477Y-93152267D01*
X129758477Y-93219610D01*
X129775312Y-93270118D01*
X159480952Y-96530000D02*
X159528571Y-96506190D01*
X159600000Y-96506190D01*
X159671428Y-96530000D01*
X159719047Y-96577619D01*
X159742857Y-96625238D01*
X159766666Y-96720476D01*
X159766666Y-96791904D01*
X159742857Y-96887142D01*
X159719047Y-96934761D01*
X159671428Y-96982380D01*
X159600000Y-97006190D01*
X159552380Y-97006190D01*
X159480952Y-96982380D01*
X159457142Y-96958571D01*
X159457142Y-96791904D01*
X159552380Y-96791904D01*
X159242857Y-97006190D02*
X159242857Y-96506190D01*
X158957142Y-97006190D01*
X158957142Y-96506190D01*
X158719047Y-97006190D02*
X158719047Y-96506190D01*
X158600000Y-96506190D01*
X158528571Y-96530000D01*
X158480952Y-96577619D01*
X158457142Y-96625238D01*
X158433333Y-96720476D01*
X158433333Y-96791904D01*
X158457142Y-96887142D01*
X158480952Y-96934761D01*
X158528571Y-96982380D01*
X158600000Y-97006190D01*
X158719047Y-97006190D01*
X144049938Y-93574728D02*
X144049938Y-93074728D01*
X143859462Y-93074728D01*
X143811843Y-93098538D01*
X143788033Y-93122347D01*
X143764224Y-93169966D01*
X143764224Y-93241395D01*
X143788033Y-93289014D01*
X143811843Y-93312823D01*
X143859462Y-93336633D01*
X144049938Y-93336633D01*
X143383271Y-93312823D02*
X143311843Y-93336633D01*
X143288033Y-93360442D01*
X143264224Y-93408061D01*
X143264224Y-93479490D01*
X143288033Y-93527109D01*
X143311843Y-93550918D01*
X143359462Y-93574728D01*
X143549938Y-93574728D01*
X143549938Y-93074728D01*
X143383271Y-93074728D01*
X143335652Y-93098538D01*
X143311843Y-93122347D01*
X143288033Y-93169966D01*
X143288033Y-93217585D01*
X143311843Y-93265204D01*
X143335652Y-93289014D01*
X143383271Y-93312823D01*
X143549938Y-93312823D01*
X142978510Y-93289014D02*
X143026129Y-93265204D01*
X143049938Y-93241395D01*
X143073748Y-93193776D01*
X143073748Y-93169966D01*
X143049938Y-93122347D01*
X143026129Y-93098538D01*
X142978510Y-93074728D01*
X142883271Y-93074728D01*
X142835652Y-93098538D01*
X142811843Y-93122347D01*
X142788033Y-93169966D01*
X142788033Y-93193776D01*
X142811843Y-93241395D01*
X142835652Y-93265204D01*
X142883271Y-93289014D01*
X142978510Y-93289014D01*
X143026129Y-93312823D01*
X143049938Y-93336633D01*
X143073748Y-93384252D01*
X143073748Y-93479490D01*
X143049938Y-93527109D01*
X143026129Y-93550918D01*
X142978510Y-93574728D01*
X142883271Y-93574728D01*
X142835652Y-93550918D01*
X142811843Y-93527109D01*
X142788033Y-93479490D01*
X142788033Y-93384252D01*
X142811843Y-93336633D01*
X142835652Y-93312823D01*
X142883271Y-93289014D01*
X144318033Y-108044728D02*
X144318033Y-107544728D01*
X144127557Y-107544728D01*
X144079938Y-107568538D01*
X144056129Y-107592347D01*
X144032319Y-107639966D01*
X144032319Y-107711395D01*
X144056129Y-107759014D01*
X144079938Y-107782823D01*
X144127557Y-107806633D01*
X144318033Y-107806633D01*
X143651367Y-107782823D02*
X143579938Y-107806633D01*
X143556129Y-107830442D01*
X143532319Y-107878061D01*
X143532319Y-107949490D01*
X143556129Y-107997109D01*
X143579938Y-108020918D01*
X143627557Y-108044728D01*
X143818033Y-108044728D01*
X143818033Y-107544728D01*
X143651367Y-107544728D01*
X143603748Y-107568538D01*
X143579938Y-107592347D01*
X143556129Y-107639966D01*
X143556129Y-107687585D01*
X143579938Y-107735204D01*
X143603748Y-107759014D01*
X143651367Y-107782823D01*
X143818033Y-107782823D01*
X143056129Y-108044728D02*
X143341843Y-108044728D01*
X143198986Y-108044728D02*
X143198986Y-107544728D01*
X143246605Y-107616157D01*
X143294224Y-107663776D01*
X143341843Y-107687585D01*
X142889462Y-107544728D02*
X142579938Y-107544728D01*
X142746605Y-107735204D01*
X142675176Y-107735204D01*
X142627557Y-107759014D01*
X142603748Y-107782823D01*
X142579938Y-107830442D01*
X142579938Y-107949490D01*
X142603748Y-107997109D01*
X142627557Y-108020918D01*
X142675176Y-108044728D01*
X142818033Y-108044728D01*
X142865652Y-108020918D01*
X142889462Y-107997109D01*
X131165714Y-106576190D02*
X131165714Y-106076190D01*
X130999047Y-106433333D01*
X130832380Y-106076190D01*
X130832380Y-106576190D01*
X130499047Y-106076190D02*
X130403809Y-106076190D01*
X130356190Y-106100000D01*
X130308571Y-106147619D01*
X130284761Y-106242857D01*
X130284761Y-106409523D01*
X130308571Y-106504761D01*
X130356190Y-106552380D01*
X130403809Y-106576190D01*
X130499047Y-106576190D01*
X130546666Y-106552380D01*
X130594285Y-106504761D01*
X130618095Y-106409523D01*
X130618095Y-106242857D01*
X130594285Y-106147619D01*
X130546666Y-106100000D01*
X130499047Y-106076190D01*
X130094285Y-106552380D02*
X130022857Y-106576190D01*
X129903809Y-106576190D01*
X129856190Y-106552380D01*
X129832380Y-106528571D01*
X129808571Y-106480952D01*
X129808571Y-106433333D01*
X129832380Y-106385714D01*
X129856190Y-106361904D01*
X129903809Y-106338095D01*
X129999047Y-106314285D01*
X130046666Y-106290476D01*
X130070476Y-106266666D01*
X130094285Y-106219047D01*
X130094285Y-106171428D01*
X130070476Y-106123809D01*
X130046666Y-106100000D01*
X129999047Y-106076190D01*
X129880000Y-106076190D01*
X129808571Y-106100000D01*
X129594285Y-106576190D02*
X129594285Y-106076190D01*
X159721428Y-94623333D02*
X159483333Y-94623333D01*
X159769047Y-94766190D02*
X159602380Y-94266190D01*
X159435714Y-94766190D01*
X159269047Y-94766190D02*
X159269047Y-94266190D01*
X158983333Y-94766190D01*
X158983333Y-94266190D01*
X158816666Y-94266190D02*
X158530952Y-94266190D01*
X158673809Y-94766190D02*
X158673809Y-94266190D01*
X131175714Y-104626190D02*
X131175714Y-104126190D01*
X131009047Y-104483333D01*
X130842380Y-104126190D01*
X130842380Y-104626190D01*
X130604285Y-104626190D02*
X130604285Y-104126190D01*
X130390000Y-104602380D02*
X130318571Y-104626190D01*
X130199523Y-104626190D01*
X130151904Y-104602380D01*
X130128095Y-104578571D01*
X130104285Y-104530952D01*
X130104285Y-104483333D01*
X130128095Y-104435714D01*
X130151904Y-104411904D01*
X130199523Y-104388095D01*
X130294761Y-104364285D01*
X130342380Y-104340476D01*
X130366190Y-104316666D01*
X130390000Y-104269047D01*
X130390000Y-104221428D01*
X130366190Y-104173809D01*
X130342380Y-104150000D01*
X130294761Y-104126190D01*
X130175714Y-104126190D01*
X130104285Y-104150000D01*
X129794761Y-104126190D02*
X129699523Y-104126190D01*
X129651904Y-104150000D01*
X129604285Y-104197619D01*
X129580476Y-104292857D01*
X129580476Y-104459523D01*
X129604285Y-104554761D01*
X129651904Y-104602380D01*
X129699523Y-104626190D01*
X129794761Y-104626190D01*
X129842380Y-104602380D01*
X129890000Y-104554761D01*
X129913809Y-104459523D01*
X129913809Y-104292857D01*
X129890000Y-104197619D01*
X129842380Y-104150000D01*
X129794761Y-104126190D01*
X151669938Y-93574728D02*
X151669938Y-93074728D01*
X151479462Y-93074728D01*
X151431843Y-93098538D01*
X151408033Y-93122347D01*
X151384224Y-93169966D01*
X151384224Y-93241395D01*
X151408033Y-93289014D01*
X151431843Y-93312823D01*
X151479462Y-93336633D01*
X151669938Y-93336633D01*
X151003271Y-93312823D02*
X150931843Y-93336633D01*
X150908033Y-93360442D01*
X150884224Y-93408061D01*
X150884224Y-93479490D01*
X150908033Y-93527109D01*
X150931843Y-93550918D01*
X150979462Y-93574728D01*
X151169938Y-93574728D01*
X151169938Y-93074728D01*
X151003271Y-93074728D01*
X150955652Y-93098538D01*
X150931843Y-93122347D01*
X150908033Y-93169966D01*
X150908033Y-93217585D01*
X150931843Y-93265204D01*
X150955652Y-93289014D01*
X151003271Y-93312823D01*
X151169938Y-93312823D01*
X150431843Y-93074728D02*
X150669938Y-93074728D01*
X150693748Y-93312823D01*
X150669938Y-93289014D01*
X150622319Y-93265204D01*
X150503271Y-93265204D01*
X150455652Y-93289014D01*
X150431843Y-93312823D01*
X150408033Y-93360442D01*
X150408033Y-93479490D01*
X150431843Y-93527109D01*
X150455652Y-93550918D01*
X150503271Y-93574728D01*
X150622319Y-93574728D01*
X150669938Y-93550918D01*
X150693748Y-93527109D01*
X151664224Y-108044728D02*
X151664224Y-107544728D01*
X151473748Y-107544728D01*
X151426129Y-107568538D01*
X151402319Y-107592347D01*
X151378510Y-107639966D01*
X151378510Y-107711395D01*
X151402319Y-107759014D01*
X151426129Y-107782823D01*
X151473748Y-107806633D01*
X151664224Y-107806633D01*
X151188033Y-107901871D02*
X150949938Y-107901871D01*
X151235652Y-108044728D02*
X151068986Y-107544728D01*
X150902319Y-108044728D01*
X150664224Y-107759014D02*
X150711843Y-107735204D01*
X150735652Y-107711395D01*
X150759462Y-107663776D01*
X150759462Y-107639966D01*
X150735652Y-107592347D01*
X150711843Y-107568538D01*
X150664224Y-107544728D01*
X150568986Y-107544728D01*
X150521367Y-107568538D01*
X150497557Y-107592347D01*
X150473748Y-107639966D01*
X150473748Y-107663776D01*
X150497557Y-107711395D01*
X150521367Y-107735204D01*
X150568986Y-107759014D01*
X150664224Y-107759014D01*
X150711843Y-107782823D01*
X150735652Y-107806633D01*
X150759462Y-107854252D01*
X150759462Y-107949490D01*
X150735652Y-107997109D01*
X150711843Y-108020918D01*
X150664224Y-108044728D01*
X150568986Y-108044728D01*
X150521367Y-108020918D01*
X150497557Y-107997109D01*
X150473748Y-107949490D01*
X150473748Y-107854252D01*
X150497557Y-107806633D01*
X150521367Y-107782823D01*
X150568986Y-107759014D01*
X154442319Y-108044728D02*
X154442319Y-107544728D01*
X154251843Y-107544728D01*
X154204224Y-107568538D01*
X154180414Y-107592347D01*
X154156605Y-107639966D01*
X154156605Y-107711395D01*
X154180414Y-107759014D01*
X154204224Y-107782823D01*
X154251843Y-107806633D01*
X154442319Y-107806633D01*
X153966129Y-107901871D02*
X153728033Y-107901871D01*
X154013748Y-108044728D02*
X153847081Y-107544728D01*
X153680414Y-108044728D01*
X153251843Y-108044728D02*
X153537557Y-108044728D01*
X153394700Y-108044728D02*
X153394700Y-107544728D01*
X153442319Y-107616157D01*
X153489938Y-107663776D01*
X153537557Y-107687585D01*
X152775652Y-108044728D02*
X153061367Y-108044728D01*
X152918510Y-108044728D02*
X152918510Y-107544728D01*
X152966129Y-107616157D01*
X153013748Y-107663776D01*
X153061367Y-107687585D01*
D14*
G04 #@! TO.C,U2*
X157425460Y-92474540D02*
X141174540Y-92474540D01*
X141174540Y-108725460D02*
X157425460Y-108725460D01*
X157425460Y-93742000D02*
X157425460Y-92474540D01*
X157425460Y-108725460D02*
X157425460Y-107458000D01*
X141174540Y-107458000D02*
X141174540Y-108725460D01*
X157425460Y-95774000D02*
X157425460Y-95443800D01*
X141174540Y-92474540D02*
X141174540Y-93742000D01*
X157425460Y-97775520D02*
X157425460Y-97445320D01*
X157425460Y-99774500D02*
X157425460Y-99444300D01*
X157425460Y-101773480D02*
X157425460Y-101443280D01*
X157425460Y-103772460D02*
X157425460Y-103442260D01*
X157425460Y-105773980D02*
X157425460Y-105443780D01*
X141174540Y-105426000D02*
X141174540Y-105756200D01*
X141174540Y-103424480D02*
X141174540Y-103754680D01*
X141174540Y-101425500D02*
X141174540Y-101755700D01*
X141174540Y-99426520D02*
X141174540Y-99756720D01*
X141174540Y-97427540D02*
X141174540Y-97757740D01*
X141174540Y-95426020D02*
X141174540Y-95756220D01*
D13*
X158695460Y-93109540D02*
G75*
G03X158695460Y-93109540I-508000J0D01*
G01*
G04 #@! TO.C,U3*
X133440000Y-108740000D02*
X143440000Y-108740000D01*
X133440000Y-92340000D02*
X133940000Y-92340000D01*
X133440000Y-92740000D02*
X133440000Y-92340000D01*
X153040000Y-92340000D02*
X153540000Y-92340000D01*
X153540000Y-92740000D02*
X153540000Y-92340000D01*
X153040000Y-108740000D02*
X153540000Y-108740000D01*
X153540000Y-108740000D02*
X153540000Y-108340000D01*
X133440000Y-108740000D02*
X133440000Y-108340000D01*
D15*
G04 #@! TO.C,JP1*
X136420000Y-92870000D02*
X136420000Y-94870000D01*
X139220000Y-92870000D02*
X136420000Y-92870000D01*
X139220000Y-94870000D02*
X139220000Y-92870000D01*
X136420000Y-94870000D02*
X139220000Y-94870000D01*
G04 #@! TD*
M02*
