M48
;DRILL file {KiCad 5.0.0-rc2-unknown-a288d61~65~ubuntu18.04.1} date Fri Jun 29 09:55:36 2018
;FORMAT={-:-/ absolute / inch / decimal}
FMAT,2
INCH,TZ
T1C0.0118
T2C0.0394
%
G90
G05
M72
T1
X5.1661Y-4.1685
X5.1728Y-3.8783
X5.1963Y-3.9605
X5.202Y-4.1539
X5.4052Y-4.1109
X5.41Y-4.03
X5.4461Y-4.087
X5.4612Y-4.1119
X5.4626Y-4.0236
X5.4638Y-3.852
X5.472Y-4.0525
X5.4737Y-3.8952
X5.4756Y-4.1681
X5.4862Y-3.8268
X5.4864Y-3.8696
X5.4936Y-4.0718
X5.4955Y-3.9138
X5.5001Y-4.0138
X5.509Y-4.2286
X5.5189Y-3.735
X5.6586Y-4.0311
X5.6808Y-4.0547
X5.7008Y-3.7106
X5.7028Y-4.0823
X5.7087Y-4.028
X5.7169Y-3.7539
X5.7335Y-3.9614
X5.7402Y-4.0311
X5.7815Y-3.8976
X5.8366Y-3.9862
X5.8453Y-4.1577
X5.8619Y-4.1344
X5.8799Y-3.7323
X5.9063Y-4.0881
X5.9654Y-4.0386
X6.0705Y-3.9197
X6.0969Y-4.1091
X6.215Y-3.7599
X6.249Y-4.048
T2
X6.3457Y-3.6098
X6.3457Y-3.7098
X6.3457Y-3.8098
X6.3457Y-3.9098
X6.3457Y-4.0098
X6.3457Y-4.1098
X6.3457Y-4.2098
X6.3457Y-4.3098
X5.1457Y-3.6098
X5.2457Y-3.6098
X5.3457Y-3.6098
X5.4457Y-3.6098
X5.5457Y-3.6098
X5.6457Y-3.6098
X5.7457Y-3.6098
X5.8457Y-3.6098
X5.9457Y-3.6098
X6.0457Y-3.6098
X6.1457Y-3.6098
X6.2457Y-3.6098
X5.1457Y-4.3098
X5.2457Y-4.3098
X5.3457Y-4.3098
X5.4457Y-4.3098
X5.5457Y-4.3098
X5.6457Y-4.3098
X5.7457Y-4.3098
X5.8457Y-4.3098
X5.9457Y-4.3098
X6.0457Y-4.3098
X6.1457Y-4.3098
X6.2457Y-4.3098
X5.0457Y-3.6098
X5.0457Y-3.7098
X5.0457Y-3.8098
X5.0457Y-3.9098
X5.0457Y-4.0098
X5.0457Y-4.1098
X5.0457Y-4.2098
X5.0457Y-4.3098
T0
M30
