M48
;DRILL file {KiCad 6.0.0-rc1-unknown-a6325aa~66~ubuntu18.04.1} date Sat Sep  8 20:35:02 2018
;FORMAT={-:-/ absolute / inch / decimal}
FMAT,2
INCH,TZ
T1C0.0118
T2C0.0394
%
G90
G05
M72
T1
X5.0677Y-3.6602
X5.0681Y-4.2622
X5.0717Y-3.7555
X5.0961Y-4.326
X5.1051Y-3.8362
X5.1244Y-4.0531
X5.1295Y-4.2303
X5.1327Y-3.8083
X5.1335Y-3.9579
X5.1374Y-3.8913
X5.1619Y-3.7374
X5.166Y-4.1583
X5.1835Y-3.8654
X5.213Y-3.8638
X5.2248Y-3.7299
X5.2335Y-4.1642
X5.2354Y-3.6764
X5.2598Y-3.9701
X5.2598Y-4.1205
X5.2693Y-4.0331
X5.2807Y-4.2307
X5.298Y-3.8657
X5.2996Y-4.2846
X5.3051Y-4.2504
X5.3252Y-4.1587
X5.3618Y-4.1079
X5.365Y-3.7433
X5.4087Y-4.0843
X5.456Y-4.0756
X5.4768Y-3.9185
X5.4949Y-4.2898
X5.4957Y-4.1185
X5.4996Y-4.2366
X5.5201Y-3.7343
X5.5331Y-3.9874
X5.5846Y-3.9374
X5.5874Y-4.0217
X5.611Y-3.9992
X5.6161Y-3.924
X5.6173Y-3.8827
X5.6358Y-4.0354
X5.6413Y-3.9425
X5.6547Y-3.6598
X5.6673Y-4.0677
X5.6689Y-3.9287
X5.6902Y-3.8646
X5.698Y-3.6346
X5.7028Y-4.0205
X5.7094Y-3.9713
X5.7244Y-4.1614
X5.7303Y-3.7252
X5.7421Y-4.1122
X5.7543Y-4.2063
X5.7614Y-3.8524
X5.7681Y-4.0594
X5.7886Y-4.039
X5.7937Y-3.9685
X5.7957Y-4.2795
X5.7969Y-3.6252
X5.8209Y-4.2362
X5.8657Y-4.2346
X5.874Y-3.7272
X5.8937Y-4.289
X5.8965Y-3.6319
X5.9492Y-4.0823
X5.985Y-3.9217
X5.9937Y-3.6339
X5.9941Y-4.2803
X6.0142Y-4.1193
X6.0173Y-4.2543
X6.0437Y-4.2343
X6.0587Y-3.7488
X6.0661Y-4.1256
X6.0744Y-3.9079
X6.0858Y-3.9909
X6.0965Y-3.637
X6.098Y-4.2803
X6.1201Y-4.1657
X6.1248Y-4.1283
X6.1307Y-3.8331
X6.1484Y-3.661
X6.1488Y-3.9358
X6.187Y-4.2693
X6.248Y-3.735
X6.2504Y-3.935
T2
X6.3457Y-3.6098
X6.3457Y-3.7098
X6.3457Y-3.8098
X6.3457Y-3.9098
X6.3457Y-4.0098
X6.3457Y-4.1098
X6.3457Y-4.2098
X6.3457Y-4.3098
X5.0457Y-3.6098
X5.0457Y-3.7098
X5.0457Y-3.8098
X5.0457Y-3.9098
X5.0457Y-4.0098
X5.0457Y-4.1098
X5.0457Y-4.2098
X5.0457Y-4.3098
X5.1457Y-4.3098
X5.2457Y-4.3098
X5.3457Y-4.3098
X5.4457Y-4.3098
X5.5457Y-4.3098
X5.6457Y-4.3098
X5.7457Y-4.3098
X5.8457Y-4.3098
X5.9457Y-4.3098
X6.0457Y-4.3098
X6.1457Y-4.3098
X6.2457Y-4.3098
X5.1457Y-3.6098
X5.2457Y-3.6098
X5.3457Y-3.6098
X5.4457Y-3.6098
X5.5457Y-3.6098
X5.6457Y-3.6098
X5.7457Y-3.6098
X5.8457Y-3.6098
X5.9457Y-3.6098
X6.0457Y-3.6098
X6.1457Y-3.6098
X6.2457Y-3.6098
T0
M30
