G04 #@! TF.GenerationSoftware,KiCad,Pcbnew,6.0.0-rc1-unknown-a6325aa~66~ubuntu18.04.1*
G04 #@! TF.CreationDate,2018-09-08T20:34:59+02:00*
G04 #@! TF.ProjectId,STM32_Sensor_V4,53544D33325F53656E736F725F56342E,rev?*
G04 #@! TF.SameCoordinates,Original*
G04 #@! TF.FileFunction,Other,Fab,Bot*
%FSLAX46Y46*%
G04 Gerber Fmt 4.6, Leading zero omitted, Abs format (unit mm)*
G04 Created by KiCad (PCBNEW 6.0.0-rc1-unknown-a6325aa~66~ubuntu18.04.1) date Sat Sep  8 20:34:59 2018*
%MOMM*%
%LPD*%
G01*
G04 APERTURE LIST*
%ADD10C,0.100000*%
%ADD11C,0.150000*%
G04 APERTURE END LIST*
D10*
G04 #@! TO.C,U3*
X130270000Y-92620000D02*
X130270000Y-108620000D01*
X149970000Y-92620000D02*
X130270000Y-92620000D01*
X149970000Y-108620000D02*
X149970000Y-92620000D01*
X130270000Y-108620000D02*
X149970000Y-108620000D01*
X133620000Y-107620000D02*
G75*
G03X133620000Y-107620000I-500000J0D01*
G01*
G04 #@! TD*
G04 #@! TO.C,U3*
D11*
X142858095Y-98572380D02*
X143191428Y-98096190D01*
X143429523Y-98572380D02*
X143429523Y-97572380D01*
X143048571Y-97572380D01*
X142953333Y-97620000D01*
X142905714Y-97667619D01*
X142858095Y-97762857D01*
X142858095Y-97905714D01*
X142905714Y-98000952D01*
X142953333Y-98048571D01*
X143048571Y-98096190D01*
X143429523Y-98096190D01*
X142096190Y-98048571D02*
X142429523Y-98048571D01*
X142429523Y-98572380D02*
X142429523Y-97572380D01*
X141953333Y-97572380D01*
X141572380Y-98572380D02*
X141572380Y-97572380D01*
X141239047Y-98286666D01*
X140905714Y-97572380D01*
X140905714Y-98572380D01*
X140000952Y-97572380D02*
X140191428Y-97572380D01*
X140286666Y-97620000D01*
X140334285Y-97667619D01*
X140429523Y-97810476D01*
X140477142Y-98000952D01*
X140477142Y-98381904D01*
X140429523Y-98477142D01*
X140381904Y-98524761D01*
X140286666Y-98572380D01*
X140096190Y-98572380D01*
X140000952Y-98524761D01*
X139953333Y-98477142D01*
X139905714Y-98381904D01*
X139905714Y-98143809D01*
X139953333Y-98048571D01*
X140000952Y-98000952D01*
X140096190Y-97953333D01*
X140286666Y-97953333D01*
X140381904Y-98000952D01*
X140429523Y-98048571D01*
X140477142Y-98143809D01*
X139429523Y-98572380D02*
X139239047Y-98572380D01*
X139143809Y-98524761D01*
X139096190Y-98477142D01*
X139000952Y-98334285D01*
X138953333Y-98143809D01*
X138953333Y-97762857D01*
X139000952Y-97667619D01*
X139048571Y-97620000D01*
X139143809Y-97572380D01*
X139334285Y-97572380D01*
X139429523Y-97620000D01*
X139477142Y-97667619D01*
X139524761Y-97762857D01*
X139524761Y-98000952D01*
X139477142Y-98096190D01*
X139429523Y-98143809D01*
X139334285Y-98191428D01*
X139143809Y-98191428D01*
X139048571Y-98143809D01*
X139000952Y-98096190D01*
X138953333Y-98000952D01*
X138524761Y-98572380D02*
X138524761Y-97572380D01*
X138524761Y-98048571D02*
X137953333Y-98048571D01*
X137953333Y-98572380D02*
X137953333Y-97572380D01*
X137572380Y-97572380D02*
X137334285Y-98572380D01*
X137143809Y-97858095D01*
X136953333Y-98572380D01*
X136715238Y-97572380D01*
X140881904Y-100072380D02*
X140881904Y-100881904D01*
X140834285Y-100977142D01*
X140786666Y-101024761D01*
X140691428Y-101072380D01*
X140500952Y-101072380D01*
X140405714Y-101024761D01*
X140358095Y-100977142D01*
X140310476Y-100881904D01*
X140310476Y-100072380D01*
X139929523Y-100072380D02*
X139310476Y-100072380D01*
X139643809Y-100453333D01*
X139500952Y-100453333D01*
X139405714Y-100500952D01*
X139358095Y-100548571D01*
X139310476Y-100643809D01*
X139310476Y-100881904D01*
X139358095Y-100977142D01*
X139405714Y-101024761D01*
X139500952Y-101072380D01*
X139786666Y-101072380D01*
X139881904Y-101024761D01*
X139929523Y-100977142D01*
G04 #@! TO.C,JP1*
X139554285Y-95162380D02*
X139220952Y-96162380D01*
X138887619Y-95162380D01*
X138220952Y-95638571D02*
X138078095Y-95686190D01*
X138030476Y-95733809D01*
X137982857Y-95829047D01*
X137982857Y-95971904D01*
X138030476Y-96067142D01*
X138078095Y-96114761D01*
X138173333Y-96162380D01*
X138554285Y-96162380D01*
X138554285Y-95162380D01*
X138220952Y-95162380D01*
X138125714Y-95210000D01*
X138078095Y-95257619D01*
X138030476Y-95352857D01*
X138030476Y-95448095D01*
X138078095Y-95543333D01*
X138125714Y-95590952D01*
X138220952Y-95638571D01*
X138554285Y-95638571D01*
X137601904Y-95876666D02*
X137125714Y-95876666D01*
X137697142Y-96162380D02*
X137363809Y-95162380D01*
X137030476Y-96162380D01*
X136840000Y-95162380D02*
X136268571Y-95162380D01*
X136554285Y-96162380D02*
X136554285Y-95162380D01*
X134887619Y-95162380D02*
X134887619Y-95876666D01*
X134935238Y-96019523D01*
X135030476Y-96114761D01*
X135173333Y-96162380D01*
X135268571Y-96162380D01*
X133982857Y-95495714D02*
X133982857Y-96162380D01*
X134411428Y-95495714D02*
X134411428Y-96019523D01*
X134363809Y-96114761D01*
X134268571Y-96162380D01*
X134125714Y-96162380D01*
X134030476Y-96114761D01*
X133982857Y-96067142D01*
X133506666Y-96162380D02*
X133506666Y-95495714D01*
X133506666Y-95590952D02*
X133459047Y-95543333D01*
X133363809Y-95495714D01*
X133220952Y-95495714D01*
X133125714Y-95543333D01*
X133078095Y-95638571D01*
X133078095Y-96162380D01*
X133078095Y-95638571D02*
X133030476Y-95543333D01*
X132935238Y-95495714D01*
X132792380Y-95495714D01*
X132697142Y-95543333D01*
X132649523Y-95638571D01*
X132649523Y-96162380D01*
X132173333Y-95495714D02*
X132173333Y-96495714D01*
X132173333Y-95543333D02*
X132078095Y-95495714D01*
X131887619Y-95495714D01*
X131792380Y-95543333D01*
X131744761Y-95590952D01*
X131697142Y-95686190D01*
X131697142Y-95971904D01*
X131744761Y-96067142D01*
X131792380Y-96114761D01*
X131887619Y-96162380D01*
X132078095Y-96162380D01*
X132173333Y-96114761D01*
X130887619Y-96114761D02*
X130982857Y-96162380D01*
X131173333Y-96162380D01*
X131268571Y-96114761D01*
X131316190Y-96019523D01*
X131316190Y-95638571D01*
X131268571Y-95543333D01*
X131173333Y-95495714D01*
X130982857Y-95495714D01*
X130887619Y-95543333D01*
X130840000Y-95638571D01*
X130840000Y-95733809D01*
X131316190Y-95829047D01*
X130411428Y-96162380D02*
X130411428Y-95495714D01*
X130411428Y-95686190D02*
X130363809Y-95590952D01*
X130316190Y-95543333D01*
X130220952Y-95495714D01*
X130125714Y-95495714D01*
G04 #@! TD*
M02*
