G04 #@! TF.GenerationSoftware,KiCad,Pcbnew,6.0.0-rc1-unknown-a6325aa~66~ubuntu18.04.1*
G04 #@! TF.CreationDate,2018-09-08T20:35:18+02:00*
G04 #@! TF.ProjectId,STM32_Sensor_V4,53544D33325F53656E736F725F56342E,rev?*
G04 #@! TF.SameCoordinates,Original*
G04 #@! TF.FileFunction,Paste,Top*
G04 #@! TF.FilePolarity,Positive*
%FSLAX46Y46*%
G04 Gerber Fmt 4.6, Leading zero omitted, Abs format (unit mm)*
G04 Created by KiCad (PCBNEW 6.0.0-rc1-unknown-a6325aa~66~ubuntu18.04.1) date Sat Sep  8 20:35:18 2018*
%MOMM*%
%LPD*%
G01*
G04 APERTURE LIST*
%ADD10R,1.500000X1.500000*%
%ADD11C,0.100000*%
%ADD12C,0.950000*%
%ADD13R,0.400000X1.900000*%
%ADD14C,0.875000*%
%ADD15C,0.250000*%
%ADD16R,1.300000X1.800000*%
%ADD17R,2.200000X1.050000*%
%ADD18R,1.000000X1.000000*%
G04 APERTURE END LIST*
D10*
G04 #@! TO.C,SW2*
X159300000Y-105600000D03*
X151500000Y-105600000D03*
G04 #@! TD*
D11*
G04 #@! TO.C,R4*
G36*
X133625779Y-99306144D02*
X133648834Y-99309563D01*
X133671443Y-99315227D01*
X133693387Y-99323079D01*
X133714457Y-99333044D01*
X133734448Y-99345026D01*
X133753168Y-99358910D01*
X133770438Y-99374562D01*
X133786090Y-99391832D01*
X133799974Y-99410552D01*
X133811956Y-99430543D01*
X133821921Y-99451613D01*
X133829773Y-99473557D01*
X133835437Y-99496166D01*
X133838856Y-99519221D01*
X133840000Y-99542500D01*
X133840000Y-100017500D01*
X133838856Y-100040779D01*
X133835437Y-100063834D01*
X133829773Y-100086443D01*
X133821921Y-100108387D01*
X133811956Y-100129457D01*
X133799974Y-100149448D01*
X133786090Y-100168168D01*
X133770438Y-100185438D01*
X133753168Y-100201090D01*
X133734448Y-100214974D01*
X133714457Y-100226956D01*
X133693387Y-100236921D01*
X133671443Y-100244773D01*
X133648834Y-100250437D01*
X133625779Y-100253856D01*
X133602500Y-100255000D01*
X133027500Y-100255000D01*
X133004221Y-100253856D01*
X132981166Y-100250437D01*
X132958557Y-100244773D01*
X132936613Y-100236921D01*
X132915543Y-100226956D01*
X132895552Y-100214974D01*
X132876832Y-100201090D01*
X132859562Y-100185438D01*
X132843910Y-100168168D01*
X132830026Y-100149448D01*
X132818044Y-100129457D01*
X132808079Y-100108387D01*
X132800227Y-100086443D01*
X132794563Y-100063834D01*
X132791144Y-100040779D01*
X132790000Y-100017500D01*
X132790000Y-99542500D01*
X132791144Y-99519221D01*
X132794563Y-99496166D01*
X132800227Y-99473557D01*
X132808079Y-99451613D01*
X132818044Y-99430543D01*
X132830026Y-99410552D01*
X132843910Y-99391832D01*
X132859562Y-99374562D01*
X132876832Y-99358910D01*
X132895552Y-99345026D01*
X132915543Y-99333044D01*
X132936613Y-99323079D01*
X132958557Y-99315227D01*
X132981166Y-99309563D01*
X133004221Y-99306144D01*
X133027500Y-99305000D01*
X133602500Y-99305000D01*
X133625779Y-99306144D01*
X133625779Y-99306144D01*
G37*
D12*
X133315000Y-99780000D03*
D11*
G36*
X135375779Y-99306144D02*
X135398834Y-99309563D01*
X135421443Y-99315227D01*
X135443387Y-99323079D01*
X135464457Y-99333044D01*
X135484448Y-99345026D01*
X135503168Y-99358910D01*
X135520438Y-99374562D01*
X135536090Y-99391832D01*
X135549974Y-99410552D01*
X135561956Y-99430543D01*
X135571921Y-99451613D01*
X135579773Y-99473557D01*
X135585437Y-99496166D01*
X135588856Y-99519221D01*
X135590000Y-99542500D01*
X135590000Y-100017500D01*
X135588856Y-100040779D01*
X135585437Y-100063834D01*
X135579773Y-100086443D01*
X135571921Y-100108387D01*
X135561956Y-100129457D01*
X135549974Y-100149448D01*
X135536090Y-100168168D01*
X135520438Y-100185438D01*
X135503168Y-100201090D01*
X135484448Y-100214974D01*
X135464457Y-100226956D01*
X135443387Y-100236921D01*
X135421443Y-100244773D01*
X135398834Y-100250437D01*
X135375779Y-100253856D01*
X135352500Y-100255000D01*
X134777500Y-100255000D01*
X134754221Y-100253856D01*
X134731166Y-100250437D01*
X134708557Y-100244773D01*
X134686613Y-100236921D01*
X134665543Y-100226956D01*
X134645552Y-100214974D01*
X134626832Y-100201090D01*
X134609562Y-100185438D01*
X134593910Y-100168168D01*
X134580026Y-100149448D01*
X134568044Y-100129457D01*
X134558079Y-100108387D01*
X134550227Y-100086443D01*
X134544563Y-100063834D01*
X134541144Y-100040779D01*
X134540000Y-100017500D01*
X134540000Y-99542500D01*
X134541144Y-99519221D01*
X134544563Y-99496166D01*
X134550227Y-99473557D01*
X134558079Y-99451613D01*
X134568044Y-99430543D01*
X134580026Y-99410552D01*
X134593910Y-99391832D01*
X134609562Y-99374562D01*
X134626832Y-99358910D01*
X134645552Y-99345026D01*
X134665543Y-99333044D01*
X134686613Y-99323079D01*
X134708557Y-99315227D01*
X134731166Y-99309563D01*
X134754221Y-99306144D01*
X134777500Y-99305000D01*
X135352500Y-99305000D01*
X135375779Y-99306144D01*
X135375779Y-99306144D01*
G37*
D12*
X135065000Y-99780000D03*
G04 #@! TD*
D11*
G04 #@! TO.C,R1*
G36*
X136585779Y-100796144D02*
X136608834Y-100799563D01*
X136631443Y-100805227D01*
X136653387Y-100813079D01*
X136674457Y-100823044D01*
X136694448Y-100835026D01*
X136713168Y-100848910D01*
X136730438Y-100864562D01*
X136746090Y-100881832D01*
X136759974Y-100900552D01*
X136771956Y-100920543D01*
X136781921Y-100941613D01*
X136789773Y-100963557D01*
X136795437Y-100986166D01*
X136798856Y-101009221D01*
X136800000Y-101032500D01*
X136800000Y-101507500D01*
X136798856Y-101530779D01*
X136795437Y-101553834D01*
X136789773Y-101576443D01*
X136781921Y-101598387D01*
X136771956Y-101619457D01*
X136759974Y-101639448D01*
X136746090Y-101658168D01*
X136730438Y-101675438D01*
X136713168Y-101691090D01*
X136694448Y-101704974D01*
X136674457Y-101716956D01*
X136653387Y-101726921D01*
X136631443Y-101734773D01*
X136608834Y-101740437D01*
X136585779Y-101743856D01*
X136562500Y-101745000D01*
X135987500Y-101745000D01*
X135964221Y-101743856D01*
X135941166Y-101740437D01*
X135918557Y-101734773D01*
X135896613Y-101726921D01*
X135875543Y-101716956D01*
X135855552Y-101704974D01*
X135836832Y-101691090D01*
X135819562Y-101675438D01*
X135803910Y-101658168D01*
X135790026Y-101639448D01*
X135778044Y-101619457D01*
X135768079Y-101598387D01*
X135760227Y-101576443D01*
X135754563Y-101553834D01*
X135751144Y-101530779D01*
X135750000Y-101507500D01*
X135750000Y-101032500D01*
X135751144Y-101009221D01*
X135754563Y-100986166D01*
X135760227Y-100963557D01*
X135768079Y-100941613D01*
X135778044Y-100920543D01*
X135790026Y-100900552D01*
X135803910Y-100881832D01*
X135819562Y-100864562D01*
X135836832Y-100848910D01*
X135855552Y-100835026D01*
X135875543Y-100823044D01*
X135896613Y-100813079D01*
X135918557Y-100805227D01*
X135941166Y-100799563D01*
X135964221Y-100796144D01*
X135987500Y-100795000D01*
X136562500Y-100795000D01*
X136585779Y-100796144D01*
X136585779Y-100796144D01*
G37*
D12*
X136275000Y-101270000D03*
D11*
G36*
X138335779Y-100796144D02*
X138358834Y-100799563D01*
X138381443Y-100805227D01*
X138403387Y-100813079D01*
X138424457Y-100823044D01*
X138444448Y-100835026D01*
X138463168Y-100848910D01*
X138480438Y-100864562D01*
X138496090Y-100881832D01*
X138509974Y-100900552D01*
X138521956Y-100920543D01*
X138531921Y-100941613D01*
X138539773Y-100963557D01*
X138545437Y-100986166D01*
X138548856Y-101009221D01*
X138550000Y-101032500D01*
X138550000Y-101507500D01*
X138548856Y-101530779D01*
X138545437Y-101553834D01*
X138539773Y-101576443D01*
X138531921Y-101598387D01*
X138521956Y-101619457D01*
X138509974Y-101639448D01*
X138496090Y-101658168D01*
X138480438Y-101675438D01*
X138463168Y-101691090D01*
X138444448Y-101704974D01*
X138424457Y-101716956D01*
X138403387Y-101726921D01*
X138381443Y-101734773D01*
X138358834Y-101740437D01*
X138335779Y-101743856D01*
X138312500Y-101745000D01*
X137737500Y-101745000D01*
X137714221Y-101743856D01*
X137691166Y-101740437D01*
X137668557Y-101734773D01*
X137646613Y-101726921D01*
X137625543Y-101716956D01*
X137605552Y-101704974D01*
X137586832Y-101691090D01*
X137569562Y-101675438D01*
X137553910Y-101658168D01*
X137540026Y-101639448D01*
X137528044Y-101619457D01*
X137518079Y-101598387D01*
X137510227Y-101576443D01*
X137504563Y-101553834D01*
X137501144Y-101530779D01*
X137500000Y-101507500D01*
X137500000Y-101032500D01*
X137501144Y-101009221D01*
X137504563Y-100986166D01*
X137510227Y-100963557D01*
X137518079Y-100941613D01*
X137528044Y-100920543D01*
X137540026Y-100900552D01*
X137553910Y-100881832D01*
X137569562Y-100864562D01*
X137586832Y-100848910D01*
X137605552Y-100835026D01*
X137625543Y-100823044D01*
X137646613Y-100813079D01*
X137668557Y-100805227D01*
X137691166Y-100799563D01*
X137714221Y-100796144D01*
X137737500Y-100795000D01*
X138312500Y-100795000D01*
X138335779Y-100796144D01*
X138335779Y-100796144D01*
G37*
D12*
X138025000Y-101270000D03*
G04 #@! TD*
D11*
G04 #@! TO.C,R2*
G36*
X159570779Y-103681144D02*
X159593834Y-103684563D01*
X159616443Y-103690227D01*
X159638387Y-103698079D01*
X159659457Y-103708044D01*
X159679448Y-103720026D01*
X159698168Y-103733910D01*
X159715438Y-103749562D01*
X159731090Y-103766832D01*
X159744974Y-103785552D01*
X159756956Y-103805543D01*
X159766921Y-103826613D01*
X159774773Y-103848557D01*
X159780437Y-103871166D01*
X159783856Y-103894221D01*
X159785000Y-103917500D01*
X159785000Y-104492500D01*
X159783856Y-104515779D01*
X159780437Y-104538834D01*
X159774773Y-104561443D01*
X159766921Y-104583387D01*
X159756956Y-104604457D01*
X159744974Y-104624448D01*
X159731090Y-104643168D01*
X159715438Y-104660438D01*
X159698168Y-104676090D01*
X159679448Y-104689974D01*
X159659457Y-104701956D01*
X159638387Y-104711921D01*
X159616443Y-104719773D01*
X159593834Y-104725437D01*
X159570779Y-104728856D01*
X159547500Y-104730000D01*
X159072500Y-104730000D01*
X159049221Y-104728856D01*
X159026166Y-104725437D01*
X159003557Y-104719773D01*
X158981613Y-104711921D01*
X158960543Y-104701956D01*
X158940552Y-104689974D01*
X158921832Y-104676090D01*
X158904562Y-104660438D01*
X158888910Y-104643168D01*
X158875026Y-104624448D01*
X158863044Y-104604457D01*
X158853079Y-104583387D01*
X158845227Y-104561443D01*
X158839563Y-104538834D01*
X158836144Y-104515779D01*
X158835000Y-104492500D01*
X158835000Y-103917500D01*
X158836144Y-103894221D01*
X158839563Y-103871166D01*
X158845227Y-103848557D01*
X158853079Y-103826613D01*
X158863044Y-103805543D01*
X158875026Y-103785552D01*
X158888910Y-103766832D01*
X158904562Y-103749562D01*
X158921832Y-103733910D01*
X158940552Y-103720026D01*
X158960543Y-103708044D01*
X158981613Y-103698079D01*
X159003557Y-103690227D01*
X159026166Y-103684563D01*
X159049221Y-103681144D01*
X159072500Y-103680000D01*
X159547500Y-103680000D01*
X159570779Y-103681144D01*
X159570779Y-103681144D01*
G37*
D12*
X159310000Y-104205000D03*
D11*
G36*
X159570779Y-101931144D02*
X159593834Y-101934563D01*
X159616443Y-101940227D01*
X159638387Y-101948079D01*
X159659457Y-101958044D01*
X159679448Y-101970026D01*
X159698168Y-101983910D01*
X159715438Y-101999562D01*
X159731090Y-102016832D01*
X159744974Y-102035552D01*
X159756956Y-102055543D01*
X159766921Y-102076613D01*
X159774773Y-102098557D01*
X159780437Y-102121166D01*
X159783856Y-102144221D01*
X159785000Y-102167500D01*
X159785000Y-102742500D01*
X159783856Y-102765779D01*
X159780437Y-102788834D01*
X159774773Y-102811443D01*
X159766921Y-102833387D01*
X159756956Y-102854457D01*
X159744974Y-102874448D01*
X159731090Y-102893168D01*
X159715438Y-102910438D01*
X159698168Y-102926090D01*
X159679448Y-102939974D01*
X159659457Y-102951956D01*
X159638387Y-102961921D01*
X159616443Y-102969773D01*
X159593834Y-102975437D01*
X159570779Y-102978856D01*
X159547500Y-102980000D01*
X159072500Y-102980000D01*
X159049221Y-102978856D01*
X159026166Y-102975437D01*
X159003557Y-102969773D01*
X158981613Y-102961921D01*
X158960543Y-102951956D01*
X158940552Y-102939974D01*
X158921832Y-102926090D01*
X158904562Y-102910438D01*
X158888910Y-102893168D01*
X158875026Y-102874448D01*
X158863044Y-102854457D01*
X158853079Y-102833387D01*
X158845227Y-102811443D01*
X158839563Y-102788834D01*
X158836144Y-102765779D01*
X158835000Y-102742500D01*
X158835000Y-102167500D01*
X158836144Y-102144221D01*
X158839563Y-102121166D01*
X158845227Y-102098557D01*
X158853079Y-102076613D01*
X158863044Y-102055543D01*
X158875026Y-102035552D01*
X158888910Y-102016832D01*
X158904562Y-101999562D01*
X158921832Y-101983910D01*
X158940552Y-101970026D01*
X158960543Y-101958044D01*
X158981613Y-101948079D01*
X159003557Y-101940227D01*
X159026166Y-101934563D01*
X159049221Y-101931144D01*
X159072500Y-101930000D01*
X159547500Y-101930000D01*
X159570779Y-101931144D01*
X159570779Y-101931144D01*
G37*
D12*
X159310000Y-102455000D03*
G04 #@! TD*
D13*
G04 #@! TO.C,Y2*
X141430000Y-94860000D03*
X140230000Y-94860000D03*
X139030000Y-94860000D03*
G04 #@! TD*
D10*
G04 #@! TO.C,SW1*
X137840000Y-105600000D03*
X130040000Y-105600000D03*
G04 #@! TD*
D11*
G04 #@! TO.C,C1*
G36*
X138127691Y-102326053D02*
X138148926Y-102329203D01*
X138169750Y-102334419D01*
X138189962Y-102341651D01*
X138209368Y-102350830D01*
X138227781Y-102361866D01*
X138245024Y-102374654D01*
X138260930Y-102389070D01*
X138275346Y-102404976D01*
X138288134Y-102422219D01*
X138299170Y-102440632D01*
X138308349Y-102460038D01*
X138315581Y-102480250D01*
X138320797Y-102501074D01*
X138323947Y-102522309D01*
X138325000Y-102543750D01*
X138325000Y-103056250D01*
X138323947Y-103077691D01*
X138320797Y-103098926D01*
X138315581Y-103119750D01*
X138308349Y-103139962D01*
X138299170Y-103159368D01*
X138288134Y-103177781D01*
X138275346Y-103195024D01*
X138260930Y-103210930D01*
X138245024Y-103225346D01*
X138227781Y-103238134D01*
X138209368Y-103249170D01*
X138189962Y-103258349D01*
X138169750Y-103265581D01*
X138148926Y-103270797D01*
X138127691Y-103273947D01*
X138106250Y-103275000D01*
X137668750Y-103275000D01*
X137647309Y-103273947D01*
X137626074Y-103270797D01*
X137605250Y-103265581D01*
X137585038Y-103258349D01*
X137565632Y-103249170D01*
X137547219Y-103238134D01*
X137529976Y-103225346D01*
X137514070Y-103210930D01*
X137499654Y-103195024D01*
X137486866Y-103177781D01*
X137475830Y-103159368D01*
X137466651Y-103139962D01*
X137459419Y-103119750D01*
X137454203Y-103098926D01*
X137451053Y-103077691D01*
X137450000Y-103056250D01*
X137450000Y-102543750D01*
X137451053Y-102522309D01*
X137454203Y-102501074D01*
X137459419Y-102480250D01*
X137466651Y-102460038D01*
X137475830Y-102440632D01*
X137486866Y-102422219D01*
X137499654Y-102404976D01*
X137514070Y-102389070D01*
X137529976Y-102374654D01*
X137547219Y-102361866D01*
X137565632Y-102350830D01*
X137585038Y-102341651D01*
X137605250Y-102334419D01*
X137626074Y-102329203D01*
X137647309Y-102326053D01*
X137668750Y-102325000D01*
X138106250Y-102325000D01*
X138127691Y-102326053D01*
X138127691Y-102326053D01*
G37*
D14*
X137887500Y-102800000D03*
D11*
G36*
X136552691Y-102326053D02*
X136573926Y-102329203D01*
X136594750Y-102334419D01*
X136614962Y-102341651D01*
X136634368Y-102350830D01*
X136652781Y-102361866D01*
X136670024Y-102374654D01*
X136685930Y-102389070D01*
X136700346Y-102404976D01*
X136713134Y-102422219D01*
X136724170Y-102440632D01*
X136733349Y-102460038D01*
X136740581Y-102480250D01*
X136745797Y-102501074D01*
X136748947Y-102522309D01*
X136750000Y-102543750D01*
X136750000Y-103056250D01*
X136748947Y-103077691D01*
X136745797Y-103098926D01*
X136740581Y-103119750D01*
X136733349Y-103139962D01*
X136724170Y-103159368D01*
X136713134Y-103177781D01*
X136700346Y-103195024D01*
X136685930Y-103210930D01*
X136670024Y-103225346D01*
X136652781Y-103238134D01*
X136634368Y-103249170D01*
X136614962Y-103258349D01*
X136594750Y-103265581D01*
X136573926Y-103270797D01*
X136552691Y-103273947D01*
X136531250Y-103275000D01*
X136093750Y-103275000D01*
X136072309Y-103273947D01*
X136051074Y-103270797D01*
X136030250Y-103265581D01*
X136010038Y-103258349D01*
X135990632Y-103249170D01*
X135972219Y-103238134D01*
X135954976Y-103225346D01*
X135939070Y-103210930D01*
X135924654Y-103195024D01*
X135911866Y-103177781D01*
X135900830Y-103159368D01*
X135891651Y-103139962D01*
X135884419Y-103119750D01*
X135879203Y-103098926D01*
X135876053Y-103077691D01*
X135875000Y-103056250D01*
X135875000Y-102543750D01*
X135876053Y-102522309D01*
X135879203Y-102501074D01*
X135884419Y-102480250D01*
X135891651Y-102460038D01*
X135900830Y-102440632D01*
X135911866Y-102422219D01*
X135924654Y-102404976D01*
X135939070Y-102389070D01*
X135954976Y-102374654D01*
X135972219Y-102361866D01*
X135990632Y-102350830D01*
X136010038Y-102341651D01*
X136030250Y-102334419D01*
X136051074Y-102329203D01*
X136072309Y-102326053D01*
X136093750Y-102325000D01*
X136531250Y-102325000D01*
X136552691Y-102326053D01*
X136552691Y-102326053D01*
G37*
D14*
X136312500Y-102800000D03*
G04 #@! TD*
D11*
G04 #@! TO.C,C2*
G36*
X151827691Y-100626053D02*
X151848926Y-100629203D01*
X151869750Y-100634419D01*
X151889962Y-100641651D01*
X151909368Y-100650830D01*
X151927781Y-100661866D01*
X151945024Y-100674654D01*
X151960930Y-100689070D01*
X151975346Y-100704976D01*
X151988134Y-100722219D01*
X151999170Y-100740632D01*
X152008349Y-100760038D01*
X152015581Y-100780250D01*
X152020797Y-100801074D01*
X152023947Y-100822309D01*
X152025000Y-100843750D01*
X152025000Y-101281250D01*
X152023947Y-101302691D01*
X152020797Y-101323926D01*
X152015581Y-101344750D01*
X152008349Y-101364962D01*
X151999170Y-101384368D01*
X151988134Y-101402781D01*
X151975346Y-101420024D01*
X151960930Y-101435930D01*
X151945024Y-101450346D01*
X151927781Y-101463134D01*
X151909368Y-101474170D01*
X151889962Y-101483349D01*
X151869750Y-101490581D01*
X151848926Y-101495797D01*
X151827691Y-101498947D01*
X151806250Y-101500000D01*
X151293750Y-101500000D01*
X151272309Y-101498947D01*
X151251074Y-101495797D01*
X151230250Y-101490581D01*
X151210038Y-101483349D01*
X151190632Y-101474170D01*
X151172219Y-101463134D01*
X151154976Y-101450346D01*
X151139070Y-101435930D01*
X151124654Y-101420024D01*
X151111866Y-101402781D01*
X151100830Y-101384368D01*
X151091651Y-101364962D01*
X151084419Y-101344750D01*
X151079203Y-101323926D01*
X151076053Y-101302691D01*
X151075000Y-101281250D01*
X151075000Y-100843750D01*
X151076053Y-100822309D01*
X151079203Y-100801074D01*
X151084419Y-100780250D01*
X151091651Y-100760038D01*
X151100830Y-100740632D01*
X151111866Y-100722219D01*
X151124654Y-100704976D01*
X151139070Y-100689070D01*
X151154976Y-100674654D01*
X151172219Y-100661866D01*
X151190632Y-100650830D01*
X151210038Y-100641651D01*
X151230250Y-100634419D01*
X151251074Y-100629203D01*
X151272309Y-100626053D01*
X151293750Y-100625000D01*
X151806250Y-100625000D01*
X151827691Y-100626053D01*
X151827691Y-100626053D01*
G37*
D14*
X151550000Y-101062500D03*
D11*
G36*
X151827691Y-102201053D02*
X151848926Y-102204203D01*
X151869750Y-102209419D01*
X151889962Y-102216651D01*
X151909368Y-102225830D01*
X151927781Y-102236866D01*
X151945024Y-102249654D01*
X151960930Y-102264070D01*
X151975346Y-102279976D01*
X151988134Y-102297219D01*
X151999170Y-102315632D01*
X152008349Y-102335038D01*
X152015581Y-102355250D01*
X152020797Y-102376074D01*
X152023947Y-102397309D01*
X152025000Y-102418750D01*
X152025000Y-102856250D01*
X152023947Y-102877691D01*
X152020797Y-102898926D01*
X152015581Y-102919750D01*
X152008349Y-102939962D01*
X151999170Y-102959368D01*
X151988134Y-102977781D01*
X151975346Y-102995024D01*
X151960930Y-103010930D01*
X151945024Y-103025346D01*
X151927781Y-103038134D01*
X151909368Y-103049170D01*
X151889962Y-103058349D01*
X151869750Y-103065581D01*
X151848926Y-103070797D01*
X151827691Y-103073947D01*
X151806250Y-103075000D01*
X151293750Y-103075000D01*
X151272309Y-103073947D01*
X151251074Y-103070797D01*
X151230250Y-103065581D01*
X151210038Y-103058349D01*
X151190632Y-103049170D01*
X151172219Y-103038134D01*
X151154976Y-103025346D01*
X151139070Y-103010930D01*
X151124654Y-102995024D01*
X151111866Y-102977781D01*
X151100830Y-102959368D01*
X151091651Y-102939962D01*
X151084419Y-102919750D01*
X151079203Y-102898926D01*
X151076053Y-102877691D01*
X151075000Y-102856250D01*
X151075000Y-102418750D01*
X151076053Y-102397309D01*
X151079203Y-102376074D01*
X151084419Y-102355250D01*
X151091651Y-102335038D01*
X151100830Y-102315632D01*
X151111866Y-102297219D01*
X151124654Y-102279976D01*
X151139070Y-102264070D01*
X151154976Y-102249654D01*
X151172219Y-102236866D01*
X151190632Y-102225830D01*
X151210038Y-102216651D01*
X151230250Y-102209419D01*
X151251074Y-102204203D01*
X151272309Y-102201053D01*
X151293750Y-102200000D01*
X151806250Y-102200000D01*
X151827691Y-102201053D01*
X151827691Y-102201053D01*
G37*
D14*
X151550000Y-102637500D03*
G04 #@! TD*
D11*
G04 #@! TO.C,C3*
G36*
X147952691Y-93726053D02*
X147973926Y-93729203D01*
X147994750Y-93734419D01*
X148014962Y-93741651D01*
X148034368Y-93750830D01*
X148052781Y-93761866D01*
X148070024Y-93774654D01*
X148085930Y-93789070D01*
X148100346Y-93804976D01*
X148113134Y-93822219D01*
X148124170Y-93840632D01*
X148133349Y-93860038D01*
X148140581Y-93880250D01*
X148145797Y-93901074D01*
X148148947Y-93922309D01*
X148150000Y-93943750D01*
X148150000Y-94456250D01*
X148148947Y-94477691D01*
X148145797Y-94498926D01*
X148140581Y-94519750D01*
X148133349Y-94539962D01*
X148124170Y-94559368D01*
X148113134Y-94577781D01*
X148100346Y-94595024D01*
X148085930Y-94610930D01*
X148070024Y-94625346D01*
X148052781Y-94638134D01*
X148034368Y-94649170D01*
X148014962Y-94658349D01*
X147994750Y-94665581D01*
X147973926Y-94670797D01*
X147952691Y-94673947D01*
X147931250Y-94675000D01*
X147493750Y-94675000D01*
X147472309Y-94673947D01*
X147451074Y-94670797D01*
X147430250Y-94665581D01*
X147410038Y-94658349D01*
X147390632Y-94649170D01*
X147372219Y-94638134D01*
X147354976Y-94625346D01*
X147339070Y-94610930D01*
X147324654Y-94595024D01*
X147311866Y-94577781D01*
X147300830Y-94559368D01*
X147291651Y-94539962D01*
X147284419Y-94519750D01*
X147279203Y-94498926D01*
X147276053Y-94477691D01*
X147275000Y-94456250D01*
X147275000Y-93943750D01*
X147276053Y-93922309D01*
X147279203Y-93901074D01*
X147284419Y-93880250D01*
X147291651Y-93860038D01*
X147300830Y-93840632D01*
X147311866Y-93822219D01*
X147324654Y-93804976D01*
X147339070Y-93789070D01*
X147354976Y-93774654D01*
X147372219Y-93761866D01*
X147390632Y-93750830D01*
X147410038Y-93741651D01*
X147430250Y-93734419D01*
X147451074Y-93729203D01*
X147472309Y-93726053D01*
X147493750Y-93725000D01*
X147931250Y-93725000D01*
X147952691Y-93726053D01*
X147952691Y-93726053D01*
G37*
D14*
X147712500Y-94200000D03*
D11*
G36*
X149527691Y-93726053D02*
X149548926Y-93729203D01*
X149569750Y-93734419D01*
X149589962Y-93741651D01*
X149609368Y-93750830D01*
X149627781Y-93761866D01*
X149645024Y-93774654D01*
X149660930Y-93789070D01*
X149675346Y-93804976D01*
X149688134Y-93822219D01*
X149699170Y-93840632D01*
X149708349Y-93860038D01*
X149715581Y-93880250D01*
X149720797Y-93901074D01*
X149723947Y-93922309D01*
X149725000Y-93943750D01*
X149725000Y-94456250D01*
X149723947Y-94477691D01*
X149720797Y-94498926D01*
X149715581Y-94519750D01*
X149708349Y-94539962D01*
X149699170Y-94559368D01*
X149688134Y-94577781D01*
X149675346Y-94595024D01*
X149660930Y-94610930D01*
X149645024Y-94625346D01*
X149627781Y-94638134D01*
X149609368Y-94649170D01*
X149589962Y-94658349D01*
X149569750Y-94665581D01*
X149548926Y-94670797D01*
X149527691Y-94673947D01*
X149506250Y-94675000D01*
X149068750Y-94675000D01*
X149047309Y-94673947D01*
X149026074Y-94670797D01*
X149005250Y-94665581D01*
X148985038Y-94658349D01*
X148965632Y-94649170D01*
X148947219Y-94638134D01*
X148929976Y-94625346D01*
X148914070Y-94610930D01*
X148899654Y-94595024D01*
X148886866Y-94577781D01*
X148875830Y-94559368D01*
X148866651Y-94539962D01*
X148859419Y-94519750D01*
X148854203Y-94498926D01*
X148851053Y-94477691D01*
X148850000Y-94456250D01*
X148850000Y-93943750D01*
X148851053Y-93922309D01*
X148854203Y-93901074D01*
X148859419Y-93880250D01*
X148866651Y-93860038D01*
X148875830Y-93840632D01*
X148886866Y-93822219D01*
X148899654Y-93804976D01*
X148914070Y-93789070D01*
X148929976Y-93774654D01*
X148947219Y-93761866D01*
X148965632Y-93750830D01*
X148985038Y-93741651D01*
X149005250Y-93734419D01*
X149026074Y-93729203D01*
X149047309Y-93726053D01*
X149068750Y-93725000D01*
X149506250Y-93725000D01*
X149527691Y-93726053D01*
X149527691Y-93726053D01*
G37*
D14*
X149287500Y-94200000D03*
G04 #@! TD*
D11*
G04 #@! TO.C,C4*
G36*
X141102691Y-106276053D02*
X141123926Y-106279203D01*
X141144750Y-106284419D01*
X141164962Y-106291651D01*
X141184368Y-106300830D01*
X141202781Y-106311866D01*
X141220024Y-106324654D01*
X141235930Y-106339070D01*
X141250346Y-106354976D01*
X141263134Y-106372219D01*
X141274170Y-106390632D01*
X141283349Y-106410038D01*
X141290581Y-106430250D01*
X141295797Y-106451074D01*
X141298947Y-106472309D01*
X141300000Y-106493750D01*
X141300000Y-107006250D01*
X141298947Y-107027691D01*
X141295797Y-107048926D01*
X141290581Y-107069750D01*
X141283349Y-107089962D01*
X141274170Y-107109368D01*
X141263134Y-107127781D01*
X141250346Y-107145024D01*
X141235930Y-107160930D01*
X141220024Y-107175346D01*
X141202781Y-107188134D01*
X141184368Y-107199170D01*
X141164962Y-107208349D01*
X141144750Y-107215581D01*
X141123926Y-107220797D01*
X141102691Y-107223947D01*
X141081250Y-107225000D01*
X140643750Y-107225000D01*
X140622309Y-107223947D01*
X140601074Y-107220797D01*
X140580250Y-107215581D01*
X140560038Y-107208349D01*
X140540632Y-107199170D01*
X140522219Y-107188134D01*
X140504976Y-107175346D01*
X140489070Y-107160930D01*
X140474654Y-107145024D01*
X140461866Y-107127781D01*
X140450830Y-107109368D01*
X140441651Y-107089962D01*
X140434419Y-107069750D01*
X140429203Y-107048926D01*
X140426053Y-107027691D01*
X140425000Y-107006250D01*
X140425000Y-106493750D01*
X140426053Y-106472309D01*
X140429203Y-106451074D01*
X140434419Y-106430250D01*
X140441651Y-106410038D01*
X140450830Y-106390632D01*
X140461866Y-106372219D01*
X140474654Y-106354976D01*
X140489070Y-106339070D01*
X140504976Y-106324654D01*
X140522219Y-106311866D01*
X140540632Y-106300830D01*
X140560038Y-106291651D01*
X140580250Y-106284419D01*
X140601074Y-106279203D01*
X140622309Y-106276053D01*
X140643750Y-106275000D01*
X141081250Y-106275000D01*
X141102691Y-106276053D01*
X141102691Y-106276053D01*
G37*
D14*
X140862500Y-106750000D03*
D11*
G36*
X142677691Y-106276053D02*
X142698926Y-106279203D01*
X142719750Y-106284419D01*
X142739962Y-106291651D01*
X142759368Y-106300830D01*
X142777781Y-106311866D01*
X142795024Y-106324654D01*
X142810930Y-106339070D01*
X142825346Y-106354976D01*
X142838134Y-106372219D01*
X142849170Y-106390632D01*
X142858349Y-106410038D01*
X142865581Y-106430250D01*
X142870797Y-106451074D01*
X142873947Y-106472309D01*
X142875000Y-106493750D01*
X142875000Y-107006250D01*
X142873947Y-107027691D01*
X142870797Y-107048926D01*
X142865581Y-107069750D01*
X142858349Y-107089962D01*
X142849170Y-107109368D01*
X142838134Y-107127781D01*
X142825346Y-107145024D01*
X142810930Y-107160930D01*
X142795024Y-107175346D01*
X142777781Y-107188134D01*
X142759368Y-107199170D01*
X142739962Y-107208349D01*
X142719750Y-107215581D01*
X142698926Y-107220797D01*
X142677691Y-107223947D01*
X142656250Y-107225000D01*
X142218750Y-107225000D01*
X142197309Y-107223947D01*
X142176074Y-107220797D01*
X142155250Y-107215581D01*
X142135038Y-107208349D01*
X142115632Y-107199170D01*
X142097219Y-107188134D01*
X142079976Y-107175346D01*
X142064070Y-107160930D01*
X142049654Y-107145024D01*
X142036866Y-107127781D01*
X142025830Y-107109368D01*
X142016651Y-107089962D01*
X142009419Y-107069750D01*
X142004203Y-107048926D01*
X142001053Y-107027691D01*
X142000000Y-107006250D01*
X142000000Y-106493750D01*
X142001053Y-106472309D01*
X142004203Y-106451074D01*
X142009419Y-106430250D01*
X142016651Y-106410038D01*
X142025830Y-106390632D01*
X142036866Y-106372219D01*
X142049654Y-106354976D01*
X142064070Y-106339070D01*
X142079976Y-106324654D01*
X142097219Y-106311866D01*
X142115632Y-106300830D01*
X142135038Y-106291651D01*
X142155250Y-106284419D01*
X142176074Y-106279203D01*
X142197309Y-106276053D01*
X142218750Y-106275000D01*
X142656250Y-106275000D01*
X142677691Y-106276053D01*
X142677691Y-106276053D01*
G37*
D14*
X142437500Y-106750000D03*
G04 #@! TD*
D11*
G04 #@! TO.C,C5*
G36*
X138277691Y-99276053D02*
X138298926Y-99279203D01*
X138319750Y-99284419D01*
X138339962Y-99291651D01*
X138359368Y-99300830D01*
X138377781Y-99311866D01*
X138395024Y-99324654D01*
X138410930Y-99339070D01*
X138425346Y-99354976D01*
X138438134Y-99372219D01*
X138449170Y-99390632D01*
X138458349Y-99410038D01*
X138465581Y-99430250D01*
X138470797Y-99451074D01*
X138473947Y-99472309D01*
X138475000Y-99493750D01*
X138475000Y-100006250D01*
X138473947Y-100027691D01*
X138470797Y-100048926D01*
X138465581Y-100069750D01*
X138458349Y-100089962D01*
X138449170Y-100109368D01*
X138438134Y-100127781D01*
X138425346Y-100145024D01*
X138410930Y-100160930D01*
X138395024Y-100175346D01*
X138377781Y-100188134D01*
X138359368Y-100199170D01*
X138339962Y-100208349D01*
X138319750Y-100215581D01*
X138298926Y-100220797D01*
X138277691Y-100223947D01*
X138256250Y-100225000D01*
X137818750Y-100225000D01*
X137797309Y-100223947D01*
X137776074Y-100220797D01*
X137755250Y-100215581D01*
X137735038Y-100208349D01*
X137715632Y-100199170D01*
X137697219Y-100188134D01*
X137679976Y-100175346D01*
X137664070Y-100160930D01*
X137649654Y-100145024D01*
X137636866Y-100127781D01*
X137625830Y-100109368D01*
X137616651Y-100089962D01*
X137609419Y-100069750D01*
X137604203Y-100048926D01*
X137601053Y-100027691D01*
X137600000Y-100006250D01*
X137600000Y-99493750D01*
X137601053Y-99472309D01*
X137604203Y-99451074D01*
X137609419Y-99430250D01*
X137616651Y-99410038D01*
X137625830Y-99390632D01*
X137636866Y-99372219D01*
X137649654Y-99354976D01*
X137664070Y-99339070D01*
X137679976Y-99324654D01*
X137697219Y-99311866D01*
X137715632Y-99300830D01*
X137735038Y-99291651D01*
X137755250Y-99284419D01*
X137776074Y-99279203D01*
X137797309Y-99276053D01*
X137818750Y-99275000D01*
X138256250Y-99275000D01*
X138277691Y-99276053D01*
X138277691Y-99276053D01*
G37*
D14*
X138037500Y-99750000D03*
D11*
G36*
X136702691Y-99276053D02*
X136723926Y-99279203D01*
X136744750Y-99284419D01*
X136764962Y-99291651D01*
X136784368Y-99300830D01*
X136802781Y-99311866D01*
X136820024Y-99324654D01*
X136835930Y-99339070D01*
X136850346Y-99354976D01*
X136863134Y-99372219D01*
X136874170Y-99390632D01*
X136883349Y-99410038D01*
X136890581Y-99430250D01*
X136895797Y-99451074D01*
X136898947Y-99472309D01*
X136900000Y-99493750D01*
X136900000Y-100006250D01*
X136898947Y-100027691D01*
X136895797Y-100048926D01*
X136890581Y-100069750D01*
X136883349Y-100089962D01*
X136874170Y-100109368D01*
X136863134Y-100127781D01*
X136850346Y-100145024D01*
X136835930Y-100160930D01*
X136820024Y-100175346D01*
X136802781Y-100188134D01*
X136784368Y-100199170D01*
X136764962Y-100208349D01*
X136744750Y-100215581D01*
X136723926Y-100220797D01*
X136702691Y-100223947D01*
X136681250Y-100225000D01*
X136243750Y-100225000D01*
X136222309Y-100223947D01*
X136201074Y-100220797D01*
X136180250Y-100215581D01*
X136160038Y-100208349D01*
X136140632Y-100199170D01*
X136122219Y-100188134D01*
X136104976Y-100175346D01*
X136089070Y-100160930D01*
X136074654Y-100145024D01*
X136061866Y-100127781D01*
X136050830Y-100109368D01*
X136041651Y-100089962D01*
X136034419Y-100069750D01*
X136029203Y-100048926D01*
X136026053Y-100027691D01*
X136025000Y-100006250D01*
X136025000Y-99493750D01*
X136026053Y-99472309D01*
X136029203Y-99451074D01*
X136034419Y-99430250D01*
X136041651Y-99410038D01*
X136050830Y-99390632D01*
X136061866Y-99372219D01*
X136074654Y-99354976D01*
X136089070Y-99339070D01*
X136104976Y-99324654D01*
X136122219Y-99311866D01*
X136140632Y-99300830D01*
X136160038Y-99291651D01*
X136180250Y-99284419D01*
X136201074Y-99279203D01*
X136222309Y-99276053D01*
X136243750Y-99275000D01*
X136681250Y-99275000D01*
X136702691Y-99276053D01*
X136702691Y-99276053D01*
G37*
D14*
X136462500Y-99750000D03*
G04 #@! TD*
D11*
G04 #@! TO.C,C6*
G36*
X138277691Y-97776053D02*
X138298926Y-97779203D01*
X138319750Y-97784419D01*
X138339962Y-97791651D01*
X138359368Y-97800830D01*
X138377781Y-97811866D01*
X138395024Y-97824654D01*
X138410930Y-97839070D01*
X138425346Y-97854976D01*
X138438134Y-97872219D01*
X138449170Y-97890632D01*
X138458349Y-97910038D01*
X138465581Y-97930250D01*
X138470797Y-97951074D01*
X138473947Y-97972309D01*
X138475000Y-97993750D01*
X138475000Y-98506250D01*
X138473947Y-98527691D01*
X138470797Y-98548926D01*
X138465581Y-98569750D01*
X138458349Y-98589962D01*
X138449170Y-98609368D01*
X138438134Y-98627781D01*
X138425346Y-98645024D01*
X138410930Y-98660930D01*
X138395024Y-98675346D01*
X138377781Y-98688134D01*
X138359368Y-98699170D01*
X138339962Y-98708349D01*
X138319750Y-98715581D01*
X138298926Y-98720797D01*
X138277691Y-98723947D01*
X138256250Y-98725000D01*
X137818750Y-98725000D01*
X137797309Y-98723947D01*
X137776074Y-98720797D01*
X137755250Y-98715581D01*
X137735038Y-98708349D01*
X137715632Y-98699170D01*
X137697219Y-98688134D01*
X137679976Y-98675346D01*
X137664070Y-98660930D01*
X137649654Y-98645024D01*
X137636866Y-98627781D01*
X137625830Y-98609368D01*
X137616651Y-98589962D01*
X137609419Y-98569750D01*
X137604203Y-98548926D01*
X137601053Y-98527691D01*
X137600000Y-98506250D01*
X137600000Y-97993750D01*
X137601053Y-97972309D01*
X137604203Y-97951074D01*
X137609419Y-97930250D01*
X137616651Y-97910038D01*
X137625830Y-97890632D01*
X137636866Y-97872219D01*
X137649654Y-97854976D01*
X137664070Y-97839070D01*
X137679976Y-97824654D01*
X137697219Y-97811866D01*
X137715632Y-97800830D01*
X137735038Y-97791651D01*
X137755250Y-97784419D01*
X137776074Y-97779203D01*
X137797309Y-97776053D01*
X137818750Y-97775000D01*
X138256250Y-97775000D01*
X138277691Y-97776053D01*
X138277691Y-97776053D01*
G37*
D14*
X138037500Y-98250000D03*
D11*
G36*
X136702691Y-97776053D02*
X136723926Y-97779203D01*
X136744750Y-97784419D01*
X136764962Y-97791651D01*
X136784368Y-97800830D01*
X136802781Y-97811866D01*
X136820024Y-97824654D01*
X136835930Y-97839070D01*
X136850346Y-97854976D01*
X136863134Y-97872219D01*
X136874170Y-97890632D01*
X136883349Y-97910038D01*
X136890581Y-97930250D01*
X136895797Y-97951074D01*
X136898947Y-97972309D01*
X136900000Y-97993750D01*
X136900000Y-98506250D01*
X136898947Y-98527691D01*
X136895797Y-98548926D01*
X136890581Y-98569750D01*
X136883349Y-98589962D01*
X136874170Y-98609368D01*
X136863134Y-98627781D01*
X136850346Y-98645024D01*
X136835930Y-98660930D01*
X136820024Y-98675346D01*
X136802781Y-98688134D01*
X136784368Y-98699170D01*
X136764962Y-98708349D01*
X136744750Y-98715581D01*
X136723926Y-98720797D01*
X136702691Y-98723947D01*
X136681250Y-98725000D01*
X136243750Y-98725000D01*
X136222309Y-98723947D01*
X136201074Y-98720797D01*
X136180250Y-98715581D01*
X136160038Y-98708349D01*
X136140632Y-98699170D01*
X136122219Y-98688134D01*
X136104976Y-98675346D01*
X136089070Y-98660930D01*
X136074654Y-98645024D01*
X136061866Y-98627781D01*
X136050830Y-98609368D01*
X136041651Y-98589962D01*
X136034419Y-98569750D01*
X136029203Y-98548926D01*
X136026053Y-98527691D01*
X136025000Y-98506250D01*
X136025000Y-97993750D01*
X136026053Y-97972309D01*
X136029203Y-97951074D01*
X136034419Y-97930250D01*
X136041651Y-97910038D01*
X136050830Y-97890632D01*
X136061866Y-97872219D01*
X136074654Y-97854976D01*
X136089070Y-97839070D01*
X136104976Y-97824654D01*
X136122219Y-97811866D01*
X136140632Y-97800830D01*
X136160038Y-97791651D01*
X136180250Y-97784419D01*
X136201074Y-97779203D01*
X136222309Y-97776053D01*
X136243750Y-97775000D01*
X136681250Y-97775000D01*
X136702691Y-97776053D01*
X136702691Y-97776053D01*
G37*
D14*
X136462500Y-98250000D03*
G04 #@! TD*
D11*
G04 #@! TO.C,C7*
G36*
X132927691Y-94456053D02*
X132948926Y-94459203D01*
X132969750Y-94464419D01*
X132989962Y-94471651D01*
X133009368Y-94480830D01*
X133027781Y-94491866D01*
X133045024Y-94504654D01*
X133060930Y-94519070D01*
X133075346Y-94534976D01*
X133088134Y-94552219D01*
X133099170Y-94570632D01*
X133108349Y-94590038D01*
X133115581Y-94610250D01*
X133120797Y-94631074D01*
X133123947Y-94652309D01*
X133125000Y-94673750D01*
X133125000Y-95186250D01*
X133123947Y-95207691D01*
X133120797Y-95228926D01*
X133115581Y-95249750D01*
X133108349Y-95269962D01*
X133099170Y-95289368D01*
X133088134Y-95307781D01*
X133075346Y-95325024D01*
X133060930Y-95340930D01*
X133045024Y-95355346D01*
X133027781Y-95368134D01*
X133009368Y-95379170D01*
X132989962Y-95388349D01*
X132969750Y-95395581D01*
X132948926Y-95400797D01*
X132927691Y-95403947D01*
X132906250Y-95405000D01*
X132468750Y-95405000D01*
X132447309Y-95403947D01*
X132426074Y-95400797D01*
X132405250Y-95395581D01*
X132385038Y-95388349D01*
X132365632Y-95379170D01*
X132347219Y-95368134D01*
X132329976Y-95355346D01*
X132314070Y-95340930D01*
X132299654Y-95325024D01*
X132286866Y-95307781D01*
X132275830Y-95289368D01*
X132266651Y-95269962D01*
X132259419Y-95249750D01*
X132254203Y-95228926D01*
X132251053Y-95207691D01*
X132250000Y-95186250D01*
X132250000Y-94673750D01*
X132251053Y-94652309D01*
X132254203Y-94631074D01*
X132259419Y-94610250D01*
X132266651Y-94590038D01*
X132275830Y-94570632D01*
X132286866Y-94552219D01*
X132299654Y-94534976D01*
X132314070Y-94519070D01*
X132329976Y-94504654D01*
X132347219Y-94491866D01*
X132365632Y-94480830D01*
X132385038Y-94471651D01*
X132405250Y-94464419D01*
X132426074Y-94459203D01*
X132447309Y-94456053D01*
X132468750Y-94455000D01*
X132906250Y-94455000D01*
X132927691Y-94456053D01*
X132927691Y-94456053D01*
G37*
D14*
X132687500Y-94930000D03*
D11*
G36*
X131352691Y-94456053D02*
X131373926Y-94459203D01*
X131394750Y-94464419D01*
X131414962Y-94471651D01*
X131434368Y-94480830D01*
X131452781Y-94491866D01*
X131470024Y-94504654D01*
X131485930Y-94519070D01*
X131500346Y-94534976D01*
X131513134Y-94552219D01*
X131524170Y-94570632D01*
X131533349Y-94590038D01*
X131540581Y-94610250D01*
X131545797Y-94631074D01*
X131548947Y-94652309D01*
X131550000Y-94673750D01*
X131550000Y-95186250D01*
X131548947Y-95207691D01*
X131545797Y-95228926D01*
X131540581Y-95249750D01*
X131533349Y-95269962D01*
X131524170Y-95289368D01*
X131513134Y-95307781D01*
X131500346Y-95325024D01*
X131485930Y-95340930D01*
X131470024Y-95355346D01*
X131452781Y-95368134D01*
X131434368Y-95379170D01*
X131414962Y-95388349D01*
X131394750Y-95395581D01*
X131373926Y-95400797D01*
X131352691Y-95403947D01*
X131331250Y-95405000D01*
X130893750Y-95405000D01*
X130872309Y-95403947D01*
X130851074Y-95400797D01*
X130830250Y-95395581D01*
X130810038Y-95388349D01*
X130790632Y-95379170D01*
X130772219Y-95368134D01*
X130754976Y-95355346D01*
X130739070Y-95340930D01*
X130724654Y-95325024D01*
X130711866Y-95307781D01*
X130700830Y-95289368D01*
X130691651Y-95269962D01*
X130684419Y-95249750D01*
X130679203Y-95228926D01*
X130676053Y-95207691D01*
X130675000Y-95186250D01*
X130675000Y-94673750D01*
X130676053Y-94652309D01*
X130679203Y-94631074D01*
X130684419Y-94610250D01*
X130691651Y-94590038D01*
X130700830Y-94570632D01*
X130711866Y-94552219D01*
X130724654Y-94534976D01*
X130739070Y-94519070D01*
X130754976Y-94504654D01*
X130772219Y-94491866D01*
X130790632Y-94480830D01*
X130810038Y-94471651D01*
X130830250Y-94464419D01*
X130851074Y-94459203D01*
X130872309Y-94456053D01*
X130893750Y-94455000D01*
X131331250Y-94455000D01*
X131352691Y-94456053D01*
X131352691Y-94456053D01*
G37*
D14*
X131112500Y-94930000D03*
G04 #@! TD*
D11*
G04 #@! TO.C,C8*
G36*
X133752691Y-96276053D02*
X133773926Y-96279203D01*
X133794750Y-96284419D01*
X133814962Y-96291651D01*
X133834368Y-96300830D01*
X133852781Y-96311866D01*
X133870024Y-96324654D01*
X133885930Y-96339070D01*
X133900346Y-96354976D01*
X133913134Y-96372219D01*
X133924170Y-96390632D01*
X133933349Y-96410038D01*
X133940581Y-96430250D01*
X133945797Y-96451074D01*
X133948947Y-96472309D01*
X133950000Y-96493750D01*
X133950000Y-97006250D01*
X133948947Y-97027691D01*
X133945797Y-97048926D01*
X133940581Y-97069750D01*
X133933349Y-97089962D01*
X133924170Y-97109368D01*
X133913134Y-97127781D01*
X133900346Y-97145024D01*
X133885930Y-97160930D01*
X133870024Y-97175346D01*
X133852781Y-97188134D01*
X133834368Y-97199170D01*
X133814962Y-97208349D01*
X133794750Y-97215581D01*
X133773926Y-97220797D01*
X133752691Y-97223947D01*
X133731250Y-97225000D01*
X133293750Y-97225000D01*
X133272309Y-97223947D01*
X133251074Y-97220797D01*
X133230250Y-97215581D01*
X133210038Y-97208349D01*
X133190632Y-97199170D01*
X133172219Y-97188134D01*
X133154976Y-97175346D01*
X133139070Y-97160930D01*
X133124654Y-97145024D01*
X133111866Y-97127781D01*
X133100830Y-97109368D01*
X133091651Y-97089962D01*
X133084419Y-97069750D01*
X133079203Y-97048926D01*
X133076053Y-97027691D01*
X133075000Y-97006250D01*
X133075000Y-96493750D01*
X133076053Y-96472309D01*
X133079203Y-96451074D01*
X133084419Y-96430250D01*
X133091651Y-96410038D01*
X133100830Y-96390632D01*
X133111866Y-96372219D01*
X133124654Y-96354976D01*
X133139070Y-96339070D01*
X133154976Y-96324654D01*
X133172219Y-96311866D01*
X133190632Y-96300830D01*
X133210038Y-96291651D01*
X133230250Y-96284419D01*
X133251074Y-96279203D01*
X133272309Y-96276053D01*
X133293750Y-96275000D01*
X133731250Y-96275000D01*
X133752691Y-96276053D01*
X133752691Y-96276053D01*
G37*
D14*
X133512500Y-96750000D03*
D11*
G36*
X135327691Y-96276053D02*
X135348926Y-96279203D01*
X135369750Y-96284419D01*
X135389962Y-96291651D01*
X135409368Y-96300830D01*
X135427781Y-96311866D01*
X135445024Y-96324654D01*
X135460930Y-96339070D01*
X135475346Y-96354976D01*
X135488134Y-96372219D01*
X135499170Y-96390632D01*
X135508349Y-96410038D01*
X135515581Y-96430250D01*
X135520797Y-96451074D01*
X135523947Y-96472309D01*
X135525000Y-96493750D01*
X135525000Y-97006250D01*
X135523947Y-97027691D01*
X135520797Y-97048926D01*
X135515581Y-97069750D01*
X135508349Y-97089962D01*
X135499170Y-97109368D01*
X135488134Y-97127781D01*
X135475346Y-97145024D01*
X135460930Y-97160930D01*
X135445024Y-97175346D01*
X135427781Y-97188134D01*
X135409368Y-97199170D01*
X135389962Y-97208349D01*
X135369750Y-97215581D01*
X135348926Y-97220797D01*
X135327691Y-97223947D01*
X135306250Y-97225000D01*
X134868750Y-97225000D01*
X134847309Y-97223947D01*
X134826074Y-97220797D01*
X134805250Y-97215581D01*
X134785038Y-97208349D01*
X134765632Y-97199170D01*
X134747219Y-97188134D01*
X134729976Y-97175346D01*
X134714070Y-97160930D01*
X134699654Y-97145024D01*
X134686866Y-97127781D01*
X134675830Y-97109368D01*
X134666651Y-97089962D01*
X134659419Y-97069750D01*
X134654203Y-97048926D01*
X134651053Y-97027691D01*
X134650000Y-97006250D01*
X134650000Y-96493750D01*
X134651053Y-96472309D01*
X134654203Y-96451074D01*
X134659419Y-96430250D01*
X134666651Y-96410038D01*
X134675830Y-96390632D01*
X134686866Y-96372219D01*
X134699654Y-96354976D01*
X134714070Y-96339070D01*
X134729976Y-96324654D01*
X134747219Y-96311866D01*
X134765632Y-96300830D01*
X134785038Y-96291651D01*
X134805250Y-96284419D01*
X134826074Y-96279203D01*
X134847309Y-96276053D01*
X134868750Y-96275000D01*
X135306250Y-96275000D01*
X135327691Y-96276053D01*
X135327691Y-96276053D01*
G37*
D14*
X135087500Y-96750000D03*
G04 #@! TD*
D11*
G04 #@! TO.C,C9*
G36*
X136652691Y-96276053D02*
X136673926Y-96279203D01*
X136694750Y-96284419D01*
X136714962Y-96291651D01*
X136734368Y-96300830D01*
X136752781Y-96311866D01*
X136770024Y-96324654D01*
X136785930Y-96339070D01*
X136800346Y-96354976D01*
X136813134Y-96372219D01*
X136824170Y-96390632D01*
X136833349Y-96410038D01*
X136840581Y-96430250D01*
X136845797Y-96451074D01*
X136848947Y-96472309D01*
X136850000Y-96493750D01*
X136850000Y-97006250D01*
X136848947Y-97027691D01*
X136845797Y-97048926D01*
X136840581Y-97069750D01*
X136833349Y-97089962D01*
X136824170Y-97109368D01*
X136813134Y-97127781D01*
X136800346Y-97145024D01*
X136785930Y-97160930D01*
X136770024Y-97175346D01*
X136752781Y-97188134D01*
X136734368Y-97199170D01*
X136714962Y-97208349D01*
X136694750Y-97215581D01*
X136673926Y-97220797D01*
X136652691Y-97223947D01*
X136631250Y-97225000D01*
X136193750Y-97225000D01*
X136172309Y-97223947D01*
X136151074Y-97220797D01*
X136130250Y-97215581D01*
X136110038Y-97208349D01*
X136090632Y-97199170D01*
X136072219Y-97188134D01*
X136054976Y-97175346D01*
X136039070Y-97160930D01*
X136024654Y-97145024D01*
X136011866Y-97127781D01*
X136000830Y-97109368D01*
X135991651Y-97089962D01*
X135984419Y-97069750D01*
X135979203Y-97048926D01*
X135976053Y-97027691D01*
X135975000Y-97006250D01*
X135975000Y-96493750D01*
X135976053Y-96472309D01*
X135979203Y-96451074D01*
X135984419Y-96430250D01*
X135991651Y-96410038D01*
X136000830Y-96390632D01*
X136011866Y-96372219D01*
X136024654Y-96354976D01*
X136039070Y-96339070D01*
X136054976Y-96324654D01*
X136072219Y-96311866D01*
X136090632Y-96300830D01*
X136110038Y-96291651D01*
X136130250Y-96284419D01*
X136151074Y-96279203D01*
X136172309Y-96276053D01*
X136193750Y-96275000D01*
X136631250Y-96275000D01*
X136652691Y-96276053D01*
X136652691Y-96276053D01*
G37*
D14*
X136412500Y-96750000D03*
D11*
G36*
X138227691Y-96276053D02*
X138248926Y-96279203D01*
X138269750Y-96284419D01*
X138289962Y-96291651D01*
X138309368Y-96300830D01*
X138327781Y-96311866D01*
X138345024Y-96324654D01*
X138360930Y-96339070D01*
X138375346Y-96354976D01*
X138388134Y-96372219D01*
X138399170Y-96390632D01*
X138408349Y-96410038D01*
X138415581Y-96430250D01*
X138420797Y-96451074D01*
X138423947Y-96472309D01*
X138425000Y-96493750D01*
X138425000Y-97006250D01*
X138423947Y-97027691D01*
X138420797Y-97048926D01*
X138415581Y-97069750D01*
X138408349Y-97089962D01*
X138399170Y-97109368D01*
X138388134Y-97127781D01*
X138375346Y-97145024D01*
X138360930Y-97160930D01*
X138345024Y-97175346D01*
X138327781Y-97188134D01*
X138309368Y-97199170D01*
X138289962Y-97208349D01*
X138269750Y-97215581D01*
X138248926Y-97220797D01*
X138227691Y-97223947D01*
X138206250Y-97225000D01*
X137768750Y-97225000D01*
X137747309Y-97223947D01*
X137726074Y-97220797D01*
X137705250Y-97215581D01*
X137685038Y-97208349D01*
X137665632Y-97199170D01*
X137647219Y-97188134D01*
X137629976Y-97175346D01*
X137614070Y-97160930D01*
X137599654Y-97145024D01*
X137586866Y-97127781D01*
X137575830Y-97109368D01*
X137566651Y-97089962D01*
X137559419Y-97069750D01*
X137554203Y-97048926D01*
X137551053Y-97027691D01*
X137550000Y-97006250D01*
X137550000Y-96493750D01*
X137551053Y-96472309D01*
X137554203Y-96451074D01*
X137559419Y-96430250D01*
X137566651Y-96410038D01*
X137575830Y-96390632D01*
X137586866Y-96372219D01*
X137599654Y-96354976D01*
X137614070Y-96339070D01*
X137629976Y-96324654D01*
X137647219Y-96311866D01*
X137665632Y-96300830D01*
X137685038Y-96291651D01*
X137705250Y-96284419D01*
X137726074Y-96279203D01*
X137747309Y-96276053D01*
X137768750Y-96275000D01*
X138206250Y-96275000D01*
X138227691Y-96276053D01*
X138227691Y-96276053D01*
G37*
D14*
X137987500Y-96750000D03*
G04 #@! TD*
D11*
G04 #@! TO.C,R3*
G36*
X153285779Y-98301144D02*
X153308834Y-98304563D01*
X153331443Y-98310227D01*
X153353387Y-98318079D01*
X153374457Y-98328044D01*
X153394448Y-98340026D01*
X153413168Y-98353910D01*
X153430438Y-98369562D01*
X153446090Y-98386832D01*
X153459974Y-98405552D01*
X153471956Y-98425543D01*
X153481921Y-98446613D01*
X153489773Y-98468557D01*
X153495437Y-98491166D01*
X153498856Y-98514221D01*
X153500000Y-98537500D01*
X153500000Y-99112500D01*
X153498856Y-99135779D01*
X153495437Y-99158834D01*
X153489773Y-99181443D01*
X153481921Y-99203387D01*
X153471956Y-99224457D01*
X153459974Y-99244448D01*
X153446090Y-99263168D01*
X153430438Y-99280438D01*
X153413168Y-99296090D01*
X153394448Y-99309974D01*
X153374457Y-99321956D01*
X153353387Y-99331921D01*
X153331443Y-99339773D01*
X153308834Y-99345437D01*
X153285779Y-99348856D01*
X153262500Y-99350000D01*
X152787500Y-99350000D01*
X152764221Y-99348856D01*
X152741166Y-99345437D01*
X152718557Y-99339773D01*
X152696613Y-99331921D01*
X152675543Y-99321956D01*
X152655552Y-99309974D01*
X152636832Y-99296090D01*
X152619562Y-99280438D01*
X152603910Y-99263168D01*
X152590026Y-99244448D01*
X152578044Y-99224457D01*
X152568079Y-99203387D01*
X152560227Y-99181443D01*
X152554563Y-99158834D01*
X152551144Y-99135779D01*
X152550000Y-99112500D01*
X152550000Y-98537500D01*
X152551144Y-98514221D01*
X152554563Y-98491166D01*
X152560227Y-98468557D01*
X152568079Y-98446613D01*
X152578044Y-98425543D01*
X152590026Y-98405552D01*
X152603910Y-98386832D01*
X152619562Y-98369562D01*
X152636832Y-98353910D01*
X152655552Y-98340026D01*
X152675543Y-98328044D01*
X152696613Y-98318079D01*
X152718557Y-98310227D01*
X152741166Y-98304563D01*
X152764221Y-98301144D01*
X152787500Y-98300000D01*
X153262500Y-98300000D01*
X153285779Y-98301144D01*
X153285779Y-98301144D01*
G37*
D12*
X153025000Y-98825000D03*
D11*
G36*
X153285779Y-96551144D02*
X153308834Y-96554563D01*
X153331443Y-96560227D01*
X153353387Y-96568079D01*
X153374457Y-96578044D01*
X153394448Y-96590026D01*
X153413168Y-96603910D01*
X153430438Y-96619562D01*
X153446090Y-96636832D01*
X153459974Y-96655552D01*
X153471956Y-96675543D01*
X153481921Y-96696613D01*
X153489773Y-96718557D01*
X153495437Y-96741166D01*
X153498856Y-96764221D01*
X153500000Y-96787500D01*
X153500000Y-97362500D01*
X153498856Y-97385779D01*
X153495437Y-97408834D01*
X153489773Y-97431443D01*
X153481921Y-97453387D01*
X153471956Y-97474457D01*
X153459974Y-97494448D01*
X153446090Y-97513168D01*
X153430438Y-97530438D01*
X153413168Y-97546090D01*
X153394448Y-97559974D01*
X153374457Y-97571956D01*
X153353387Y-97581921D01*
X153331443Y-97589773D01*
X153308834Y-97595437D01*
X153285779Y-97598856D01*
X153262500Y-97600000D01*
X152787500Y-97600000D01*
X152764221Y-97598856D01*
X152741166Y-97595437D01*
X152718557Y-97589773D01*
X152696613Y-97581921D01*
X152675543Y-97571956D01*
X152655552Y-97559974D01*
X152636832Y-97546090D01*
X152619562Y-97530438D01*
X152603910Y-97513168D01*
X152590026Y-97494448D01*
X152578044Y-97474457D01*
X152568079Y-97453387D01*
X152560227Y-97431443D01*
X152554563Y-97408834D01*
X152551144Y-97385779D01*
X152550000Y-97362500D01*
X152550000Y-96787500D01*
X152551144Y-96764221D01*
X152554563Y-96741166D01*
X152560227Y-96718557D01*
X152568079Y-96696613D01*
X152578044Y-96675543D01*
X152590026Y-96655552D01*
X152603910Y-96636832D01*
X152619562Y-96619562D01*
X152636832Y-96603910D01*
X152655552Y-96590026D01*
X152675543Y-96578044D01*
X152696613Y-96568079D01*
X152718557Y-96560227D01*
X152741166Y-96554563D01*
X152764221Y-96551144D01*
X152787500Y-96550000D01*
X153262500Y-96550000D01*
X153285779Y-96551144D01*
X153285779Y-96551144D01*
G37*
D12*
X153025000Y-97075000D03*
G04 #@! TD*
D15*
G04 #@! TO.C,U1*
X143993629Y-95704542D03*
D11*
G36*
X143445621Y-95333311D02*
X143622398Y-95156534D01*
X144541637Y-96075773D01*
X144364860Y-96252550D01*
X143445621Y-95333311D01*
X143445621Y-95333311D01*
G37*
D15*
X143640076Y-96058095D03*
D11*
G36*
X143092068Y-95686864D02*
X143268845Y-95510087D01*
X144188084Y-96429326D01*
X144011307Y-96606103D01*
X143092068Y-95686864D01*
X143092068Y-95686864D01*
G37*
D15*
X143286522Y-96411649D03*
D11*
G36*
X142738514Y-96040418D02*
X142915291Y-95863641D01*
X143834530Y-96782880D01*
X143657753Y-96959657D01*
X142738514Y-96040418D01*
X142738514Y-96040418D01*
G37*
D15*
X142932969Y-96765202D03*
D11*
G36*
X142384961Y-96393971D02*
X142561738Y-96217194D01*
X143480977Y-97136433D01*
X143304200Y-97313210D01*
X142384961Y-96393971D01*
X142384961Y-96393971D01*
G37*
D15*
X142579416Y-97118755D03*
D11*
G36*
X142031408Y-96747524D02*
X142208185Y-96570747D01*
X143127424Y-97489986D01*
X142950647Y-97666763D01*
X142031408Y-96747524D01*
X142031408Y-96747524D01*
G37*
D15*
X142225862Y-97472309D03*
D11*
G36*
X141677854Y-97101078D02*
X141854631Y-96924301D01*
X142773870Y-97843540D01*
X142597093Y-98020317D01*
X141677854Y-97101078D01*
X141677854Y-97101078D01*
G37*
D15*
X141872309Y-97825862D03*
D11*
G36*
X141324301Y-97454631D02*
X141501078Y-97277854D01*
X142420317Y-98197093D01*
X142243540Y-98373870D01*
X141324301Y-97454631D01*
X141324301Y-97454631D01*
G37*
D15*
X141518755Y-98179416D03*
D11*
G36*
X140970747Y-97808185D02*
X141147524Y-97631408D01*
X142066763Y-98550647D01*
X141889986Y-98727424D01*
X140970747Y-97808185D01*
X140970747Y-97808185D01*
G37*
D15*
X141165202Y-98532969D03*
D11*
G36*
X140617194Y-98161738D02*
X140793971Y-97984961D01*
X141713210Y-98904200D01*
X141536433Y-99080977D01*
X140617194Y-98161738D01*
X140617194Y-98161738D01*
G37*
D15*
X140811649Y-98886522D03*
D11*
G36*
X140263641Y-98515291D02*
X140440418Y-98338514D01*
X141359657Y-99257753D01*
X141182880Y-99434530D01*
X140263641Y-98515291D01*
X140263641Y-98515291D01*
G37*
D15*
X140458095Y-99240076D03*
D11*
G36*
X139910087Y-98868845D02*
X140086864Y-98692068D01*
X141006103Y-99611307D01*
X140829326Y-99788084D01*
X139910087Y-98868845D01*
X139910087Y-98868845D01*
G37*
D15*
X140104542Y-99593629D03*
D11*
G36*
X139556534Y-99222398D02*
X139733311Y-99045621D01*
X140652550Y-99964860D01*
X140475773Y-100141637D01*
X139556534Y-99222398D01*
X139556534Y-99222398D01*
G37*
D15*
X140104542Y-101856371D03*
D11*
G36*
X139733311Y-102404379D02*
X139556534Y-102227602D01*
X140475773Y-101308363D01*
X140652550Y-101485140D01*
X139733311Y-102404379D01*
X139733311Y-102404379D01*
G37*
D15*
X140458095Y-102209924D03*
D11*
G36*
X140086864Y-102757932D02*
X139910087Y-102581155D01*
X140829326Y-101661916D01*
X141006103Y-101838693D01*
X140086864Y-102757932D01*
X140086864Y-102757932D01*
G37*
D15*
X140811649Y-102563478D03*
D11*
G36*
X140440418Y-103111486D02*
X140263641Y-102934709D01*
X141182880Y-102015470D01*
X141359657Y-102192247D01*
X140440418Y-103111486D01*
X140440418Y-103111486D01*
G37*
D15*
X141165202Y-102917031D03*
D11*
G36*
X140793971Y-103465039D02*
X140617194Y-103288262D01*
X141536433Y-102369023D01*
X141713210Y-102545800D01*
X140793971Y-103465039D01*
X140793971Y-103465039D01*
G37*
D15*
X141518755Y-103270584D03*
D11*
G36*
X141147524Y-103818592D02*
X140970747Y-103641815D01*
X141889986Y-102722576D01*
X142066763Y-102899353D01*
X141147524Y-103818592D01*
X141147524Y-103818592D01*
G37*
D15*
X141872309Y-103624138D03*
D11*
G36*
X141501078Y-104172146D02*
X141324301Y-103995369D01*
X142243540Y-103076130D01*
X142420317Y-103252907D01*
X141501078Y-104172146D01*
X141501078Y-104172146D01*
G37*
D15*
X142225862Y-103977691D03*
D11*
G36*
X141854631Y-104525699D02*
X141677854Y-104348922D01*
X142597093Y-103429683D01*
X142773870Y-103606460D01*
X141854631Y-104525699D01*
X141854631Y-104525699D01*
G37*
D15*
X142579416Y-104331245D03*
D11*
G36*
X142208185Y-104879253D02*
X142031408Y-104702476D01*
X142950647Y-103783237D01*
X143127424Y-103960014D01*
X142208185Y-104879253D01*
X142208185Y-104879253D01*
G37*
D15*
X142932969Y-104684798D03*
D11*
G36*
X142561738Y-105232806D02*
X142384961Y-105056029D01*
X143304200Y-104136790D01*
X143480977Y-104313567D01*
X142561738Y-105232806D01*
X142561738Y-105232806D01*
G37*
D15*
X143286522Y-105038351D03*
D11*
G36*
X142915291Y-105586359D02*
X142738514Y-105409582D01*
X143657753Y-104490343D01*
X143834530Y-104667120D01*
X142915291Y-105586359D01*
X142915291Y-105586359D01*
G37*
D15*
X143640076Y-105391905D03*
D11*
G36*
X143268845Y-105939913D02*
X143092068Y-105763136D01*
X144011307Y-104843897D01*
X144188084Y-105020674D01*
X143268845Y-105939913D01*
X143268845Y-105939913D01*
G37*
D15*
X143993629Y-105745458D03*
D11*
G36*
X143622398Y-106293466D02*
X143445621Y-106116689D01*
X144364860Y-105197450D01*
X144541637Y-105374227D01*
X143622398Y-106293466D01*
X143622398Y-106293466D01*
G37*
D15*
X146256371Y-105745458D03*
D11*
G36*
X145708363Y-105374227D02*
X145885140Y-105197450D01*
X146804379Y-106116689D01*
X146627602Y-106293466D01*
X145708363Y-105374227D01*
X145708363Y-105374227D01*
G37*
D15*
X146609924Y-105391905D03*
D11*
G36*
X146061916Y-105020674D02*
X146238693Y-104843897D01*
X147157932Y-105763136D01*
X146981155Y-105939913D01*
X146061916Y-105020674D01*
X146061916Y-105020674D01*
G37*
D15*
X146963478Y-105038351D03*
D11*
G36*
X146415470Y-104667120D02*
X146592247Y-104490343D01*
X147511486Y-105409582D01*
X147334709Y-105586359D01*
X146415470Y-104667120D01*
X146415470Y-104667120D01*
G37*
D15*
X147317031Y-104684798D03*
D11*
G36*
X146769023Y-104313567D02*
X146945800Y-104136790D01*
X147865039Y-105056029D01*
X147688262Y-105232806D01*
X146769023Y-104313567D01*
X146769023Y-104313567D01*
G37*
D15*
X147670584Y-104331245D03*
D11*
G36*
X147122576Y-103960014D02*
X147299353Y-103783237D01*
X148218592Y-104702476D01*
X148041815Y-104879253D01*
X147122576Y-103960014D01*
X147122576Y-103960014D01*
G37*
D15*
X148024138Y-103977691D03*
D11*
G36*
X147476130Y-103606460D02*
X147652907Y-103429683D01*
X148572146Y-104348922D01*
X148395369Y-104525699D01*
X147476130Y-103606460D01*
X147476130Y-103606460D01*
G37*
D15*
X148377691Y-103624138D03*
D11*
G36*
X147829683Y-103252907D02*
X148006460Y-103076130D01*
X148925699Y-103995369D01*
X148748922Y-104172146D01*
X147829683Y-103252907D01*
X147829683Y-103252907D01*
G37*
D15*
X148731245Y-103270584D03*
D11*
G36*
X148183237Y-102899353D02*
X148360014Y-102722576D01*
X149279253Y-103641815D01*
X149102476Y-103818592D01*
X148183237Y-102899353D01*
X148183237Y-102899353D01*
G37*
D15*
X149084798Y-102917031D03*
D11*
G36*
X148536790Y-102545800D02*
X148713567Y-102369023D01*
X149632806Y-103288262D01*
X149456029Y-103465039D01*
X148536790Y-102545800D01*
X148536790Y-102545800D01*
G37*
D15*
X149438351Y-102563478D03*
D11*
G36*
X148890343Y-102192247D02*
X149067120Y-102015470D01*
X149986359Y-102934709D01*
X149809582Y-103111486D01*
X148890343Y-102192247D01*
X148890343Y-102192247D01*
G37*
D15*
X149791905Y-102209924D03*
D11*
G36*
X149243897Y-101838693D02*
X149420674Y-101661916D01*
X150339913Y-102581155D01*
X150163136Y-102757932D01*
X149243897Y-101838693D01*
X149243897Y-101838693D01*
G37*
D15*
X150145458Y-101856371D03*
D11*
G36*
X149597450Y-101485140D02*
X149774227Y-101308363D01*
X150693466Y-102227602D01*
X150516689Y-102404379D01*
X149597450Y-101485140D01*
X149597450Y-101485140D01*
G37*
D15*
X150145458Y-99593629D03*
D11*
G36*
X149774227Y-100141637D02*
X149597450Y-99964860D01*
X150516689Y-99045621D01*
X150693466Y-99222398D01*
X149774227Y-100141637D01*
X149774227Y-100141637D01*
G37*
D15*
X149791905Y-99240076D03*
D11*
G36*
X149420674Y-99788084D02*
X149243897Y-99611307D01*
X150163136Y-98692068D01*
X150339913Y-98868845D01*
X149420674Y-99788084D01*
X149420674Y-99788084D01*
G37*
D15*
X149438351Y-98886522D03*
D11*
G36*
X149067120Y-99434530D02*
X148890343Y-99257753D01*
X149809582Y-98338514D01*
X149986359Y-98515291D01*
X149067120Y-99434530D01*
X149067120Y-99434530D01*
G37*
D15*
X149084798Y-98532969D03*
D11*
G36*
X148713567Y-99080977D02*
X148536790Y-98904200D01*
X149456029Y-97984961D01*
X149632806Y-98161738D01*
X148713567Y-99080977D01*
X148713567Y-99080977D01*
G37*
D15*
X148731245Y-98179416D03*
D11*
G36*
X148360014Y-98727424D02*
X148183237Y-98550647D01*
X149102476Y-97631408D01*
X149279253Y-97808185D01*
X148360014Y-98727424D01*
X148360014Y-98727424D01*
G37*
D15*
X148377691Y-97825862D03*
D11*
G36*
X148006460Y-98373870D02*
X147829683Y-98197093D01*
X148748922Y-97277854D01*
X148925699Y-97454631D01*
X148006460Y-98373870D01*
X148006460Y-98373870D01*
G37*
D15*
X148024138Y-97472309D03*
D11*
G36*
X147652907Y-98020317D02*
X147476130Y-97843540D01*
X148395369Y-96924301D01*
X148572146Y-97101078D01*
X147652907Y-98020317D01*
X147652907Y-98020317D01*
G37*
D15*
X147670584Y-97118755D03*
D11*
G36*
X147299353Y-97666763D02*
X147122576Y-97489986D01*
X148041815Y-96570747D01*
X148218592Y-96747524D01*
X147299353Y-97666763D01*
X147299353Y-97666763D01*
G37*
D15*
X147317031Y-96765202D03*
D11*
G36*
X146945800Y-97313210D02*
X146769023Y-97136433D01*
X147688262Y-96217194D01*
X147865039Y-96393971D01*
X146945800Y-97313210D01*
X146945800Y-97313210D01*
G37*
D15*
X146963478Y-96411649D03*
D11*
G36*
X146592247Y-96959657D02*
X146415470Y-96782880D01*
X147334709Y-95863641D01*
X147511486Y-96040418D01*
X146592247Y-96959657D01*
X146592247Y-96959657D01*
G37*
D15*
X146609924Y-96058095D03*
D11*
G36*
X146238693Y-96606103D02*
X146061916Y-96429326D01*
X146981155Y-95510087D01*
X147157932Y-95686864D01*
X146238693Y-96606103D01*
X146238693Y-96606103D01*
G37*
D15*
X146256371Y-95704542D03*
D11*
G36*
X145885140Y-96252550D02*
X145708363Y-96075773D01*
X146627602Y-95156534D01*
X146804379Y-95333311D01*
X145885140Y-96252550D01*
X145885140Y-96252550D01*
G37*
G04 #@! TD*
D16*
G04 #@! TO.C,Y1*
X137550000Y-94750000D03*
X134750000Y-94750000D03*
G04 #@! TD*
D17*
G04 #@! TO.C,J5*
X156860000Y-97245000D03*
X156860000Y-94295000D03*
D18*
X155360000Y-95770000D03*
X158360000Y-95770000D03*
G04 #@! TD*
M02*
