G04 #@! TF.GenerationSoftware,KiCad,Pcbnew,6.0.0-rc1-unknown-a6325aa~66~ubuntu18.04.1*
G04 #@! TF.CreationDate,2018-09-08T20:35:18+02:00*
G04 #@! TF.ProjectId,STM32_Sensor_V4,53544D33325F53656E736F725F56342E,rev?*
G04 #@! TF.SameCoordinates,Original*
G04 #@! TF.FileFunction,Soldermask,Bot*
G04 #@! TF.FilePolarity,Negative*
%FSLAX46Y46*%
G04 Gerber Fmt 4.6, Leading zero omitted, Abs format (unit mm)*
G04 Created by KiCad (PCBNEW 6.0.0-rc1-unknown-a6325aa~66~ubuntu18.04.1) date Sat Sep  8 20:35:18 2018*
%MOMM*%
%LPD*%
G01*
G04 APERTURE LIST*
%ADD10C,1.700000*%
%ADD11O,1.700000X1.700000*%
%ADD12R,3.202940X1.402080*%
%ADD13R,2.500000X1.000000*%
%ADD14R,0.500000X0.600000*%
%ADD15R,1.000000X1.500000*%
G04 APERTURE END LIST*
D10*
G04 #@! TO.C,J3*
X158640000Y-91690000D03*
D11*
X156100000Y-91690000D03*
X153560000Y-91690000D03*
X151020000Y-91690000D03*
X148480000Y-91690000D03*
X145940000Y-91690000D03*
X143400000Y-91690000D03*
X140860000Y-91690000D03*
X138320000Y-91690000D03*
X135780000Y-91690000D03*
X133240000Y-91690000D03*
X130700000Y-91690000D03*
G04 #@! TD*
D12*
G04 #@! TO.C,U2*
X142681920Y-94580520D03*
X142681920Y-96582040D03*
X142681920Y-104577960D03*
X142681920Y-106579480D03*
X157678080Y-106579480D03*
X157678080Y-104577960D03*
X157678080Y-102578980D03*
X157678080Y-98581020D03*
X157678080Y-96582040D03*
X157678080Y-94580520D03*
G04 #@! TD*
G04 #@! TO.C,U4*
X153578080Y-103519740D03*
X153578080Y-101518220D03*
X153578080Y-95521280D03*
X153578080Y-93522300D03*
X138581920Y-93522300D03*
X138581920Y-97520260D03*
X138581920Y-99521780D03*
X138581920Y-101518220D03*
X138581920Y-103519740D03*
X138581920Y-105518720D03*
X138581920Y-107517700D03*
G04 #@! TD*
D13*
G04 #@! TO.C,U3*
X131020000Y-107620000D03*
X131020000Y-105620000D03*
X131020000Y-93620000D03*
X149220000Y-93620000D03*
X149220000Y-95620000D03*
X149220000Y-97620000D03*
X149220000Y-99620000D03*
X149220000Y-101620000D03*
X149220000Y-103620000D03*
X149220000Y-105620000D03*
G04 #@! TD*
D11*
G04 #@! TO.C,J1*
X128160000Y-109470000D03*
X128160000Y-106930000D03*
X128160000Y-104390000D03*
X128160000Y-101850000D03*
X128160000Y-99310000D03*
X128160000Y-96770000D03*
X128160000Y-94230000D03*
D10*
X128160000Y-91690000D03*
G04 #@! TD*
D11*
G04 #@! TO.C,J4*
X161180000Y-109470000D03*
X161180000Y-106930000D03*
X161180000Y-104390000D03*
X161180000Y-101850000D03*
X161180000Y-99310000D03*
X161180000Y-96770000D03*
X161180000Y-94230000D03*
D10*
X161180000Y-91690000D03*
G04 #@! TD*
G04 #@! TO.C,J2*
X130700000Y-109470000D03*
D11*
X133240000Y-109470000D03*
X135780000Y-109470000D03*
X138320000Y-109470000D03*
X140860000Y-109470000D03*
X143400000Y-109470000D03*
X145940000Y-109470000D03*
X148480000Y-109470000D03*
X151020000Y-109470000D03*
X153560000Y-109470000D03*
X156100000Y-109470000D03*
X158640000Y-109470000D03*
G04 #@! TD*
D14*
G04 #@! TO.C,JP1*
X134840000Y-93810000D03*
D15*
X134190000Y-93810000D03*
X135490000Y-93810000D03*
G04 #@! TD*
M02*
