G04 #@! TF.GenerationSoftware,KiCad,Pcbnew,5.0.0-rc2-unknown-a288d61~65~ubuntu18.04.1*
G04 #@! TF.CreationDate,2018-06-25T10:33:02+02:00*
G04 #@! TF.ProjectId,STM32_Sensor_V4,53544D33325F53656E736F725F56342E,rev?*
G04 #@! TF.SameCoordinates,Original*
G04 #@! TF.FileFunction,Soldermask,Bot*
G04 #@! TF.FilePolarity,Negative*
%FSLAX46Y46*%
G04 Gerber Fmt 4.6, Leading zero omitted, Abs format (unit mm)*
G04 Created by KiCad (PCBNEW 5.0.0-rc2-unknown-a288d61~65~ubuntu18.04.1) date Mon Jun 25 10:33:02 2018*
%MOMM*%
%LPD*%
G01*
G04 APERTURE LIST*
%ADD10O,1.700000X1.700000*%
%ADD11C,1.700000*%
%ADD12R,3.202940X1.402080*%
%ADD13R,2.500000X1.000000*%
%ADD14R,0.500000X0.600000*%
%ADD15R,1.000000X1.500000*%
G04 APERTURE END LIST*
D10*
G04 #@! TO.C,J1*
X128160000Y-109470000D03*
X128160000Y-106930000D03*
X128160000Y-104390000D03*
X128160000Y-101850000D03*
X128160000Y-99310000D03*
X128160000Y-96770000D03*
X128160000Y-94230000D03*
D11*
X128160000Y-91690000D03*
G04 #@! TD*
D10*
G04 #@! TO.C,J4*
X161180000Y-109470000D03*
X161180000Y-106930000D03*
X161180000Y-104390000D03*
X161180000Y-101850000D03*
X161180000Y-99310000D03*
X161180000Y-96770000D03*
X161180000Y-94230000D03*
D11*
X161180000Y-91690000D03*
G04 #@! TD*
G04 #@! TO.C,J2*
X130700000Y-109470000D03*
D10*
X133240000Y-109470000D03*
X135780000Y-109470000D03*
X138320000Y-109470000D03*
X140860000Y-109470000D03*
X143400000Y-109470000D03*
X145940000Y-109470000D03*
X148480000Y-109470000D03*
X151020000Y-109470000D03*
X153560000Y-109470000D03*
X156100000Y-109470000D03*
X158640000Y-109470000D03*
G04 #@! TD*
D11*
G04 #@! TO.C,J3*
X158640000Y-91690000D03*
D10*
X156100000Y-91690000D03*
X153560000Y-91690000D03*
X151020000Y-91690000D03*
X148480000Y-91690000D03*
X145940000Y-91690000D03*
X143400000Y-91690000D03*
X140860000Y-91690000D03*
X138320000Y-91690000D03*
X135780000Y-91690000D03*
X133240000Y-91690000D03*
X130700000Y-91690000D03*
G04 #@! TD*
D12*
G04 #@! TO.C,U2*
X156798080Y-94600520D03*
X156798080Y-96602040D03*
X156798080Y-98601020D03*
X156798080Y-100600000D03*
X156798080Y-102598980D03*
X156798080Y-104597960D03*
X156798080Y-106599480D03*
X141801920Y-106599480D03*
X141801920Y-104597960D03*
X141801920Y-102598980D03*
X141801920Y-100600000D03*
X141801920Y-98601020D03*
X141801920Y-96602040D03*
X141801920Y-94600520D03*
G04 #@! TD*
D13*
G04 #@! TO.C,U3*
X152590000Y-107540000D03*
X152590000Y-105540000D03*
X152590000Y-103540000D03*
X152590000Y-101540000D03*
X152590000Y-99540000D03*
X152590000Y-97540000D03*
X152590000Y-95540000D03*
X152590000Y-93540000D03*
X134390000Y-93540000D03*
X134390000Y-95540000D03*
X134390000Y-97540000D03*
X134390000Y-99540000D03*
X134390000Y-101540000D03*
X134390000Y-103540000D03*
X134390000Y-105540000D03*
X134390000Y-107540000D03*
G04 #@! TD*
D14*
G04 #@! TO.C,JP1*
X137820000Y-93870000D03*
D15*
X138470000Y-93870000D03*
X137170000Y-93870000D03*
G04 #@! TD*
M02*
