G04 #@! TF.GenerationSoftware,KiCad,Pcbnew,5.0.0-rc2-unknown-a288d61~65~ubuntu18.04.1*
G04 #@! TF.CreationDate,2018-06-25T10:33:02+02:00*
G04 #@! TF.ProjectId,STM32_Sensor_V4,53544D33325F53656E736F725F56342E,rev?*
G04 #@! TF.SameCoordinates,Original*
G04 #@! TF.FileFunction,Other,Fab,Bot*
%FSLAX46Y46*%
G04 Gerber Fmt 4.6, Leading zero omitted, Abs format (unit mm)*
G04 Created by KiCad (PCBNEW 5.0.0-rc2-unknown-a288d61~65~ubuntu18.04.1) date Mon Jun 25 10:33:02 2018*
%MOMM*%
%LPD*%
G01*
G04 APERTURE LIST*
%ADD10C,0.100000*%
%ADD11C,0.150000*%
G04 APERTURE END LIST*
D10*
G04 #@! TO.C,U3*
X136990000Y-107540000D02*
G75*
G03X136990000Y-107540000I-500000J0D01*
G01*
X133640000Y-108540000D02*
X153340000Y-108540000D01*
X153340000Y-108540000D02*
X153340000Y-92540000D01*
X153340000Y-92540000D02*
X133640000Y-92540000D01*
X133640000Y-92540000D02*
X133640000Y-108540000D01*
G04 #@! TD*
G04 #@! TO.C,U3*
D11*
X146228095Y-98492380D02*
X146561428Y-98016190D01*
X146799523Y-98492380D02*
X146799523Y-97492380D01*
X146418571Y-97492380D01*
X146323333Y-97540000D01*
X146275714Y-97587619D01*
X146228095Y-97682857D01*
X146228095Y-97825714D01*
X146275714Y-97920952D01*
X146323333Y-97968571D01*
X146418571Y-98016190D01*
X146799523Y-98016190D01*
X145466190Y-97968571D02*
X145799523Y-97968571D01*
X145799523Y-98492380D02*
X145799523Y-97492380D01*
X145323333Y-97492380D01*
X144942380Y-98492380D02*
X144942380Y-97492380D01*
X144609047Y-98206666D01*
X144275714Y-97492380D01*
X144275714Y-98492380D01*
X143370952Y-97492380D02*
X143561428Y-97492380D01*
X143656666Y-97540000D01*
X143704285Y-97587619D01*
X143799523Y-97730476D01*
X143847142Y-97920952D01*
X143847142Y-98301904D01*
X143799523Y-98397142D01*
X143751904Y-98444761D01*
X143656666Y-98492380D01*
X143466190Y-98492380D01*
X143370952Y-98444761D01*
X143323333Y-98397142D01*
X143275714Y-98301904D01*
X143275714Y-98063809D01*
X143323333Y-97968571D01*
X143370952Y-97920952D01*
X143466190Y-97873333D01*
X143656666Y-97873333D01*
X143751904Y-97920952D01*
X143799523Y-97968571D01*
X143847142Y-98063809D01*
X142799523Y-98492380D02*
X142609047Y-98492380D01*
X142513809Y-98444761D01*
X142466190Y-98397142D01*
X142370952Y-98254285D01*
X142323333Y-98063809D01*
X142323333Y-97682857D01*
X142370952Y-97587619D01*
X142418571Y-97540000D01*
X142513809Y-97492380D01*
X142704285Y-97492380D01*
X142799523Y-97540000D01*
X142847142Y-97587619D01*
X142894761Y-97682857D01*
X142894761Y-97920952D01*
X142847142Y-98016190D01*
X142799523Y-98063809D01*
X142704285Y-98111428D01*
X142513809Y-98111428D01*
X142418571Y-98063809D01*
X142370952Y-98016190D01*
X142323333Y-97920952D01*
X141894761Y-98492380D02*
X141894761Y-97492380D01*
X141894761Y-97968571D02*
X141323333Y-97968571D01*
X141323333Y-98492380D02*
X141323333Y-97492380D01*
X140942380Y-97492380D02*
X140704285Y-98492380D01*
X140513809Y-97778095D01*
X140323333Y-98492380D01*
X140085238Y-97492380D01*
X144251904Y-99992380D02*
X144251904Y-100801904D01*
X144204285Y-100897142D01*
X144156666Y-100944761D01*
X144061428Y-100992380D01*
X143870952Y-100992380D01*
X143775714Y-100944761D01*
X143728095Y-100897142D01*
X143680476Y-100801904D01*
X143680476Y-99992380D01*
X143299523Y-99992380D02*
X142680476Y-99992380D01*
X143013809Y-100373333D01*
X142870952Y-100373333D01*
X142775714Y-100420952D01*
X142728095Y-100468571D01*
X142680476Y-100563809D01*
X142680476Y-100801904D01*
X142728095Y-100897142D01*
X142775714Y-100944761D01*
X142870952Y-100992380D01*
X143156666Y-100992380D01*
X143251904Y-100944761D01*
X143299523Y-100897142D01*
G04 #@! TO.C,JP1*
X142534285Y-91422380D02*
X142200952Y-92422380D01*
X141867619Y-91422380D01*
X141200952Y-91898571D02*
X141058095Y-91946190D01*
X141010476Y-91993809D01*
X140962857Y-92089047D01*
X140962857Y-92231904D01*
X141010476Y-92327142D01*
X141058095Y-92374761D01*
X141153333Y-92422380D01*
X141534285Y-92422380D01*
X141534285Y-91422380D01*
X141200952Y-91422380D01*
X141105714Y-91470000D01*
X141058095Y-91517619D01*
X141010476Y-91612857D01*
X141010476Y-91708095D01*
X141058095Y-91803333D01*
X141105714Y-91850952D01*
X141200952Y-91898571D01*
X141534285Y-91898571D01*
X140581904Y-92136666D02*
X140105714Y-92136666D01*
X140677142Y-92422380D02*
X140343809Y-91422380D01*
X140010476Y-92422380D01*
X139820000Y-91422380D02*
X139248571Y-91422380D01*
X139534285Y-92422380D02*
X139534285Y-91422380D01*
X137867619Y-91422380D02*
X137867619Y-92136666D01*
X137915238Y-92279523D01*
X138010476Y-92374761D01*
X138153333Y-92422380D01*
X138248571Y-92422380D01*
X136962857Y-91755714D02*
X136962857Y-92422380D01*
X137391428Y-91755714D02*
X137391428Y-92279523D01*
X137343809Y-92374761D01*
X137248571Y-92422380D01*
X137105714Y-92422380D01*
X137010476Y-92374761D01*
X136962857Y-92327142D01*
X136486666Y-92422380D02*
X136486666Y-91755714D01*
X136486666Y-91850952D02*
X136439047Y-91803333D01*
X136343809Y-91755714D01*
X136200952Y-91755714D01*
X136105714Y-91803333D01*
X136058095Y-91898571D01*
X136058095Y-92422380D01*
X136058095Y-91898571D02*
X136010476Y-91803333D01*
X135915238Y-91755714D01*
X135772380Y-91755714D01*
X135677142Y-91803333D01*
X135629523Y-91898571D01*
X135629523Y-92422380D01*
X135153333Y-91755714D02*
X135153333Y-92755714D01*
X135153333Y-91803333D02*
X135058095Y-91755714D01*
X134867619Y-91755714D01*
X134772380Y-91803333D01*
X134724761Y-91850952D01*
X134677142Y-91946190D01*
X134677142Y-92231904D01*
X134724761Y-92327142D01*
X134772380Y-92374761D01*
X134867619Y-92422380D01*
X135058095Y-92422380D01*
X135153333Y-92374761D01*
X133867619Y-92374761D02*
X133962857Y-92422380D01*
X134153333Y-92422380D01*
X134248571Y-92374761D01*
X134296190Y-92279523D01*
X134296190Y-91898571D01*
X134248571Y-91803333D01*
X134153333Y-91755714D01*
X133962857Y-91755714D01*
X133867619Y-91803333D01*
X133820000Y-91898571D01*
X133820000Y-91993809D01*
X134296190Y-92089047D01*
X133391428Y-92422380D02*
X133391428Y-91755714D01*
X133391428Y-91946190D02*
X133343809Y-91850952D01*
X133296190Y-91803333D01*
X133200952Y-91755714D01*
X133105714Y-91755714D01*
G04 #@! TD*
M02*
