G04 #@! TF.GenerationSoftware,KiCad,Pcbnew,5.0.0-rc2-unknown-a288d61~65~ubuntu18.04.1*
G04 #@! TF.CreationDate,2018-06-29T09:55:17+02:00*
G04 #@! TF.ProjectId,STM32_Sensor_V4,53544D33325F53656E736F725F56342E,rev?*
G04 #@! TF.SameCoordinates,Original*
G04 #@! TF.FileFunction,Copper,L2,Bot,Signal*
G04 #@! TF.FilePolarity,Positive*
%FSLAX46Y46*%
G04 Gerber Fmt 4.6, Leading zero omitted, Abs format (unit mm)*
G04 Created by KiCad (PCBNEW 5.0.0-rc2-unknown-a288d61~65~ubuntu18.04.1) date Fri Jun 29 09:55:17 2018*
%MOMM*%
%LPD*%
G01*
G04 APERTURE LIST*
G04 #@! TA.AperFunction,ComponentPad*
%ADD10O,1.700000X1.700000*%
G04 #@! TD*
G04 #@! TA.AperFunction,ComponentPad*
%ADD11C,1.700000*%
G04 #@! TD*
G04 #@! TA.AperFunction,SMDPad,CuDef*
%ADD12R,2.999740X1.198880*%
G04 #@! TD*
G04 #@! TA.AperFunction,SMDPad,CuDef*
%ADD13R,2.500000X1.000000*%
G04 #@! TD*
G04 #@! TA.AperFunction,SMDPad,CuDef*
%ADD14R,0.500000X0.600000*%
G04 #@! TD*
G04 #@! TA.AperFunction,SMDPad,CuDef*
%ADD15R,1.000000X1.500000*%
G04 #@! TD*
G04 #@! TA.AperFunction,ViaPad*
%ADD16C,0.600000*%
G04 #@! TD*
G04 #@! TA.AperFunction,Conductor*
%ADD17C,0.127000*%
G04 #@! TD*
G04 APERTURE END LIST*
D10*
G04 #@! TO.P,J1,8*
G04 #@! TO.N,PB0*
X128160000Y-109470000D03*
G04 #@! TO.P,J1,7*
G04 #@! TO.N,MOSI*
X128160000Y-106930000D03*
G04 #@! TO.P,J1,6*
G04 #@! TO.N,MISO*
X128160000Y-104390000D03*
G04 #@! TO.P,J1,5*
G04 #@! TO.N,SCK*
X128160000Y-101850000D03*
G04 #@! TO.P,J1,4*
G04 #@! TO.N,NSS*
X128160000Y-99310000D03*
G04 #@! TO.P,J1,3*
G04 #@! TO.N,PA3*
X128160000Y-96770000D03*
G04 #@! TO.P,J1,2*
G04 #@! TO.N,PA2*
X128160000Y-94230000D03*
D11*
G04 #@! TO.P,J1,1*
G04 #@! TO.N,PA1*
X128160000Y-91690000D03*
G04 #@! TD*
D10*
G04 #@! TO.P,J4,8*
G04 #@! TO.N,TX*
X161180000Y-109470000D03*
G04 #@! TO.P,J4,7*
G04 #@! TO.N,RX*
X161180000Y-106930000D03*
G04 #@! TO.P,J4,6*
G04 #@! TO.N,SWDIO*
X161180000Y-104390000D03*
G04 #@! TO.P,J4,5*
G04 #@! TO.N,SWDCLK*
X161180000Y-101850000D03*
G04 #@! TO.P,J4,4*
G04 #@! TO.N,+3V3*
X161180000Y-99310000D03*
G04 #@! TO.P,J4,3*
G04 #@! TO.N,GND*
X161180000Y-96770000D03*
G04 #@! TO.P,J4,2*
G04 #@! TO.N,ANT*
X161180000Y-94230000D03*
D11*
G04 #@! TO.P,J4,1*
G04 #@! TO.N,GND*
X161180000Y-91690000D03*
G04 #@! TD*
G04 #@! TO.P,J2,1*
G04 #@! TO.N,PB1*
X130700000Y-109470000D03*
D10*
G04 #@! TO.P,J2,2*
G04 #@! TO.N,PB2*
X133240000Y-109470000D03*
G04 #@! TO.P,J2,3*
G04 #@! TO.N,PB10*
X135780000Y-109470000D03*
G04 #@! TO.P,J2,4*
G04 #@! TO.N,PB11*
X138320000Y-109470000D03*
G04 #@! TO.P,J2,5*
G04 #@! TO.N,PB12*
X140860000Y-109470000D03*
G04 #@! TO.P,J2,6*
G04 #@! TO.N,PB13*
X143400000Y-109470000D03*
G04 #@! TO.P,J2,7*
G04 #@! TO.N,PB14*
X145940000Y-109470000D03*
G04 #@! TO.P,J2,8*
G04 #@! TO.N,PB15*
X148480000Y-109470000D03*
G04 #@! TO.P,J2,9*
G04 #@! TO.N,PA8*
X151020000Y-109470000D03*
G04 #@! TO.P,J2,10*
G04 #@! TO.N,PA11*
X153560000Y-109470000D03*
G04 #@! TO.P,J2,11*
G04 #@! TO.N,PA12*
X156100000Y-109470000D03*
G04 #@! TO.P,J2,12*
G04 #@! TO.N,+3V3*
X158640000Y-109470000D03*
G04 #@! TD*
D11*
G04 #@! TO.P,J3,1*
G04 #@! TO.N,PA15*
X158640000Y-91690000D03*
D10*
G04 #@! TO.P,J3,2*
G04 #@! TO.N,PB3*
X156100000Y-91690000D03*
G04 #@! TO.P,J3,3*
G04 #@! TO.N,PB4*
X153560000Y-91690000D03*
G04 #@! TO.P,J3,4*
G04 #@! TO.N,PB5*
X151020000Y-91690000D03*
G04 #@! TO.P,J3,5*
G04 #@! TO.N,PB6*
X148480000Y-91690000D03*
G04 #@! TO.P,J3,6*
G04 #@! TO.N,PB7*
X145940000Y-91690000D03*
G04 #@! TO.P,J3,7*
G04 #@! TO.N,PB8*
X143400000Y-91690000D03*
G04 #@! TO.P,J3,8*
G04 #@! TO.N,PB9*
X140860000Y-91690000D03*
G04 #@! TO.P,J3,9*
G04 #@! TO.N,VBAT*
X138320000Y-91690000D03*
G04 #@! TO.P,J3,10*
G04 #@! TO.N,PC13*
X135780000Y-91690000D03*
G04 #@! TO.P,J3,11*
G04 #@! TO.N,RST*
X133240000Y-91690000D03*
G04 #@! TO.P,J3,12*
G04 #@! TO.N,PA0*
X130700000Y-91690000D03*
G04 #@! TD*
D12*
G04 #@! TO.P,U2,1*
G04 #@! TO.N,ANT*
X156798080Y-94600520D03*
G04 #@! TO.P,U2,2*
G04 #@! TO.N,+3V3*
X156798080Y-96602040D03*
G04 #@! TO.P,U2,3*
G04 #@! TO.N,GND*
X156798080Y-98601020D03*
G04 #@! TO.P,U2,4*
G04 #@! TO.N,Net-(U2-Pad4)*
X156798080Y-100600000D03*
G04 #@! TO.P,U2,5*
G04 #@! TO.N,MOSI*
X156798080Y-102598980D03*
G04 #@! TO.P,U2,6*
G04 #@! TO.N,SCK*
X156798080Y-104597960D03*
G04 #@! TO.P,U2,7*
G04 #@! TO.N,NSS*
X156798080Y-106599480D03*
G04 #@! TO.P,U2,8*
G04 #@! TO.N,MISO*
X141801920Y-106599480D03*
G04 #@! TO.P,U2,9*
G04 #@! TO.N,PA3*
X141801920Y-104597960D03*
G04 #@! TO.P,U2,10*
G04 #@! TO.N,Net-(U2-Pad10)*
X141801920Y-102598980D03*
G04 #@! TO.P,U2,11*
G04 #@! TO.N,Net-(U2-Pad11)*
X141801920Y-100600000D03*
G04 #@! TO.P,U2,12*
G04 #@! TO.N,Net-(U2-Pad12)*
X141801920Y-98601020D03*
G04 #@! TO.P,U2,13*
G04 #@! TO.N,PA2*
X141801920Y-96602040D03*
G04 #@! TO.P,U2,14*
G04 #@! TO.N,GND*
X141801920Y-94600520D03*
G04 #@! TD*
D13*
G04 #@! TO.P,U3,16*
G04 #@! TO.N,N/C*
X152590000Y-107540000D03*
G04 #@! TO.P,U3,15*
G04 #@! TO.N,NSS*
X152590000Y-105540000D03*
G04 #@! TO.P,U3,14*
G04 #@! TO.N,MOSI*
X152590000Y-103540000D03*
G04 #@! TO.P,U3,13*
G04 #@! TO.N,MISO*
X152590000Y-101540000D03*
G04 #@! TO.P,U3,12*
G04 #@! TO.N,SCK*
X152590000Y-99540000D03*
G04 #@! TO.P,U3,11*
G04 #@! TO.N,GND*
X152590000Y-97540000D03*
G04 #@! TO.P,U3,10*
G04 #@! TO.N,ANT*
X152590000Y-95540000D03*
G04 #@! TO.P,U3,9*
G04 #@! TO.N,GND*
X152590000Y-93540000D03*
G04 #@! TO.P,U3,8*
G04 #@! TO.N,+3V3*
X134390000Y-93540000D03*
G04 #@! TO.P,U3,7*
G04 #@! TO.N,Net-(U3-Pad7)*
X134390000Y-95540000D03*
G04 #@! TO.P,U3,6*
G04 #@! TO.N,Net-(U3-Pad6)*
X134390000Y-97540000D03*
G04 #@! TO.P,U3,5*
G04 #@! TO.N,Net-(U3-Pad5)*
X134390000Y-99540000D03*
G04 #@! TO.P,U3,4*
G04 #@! TO.N,Net-(U3-Pad4)*
X134390000Y-101540000D03*
G04 #@! TO.P,U3,3*
G04 #@! TO.N,Net-(U3-Pad3)*
X134390000Y-103540000D03*
G04 #@! TO.P,U3,2*
G04 #@! TO.N,PA3*
X134390000Y-105540000D03*
G04 #@! TO.P,U3,1*
G04 #@! TO.N,PA2*
X134390000Y-107540000D03*
G04 #@! TD*
D14*
G04 #@! TO.P,JP1,1*
G04 #@! TO.N,VBAT*
X137820000Y-93870000D03*
D15*
G04 #@! TO.P,JP1,2*
G04 #@! TO.N,Net-(C7-Pad2)*
X138470000Y-93870000D03*
G04 #@! TO.P,JP1,1*
G04 #@! TO.N,VBAT*
X137170000Y-93870000D03*
G04 #@! TD*
D16*
G04 #@! TO.N,GND*
X140180000Y-94870000D03*
X148250000Y-101250000D03*
X146850000Y-99000000D03*
X149350000Y-94800000D03*
X145630000Y-100620000D03*
X144850000Y-103690000D03*
X139928682Y-107406108D03*
X139080000Y-105870000D03*
X145210000Y-95350000D03*
X137414000Y-102362000D03*
G04 #@! TO.N,+3V3*
X158724966Y-102820000D03*
X151520000Y-102580000D03*
X138780000Y-97840000D03*
G04 #@! TO.N,SWDIO*
X150020236Y-103836944D03*
G04 #@! TO.N,RX*
X148892004Y-105013641D03*
G04 #@! TO.N,TX*
X148470698Y-105606133D03*
G04 #@! TO.N,PB0*
X138713748Y-104441312D03*
X137292853Y-104416540D03*
G04 #@! TO.N,PA1*
X139033156Y-98939183D03*
G04 #@! TO.N,PA0*
X139353648Y-98286626D03*
G04 #@! TO.N,MOSI*
X138330000Y-103810000D03*
X144292508Y-102989097D03*
G04 #@! TO.N,MISO*
X139536838Y-103424500D03*
X143728792Y-102390000D03*
G04 #@! TO.N,SCK*
X138989987Y-102933673D03*
X145001453Y-102310249D03*
X154860000Y-104370000D03*
X154190000Y-99560000D03*
G04 #@! TO.N,NSS*
X145800247Y-102390511D03*
X138750000Y-102200000D03*
G04 #@! TO.N,RST*
X139350000Y-97200000D03*
G04 #@! TO.N,PA2*
X139585606Y-99411777D03*
X131220000Y-105880000D03*
X131390000Y-98510000D03*
G04 #@! TO.N,PA3*
X139702589Y-101949394D03*
X131985488Y-100595488D03*
X132130000Y-105510000D03*
G04 #@! TO.N,Net-(C7-Pad2)*
X144800000Y-94250000D03*
G04 #@! TO.N,ANT*
X157860000Y-95501011D03*
G04 #@! TD*
D17*
G04 #@! TO.N,+3V3*
X161180000Y-99310000D02*
X158724966Y-101765034D01*
X158724966Y-101765034D02*
X158724966Y-102820000D01*
X158392040Y-96602040D02*
X156798080Y-96602040D01*
X161180000Y-99310000D02*
X161100000Y-99310000D01*
X161100000Y-99310000D02*
X158392040Y-96602040D01*
X138780000Y-97840000D02*
X134480000Y-93540000D01*
X134480000Y-93540000D02*
X134390000Y-93540000D01*
X154235534Y-100574466D02*
X154235534Y-102028932D01*
X153684466Y-102580000D02*
X151520000Y-102580000D01*
X161180000Y-99310000D02*
X160610000Y-99310000D01*
X155240000Y-99570000D02*
X154235534Y-100574466D01*
X160610000Y-99310000D02*
X160350000Y-99570000D01*
X160350000Y-99570000D02*
X155240000Y-99570000D01*
X154235534Y-102028932D02*
X153684466Y-102580000D01*
G04 #@! TO.N,SWDIO*
X150843292Y-104660000D02*
X150020236Y-103836944D01*
X155070000Y-105480000D02*
X154250000Y-104660000D01*
X160090000Y-105480000D02*
X155070000Y-105480000D01*
X154250000Y-104660000D02*
X150843292Y-104660000D01*
X161180000Y-104390000D02*
X160090000Y-105480000D01*
G04 #@! TO.N,RX*
X149010000Y-105131637D02*
X148892004Y-105013641D01*
X161180000Y-106930000D02*
X160280000Y-107830000D01*
X154900000Y-107830000D02*
X153730000Y-106660000D01*
X160280000Y-107830000D02*
X154900000Y-107830000D01*
X149580000Y-106660000D02*
X149010000Y-106090000D01*
X153730000Y-106660000D02*
X149580000Y-106660000D01*
X149010000Y-106090000D02*
X149010000Y-105131637D01*
G04 #@! TO.N,TX*
X148470698Y-106030397D02*
X148470698Y-105606133D01*
X150710301Y-108270000D02*
X148470698Y-106030397D01*
X161180000Y-109470000D02*
X159980000Y-108270000D01*
X159980000Y-108270000D02*
X150710301Y-108270000D01*
G04 #@! TO.N,PB0*
X137317625Y-104441312D02*
X137292853Y-104416540D01*
X138713748Y-104441312D02*
X137317625Y-104441312D01*
G04 #@! TO.N,PA1*
X128160000Y-91690000D02*
X130445989Y-93975989D01*
X137882085Y-98939183D02*
X139033156Y-98939183D01*
X133084787Y-96754011D02*
X135696913Y-96754011D01*
X130445989Y-94115214D02*
X133084787Y-96754011D01*
X135696913Y-96754011D02*
X137882085Y-98939183D01*
X130445989Y-93975989D02*
X130445989Y-94115214D01*
G04 #@! TO.N,PA0*
X138544559Y-98330501D02*
X139309773Y-98330501D01*
X133190000Y-96500000D02*
X136714058Y-96500000D01*
X136714058Y-96500000D02*
X138544559Y-98330501D01*
X130700000Y-91690000D02*
X130700000Y-94010000D01*
X130700000Y-94010000D02*
X133190000Y-96500000D01*
X139309773Y-98330501D02*
X139353648Y-98286626D01*
G04 #@! TO.N,MOSI*
X156573500Y-103550000D02*
X153600000Y-103550000D01*
X156798080Y-103325420D02*
X156573500Y-103550000D01*
X156798080Y-102598980D02*
X156798080Y-103325420D01*
X155897650Y-102598980D02*
X155171210Y-103325420D01*
X144292508Y-102325508D02*
X144292508Y-102989097D01*
X155171210Y-103325420D02*
X151320129Y-103325420D01*
X145068016Y-101550000D02*
X144292508Y-102325508D01*
X151320129Y-103325420D02*
X150628776Y-102634067D01*
X148164843Y-102634067D02*
X147080776Y-101550000D01*
X156798080Y-102598980D02*
X155897650Y-102598980D01*
X147080776Y-101550000D02*
X145068016Y-101550000D01*
X150628776Y-102634067D02*
X148164843Y-102634067D01*
X138330000Y-103810000D02*
X136572127Y-103810000D01*
X129009999Y-106080001D02*
X128160000Y-106930000D01*
X130441989Y-104648011D02*
X129009999Y-106080001D01*
X135734116Y-104648011D02*
X130441989Y-104648011D01*
X136572127Y-103810000D02*
X135734116Y-104648011D01*
G04 #@! TO.N,MISO*
X139536838Y-105234828D02*
X139536838Y-103424500D01*
X140901490Y-106599480D02*
X139536838Y-105234828D01*
X141801920Y-106599480D02*
X140901490Y-106599480D01*
X151213000Y-101540000D02*
X150573000Y-102180000D01*
X152590000Y-101540000D02*
X151213000Y-101540000D01*
X150573000Y-102180000D02*
X148070000Y-102180000D01*
X148070000Y-102180000D02*
X147030000Y-101140000D01*
X147030000Y-101140000D02*
X144978792Y-101140000D01*
X144978792Y-101140000D02*
X143728792Y-102390000D01*
X135624902Y-104390000D02*
X128160000Y-104390000D01*
X135628902Y-104394000D02*
X135624902Y-104390000D01*
X138565441Y-103319499D02*
X136703403Y-103319499D01*
X139536838Y-103424500D02*
X138670442Y-103424500D01*
X138670442Y-103424500D02*
X138565441Y-103319499D01*
X136703403Y-103319499D02*
X135628902Y-104394000D01*
G04 #@! TO.N,SCK*
X149805487Y-102900000D02*
X148071551Y-102900000D01*
X156798080Y-104597960D02*
X155171210Y-104597960D01*
X145427488Y-101884214D02*
X145001453Y-102310249D01*
X148071551Y-102900000D02*
X147055765Y-101884214D01*
X151275487Y-104370000D02*
X149805487Y-102900000D01*
X147055765Y-101884214D02*
X145427488Y-101884214D01*
X155171210Y-104597960D02*
X154943250Y-104370000D01*
X154943250Y-104370000D02*
X154860000Y-104370000D01*
X154860000Y-104370000D02*
X151275487Y-104370000D01*
X152610000Y-99560000D02*
X152590000Y-99540000D01*
X154190000Y-99560000D02*
X152610000Y-99560000D01*
X136422897Y-102933673D02*
X138989987Y-102933673D01*
X130128081Y-102616000D02*
X136105224Y-102616000D01*
X128160000Y-101850000D02*
X129362081Y-101850000D01*
X136105224Y-102616000D02*
X136422897Y-102933673D01*
X129362081Y-101850000D02*
X130128081Y-102616000D01*
G04 #@! TO.N,NSS*
X156798080Y-106599480D02*
X154649480Y-106599480D01*
X154649480Y-106599480D02*
X153600000Y-105550000D01*
X147459736Y-104050000D02*
X149348074Y-104050000D01*
X150838074Y-105540000D02*
X152590000Y-105540000D01*
X145800247Y-102390511D02*
X147459736Y-104050000D01*
X149348074Y-104050000D02*
X150838074Y-105540000D01*
X128160000Y-99310000D02*
X129935990Y-101085990D01*
X137399499Y-100849499D02*
X138750000Y-102200000D01*
X132259954Y-101085990D02*
X132496445Y-100849499D01*
X132496445Y-100849499D02*
X137399499Y-100849499D01*
X129935990Y-101085990D02*
X132259954Y-101085990D01*
G04 #@! TO.N,RST*
X134089999Y-92539999D02*
X133240000Y-91690000D01*
X134280501Y-92730501D02*
X134089999Y-92539999D01*
X135673403Y-92730501D02*
X134280501Y-92730501D01*
X139350000Y-97200000D02*
X139350000Y-96407098D01*
X135982902Y-94275804D02*
X135982902Y-93040000D01*
X138022902Y-95080000D02*
X136787098Y-95080000D01*
X136787098Y-95080000D02*
X135982902Y-94275804D01*
X139350000Y-96407098D02*
X138022902Y-95080000D01*
X135982902Y-93040000D02*
X135673403Y-92730501D01*
G04 #@! TO.N,PA2*
X135792401Y-98230501D02*
X137273676Y-99711776D01*
X139285607Y-99711776D02*
X139585606Y-99411777D01*
X140901490Y-96602040D02*
X139890921Y-97612609D01*
X139890921Y-99106462D02*
X139585606Y-99411777D01*
X137273676Y-99711776D02*
X139285607Y-99711776D01*
X139890921Y-97612609D02*
X139890921Y-99106462D01*
X128160000Y-94230000D02*
X132160501Y-98230501D01*
X141801920Y-96602040D02*
X140901490Y-96602040D01*
X134390000Y-107540000D02*
X132880000Y-107540000D01*
X132880000Y-107540000D02*
X131220000Y-105880000D01*
X132140001Y-98210001D02*
X132160501Y-98230501D01*
X131814264Y-98510000D02*
X131824264Y-98500000D01*
X131390000Y-98510000D02*
X131814264Y-98510000D01*
X133130501Y-98500000D02*
X133400000Y-98230501D01*
X131824264Y-98500000D02*
X133130501Y-98500000D01*
X132160501Y-98230501D02*
X133400000Y-98230501D01*
X133400000Y-98230501D02*
X135792401Y-98230501D01*
G04 #@! TO.N,PA3*
X140027340Y-102274145D02*
X139702589Y-101949394D01*
X141801920Y-104597960D02*
X140901490Y-104597960D01*
X140901490Y-104597960D02*
X140027340Y-103723810D01*
X140027340Y-103723810D02*
X140027340Y-102274145D01*
X128160000Y-96770000D02*
X131985488Y-100595488D01*
X138348683Y-100595488D02*
X139702589Y-101949394D01*
X138348683Y-100595488D02*
X131985488Y-100595488D01*
X134360000Y-105510000D02*
X134390000Y-105540000D01*
X132130000Y-105510000D02*
X134360000Y-105510000D01*
G04 #@! TO.N,VBAT*
X137470001Y-93569999D02*
X137171063Y-93868937D01*
X137470001Y-92539999D02*
X137470001Y-93569999D01*
X138320000Y-91690000D02*
X137470001Y-92539999D01*
X137170000Y-93870000D02*
X137779499Y-93870000D01*
G04 #@! TO.N,Net-(C7-Pad2)*
X143543000Y-92993000D02*
X144800000Y-94250000D01*
X139974000Y-92993000D02*
X143543000Y-92993000D01*
X139097000Y-93870000D02*
X139974000Y-92993000D01*
X138470000Y-93870000D02*
X139097000Y-93870000D01*
G04 #@! TO.N,ANT*
X157168600Y-94230000D02*
X156798080Y-94600520D01*
X161180000Y-94230000D02*
X157168600Y-94230000D01*
X157300520Y-94600520D02*
X156798080Y-94600520D01*
X156972131Y-95501011D02*
X157860000Y-95501011D01*
X156798080Y-95326960D02*
X156972131Y-95501011D01*
X156798080Y-95326960D02*
X156798080Y-94600520D01*
X152590000Y-95540000D02*
X154160000Y-95540000D01*
X155099480Y-94600520D02*
X156798080Y-94600520D01*
X154160000Y-95540000D02*
X155099480Y-94600520D01*
G04 #@! TD*
G04 #@! TO.N,GND*
G36*
X160400761Y-90641353D02*
X161180000Y-91420592D01*
X161959239Y-90641353D01*
X161947291Y-90611000D01*
X162259000Y-90611000D01*
X162259000Y-90922709D01*
X162228647Y-90910761D01*
X161449408Y-91690000D01*
X162228647Y-92469239D01*
X162259000Y-92457291D01*
X162259000Y-95887054D01*
X162078468Y-95668428D01*
X161588523Y-95408451D01*
X161370500Y-95504182D01*
X161370500Y-96579500D01*
X161390500Y-96579500D01*
X161390500Y-96960500D01*
X161370500Y-96960500D01*
X161370500Y-98035818D01*
X161588523Y-98131549D01*
X162078468Y-97871572D01*
X162259000Y-97652946D01*
X162259001Y-110549000D01*
X127081000Y-110549000D01*
X127081000Y-109470000D01*
X127099116Y-109470000D01*
X127179871Y-109875983D01*
X127409842Y-110220158D01*
X127754017Y-110450129D01*
X128057523Y-110510500D01*
X128262477Y-110510500D01*
X128565983Y-110450129D01*
X128910158Y-110220158D01*
X129140129Y-109875983D01*
X129220884Y-109470000D01*
X129179716Y-109263032D01*
X129659500Y-109263032D01*
X129659500Y-109676968D01*
X129817906Y-110059396D01*
X130110604Y-110352094D01*
X130493032Y-110510500D01*
X130906968Y-110510500D01*
X131289396Y-110352094D01*
X131582094Y-110059396D01*
X131740500Y-109676968D01*
X131740500Y-109470000D01*
X132179116Y-109470000D01*
X132259871Y-109875983D01*
X132489842Y-110220158D01*
X132834017Y-110450129D01*
X133137523Y-110510500D01*
X133342477Y-110510500D01*
X133645983Y-110450129D01*
X133990158Y-110220158D01*
X134220129Y-109875983D01*
X134300884Y-109470000D01*
X134719116Y-109470000D01*
X134799871Y-109875983D01*
X135029842Y-110220158D01*
X135374017Y-110450129D01*
X135677523Y-110510500D01*
X135882477Y-110510500D01*
X136185983Y-110450129D01*
X136530158Y-110220158D01*
X136760129Y-109875983D01*
X136840884Y-109470000D01*
X137259116Y-109470000D01*
X137339871Y-109875983D01*
X137569842Y-110220158D01*
X137914017Y-110450129D01*
X138217523Y-110510500D01*
X138422477Y-110510500D01*
X138725983Y-110450129D01*
X139070158Y-110220158D01*
X139300129Y-109875983D01*
X139380884Y-109470000D01*
X139799116Y-109470000D01*
X139879871Y-109875983D01*
X140109842Y-110220158D01*
X140454017Y-110450129D01*
X140757523Y-110510500D01*
X140962477Y-110510500D01*
X141265983Y-110450129D01*
X141610158Y-110220158D01*
X141840129Y-109875983D01*
X141920884Y-109470000D01*
X142339116Y-109470000D01*
X142419871Y-109875983D01*
X142649842Y-110220158D01*
X142994017Y-110450129D01*
X143297523Y-110510500D01*
X143502477Y-110510500D01*
X143805983Y-110450129D01*
X144150158Y-110220158D01*
X144380129Y-109875983D01*
X144460884Y-109470000D01*
X144879116Y-109470000D01*
X144959871Y-109875983D01*
X145189842Y-110220158D01*
X145534017Y-110450129D01*
X145837523Y-110510500D01*
X146042477Y-110510500D01*
X146345983Y-110450129D01*
X146690158Y-110220158D01*
X146920129Y-109875983D01*
X147000884Y-109470000D01*
X147419116Y-109470000D01*
X147499871Y-109875983D01*
X147729842Y-110220158D01*
X148074017Y-110450129D01*
X148377523Y-110510500D01*
X148582477Y-110510500D01*
X148885983Y-110450129D01*
X149230158Y-110220158D01*
X149460129Y-109875983D01*
X149540884Y-109470000D01*
X149460129Y-109064017D01*
X149230158Y-108719842D01*
X148885983Y-108489871D01*
X148582477Y-108429500D01*
X148377523Y-108429500D01*
X148074017Y-108489871D01*
X147729842Y-108719842D01*
X147499871Y-109064017D01*
X147419116Y-109470000D01*
X147000884Y-109470000D01*
X146920129Y-109064017D01*
X146690158Y-108719842D01*
X146345983Y-108489871D01*
X146042477Y-108429500D01*
X145837523Y-108429500D01*
X145534017Y-108489871D01*
X145189842Y-108719842D01*
X144959871Y-109064017D01*
X144879116Y-109470000D01*
X144460884Y-109470000D01*
X144380129Y-109064017D01*
X144150158Y-108719842D01*
X143805983Y-108489871D01*
X143502477Y-108429500D01*
X143297523Y-108429500D01*
X142994017Y-108489871D01*
X142649842Y-108719842D01*
X142419871Y-109064017D01*
X142339116Y-109470000D01*
X141920884Y-109470000D01*
X141840129Y-109064017D01*
X141610158Y-108719842D01*
X141265983Y-108489871D01*
X140962477Y-108429500D01*
X140757523Y-108429500D01*
X140454017Y-108489871D01*
X140109842Y-108719842D01*
X139879871Y-109064017D01*
X139799116Y-109470000D01*
X139380884Y-109470000D01*
X139300129Y-109064017D01*
X139070158Y-108719842D01*
X138725983Y-108489871D01*
X138422477Y-108429500D01*
X138217523Y-108429500D01*
X137914017Y-108489871D01*
X137569842Y-108719842D01*
X137339871Y-109064017D01*
X137259116Y-109470000D01*
X136840884Y-109470000D01*
X136760129Y-109064017D01*
X136530158Y-108719842D01*
X136185983Y-108489871D01*
X135882477Y-108429500D01*
X135677523Y-108429500D01*
X135374017Y-108489871D01*
X135029842Y-108719842D01*
X134799871Y-109064017D01*
X134719116Y-109470000D01*
X134300884Y-109470000D01*
X134220129Y-109064017D01*
X133990158Y-108719842D01*
X133645983Y-108489871D01*
X133342477Y-108429500D01*
X133137523Y-108429500D01*
X132834017Y-108489871D01*
X132489842Y-108719842D01*
X132259871Y-109064017D01*
X132179116Y-109470000D01*
X131740500Y-109470000D01*
X131740500Y-109263032D01*
X131582094Y-108880604D01*
X131289396Y-108587906D01*
X130906968Y-108429500D01*
X130493032Y-108429500D01*
X130110604Y-108587906D01*
X129817906Y-108880604D01*
X129659500Y-109263032D01*
X129179716Y-109263032D01*
X129140129Y-109064017D01*
X128910158Y-108719842D01*
X128565983Y-108489871D01*
X128262477Y-108429500D01*
X128057523Y-108429500D01*
X127754017Y-108489871D01*
X127409842Y-108719842D01*
X127179871Y-109064017D01*
X127099116Y-109470000D01*
X127081000Y-109470000D01*
X127081000Y-96770000D01*
X127099116Y-96770000D01*
X127179871Y-97175983D01*
X127409842Y-97520158D01*
X127754017Y-97750129D01*
X128057523Y-97810500D01*
X128262477Y-97810500D01*
X128565983Y-97750129D01*
X128694828Y-97664037D01*
X131504866Y-100474076D01*
X131494988Y-100497922D01*
X131494988Y-100693054D01*
X131552538Y-100831990D01*
X130041200Y-100831990D01*
X129054037Y-99844828D01*
X129140129Y-99715983D01*
X129220884Y-99310000D01*
X129140129Y-98904017D01*
X128910158Y-98559842D01*
X128565983Y-98329871D01*
X128262477Y-98269500D01*
X128057523Y-98269500D01*
X127754017Y-98329871D01*
X127409842Y-98559842D01*
X127179871Y-98904017D01*
X127099116Y-99310000D01*
X127179871Y-99715983D01*
X127409842Y-100060158D01*
X127754017Y-100290129D01*
X128057523Y-100350500D01*
X128262477Y-100350500D01*
X128565983Y-100290129D01*
X128694828Y-100204037D01*
X129738694Y-101247904D01*
X129752866Y-101269114D01*
X129836884Y-101325253D01*
X129910973Y-101339990D01*
X129910974Y-101339990D01*
X129935989Y-101344966D01*
X129961004Y-101339990D01*
X132234938Y-101339990D01*
X132259954Y-101344966D01*
X132284970Y-101339990D01*
X132284971Y-101339990D01*
X132359060Y-101325253D01*
X132443078Y-101269114D01*
X132457252Y-101247901D01*
X132601655Y-101103499D01*
X132945768Y-101103499D01*
X132945768Y-102040000D01*
X132960553Y-102114329D01*
X133002657Y-102177343D01*
X133065671Y-102219447D01*
X133140000Y-102234232D01*
X135640000Y-102234232D01*
X135714329Y-102219447D01*
X135777343Y-102177343D01*
X135819447Y-102114329D01*
X135834232Y-102040000D01*
X135834232Y-101103499D01*
X137294290Y-101103499D01*
X138269378Y-102078587D01*
X138259500Y-102102434D01*
X138259500Y-102297566D01*
X138334175Y-102477846D01*
X138472154Y-102615825D01*
X138573366Y-102657749D01*
X138564285Y-102679673D01*
X136528107Y-102679673D01*
X136302522Y-102454089D01*
X136288348Y-102432876D01*
X136204330Y-102376737D01*
X136130241Y-102362000D01*
X136130240Y-102362000D01*
X136105224Y-102357024D01*
X136080208Y-102362000D01*
X130233292Y-102362000D01*
X129559379Y-101688089D01*
X129545205Y-101666876D01*
X129461187Y-101610737D01*
X129387098Y-101596000D01*
X129387097Y-101596000D01*
X129362081Y-101591024D01*
X129337065Y-101596000D01*
X129170360Y-101596000D01*
X129140129Y-101444017D01*
X128910158Y-101099842D01*
X128565983Y-100869871D01*
X128262477Y-100809500D01*
X128057523Y-100809500D01*
X127754017Y-100869871D01*
X127409842Y-101099842D01*
X127179871Y-101444017D01*
X127099116Y-101850000D01*
X127179871Y-102255983D01*
X127409842Y-102600158D01*
X127754017Y-102830129D01*
X128057523Y-102890500D01*
X128262477Y-102890500D01*
X128565983Y-102830129D01*
X128910158Y-102600158D01*
X129140129Y-102255983D01*
X129170360Y-102104000D01*
X129256872Y-102104000D01*
X129930787Y-102777917D01*
X129944957Y-102799124D01*
X129966164Y-102813294D01*
X129966165Y-102813295D01*
X130028975Y-102855263D01*
X130128081Y-102874976D01*
X130153098Y-102870000D01*
X133051532Y-102870000D01*
X133002657Y-102902657D01*
X132960553Y-102965671D01*
X132945768Y-103040000D01*
X132945768Y-104040000D01*
X132960553Y-104114329D01*
X132975033Y-104136000D01*
X129170360Y-104136000D01*
X129140129Y-103984017D01*
X128910158Y-103639842D01*
X128565983Y-103409871D01*
X128262477Y-103349500D01*
X128057523Y-103349500D01*
X127754017Y-103409871D01*
X127409842Y-103639842D01*
X127179871Y-103984017D01*
X127099116Y-104390000D01*
X127179871Y-104795983D01*
X127409842Y-105140158D01*
X127754017Y-105370129D01*
X128057523Y-105430500D01*
X128262477Y-105430500D01*
X128565983Y-105370129D01*
X128910158Y-105140158D01*
X129140129Y-104795983D01*
X129170360Y-104644000D01*
X130086789Y-104644000D01*
X128848086Y-105882705D01*
X128848083Y-105882707D01*
X128694828Y-106035962D01*
X128565983Y-105949871D01*
X128262477Y-105889500D01*
X128057523Y-105889500D01*
X127754017Y-105949871D01*
X127409842Y-106179842D01*
X127179871Y-106524017D01*
X127099116Y-106930000D01*
X127179871Y-107335983D01*
X127409842Y-107680158D01*
X127754017Y-107910129D01*
X128057523Y-107970500D01*
X128262477Y-107970500D01*
X128565983Y-107910129D01*
X128910158Y-107680158D01*
X129140129Y-107335983D01*
X129220884Y-106930000D01*
X129140129Y-106524017D01*
X129054038Y-106395172D01*
X129207293Y-106241917D01*
X129207295Y-106241914D01*
X129666775Y-105782434D01*
X130729500Y-105782434D01*
X130729500Y-105977566D01*
X130804175Y-106157846D01*
X130942154Y-106295825D01*
X131122434Y-106370500D01*
X131317566Y-106370500D01*
X131341413Y-106360622D01*
X132682706Y-107701917D01*
X132696876Y-107723124D01*
X132718083Y-107737294D01*
X132718084Y-107737295D01*
X132780894Y-107779263D01*
X132880000Y-107798976D01*
X132905017Y-107794000D01*
X132945768Y-107794000D01*
X132945768Y-108040000D01*
X132960553Y-108114329D01*
X133002657Y-108177343D01*
X133065671Y-108219447D01*
X133140000Y-108234232D01*
X135640000Y-108234232D01*
X135714329Y-108219447D01*
X135777343Y-108177343D01*
X135819447Y-108114329D01*
X135834232Y-108040000D01*
X135834232Y-107040000D01*
X135819447Y-106965671D01*
X135777343Y-106902657D01*
X135714329Y-106860553D01*
X135640000Y-106845768D01*
X133140000Y-106845768D01*
X133065671Y-106860553D01*
X133002657Y-106902657D01*
X132960553Y-106965671D01*
X132945768Y-107040000D01*
X132945768Y-107246557D01*
X131700622Y-106001413D01*
X131710500Y-105977566D01*
X131710500Y-105782434D01*
X131635825Y-105602154D01*
X131497846Y-105464175D01*
X131317566Y-105389500D01*
X131122434Y-105389500D01*
X130942154Y-105464175D01*
X130804175Y-105602154D01*
X130729500Y-105782434D01*
X129666775Y-105782434D01*
X130547200Y-104902011D01*
X133003624Y-104902011D01*
X133002657Y-104902657D01*
X132960553Y-104965671D01*
X132945768Y-105040000D01*
X132945768Y-105256000D01*
X132555702Y-105256000D01*
X132545825Y-105232154D01*
X132407846Y-105094175D01*
X132227566Y-105019500D01*
X132032434Y-105019500D01*
X131852154Y-105094175D01*
X131714175Y-105232154D01*
X131639500Y-105412434D01*
X131639500Y-105607566D01*
X131714175Y-105787846D01*
X131852154Y-105925825D01*
X132032434Y-106000500D01*
X132227566Y-106000500D01*
X132407846Y-105925825D01*
X132545825Y-105787846D01*
X132555702Y-105764000D01*
X132945768Y-105764000D01*
X132945768Y-106040000D01*
X132960553Y-106114329D01*
X133002657Y-106177343D01*
X133065671Y-106219447D01*
X133140000Y-106234232D01*
X135640000Y-106234232D01*
X135714329Y-106219447D01*
X135777343Y-106177343D01*
X135819447Y-106114329D01*
X135834232Y-106040000D01*
X135834232Y-105040000D01*
X135819447Y-104965671D01*
X135777343Y-104902657D01*
X135772421Y-104899368D01*
X135833222Y-104887274D01*
X135917240Y-104831135D01*
X135931414Y-104809922D01*
X136677338Y-104064000D01*
X136951722Y-104064000D01*
X136877028Y-104138694D01*
X136802353Y-104318974D01*
X136802353Y-104514106D01*
X136877028Y-104694386D01*
X137015007Y-104832365D01*
X137195287Y-104907040D01*
X137390419Y-104907040D01*
X137570699Y-104832365D01*
X137707752Y-104695312D01*
X138288046Y-104695312D01*
X138297923Y-104719158D01*
X138435902Y-104857137D01*
X138616182Y-104931812D01*
X138811314Y-104931812D01*
X138991594Y-104857137D01*
X139129573Y-104719158D01*
X139204248Y-104538878D01*
X139204248Y-104343746D01*
X139129573Y-104163466D01*
X138991594Y-104025487D01*
X138811314Y-103950812D01*
X138802587Y-103950812D01*
X138820500Y-103907566D01*
X138820500Y-103712434D01*
X138806444Y-103678500D01*
X139111136Y-103678500D01*
X139121013Y-103702346D01*
X139258992Y-103840325D01*
X139282839Y-103850203D01*
X139282838Y-105209812D01*
X139277862Y-105234828D01*
X139294422Y-105318084D01*
X139297575Y-105333933D01*
X139353714Y-105417952D01*
X139374927Y-105432126D01*
X140107818Y-106165018D01*
X140107818Y-107198920D01*
X140122603Y-107273249D01*
X140164707Y-107336263D01*
X140227721Y-107378367D01*
X140302050Y-107393152D01*
X143301790Y-107393152D01*
X143376119Y-107378367D01*
X143439133Y-107336263D01*
X143481237Y-107273249D01*
X143496022Y-107198920D01*
X143496022Y-106000040D01*
X143481237Y-105925711D01*
X143439133Y-105862697D01*
X143376119Y-105820593D01*
X143301790Y-105805808D01*
X140467028Y-105805808D01*
X140169787Y-105508567D01*
X147980198Y-105508567D01*
X147980198Y-105703699D01*
X148054873Y-105883979D01*
X148192852Y-106021958D01*
X148211836Y-106029822D01*
X148211722Y-106030397D01*
X148216698Y-106055413D01*
X148231435Y-106129502D01*
X148287574Y-106213521D01*
X148308787Y-106227695D01*
X150513005Y-108431914D01*
X150527177Y-108453124D01*
X150582173Y-108489871D01*
X150598095Y-108500510D01*
X150269842Y-108719842D01*
X150039871Y-109064017D01*
X149959116Y-109470000D01*
X150039871Y-109875983D01*
X150269842Y-110220158D01*
X150614017Y-110450129D01*
X150917523Y-110510500D01*
X151122477Y-110510500D01*
X151425983Y-110450129D01*
X151770158Y-110220158D01*
X152000129Y-109875983D01*
X152080884Y-109470000D01*
X152000129Y-109064017D01*
X151770158Y-108719842D01*
X151477061Y-108524000D01*
X153102939Y-108524000D01*
X152809842Y-108719842D01*
X152579871Y-109064017D01*
X152499116Y-109470000D01*
X152579871Y-109875983D01*
X152809842Y-110220158D01*
X153154017Y-110450129D01*
X153457523Y-110510500D01*
X153662477Y-110510500D01*
X153965983Y-110450129D01*
X154310158Y-110220158D01*
X154540129Y-109875983D01*
X154620884Y-109470000D01*
X154540129Y-109064017D01*
X154310158Y-108719842D01*
X154017061Y-108524000D01*
X155642939Y-108524000D01*
X155349842Y-108719842D01*
X155119871Y-109064017D01*
X155039116Y-109470000D01*
X155119871Y-109875983D01*
X155349842Y-110220158D01*
X155694017Y-110450129D01*
X155997523Y-110510500D01*
X156202477Y-110510500D01*
X156505983Y-110450129D01*
X156850158Y-110220158D01*
X157080129Y-109875983D01*
X157160884Y-109470000D01*
X157080129Y-109064017D01*
X156850158Y-108719842D01*
X156557061Y-108524000D01*
X158182939Y-108524000D01*
X157889842Y-108719842D01*
X157659871Y-109064017D01*
X157579116Y-109470000D01*
X157659871Y-109875983D01*
X157889842Y-110220158D01*
X158234017Y-110450129D01*
X158537523Y-110510500D01*
X158742477Y-110510500D01*
X159045983Y-110450129D01*
X159390158Y-110220158D01*
X159620129Y-109875983D01*
X159700884Y-109470000D01*
X159620129Y-109064017D01*
X159390158Y-108719842D01*
X159097061Y-108524000D01*
X159874791Y-108524000D01*
X160285963Y-108935172D01*
X160199871Y-109064017D01*
X160119116Y-109470000D01*
X160199871Y-109875983D01*
X160429842Y-110220158D01*
X160774017Y-110450129D01*
X161077523Y-110510500D01*
X161282477Y-110510500D01*
X161585983Y-110450129D01*
X161930158Y-110220158D01*
X162160129Y-109875983D01*
X162240884Y-109470000D01*
X162160129Y-109064017D01*
X161930158Y-108719842D01*
X161585983Y-108489871D01*
X161282477Y-108429500D01*
X161077523Y-108429500D01*
X160774017Y-108489871D01*
X160645172Y-108575963D01*
X160177298Y-108108089D01*
X160163124Y-108086876D01*
X160158820Y-108084000D01*
X160254984Y-108084000D01*
X160280000Y-108088976D01*
X160305016Y-108084000D01*
X160305017Y-108084000D01*
X160379106Y-108069263D01*
X160463124Y-108013124D01*
X160477298Y-107991911D01*
X160645172Y-107824037D01*
X160774017Y-107910129D01*
X161077523Y-107970500D01*
X161282477Y-107970500D01*
X161585983Y-107910129D01*
X161930158Y-107680158D01*
X162160129Y-107335983D01*
X162240884Y-106930000D01*
X162160129Y-106524017D01*
X161930158Y-106179842D01*
X161585983Y-105949871D01*
X161282477Y-105889500D01*
X161077523Y-105889500D01*
X160774017Y-105949871D01*
X160429842Y-106179842D01*
X160199871Y-106524017D01*
X160119116Y-106930000D01*
X160199871Y-107335983D01*
X160285963Y-107464828D01*
X160174791Y-107576000D01*
X155005210Y-107576000D01*
X153927298Y-106498089D01*
X153913124Y-106476876D01*
X153829106Y-106420737D01*
X153755017Y-106406000D01*
X153755016Y-106406000D01*
X153730000Y-106401024D01*
X153704984Y-106406000D01*
X149685211Y-106406000D01*
X149264000Y-105984791D01*
X149264000Y-105335316D01*
X149307829Y-105291487D01*
X149382504Y-105111207D01*
X149382504Y-104916075D01*
X149307829Y-104735795D01*
X149169850Y-104597816D01*
X148989570Y-104523141D01*
X148794438Y-104523141D01*
X148614158Y-104597816D01*
X148476179Y-104735795D01*
X148401504Y-104916075D01*
X148401504Y-105111207D01*
X148403337Y-105115633D01*
X148373132Y-105115633D01*
X148192852Y-105190308D01*
X148054873Y-105328287D01*
X147980198Y-105508567D01*
X140169787Y-105508567D01*
X139790838Y-105129619D01*
X139790838Y-103850202D01*
X139802956Y-103845183D01*
X139844216Y-103906934D01*
X139865429Y-103921108D01*
X140107818Y-104163497D01*
X140107818Y-105197400D01*
X140122603Y-105271729D01*
X140164707Y-105334743D01*
X140227721Y-105376847D01*
X140302050Y-105391632D01*
X143301790Y-105391632D01*
X143376119Y-105376847D01*
X143439133Y-105334743D01*
X143481237Y-105271729D01*
X143496022Y-105197400D01*
X143496022Y-103998520D01*
X143481237Y-103924191D01*
X143439133Y-103861177D01*
X143376119Y-103819073D01*
X143301790Y-103804288D01*
X140467027Y-103804288D01*
X140281340Y-103618601D01*
X140281340Y-103388533D01*
X140302050Y-103392652D01*
X143301790Y-103392652D01*
X143376119Y-103377867D01*
X143439133Y-103335763D01*
X143481237Y-103272749D01*
X143496022Y-103198420D01*
X143496022Y-102824496D01*
X143631226Y-102880500D01*
X143806577Y-102880500D01*
X143802008Y-102891531D01*
X143802008Y-103086663D01*
X143876683Y-103266943D01*
X144014662Y-103404922D01*
X144194942Y-103479597D01*
X144390074Y-103479597D01*
X144570354Y-103404922D01*
X144708333Y-103266943D01*
X144783008Y-103086663D01*
X144783008Y-102891531D01*
X144708333Y-102711251D01*
X144570354Y-102573272D01*
X144546508Y-102563395D01*
X144546508Y-102493652D01*
X144585628Y-102588095D01*
X144723607Y-102726074D01*
X144903887Y-102800749D01*
X145099019Y-102800749D01*
X145279299Y-102726074D01*
X145370537Y-102634836D01*
X145384422Y-102668357D01*
X145522401Y-102806336D01*
X145702681Y-102881011D01*
X145897813Y-102881011D01*
X145921660Y-102871133D01*
X147262440Y-104211914D01*
X147276612Y-104233124D01*
X147360630Y-104289263D01*
X147388945Y-104294895D01*
X147459736Y-104308976D01*
X147484753Y-104304000D01*
X149242865Y-104304000D01*
X150640778Y-105701914D01*
X150654950Y-105723124D01*
X150738968Y-105779263D01*
X150813057Y-105794000D01*
X150813058Y-105794000D01*
X150838073Y-105798976D01*
X150863088Y-105794000D01*
X151145768Y-105794000D01*
X151145768Y-106040000D01*
X151160553Y-106114329D01*
X151202657Y-106177343D01*
X151265671Y-106219447D01*
X151340000Y-106234232D01*
X153840000Y-106234232D01*
X153910916Y-106220126D01*
X154452184Y-106761394D01*
X154466356Y-106782604D01*
X154538629Y-106830895D01*
X154550374Y-106838743D01*
X154649480Y-106858456D01*
X154674497Y-106853480D01*
X155103978Y-106853480D01*
X155103978Y-107198920D01*
X155118763Y-107273249D01*
X155160867Y-107336263D01*
X155223881Y-107378367D01*
X155298210Y-107393152D01*
X158297950Y-107393152D01*
X158372279Y-107378367D01*
X158435293Y-107336263D01*
X158477397Y-107273249D01*
X158492182Y-107198920D01*
X158492182Y-106000040D01*
X158477397Y-105925711D01*
X158435293Y-105862697D01*
X158372279Y-105820593D01*
X158297950Y-105805808D01*
X155298210Y-105805808D01*
X155223881Y-105820593D01*
X155160867Y-105862697D01*
X155118763Y-105925711D01*
X155103978Y-106000040D01*
X155103978Y-106345480D01*
X154754690Y-106345480D01*
X154034232Y-105625023D01*
X154034232Y-105040000D01*
X154019447Y-104965671D01*
X153984922Y-104914000D01*
X154144791Y-104914000D01*
X154872704Y-105641914D01*
X154886876Y-105663124D01*
X154970894Y-105719263D01*
X155044983Y-105734000D01*
X155044984Y-105734000D01*
X155069999Y-105738976D01*
X155095014Y-105734000D01*
X160064984Y-105734000D01*
X160090000Y-105738976D01*
X160115016Y-105734000D01*
X160115017Y-105734000D01*
X160189106Y-105719263D01*
X160273124Y-105663124D01*
X160287298Y-105641911D01*
X160645172Y-105284037D01*
X160774017Y-105370129D01*
X161077523Y-105430500D01*
X161282477Y-105430500D01*
X161585983Y-105370129D01*
X161930158Y-105140158D01*
X162160129Y-104795983D01*
X162240884Y-104390000D01*
X162160129Y-103984017D01*
X161930158Y-103639842D01*
X161585983Y-103409871D01*
X161282477Y-103349500D01*
X161077523Y-103349500D01*
X160774017Y-103409871D01*
X160429842Y-103639842D01*
X160199871Y-103984017D01*
X160119116Y-104390000D01*
X160199871Y-104795983D01*
X160285963Y-104924828D01*
X159984791Y-105226000D01*
X158486493Y-105226000D01*
X158492182Y-105197400D01*
X158492182Y-103998520D01*
X158477397Y-103924191D01*
X158435293Y-103861177D01*
X158372279Y-103819073D01*
X158297950Y-103804288D01*
X156597068Y-103804288D01*
X156598516Y-103804000D01*
X156598517Y-103804000D01*
X156672606Y-103789263D01*
X156756624Y-103733124D01*
X156770798Y-103711911D01*
X156959993Y-103522716D01*
X156981204Y-103508544D01*
X157037343Y-103424526D01*
X157043683Y-103392652D01*
X158297950Y-103392652D01*
X158372279Y-103377867D01*
X158435293Y-103335763D01*
X158477397Y-103272749D01*
X158481878Y-103250222D01*
X158627400Y-103310500D01*
X158822532Y-103310500D01*
X159002812Y-103235825D01*
X159140791Y-103097846D01*
X159215466Y-102917566D01*
X159215466Y-102722434D01*
X159140791Y-102542154D01*
X159002812Y-102404175D01*
X158978966Y-102394298D01*
X158978966Y-101870243D01*
X158999209Y-101850000D01*
X160119116Y-101850000D01*
X160199871Y-102255983D01*
X160429842Y-102600158D01*
X160774017Y-102830129D01*
X161077523Y-102890500D01*
X161282477Y-102890500D01*
X161585983Y-102830129D01*
X161930158Y-102600158D01*
X162160129Y-102255983D01*
X162240884Y-101850000D01*
X162160129Y-101444017D01*
X161930158Y-101099842D01*
X161585983Y-100869871D01*
X161282477Y-100809500D01*
X161077523Y-100809500D01*
X160774017Y-100869871D01*
X160429842Y-101099842D01*
X160199871Y-101444017D01*
X160119116Y-101850000D01*
X158999209Y-101850000D01*
X160645172Y-100204037D01*
X160774017Y-100290129D01*
X161077523Y-100350500D01*
X161282477Y-100350500D01*
X161585983Y-100290129D01*
X161930158Y-100060158D01*
X162160129Y-99715983D01*
X162240884Y-99310000D01*
X162160129Y-98904017D01*
X161930158Y-98559842D01*
X161585983Y-98329871D01*
X161282477Y-98269500D01*
X161077523Y-98269500D01*
X160774017Y-98329871D01*
X160597216Y-98448006D01*
X159327730Y-97178520D01*
X159818467Y-97178520D01*
X159928370Y-97443891D01*
X160281532Y-97871572D01*
X160771477Y-98131549D01*
X160989500Y-98035818D01*
X160989500Y-96960500D01*
X159915646Y-96960500D01*
X159818467Y-97178520D01*
X159327730Y-97178520D01*
X158589338Y-96440129D01*
X158575164Y-96418916D01*
X158492182Y-96363469D01*
X158492182Y-96361480D01*
X159818467Y-96361480D01*
X159915646Y-96579500D01*
X160989500Y-96579500D01*
X160989500Y-95504182D01*
X160771477Y-95408451D01*
X160281532Y-95668428D01*
X159928370Y-96096109D01*
X159818467Y-96361480D01*
X158492182Y-96361480D01*
X158492182Y-96002600D01*
X158477397Y-95928271D01*
X158435293Y-95865257D01*
X158372279Y-95823153D01*
X158297950Y-95808368D01*
X158246314Y-95808368D01*
X158275825Y-95778857D01*
X158350500Y-95598577D01*
X158350500Y-95403445D01*
X158342959Y-95385239D01*
X158372279Y-95379407D01*
X158435293Y-95337303D01*
X158477397Y-95274289D01*
X158492182Y-95199960D01*
X158492182Y-94484000D01*
X160169640Y-94484000D01*
X160199871Y-94635983D01*
X160429842Y-94980158D01*
X160774017Y-95210129D01*
X161077523Y-95270500D01*
X161282477Y-95270500D01*
X161585983Y-95210129D01*
X161930158Y-94980158D01*
X162160129Y-94635983D01*
X162240884Y-94230000D01*
X162160129Y-93824017D01*
X161930158Y-93479842D01*
X161585983Y-93249871D01*
X161282477Y-93189500D01*
X161077523Y-93189500D01*
X160774017Y-93249871D01*
X160429842Y-93479842D01*
X160199871Y-93824017D01*
X160169640Y-93976000D01*
X158487193Y-93976000D01*
X158477397Y-93926751D01*
X158435293Y-93863737D01*
X158372279Y-93821633D01*
X158297950Y-93806848D01*
X155298210Y-93806848D01*
X155223881Y-93821633D01*
X155160867Y-93863737D01*
X155118763Y-93926751D01*
X155103978Y-94001080D01*
X155103978Y-94342439D01*
X155099479Y-94341544D01*
X155074464Y-94346520D01*
X155074463Y-94346520D01*
X155000374Y-94361257D01*
X154916356Y-94417396D01*
X154902185Y-94438605D01*
X154054791Y-95286000D01*
X154034232Y-95286000D01*
X154034232Y-95040000D01*
X154019447Y-94965671D01*
X153977343Y-94902657D01*
X153914329Y-94860553D01*
X153840000Y-94845768D01*
X151340000Y-94845768D01*
X151265671Y-94860553D01*
X151202657Y-94902657D01*
X151160553Y-94965671D01*
X151145768Y-95040000D01*
X151145768Y-96040000D01*
X151160553Y-96114329D01*
X151202657Y-96177343D01*
X151265671Y-96219447D01*
X151340000Y-96234232D01*
X153840000Y-96234232D01*
X153914329Y-96219447D01*
X153977343Y-96177343D01*
X154019447Y-96114329D01*
X154034232Y-96040000D01*
X154034232Y-95794000D01*
X154134984Y-95794000D01*
X154160000Y-95798976D01*
X154185016Y-95794000D01*
X154185017Y-95794000D01*
X154259106Y-95779263D01*
X154343124Y-95723124D01*
X154357298Y-95701911D01*
X155103978Y-94955232D01*
X155103978Y-95199960D01*
X155118763Y-95274289D01*
X155160867Y-95337303D01*
X155223881Y-95379407D01*
X155298210Y-95394192D01*
X156552477Y-95394192D01*
X156558817Y-95426065D01*
X156614956Y-95510084D01*
X156636169Y-95524258D01*
X156774834Y-95662924D01*
X156789007Y-95684135D01*
X156873025Y-95740274D01*
X156947114Y-95755011D01*
X156947115Y-95755011D01*
X156972130Y-95759987D01*
X156997145Y-95755011D01*
X157434298Y-95755011D01*
X157444175Y-95778857D01*
X157473686Y-95808368D01*
X155298210Y-95808368D01*
X155223881Y-95823153D01*
X155160867Y-95865257D01*
X155118763Y-95928271D01*
X155103978Y-96002600D01*
X155103978Y-97201480D01*
X155118763Y-97275809D01*
X155160867Y-97338823D01*
X155223881Y-97380927D01*
X155298210Y-97395712D01*
X158297950Y-97395712D01*
X158372279Y-97380927D01*
X158435293Y-97338823D01*
X158477397Y-97275809D01*
X158492182Y-97201480D01*
X158492182Y-97061391D01*
X160253919Y-98823129D01*
X160199871Y-98904017D01*
X160119116Y-99310000D01*
X160120309Y-99316000D01*
X158868679Y-99316000D01*
X158869450Y-99314139D01*
X158869450Y-98934395D01*
X158726575Y-98791520D01*
X156988580Y-98791520D01*
X156988580Y-98811520D01*
X156607580Y-98811520D01*
X156607580Y-98791520D01*
X154869585Y-98791520D01*
X154726710Y-98934395D01*
X154726710Y-99314139D01*
X154813716Y-99524189D01*
X154870159Y-99580631D01*
X154073623Y-100377168D01*
X154052410Y-100391342D01*
X153996272Y-100475360D01*
X153996271Y-100475361D01*
X153976558Y-100574466D01*
X153981534Y-100599482D01*
X153981534Y-100908930D01*
X153977343Y-100902657D01*
X153914329Y-100860553D01*
X153840000Y-100845768D01*
X151340000Y-100845768D01*
X151265671Y-100860553D01*
X151202657Y-100902657D01*
X151160553Y-100965671D01*
X151145768Y-101040000D01*
X151145768Y-101294397D01*
X151137709Y-101296000D01*
X151113894Y-101300737D01*
X151055148Y-101339990D01*
X151029876Y-101356876D01*
X151015706Y-101378083D01*
X150467791Y-101926000D01*
X148175210Y-101926000D01*
X147227298Y-100978089D01*
X147213124Y-100956876D01*
X147129106Y-100900737D01*
X147055017Y-100886000D01*
X147055016Y-100886000D01*
X147030000Y-100881024D01*
X147004984Y-100886000D01*
X145003808Y-100886000D01*
X144978792Y-100881024D01*
X144953775Y-100886000D01*
X144879686Y-100900737D01*
X144795668Y-100956876D01*
X144781496Y-100978086D01*
X143850205Y-101909378D01*
X143826358Y-101899500D01*
X143631226Y-101899500D01*
X143487929Y-101958856D01*
X143481237Y-101925211D01*
X143439133Y-101862197D01*
X143376119Y-101820093D01*
X143301790Y-101805308D01*
X140302050Y-101805308D01*
X140227721Y-101820093D01*
X140190301Y-101845096D01*
X140118414Y-101671548D01*
X139980435Y-101533569D01*
X139800155Y-101458894D01*
X139605023Y-101458894D01*
X139581176Y-101468772D01*
X138545981Y-100433577D01*
X138531807Y-100412364D01*
X138447789Y-100356225D01*
X138373700Y-100341488D01*
X138373699Y-100341488D01*
X138348683Y-100336512D01*
X138323667Y-100341488D01*
X132411190Y-100341488D01*
X132401313Y-100317642D01*
X132263334Y-100179663D01*
X132083054Y-100104988D01*
X131887922Y-100104988D01*
X131864076Y-100114866D01*
X130789210Y-99040000D01*
X132945768Y-99040000D01*
X132945768Y-100040000D01*
X132960553Y-100114329D01*
X133002657Y-100177343D01*
X133065671Y-100219447D01*
X133140000Y-100234232D01*
X135640000Y-100234232D01*
X135714329Y-100219447D01*
X135777343Y-100177343D01*
X135819447Y-100114329D01*
X135834232Y-100040000D01*
X135834232Y-100000560D01*
X140107818Y-100000560D01*
X140107818Y-101199440D01*
X140122603Y-101273769D01*
X140164707Y-101336783D01*
X140227721Y-101378887D01*
X140302050Y-101393672D01*
X143301790Y-101393672D01*
X143376119Y-101378887D01*
X143439133Y-101336783D01*
X143481237Y-101273769D01*
X143496022Y-101199440D01*
X143496022Y-100000560D01*
X143481237Y-99926231D01*
X143439133Y-99863217D01*
X143376119Y-99821113D01*
X143301790Y-99806328D01*
X140302050Y-99806328D01*
X140227721Y-99821113D01*
X140164707Y-99863217D01*
X140122603Y-99926231D01*
X140107818Y-100000560D01*
X135834232Y-100000560D01*
X135834232Y-99040000D01*
X135819447Y-98965671D01*
X135777343Y-98902657D01*
X135714329Y-98860553D01*
X135640000Y-98845768D01*
X133140000Y-98845768D01*
X133065671Y-98860553D01*
X133002657Y-98902657D01*
X132960553Y-98965671D01*
X132945768Y-99040000D01*
X130789210Y-99040000D01*
X129054037Y-97304828D01*
X129140129Y-97175983D01*
X129220884Y-96770000D01*
X129140129Y-96364017D01*
X128910158Y-96019842D01*
X128565983Y-95789871D01*
X128262477Y-95729500D01*
X128057523Y-95729500D01*
X127754017Y-95789871D01*
X127409842Y-96019842D01*
X127179871Y-96364017D01*
X127099116Y-96770000D01*
X127081000Y-96770000D01*
X127081000Y-94230000D01*
X127099116Y-94230000D01*
X127179871Y-94635983D01*
X127409842Y-94980158D01*
X127754017Y-95210129D01*
X128057523Y-95270500D01*
X128262477Y-95270500D01*
X128565983Y-95210129D01*
X128694828Y-95124037D01*
X131662928Y-98092138D01*
X131487566Y-98019500D01*
X131292434Y-98019500D01*
X131112154Y-98094175D01*
X130974175Y-98232154D01*
X130899500Y-98412434D01*
X130899500Y-98607566D01*
X130974175Y-98787846D01*
X131112154Y-98925825D01*
X131292434Y-99000500D01*
X131487566Y-99000500D01*
X131667846Y-98925825D01*
X131805825Y-98787846D01*
X131813689Y-98768862D01*
X131814264Y-98768976D01*
X131839280Y-98764000D01*
X131839281Y-98764000D01*
X131889555Y-98754000D01*
X133105485Y-98754000D01*
X133130501Y-98758976D01*
X133155517Y-98754000D01*
X133155518Y-98754000D01*
X133229607Y-98739263D01*
X133313625Y-98683124D01*
X133327799Y-98661911D01*
X133505210Y-98484501D01*
X135687192Y-98484501D01*
X137076380Y-99873690D01*
X137090552Y-99894900D01*
X137174570Y-99951039D01*
X137248659Y-99965776D01*
X137248660Y-99965776D01*
X137273675Y-99970752D01*
X137298690Y-99965776D01*
X139260591Y-99965776D01*
X139285607Y-99970752D01*
X139310623Y-99965776D01*
X139310624Y-99965776D01*
X139384713Y-99951039D01*
X139468731Y-99894900D01*
X139469056Y-99894414D01*
X139488040Y-99902277D01*
X139683172Y-99902277D01*
X139863452Y-99827602D01*
X140001431Y-99689623D01*
X140076106Y-99509343D01*
X140076106Y-99314211D01*
X140067670Y-99293845D01*
X140074045Y-99289586D01*
X140113732Y-99230190D01*
X140122603Y-99274789D01*
X140164707Y-99337803D01*
X140227721Y-99379907D01*
X140302050Y-99394692D01*
X143301790Y-99394692D01*
X143376119Y-99379907D01*
X143439133Y-99337803D01*
X143481237Y-99274789D01*
X143496022Y-99200460D01*
X143496022Y-99040000D01*
X151145768Y-99040000D01*
X151145768Y-100040000D01*
X151160553Y-100114329D01*
X151202657Y-100177343D01*
X151265671Y-100219447D01*
X151340000Y-100234232D01*
X153840000Y-100234232D01*
X153914329Y-100219447D01*
X153977343Y-100177343D01*
X154019447Y-100114329D01*
X154034232Y-100040000D01*
X154034232Y-100026392D01*
X154092434Y-100050500D01*
X154287566Y-100050500D01*
X154467846Y-99975825D01*
X154605825Y-99837846D01*
X154680500Y-99657566D01*
X154680500Y-99462434D01*
X154605825Y-99282154D01*
X154467846Y-99144175D01*
X154287566Y-99069500D01*
X154092434Y-99069500D01*
X154034232Y-99093608D01*
X154034232Y-99040000D01*
X154019447Y-98965671D01*
X153977343Y-98902657D01*
X153914329Y-98860553D01*
X153840000Y-98845768D01*
X151340000Y-98845768D01*
X151265671Y-98860553D01*
X151202657Y-98902657D01*
X151160553Y-98965671D01*
X151145768Y-99040000D01*
X143496022Y-99040000D01*
X143496022Y-98001580D01*
X143481237Y-97927251D01*
X143445239Y-97873375D01*
X150768500Y-97873375D01*
X150768500Y-98153679D01*
X150855506Y-98363729D01*
X151016272Y-98524494D01*
X151226322Y-98611500D01*
X152256625Y-98611500D01*
X152399500Y-98468625D01*
X152399500Y-97730500D01*
X152780500Y-97730500D01*
X152780500Y-98468625D01*
X152923375Y-98611500D01*
X153953678Y-98611500D01*
X154163728Y-98524494D01*
X154324494Y-98363729D01*
X154411500Y-98153679D01*
X154411500Y-97887901D01*
X154726710Y-97887901D01*
X154726710Y-98267645D01*
X154869585Y-98410520D01*
X156607580Y-98410520D01*
X156607580Y-97572955D01*
X156988580Y-97572955D01*
X156988580Y-98410520D01*
X158726575Y-98410520D01*
X158869450Y-98267645D01*
X158869450Y-97887901D01*
X158782444Y-97677851D01*
X158621678Y-97517086D01*
X158411628Y-97430080D01*
X157131455Y-97430080D01*
X156988580Y-97572955D01*
X156607580Y-97572955D01*
X156464705Y-97430080D01*
X155184532Y-97430080D01*
X154974482Y-97517086D01*
X154813716Y-97677851D01*
X154726710Y-97887901D01*
X154411500Y-97887901D01*
X154411500Y-97873375D01*
X154268625Y-97730500D01*
X152780500Y-97730500D01*
X152399500Y-97730500D01*
X150911375Y-97730500D01*
X150768500Y-97873375D01*
X143445239Y-97873375D01*
X143439133Y-97864237D01*
X143376119Y-97822133D01*
X143301790Y-97807348D01*
X140302050Y-97807348D01*
X140227721Y-97822133D01*
X140164707Y-97864237D01*
X140144921Y-97893849D01*
X140144921Y-97717818D01*
X140467027Y-97395712D01*
X143301790Y-97395712D01*
X143376119Y-97380927D01*
X143439133Y-97338823D01*
X143481237Y-97275809D01*
X143496022Y-97201480D01*
X143496022Y-96926321D01*
X150768500Y-96926321D01*
X150768500Y-97206625D01*
X150911375Y-97349500D01*
X152399500Y-97349500D01*
X152399500Y-96611375D01*
X152780500Y-96611375D01*
X152780500Y-97349500D01*
X154268625Y-97349500D01*
X154411500Y-97206625D01*
X154411500Y-96926321D01*
X154324494Y-96716271D01*
X154163728Y-96555506D01*
X153953678Y-96468500D01*
X152923375Y-96468500D01*
X152780500Y-96611375D01*
X152399500Y-96611375D01*
X152256625Y-96468500D01*
X151226322Y-96468500D01*
X151016272Y-96555506D01*
X150855506Y-96716271D01*
X150768500Y-96926321D01*
X143496022Y-96926321D01*
X143496022Y-96002600D01*
X143481237Y-95928271D01*
X143439133Y-95865257D01*
X143376119Y-95823153D01*
X143301790Y-95808368D01*
X140302050Y-95808368D01*
X140227721Y-95823153D01*
X140164707Y-95865257D01*
X140122603Y-95928271D01*
X140107818Y-96002600D01*
X140107818Y-97036503D01*
X139836077Y-97308244D01*
X139840500Y-97297566D01*
X139840500Y-97102434D01*
X139765825Y-96922154D01*
X139627846Y-96784175D01*
X139604000Y-96774298D01*
X139604000Y-96432114D01*
X139608976Y-96407098D01*
X139589263Y-96307992D01*
X139547841Y-96246000D01*
X139533124Y-96223974D01*
X139511914Y-96209802D01*
X138236007Y-94933895D01*
X139730550Y-94933895D01*
X139730550Y-95313639D01*
X139817556Y-95523689D01*
X139978322Y-95684454D01*
X140188372Y-95771460D01*
X141468545Y-95771460D01*
X141611420Y-95628585D01*
X141611420Y-94791020D01*
X141992420Y-94791020D01*
X141992420Y-95628585D01*
X142135295Y-95771460D01*
X143415468Y-95771460D01*
X143625518Y-95684454D01*
X143786284Y-95523689D01*
X143873290Y-95313639D01*
X143873290Y-94933895D01*
X143730415Y-94791020D01*
X141992420Y-94791020D01*
X141611420Y-94791020D01*
X139873425Y-94791020D01*
X139730550Y-94933895D01*
X138236007Y-94933895D01*
X138220200Y-94918089D01*
X138206026Y-94896876D01*
X138122008Y-94840737D01*
X138047919Y-94826000D01*
X138047918Y-94826000D01*
X138022902Y-94821024D01*
X137997886Y-94826000D01*
X136892308Y-94826000D01*
X136880540Y-94814232D01*
X137670000Y-94814232D01*
X137744329Y-94799447D01*
X137807343Y-94757343D01*
X137820000Y-94738400D01*
X137832657Y-94757343D01*
X137895671Y-94799447D01*
X137970000Y-94814232D01*
X138970000Y-94814232D01*
X139044329Y-94799447D01*
X139107343Y-94757343D01*
X139149447Y-94694329D01*
X139164232Y-94620000D01*
X139164232Y-94115603D01*
X139196106Y-94109263D01*
X139280124Y-94053124D01*
X139294298Y-94031911D01*
X139438808Y-93887401D01*
X139730550Y-93887401D01*
X139730550Y-94267145D01*
X139873425Y-94410020D01*
X141611420Y-94410020D01*
X141611420Y-93572455D01*
X141992420Y-93572455D01*
X141992420Y-94410020D01*
X143730415Y-94410020D01*
X143873290Y-94267145D01*
X143873290Y-93887401D01*
X143786284Y-93677351D01*
X143625518Y-93516586D01*
X143415468Y-93429580D01*
X142135295Y-93429580D01*
X141992420Y-93572455D01*
X141611420Y-93572455D01*
X141468545Y-93429580D01*
X140188372Y-93429580D01*
X139978322Y-93516586D01*
X139817556Y-93677351D01*
X139730550Y-93887401D01*
X139438808Y-93887401D01*
X140079210Y-93247000D01*
X143437791Y-93247000D01*
X144319378Y-94128587D01*
X144309500Y-94152434D01*
X144309500Y-94347566D01*
X144384175Y-94527846D01*
X144522154Y-94665825D01*
X144702434Y-94740500D01*
X144897566Y-94740500D01*
X145077846Y-94665825D01*
X145215825Y-94527846D01*
X145290500Y-94347566D01*
X145290500Y-94152434D01*
X145215825Y-93972154D01*
X145117046Y-93873375D01*
X150768500Y-93873375D01*
X150768500Y-94153679D01*
X150855506Y-94363729D01*
X151016272Y-94524494D01*
X151226322Y-94611500D01*
X152256625Y-94611500D01*
X152399500Y-94468625D01*
X152399500Y-93730500D01*
X152780500Y-93730500D01*
X152780500Y-94468625D01*
X152923375Y-94611500D01*
X153953678Y-94611500D01*
X154163728Y-94524494D01*
X154324494Y-94363729D01*
X154411500Y-94153679D01*
X154411500Y-93873375D01*
X154268625Y-93730500D01*
X152780500Y-93730500D01*
X152399500Y-93730500D01*
X150911375Y-93730500D01*
X150768500Y-93873375D01*
X145117046Y-93873375D01*
X145077846Y-93834175D01*
X144897566Y-93759500D01*
X144702434Y-93759500D01*
X144678587Y-93769378D01*
X143740298Y-92831089D01*
X143726124Y-92809876D01*
X143642106Y-92753737D01*
X143568017Y-92739000D01*
X143568016Y-92739000D01*
X143543000Y-92734024D01*
X143517984Y-92739000D01*
X139999014Y-92739000D01*
X139973999Y-92734024D01*
X139948984Y-92739000D01*
X139948983Y-92739000D01*
X139874894Y-92753737D01*
X139790876Y-92809876D01*
X139776704Y-92831086D01*
X139164232Y-93443559D01*
X139164232Y-93120000D01*
X139149447Y-93045671D01*
X139107343Y-92982657D01*
X139044329Y-92940553D01*
X138970000Y-92925768D01*
X137970000Y-92925768D01*
X137895671Y-92940553D01*
X137832657Y-92982657D01*
X137820000Y-93001600D01*
X137807343Y-92982657D01*
X137744329Y-92940553D01*
X137724001Y-92936509D01*
X137724001Y-92645208D01*
X137785172Y-92584037D01*
X137914017Y-92670129D01*
X138217523Y-92730500D01*
X138422477Y-92730500D01*
X138725983Y-92670129D01*
X139070158Y-92440158D01*
X139300129Y-92095983D01*
X139380884Y-91690000D01*
X139799116Y-91690000D01*
X139879871Y-92095983D01*
X140109842Y-92440158D01*
X140454017Y-92670129D01*
X140757523Y-92730500D01*
X140962477Y-92730500D01*
X141265983Y-92670129D01*
X141610158Y-92440158D01*
X141840129Y-92095983D01*
X141920884Y-91690000D01*
X142339116Y-91690000D01*
X142419871Y-92095983D01*
X142649842Y-92440158D01*
X142994017Y-92670129D01*
X143297523Y-92730500D01*
X143502477Y-92730500D01*
X143805983Y-92670129D01*
X144150158Y-92440158D01*
X144380129Y-92095983D01*
X144460884Y-91690000D01*
X144879116Y-91690000D01*
X144959871Y-92095983D01*
X145189842Y-92440158D01*
X145534017Y-92670129D01*
X145837523Y-92730500D01*
X146042477Y-92730500D01*
X146345983Y-92670129D01*
X146690158Y-92440158D01*
X146920129Y-92095983D01*
X147000884Y-91690000D01*
X147419116Y-91690000D01*
X147499871Y-92095983D01*
X147729842Y-92440158D01*
X148074017Y-92670129D01*
X148377523Y-92730500D01*
X148582477Y-92730500D01*
X148885983Y-92670129D01*
X149230158Y-92440158D01*
X149460129Y-92095983D01*
X149540884Y-91690000D01*
X149959116Y-91690000D01*
X150039871Y-92095983D01*
X150269842Y-92440158D01*
X150614017Y-92670129D01*
X150854782Y-92718020D01*
X150768500Y-92926321D01*
X150768500Y-93206625D01*
X150911375Y-93349500D01*
X152399500Y-93349500D01*
X152399500Y-92611375D01*
X152256625Y-92468500D01*
X151727741Y-92468500D01*
X151770158Y-92440158D01*
X152000129Y-92095983D01*
X152080884Y-91690000D01*
X152499116Y-91690000D01*
X152579871Y-92095983D01*
X152809842Y-92440158D01*
X152894890Y-92496985D01*
X152780500Y-92611375D01*
X152780500Y-93349500D01*
X154268625Y-93349500D01*
X154411500Y-93206625D01*
X154411500Y-92926321D01*
X154333763Y-92738647D01*
X160400761Y-92738647D01*
X160489603Y-92964349D01*
X161029828Y-93131548D01*
X161592916Y-93079285D01*
X161870397Y-92964349D01*
X161959239Y-92738647D01*
X161180000Y-91959408D01*
X160400761Y-92738647D01*
X154333763Y-92738647D01*
X154324494Y-92716271D01*
X154163728Y-92555506D01*
X154147554Y-92548807D01*
X154310158Y-92440158D01*
X154540129Y-92095983D01*
X154620884Y-91690000D01*
X155039116Y-91690000D01*
X155119871Y-92095983D01*
X155349842Y-92440158D01*
X155694017Y-92670129D01*
X155997523Y-92730500D01*
X156202477Y-92730500D01*
X156505983Y-92670129D01*
X156850158Y-92440158D01*
X157080129Y-92095983D01*
X157160884Y-91690000D01*
X157119716Y-91483032D01*
X157599500Y-91483032D01*
X157599500Y-91896968D01*
X157757906Y-92279396D01*
X158050604Y-92572094D01*
X158433032Y-92730500D01*
X158846968Y-92730500D01*
X159229396Y-92572094D01*
X159522094Y-92279396D01*
X159680500Y-91896968D01*
X159680500Y-91539828D01*
X159738452Y-91539828D01*
X159790715Y-92102916D01*
X159905651Y-92380397D01*
X160131353Y-92469239D01*
X160910592Y-91690000D01*
X160131353Y-90910761D01*
X159905651Y-90999603D01*
X159738452Y-91539828D01*
X159680500Y-91539828D01*
X159680500Y-91483032D01*
X159522094Y-91100604D01*
X159229396Y-90807906D01*
X158846968Y-90649500D01*
X158433032Y-90649500D01*
X158050604Y-90807906D01*
X157757906Y-91100604D01*
X157599500Y-91483032D01*
X157119716Y-91483032D01*
X157080129Y-91284017D01*
X156850158Y-90939842D01*
X156505983Y-90709871D01*
X156202477Y-90649500D01*
X155997523Y-90649500D01*
X155694017Y-90709871D01*
X155349842Y-90939842D01*
X155119871Y-91284017D01*
X155039116Y-91690000D01*
X154620884Y-91690000D01*
X154540129Y-91284017D01*
X154310158Y-90939842D01*
X153965983Y-90709871D01*
X153662477Y-90649500D01*
X153457523Y-90649500D01*
X153154017Y-90709871D01*
X152809842Y-90939842D01*
X152579871Y-91284017D01*
X152499116Y-91690000D01*
X152080884Y-91690000D01*
X152000129Y-91284017D01*
X151770158Y-90939842D01*
X151425983Y-90709871D01*
X151122477Y-90649500D01*
X150917523Y-90649500D01*
X150614017Y-90709871D01*
X150269842Y-90939842D01*
X150039871Y-91284017D01*
X149959116Y-91690000D01*
X149540884Y-91690000D01*
X149460129Y-91284017D01*
X149230158Y-90939842D01*
X148885983Y-90709871D01*
X148582477Y-90649500D01*
X148377523Y-90649500D01*
X148074017Y-90709871D01*
X147729842Y-90939842D01*
X147499871Y-91284017D01*
X147419116Y-91690000D01*
X147000884Y-91690000D01*
X146920129Y-91284017D01*
X146690158Y-90939842D01*
X146345983Y-90709871D01*
X146042477Y-90649500D01*
X145837523Y-90649500D01*
X145534017Y-90709871D01*
X145189842Y-90939842D01*
X144959871Y-91284017D01*
X144879116Y-91690000D01*
X144460884Y-91690000D01*
X144380129Y-91284017D01*
X144150158Y-90939842D01*
X143805983Y-90709871D01*
X143502477Y-90649500D01*
X143297523Y-90649500D01*
X142994017Y-90709871D01*
X142649842Y-90939842D01*
X142419871Y-91284017D01*
X142339116Y-91690000D01*
X141920884Y-91690000D01*
X141840129Y-91284017D01*
X141610158Y-90939842D01*
X141265983Y-90709871D01*
X140962477Y-90649500D01*
X140757523Y-90649500D01*
X140454017Y-90709871D01*
X140109842Y-90939842D01*
X139879871Y-91284017D01*
X139799116Y-91690000D01*
X139380884Y-91690000D01*
X139300129Y-91284017D01*
X139070158Y-90939842D01*
X138725983Y-90709871D01*
X138422477Y-90649500D01*
X138217523Y-90649500D01*
X137914017Y-90709871D01*
X137569842Y-90939842D01*
X137339871Y-91284017D01*
X137259116Y-91690000D01*
X137339871Y-92095983D01*
X137425963Y-92224828D01*
X137308090Y-92342701D01*
X137286877Y-92356875D01*
X137231230Y-92440158D01*
X137230738Y-92440894D01*
X137211025Y-92539999D01*
X137216001Y-92565016D01*
X137216001Y-92925768D01*
X136670000Y-92925768D01*
X136595671Y-92940553D01*
X136532657Y-92982657D01*
X136490553Y-93045671D01*
X136475768Y-93120000D01*
X136475768Y-94409461D01*
X136236902Y-94170595D01*
X136236902Y-93065017D01*
X136241878Y-93040000D01*
X136227908Y-92969764D01*
X136222165Y-92940894D01*
X136212058Y-92925768D01*
X136180197Y-92878084D01*
X136180196Y-92878083D01*
X136166026Y-92856876D01*
X136144818Y-92842705D01*
X136007703Y-92705591D01*
X136185983Y-92670129D01*
X136530158Y-92440158D01*
X136760129Y-92095983D01*
X136840884Y-91690000D01*
X136760129Y-91284017D01*
X136530158Y-90939842D01*
X136185983Y-90709871D01*
X135882477Y-90649500D01*
X135677523Y-90649500D01*
X135374017Y-90709871D01*
X135029842Y-90939842D01*
X134799871Y-91284017D01*
X134719116Y-91690000D01*
X134799871Y-92095983D01*
X135029842Y-92440158D01*
X135084233Y-92476501D01*
X134385711Y-92476501D01*
X134287294Y-92378085D01*
X134287293Y-92378083D01*
X134134038Y-92224828D01*
X134220129Y-92095983D01*
X134300884Y-91690000D01*
X134220129Y-91284017D01*
X133990158Y-90939842D01*
X133645983Y-90709871D01*
X133342477Y-90649500D01*
X133137523Y-90649500D01*
X132834017Y-90709871D01*
X132489842Y-90939842D01*
X132259871Y-91284017D01*
X132179116Y-91690000D01*
X132259871Y-92095983D01*
X132489842Y-92440158D01*
X132834017Y-92670129D01*
X133137523Y-92730500D01*
X133342477Y-92730500D01*
X133645983Y-92670129D01*
X133774828Y-92584038D01*
X133928083Y-92737293D01*
X133928085Y-92737294D01*
X134036558Y-92845768D01*
X133140000Y-92845768D01*
X133065671Y-92860553D01*
X133002657Y-92902657D01*
X132960553Y-92965671D01*
X132945768Y-93040000D01*
X132945768Y-94040000D01*
X132960553Y-94114329D01*
X133002657Y-94177343D01*
X133065671Y-94219447D01*
X133140000Y-94234232D01*
X134815023Y-94234232D01*
X135426559Y-94845768D01*
X133140000Y-94845768D01*
X133065671Y-94860553D01*
X133002657Y-94902657D01*
X132960553Y-94965671D01*
X132945768Y-95040000D01*
X132945768Y-95896558D01*
X130954000Y-93904791D01*
X130954000Y-92700360D01*
X131105983Y-92670129D01*
X131450158Y-92440158D01*
X131680129Y-92095983D01*
X131760884Y-91690000D01*
X131680129Y-91284017D01*
X131450158Y-90939842D01*
X131105983Y-90709871D01*
X130802477Y-90649500D01*
X130597523Y-90649500D01*
X130294017Y-90709871D01*
X129949842Y-90939842D01*
X129719871Y-91284017D01*
X129639116Y-91690000D01*
X129719871Y-92095983D01*
X129949842Y-92440158D01*
X130294017Y-92670129D01*
X130446000Y-92700360D01*
X130446001Y-93616790D01*
X129061575Y-92232365D01*
X129200500Y-91896968D01*
X129200500Y-91483032D01*
X129042094Y-91100604D01*
X128749396Y-90807906D01*
X128366968Y-90649500D01*
X127953032Y-90649500D01*
X127570604Y-90807906D01*
X127277906Y-91100604D01*
X127119500Y-91483032D01*
X127119500Y-91896968D01*
X127277906Y-92279396D01*
X127570604Y-92572094D01*
X127953032Y-92730500D01*
X128366968Y-92730500D01*
X128702365Y-92591575D01*
X130191989Y-94081200D01*
X130191989Y-94090198D01*
X130187013Y-94115214D01*
X130191989Y-94140229D01*
X130191989Y-94140231D01*
X130206727Y-94214320D01*
X130262866Y-94298338D01*
X130284076Y-94312510D01*
X132887491Y-96915925D01*
X132901663Y-96937135D01*
X132958654Y-96975215D01*
X132945768Y-97040000D01*
X132945768Y-97976501D01*
X132265711Y-97976501D01*
X129054037Y-94764828D01*
X129140129Y-94635983D01*
X129220884Y-94230000D01*
X129140129Y-93824017D01*
X128910158Y-93479842D01*
X128565983Y-93249871D01*
X128262477Y-93189500D01*
X128057523Y-93189500D01*
X127754017Y-93249871D01*
X127409842Y-93479842D01*
X127179871Y-93824017D01*
X127099116Y-94230000D01*
X127081000Y-94230000D01*
X127081000Y-90611000D01*
X160412709Y-90611000D01*
X160400761Y-90641353D01*
X160400761Y-90641353D01*
G37*
X160400761Y-90641353D02*
X161180000Y-91420592D01*
X161959239Y-90641353D01*
X161947291Y-90611000D01*
X162259000Y-90611000D01*
X162259000Y-90922709D01*
X162228647Y-90910761D01*
X161449408Y-91690000D01*
X162228647Y-92469239D01*
X162259000Y-92457291D01*
X162259000Y-95887054D01*
X162078468Y-95668428D01*
X161588523Y-95408451D01*
X161370500Y-95504182D01*
X161370500Y-96579500D01*
X161390500Y-96579500D01*
X161390500Y-96960500D01*
X161370500Y-96960500D01*
X161370500Y-98035818D01*
X161588523Y-98131549D01*
X162078468Y-97871572D01*
X162259000Y-97652946D01*
X162259001Y-110549000D01*
X127081000Y-110549000D01*
X127081000Y-109470000D01*
X127099116Y-109470000D01*
X127179871Y-109875983D01*
X127409842Y-110220158D01*
X127754017Y-110450129D01*
X128057523Y-110510500D01*
X128262477Y-110510500D01*
X128565983Y-110450129D01*
X128910158Y-110220158D01*
X129140129Y-109875983D01*
X129220884Y-109470000D01*
X129179716Y-109263032D01*
X129659500Y-109263032D01*
X129659500Y-109676968D01*
X129817906Y-110059396D01*
X130110604Y-110352094D01*
X130493032Y-110510500D01*
X130906968Y-110510500D01*
X131289396Y-110352094D01*
X131582094Y-110059396D01*
X131740500Y-109676968D01*
X131740500Y-109470000D01*
X132179116Y-109470000D01*
X132259871Y-109875983D01*
X132489842Y-110220158D01*
X132834017Y-110450129D01*
X133137523Y-110510500D01*
X133342477Y-110510500D01*
X133645983Y-110450129D01*
X133990158Y-110220158D01*
X134220129Y-109875983D01*
X134300884Y-109470000D01*
X134719116Y-109470000D01*
X134799871Y-109875983D01*
X135029842Y-110220158D01*
X135374017Y-110450129D01*
X135677523Y-110510500D01*
X135882477Y-110510500D01*
X136185983Y-110450129D01*
X136530158Y-110220158D01*
X136760129Y-109875983D01*
X136840884Y-109470000D01*
X137259116Y-109470000D01*
X137339871Y-109875983D01*
X137569842Y-110220158D01*
X137914017Y-110450129D01*
X138217523Y-110510500D01*
X138422477Y-110510500D01*
X138725983Y-110450129D01*
X139070158Y-110220158D01*
X139300129Y-109875983D01*
X139380884Y-109470000D01*
X139799116Y-109470000D01*
X139879871Y-109875983D01*
X140109842Y-110220158D01*
X140454017Y-110450129D01*
X140757523Y-110510500D01*
X140962477Y-110510500D01*
X141265983Y-110450129D01*
X141610158Y-110220158D01*
X141840129Y-109875983D01*
X141920884Y-109470000D01*
X142339116Y-109470000D01*
X142419871Y-109875983D01*
X142649842Y-110220158D01*
X142994017Y-110450129D01*
X143297523Y-110510500D01*
X143502477Y-110510500D01*
X143805983Y-110450129D01*
X144150158Y-110220158D01*
X144380129Y-109875983D01*
X144460884Y-109470000D01*
X144879116Y-109470000D01*
X144959871Y-109875983D01*
X145189842Y-110220158D01*
X145534017Y-110450129D01*
X145837523Y-110510500D01*
X146042477Y-110510500D01*
X146345983Y-110450129D01*
X146690158Y-110220158D01*
X146920129Y-109875983D01*
X147000884Y-109470000D01*
X147419116Y-109470000D01*
X147499871Y-109875983D01*
X147729842Y-110220158D01*
X148074017Y-110450129D01*
X148377523Y-110510500D01*
X148582477Y-110510500D01*
X148885983Y-110450129D01*
X149230158Y-110220158D01*
X149460129Y-109875983D01*
X149540884Y-109470000D01*
X149460129Y-109064017D01*
X149230158Y-108719842D01*
X148885983Y-108489871D01*
X148582477Y-108429500D01*
X148377523Y-108429500D01*
X148074017Y-108489871D01*
X147729842Y-108719842D01*
X147499871Y-109064017D01*
X147419116Y-109470000D01*
X147000884Y-109470000D01*
X146920129Y-109064017D01*
X146690158Y-108719842D01*
X146345983Y-108489871D01*
X146042477Y-108429500D01*
X145837523Y-108429500D01*
X145534017Y-108489871D01*
X145189842Y-108719842D01*
X144959871Y-109064017D01*
X144879116Y-109470000D01*
X144460884Y-109470000D01*
X144380129Y-109064017D01*
X144150158Y-108719842D01*
X143805983Y-108489871D01*
X143502477Y-108429500D01*
X143297523Y-108429500D01*
X142994017Y-108489871D01*
X142649842Y-108719842D01*
X142419871Y-109064017D01*
X142339116Y-109470000D01*
X141920884Y-109470000D01*
X141840129Y-109064017D01*
X141610158Y-108719842D01*
X141265983Y-108489871D01*
X140962477Y-108429500D01*
X140757523Y-108429500D01*
X140454017Y-108489871D01*
X140109842Y-108719842D01*
X139879871Y-109064017D01*
X139799116Y-109470000D01*
X139380884Y-109470000D01*
X139300129Y-109064017D01*
X139070158Y-108719842D01*
X138725983Y-108489871D01*
X138422477Y-108429500D01*
X138217523Y-108429500D01*
X137914017Y-108489871D01*
X137569842Y-108719842D01*
X137339871Y-109064017D01*
X137259116Y-109470000D01*
X136840884Y-109470000D01*
X136760129Y-109064017D01*
X136530158Y-108719842D01*
X136185983Y-108489871D01*
X135882477Y-108429500D01*
X135677523Y-108429500D01*
X135374017Y-108489871D01*
X135029842Y-108719842D01*
X134799871Y-109064017D01*
X134719116Y-109470000D01*
X134300884Y-109470000D01*
X134220129Y-109064017D01*
X133990158Y-108719842D01*
X133645983Y-108489871D01*
X133342477Y-108429500D01*
X133137523Y-108429500D01*
X132834017Y-108489871D01*
X132489842Y-108719842D01*
X132259871Y-109064017D01*
X132179116Y-109470000D01*
X131740500Y-109470000D01*
X131740500Y-109263032D01*
X131582094Y-108880604D01*
X131289396Y-108587906D01*
X130906968Y-108429500D01*
X130493032Y-108429500D01*
X130110604Y-108587906D01*
X129817906Y-108880604D01*
X129659500Y-109263032D01*
X129179716Y-109263032D01*
X129140129Y-109064017D01*
X128910158Y-108719842D01*
X128565983Y-108489871D01*
X128262477Y-108429500D01*
X128057523Y-108429500D01*
X127754017Y-108489871D01*
X127409842Y-108719842D01*
X127179871Y-109064017D01*
X127099116Y-109470000D01*
X127081000Y-109470000D01*
X127081000Y-96770000D01*
X127099116Y-96770000D01*
X127179871Y-97175983D01*
X127409842Y-97520158D01*
X127754017Y-97750129D01*
X128057523Y-97810500D01*
X128262477Y-97810500D01*
X128565983Y-97750129D01*
X128694828Y-97664037D01*
X131504866Y-100474076D01*
X131494988Y-100497922D01*
X131494988Y-100693054D01*
X131552538Y-100831990D01*
X130041200Y-100831990D01*
X129054037Y-99844828D01*
X129140129Y-99715983D01*
X129220884Y-99310000D01*
X129140129Y-98904017D01*
X128910158Y-98559842D01*
X128565983Y-98329871D01*
X128262477Y-98269500D01*
X128057523Y-98269500D01*
X127754017Y-98329871D01*
X127409842Y-98559842D01*
X127179871Y-98904017D01*
X127099116Y-99310000D01*
X127179871Y-99715983D01*
X127409842Y-100060158D01*
X127754017Y-100290129D01*
X128057523Y-100350500D01*
X128262477Y-100350500D01*
X128565983Y-100290129D01*
X128694828Y-100204037D01*
X129738694Y-101247904D01*
X129752866Y-101269114D01*
X129836884Y-101325253D01*
X129910973Y-101339990D01*
X129910974Y-101339990D01*
X129935989Y-101344966D01*
X129961004Y-101339990D01*
X132234938Y-101339990D01*
X132259954Y-101344966D01*
X132284970Y-101339990D01*
X132284971Y-101339990D01*
X132359060Y-101325253D01*
X132443078Y-101269114D01*
X132457252Y-101247901D01*
X132601655Y-101103499D01*
X132945768Y-101103499D01*
X132945768Y-102040000D01*
X132960553Y-102114329D01*
X133002657Y-102177343D01*
X133065671Y-102219447D01*
X133140000Y-102234232D01*
X135640000Y-102234232D01*
X135714329Y-102219447D01*
X135777343Y-102177343D01*
X135819447Y-102114329D01*
X135834232Y-102040000D01*
X135834232Y-101103499D01*
X137294290Y-101103499D01*
X138269378Y-102078587D01*
X138259500Y-102102434D01*
X138259500Y-102297566D01*
X138334175Y-102477846D01*
X138472154Y-102615825D01*
X138573366Y-102657749D01*
X138564285Y-102679673D01*
X136528107Y-102679673D01*
X136302522Y-102454089D01*
X136288348Y-102432876D01*
X136204330Y-102376737D01*
X136130241Y-102362000D01*
X136130240Y-102362000D01*
X136105224Y-102357024D01*
X136080208Y-102362000D01*
X130233292Y-102362000D01*
X129559379Y-101688089D01*
X129545205Y-101666876D01*
X129461187Y-101610737D01*
X129387098Y-101596000D01*
X129387097Y-101596000D01*
X129362081Y-101591024D01*
X129337065Y-101596000D01*
X129170360Y-101596000D01*
X129140129Y-101444017D01*
X128910158Y-101099842D01*
X128565983Y-100869871D01*
X128262477Y-100809500D01*
X128057523Y-100809500D01*
X127754017Y-100869871D01*
X127409842Y-101099842D01*
X127179871Y-101444017D01*
X127099116Y-101850000D01*
X127179871Y-102255983D01*
X127409842Y-102600158D01*
X127754017Y-102830129D01*
X128057523Y-102890500D01*
X128262477Y-102890500D01*
X128565983Y-102830129D01*
X128910158Y-102600158D01*
X129140129Y-102255983D01*
X129170360Y-102104000D01*
X129256872Y-102104000D01*
X129930787Y-102777917D01*
X129944957Y-102799124D01*
X129966164Y-102813294D01*
X129966165Y-102813295D01*
X130028975Y-102855263D01*
X130128081Y-102874976D01*
X130153098Y-102870000D01*
X133051532Y-102870000D01*
X133002657Y-102902657D01*
X132960553Y-102965671D01*
X132945768Y-103040000D01*
X132945768Y-104040000D01*
X132960553Y-104114329D01*
X132975033Y-104136000D01*
X129170360Y-104136000D01*
X129140129Y-103984017D01*
X128910158Y-103639842D01*
X128565983Y-103409871D01*
X128262477Y-103349500D01*
X128057523Y-103349500D01*
X127754017Y-103409871D01*
X127409842Y-103639842D01*
X127179871Y-103984017D01*
X127099116Y-104390000D01*
X127179871Y-104795983D01*
X127409842Y-105140158D01*
X127754017Y-105370129D01*
X128057523Y-105430500D01*
X128262477Y-105430500D01*
X128565983Y-105370129D01*
X128910158Y-105140158D01*
X129140129Y-104795983D01*
X129170360Y-104644000D01*
X130086789Y-104644000D01*
X128848086Y-105882705D01*
X128848083Y-105882707D01*
X128694828Y-106035962D01*
X128565983Y-105949871D01*
X128262477Y-105889500D01*
X128057523Y-105889500D01*
X127754017Y-105949871D01*
X127409842Y-106179842D01*
X127179871Y-106524017D01*
X127099116Y-106930000D01*
X127179871Y-107335983D01*
X127409842Y-107680158D01*
X127754017Y-107910129D01*
X128057523Y-107970500D01*
X128262477Y-107970500D01*
X128565983Y-107910129D01*
X128910158Y-107680158D01*
X129140129Y-107335983D01*
X129220884Y-106930000D01*
X129140129Y-106524017D01*
X129054038Y-106395172D01*
X129207293Y-106241917D01*
X129207295Y-106241914D01*
X129666775Y-105782434D01*
X130729500Y-105782434D01*
X130729500Y-105977566D01*
X130804175Y-106157846D01*
X130942154Y-106295825D01*
X131122434Y-106370500D01*
X131317566Y-106370500D01*
X131341413Y-106360622D01*
X132682706Y-107701917D01*
X132696876Y-107723124D01*
X132718083Y-107737294D01*
X132718084Y-107737295D01*
X132780894Y-107779263D01*
X132880000Y-107798976D01*
X132905017Y-107794000D01*
X132945768Y-107794000D01*
X132945768Y-108040000D01*
X132960553Y-108114329D01*
X133002657Y-108177343D01*
X133065671Y-108219447D01*
X133140000Y-108234232D01*
X135640000Y-108234232D01*
X135714329Y-108219447D01*
X135777343Y-108177343D01*
X135819447Y-108114329D01*
X135834232Y-108040000D01*
X135834232Y-107040000D01*
X135819447Y-106965671D01*
X135777343Y-106902657D01*
X135714329Y-106860553D01*
X135640000Y-106845768D01*
X133140000Y-106845768D01*
X133065671Y-106860553D01*
X133002657Y-106902657D01*
X132960553Y-106965671D01*
X132945768Y-107040000D01*
X132945768Y-107246557D01*
X131700622Y-106001413D01*
X131710500Y-105977566D01*
X131710500Y-105782434D01*
X131635825Y-105602154D01*
X131497846Y-105464175D01*
X131317566Y-105389500D01*
X131122434Y-105389500D01*
X130942154Y-105464175D01*
X130804175Y-105602154D01*
X130729500Y-105782434D01*
X129666775Y-105782434D01*
X130547200Y-104902011D01*
X133003624Y-104902011D01*
X133002657Y-104902657D01*
X132960553Y-104965671D01*
X132945768Y-105040000D01*
X132945768Y-105256000D01*
X132555702Y-105256000D01*
X132545825Y-105232154D01*
X132407846Y-105094175D01*
X132227566Y-105019500D01*
X132032434Y-105019500D01*
X131852154Y-105094175D01*
X131714175Y-105232154D01*
X131639500Y-105412434D01*
X131639500Y-105607566D01*
X131714175Y-105787846D01*
X131852154Y-105925825D01*
X132032434Y-106000500D01*
X132227566Y-106000500D01*
X132407846Y-105925825D01*
X132545825Y-105787846D01*
X132555702Y-105764000D01*
X132945768Y-105764000D01*
X132945768Y-106040000D01*
X132960553Y-106114329D01*
X133002657Y-106177343D01*
X133065671Y-106219447D01*
X133140000Y-106234232D01*
X135640000Y-106234232D01*
X135714329Y-106219447D01*
X135777343Y-106177343D01*
X135819447Y-106114329D01*
X135834232Y-106040000D01*
X135834232Y-105040000D01*
X135819447Y-104965671D01*
X135777343Y-104902657D01*
X135772421Y-104899368D01*
X135833222Y-104887274D01*
X135917240Y-104831135D01*
X135931414Y-104809922D01*
X136677338Y-104064000D01*
X136951722Y-104064000D01*
X136877028Y-104138694D01*
X136802353Y-104318974D01*
X136802353Y-104514106D01*
X136877028Y-104694386D01*
X137015007Y-104832365D01*
X137195287Y-104907040D01*
X137390419Y-104907040D01*
X137570699Y-104832365D01*
X137707752Y-104695312D01*
X138288046Y-104695312D01*
X138297923Y-104719158D01*
X138435902Y-104857137D01*
X138616182Y-104931812D01*
X138811314Y-104931812D01*
X138991594Y-104857137D01*
X139129573Y-104719158D01*
X139204248Y-104538878D01*
X139204248Y-104343746D01*
X139129573Y-104163466D01*
X138991594Y-104025487D01*
X138811314Y-103950812D01*
X138802587Y-103950812D01*
X138820500Y-103907566D01*
X138820500Y-103712434D01*
X138806444Y-103678500D01*
X139111136Y-103678500D01*
X139121013Y-103702346D01*
X139258992Y-103840325D01*
X139282839Y-103850203D01*
X139282838Y-105209812D01*
X139277862Y-105234828D01*
X139294422Y-105318084D01*
X139297575Y-105333933D01*
X139353714Y-105417952D01*
X139374927Y-105432126D01*
X140107818Y-106165018D01*
X140107818Y-107198920D01*
X140122603Y-107273249D01*
X140164707Y-107336263D01*
X140227721Y-107378367D01*
X140302050Y-107393152D01*
X143301790Y-107393152D01*
X143376119Y-107378367D01*
X143439133Y-107336263D01*
X143481237Y-107273249D01*
X143496022Y-107198920D01*
X143496022Y-106000040D01*
X143481237Y-105925711D01*
X143439133Y-105862697D01*
X143376119Y-105820593D01*
X143301790Y-105805808D01*
X140467028Y-105805808D01*
X140169787Y-105508567D01*
X147980198Y-105508567D01*
X147980198Y-105703699D01*
X148054873Y-105883979D01*
X148192852Y-106021958D01*
X148211836Y-106029822D01*
X148211722Y-106030397D01*
X148216698Y-106055413D01*
X148231435Y-106129502D01*
X148287574Y-106213521D01*
X148308787Y-106227695D01*
X150513005Y-108431914D01*
X150527177Y-108453124D01*
X150582173Y-108489871D01*
X150598095Y-108500510D01*
X150269842Y-108719842D01*
X150039871Y-109064017D01*
X149959116Y-109470000D01*
X150039871Y-109875983D01*
X150269842Y-110220158D01*
X150614017Y-110450129D01*
X150917523Y-110510500D01*
X151122477Y-110510500D01*
X151425983Y-110450129D01*
X151770158Y-110220158D01*
X152000129Y-109875983D01*
X152080884Y-109470000D01*
X152000129Y-109064017D01*
X151770158Y-108719842D01*
X151477061Y-108524000D01*
X153102939Y-108524000D01*
X152809842Y-108719842D01*
X152579871Y-109064017D01*
X152499116Y-109470000D01*
X152579871Y-109875983D01*
X152809842Y-110220158D01*
X153154017Y-110450129D01*
X153457523Y-110510500D01*
X153662477Y-110510500D01*
X153965983Y-110450129D01*
X154310158Y-110220158D01*
X154540129Y-109875983D01*
X154620884Y-109470000D01*
X154540129Y-109064017D01*
X154310158Y-108719842D01*
X154017061Y-108524000D01*
X155642939Y-108524000D01*
X155349842Y-108719842D01*
X155119871Y-109064017D01*
X155039116Y-109470000D01*
X155119871Y-109875983D01*
X155349842Y-110220158D01*
X155694017Y-110450129D01*
X155997523Y-110510500D01*
X156202477Y-110510500D01*
X156505983Y-110450129D01*
X156850158Y-110220158D01*
X157080129Y-109875983D01*
X157160884Y-109470000D01*
X157080129Y-109064017D01*
X156850158Y-108719842D01*
X156557061Y-108524000D01*
X158182939Y-108524000D01*
X157889842Y-108719842D01*
X157659871Y-109064017D01*
X157579116Y-109470000D01*
X157659871Y-109875983D01*
X157889842Y-110220158D01*
X158234017Y-110450129D01*
X158537523Y-110510500D01*
X158742477Y-110510500D01*
X159045983Y-110450129D01*
X159390158Y-110220158D01*
X159620129Y-109875983D01*
X159700884Y-109470000D01*
X159620129Y-109064017D01*
X159390158Y-108719842D01*
X159097061Y-108524000D01*
X159874791Y-108524000D01*
X160285963Y-108935172D01*
X160199871Y-109064017D01*
X160119116Y-109470000D01*
X160199871Y-109875983D01*
X160429842Y-110220158D01*
X160774017Y-110450129D01*
X161077523Y-110510500D01*
X161282477Y-110510500D01*
X161585983Y-110450129D01*
X161930158Y-110220158D01*
X162160129Y-109875983D01*
X162240884Y-109470000D01*
X162160129Y-109064017D01*
X161930158Y-108719842D01*
X161585983Y-108489871D01*
X161282477Y-108429500D01*
X161077523Y-108429500D01*
X160774017Y-108489871D01*
X160645172Y-108575963D01*
X160177298Y-108108089D01*
X160163124Y-108086876D01*
X160158820Y-108084000D01*
X160254984Y-108084000D01*
X160280000Y-108088976D01*
X160305016Y-108084000D01*
X160305017Y-108084000D01*
X160379106Y-108069263D01*
X160463124Y-108013124D01*
X160477298Y-107991911D01*
X160645172Y-107824037D01*
X160774017Y-107910129D01*
X161077523Y-107970500D01*
X161282477Y-107970500D01*
X161585983Y-107910129D01*
X161930158Y-107680158D01*
X162160129Y-107335983D01*
X162240884Y-106930000D01*
X162160129Y-106524017D01*
X161930158Y-106179842D01*
X161585983Y-105949871D01*
X161282477Y-105889500D01*
X161077523Y-105889500D01*
X160774017Y-105949871D01*
X160429842Y-106179842D01*
X160199871Y-106524017D01*
X160119116Y-106930000D01*
X160199871Y-107335983D01*
X160285963Y-107464828D01*
X160174791Y-107576000D01*
X155005210Y-107576000D01*
X153927298Y-106498089D01*
X153913124Y-106476876D01*
X153829106Y-106420737D01*
X153755017Y-106406000D01*
X153755016Y-106406000D01*
X153730000Y-106401024D01*
X153704984Y-106406000D01*
X149685211Y-106406000D01*
X149264000Y-105984791D01*
X149264000Y-105335316D01*
X149307829Y-105291487D01*
X149382504Y-105111207D01*
X149382504Y-104916075D01*
X149307829Y-104735795D01*
X149169850Y-104597816D01*
X148989570Y-104523141D01*
X148794438Y-104523141D01*
X148614158Y-104597816D01*
X148476179Y-104735795D01*
X148401504Y-104916075D01*
X148401504Y-105111207D01*
X148403337Y-105115633D01*
X148373132Y-105115633D01*
X148192852Y-105190308D01*
X148054873Y-105328287D01*
X147980198Y-105508567D01*
X140169787Y-105508567D01*
X139790838Y-105129619D01*
X139790838Y-103850202D01*
X139802956Y-103845183D01*
X139844216Y-103906934D01*
X139865429Y-103921108D01*
X140107818Y-104163497D01*
X140107818Y-105197400D01*
X140122603Y-105271729D01*
X140164707Y-105334743D01*
X140227721Y-105376847D01*
X140302050Y-105391632D01*
X143301790Y-105391632D01*
X143376119Y-105376847D01*
X143439133Y-105334743D01*
X143481237Y-105271729D01*
X143496022Y-105197400D01*
X143496022Y-103998520D01*
X143481237Y-103924191D01*
X143439133Y-103861177D01*
X143376119Y-103819073D01*
X143301790Y-103804288D01*
X140467027Y-103804288D01*
X140281340Y-103618601D01*
X140281340Y-103388533D01*
X140302050Y-103392652D01*
X143301790Y-103392652D01*
X143376119Y-103377867D01*
X143439133Y-103335763D01*
X143481237Y-103272749D01*
X143496022Y-103198420D01*
X143496022Y-102824496D01*
X143631226Y-102880500D01*
X143806577Y-102880500D01*
X143802008Y-102891531D01*
X143802008Y-103086663D01*
X143876683Y-103266943D01*
X144014662Y-103404922D01*
X144194942Y-103479597D01*
X144390074Y-103479597D01*
X144570354Y-103404922D01*
X144708333Y-103266943D01*
X144783008Y-103086663D01*
X144783008Y-102891531D01*
X144708333Y-102711251D01*
X144570354Y-102573272D01*
X144546508Y-102563395D01*
X144546508Y-102493652D01*
X144585628Y-102588095D01*
X144723607Y-102726074D01*
X144903887Y-102800749D01*
X145099019Y-102800749D01*
X145279299Y-102726074D01*
X145370537Y-102634836D01*
X145384422Y-102668357D01*
X145522401Y-102806336D01*
X145702681Y-102881011D01*
X145897813Y-102881011D01*
X145921660Y-102871133D01*
X147262440Y-104211914D01*
X147276612Y-104233124D01*
X147360630Y-104289263D01*
X147388945Y-104294895D01*
X147459736Y-104308976D01*
X147484753Y-104304000D01*
X149242865Y-104304000D01*
X150640778Y-105701914D01*
X150654950Y-105723124D01*
X150738968Y-105779263D01*
X150813057Y-105794000D01*
X150813058Y-105794000D01*
X150838073Y-105798976D01*
X150863088Y-105794000D01*
X151145768Y-105794000D01*
X151145768Y-106040000D01*
X151160553Y-106114329D01*
X151202657Y-106177343D01*
X151265671Y-106219447D01*
X151340000Y-106234232D01*
X153840000Y-106234232D01*
X153910916Y-106220126D01*
X154452184Y-106761394D01*
X154466356Y-106782604D01*
X154538629Y-106830895D01*
X154550374Y-106838743D01*
X154649480Y-106858456D01*
X154674497Y-106853480D01*
X155103978Y-106853480D01*
X155103978Y-107198920D01*
X155118763Y-107273249D01*
X155160867Y-107336263D01*
X155223881Y-107378367D01*
X155298210Y-107393152D01*
X158297950Y-107393152D01*
X158372279Y-107378367D01*
X158435293Y-107336263D01*
X158477397Y-107273249D01*
X158492182Y-107198920D01*
X158492182Y-106000040D01*
X158477397Y-105925711D01*
X158435293Y-105862697D01*
X158372279Y-105820593D01*
X158297950Y-105805808D01*
X155298210Y-105805808D01*
X155223881Y-105820593D01*
X155160867Y-105862697D01*
X155118763Y-105925711D01*
X155103978Y-106000040D01*
X155103978Y-106345480D01*
X154754690Y-106345480D01*
X154034232Y-105625023D01*
X154034232Y-105040000D01*
X154019447Y-104965671D01*
X153984922Y-104914000D01*
X154144791Y-104914000D01*
X154872704Y-105641914D01*
X154886876Y-105663124D01*
X154970894Y-105719263D01*
X155044983Y-105734000D01*
X155044984Y-105734000D01*
X155069999Y-105738976D01*
X155095014Y-105734000D01*
X160064984Y-105734000D01*
X160090000Y-105738976D01*
X160115016Y-105734000D01*
X160115017Y-105734000D01*
X160189106Y-105719263D01*
X160273124Y-105663124D01*
X160287298Y-105641911D01*
X160645172Y-105284037D01*
X160774017Y-105370129D01*
X161077523Y-105430500D01*
X161282477Y-105430500D01*
X161585983Y-105370129D01*
X161930158Y-105140158D01*
X162160129Y-104795983D01*
X162240884Y-104390000D01*
X162160129Y-103984017D01*
X161930158Y-103639842D01*
X161585983Y-103409871D01*
X161282477Y-103349500D01*
X161077523Y-103349500D01*
X160774017Y-103409871D01*
X160429842Y-103639842D01*
X160199871Y-103984017D01*
X160119116Y-104390000D01*
X160199871Y-104795983D01*
X160285963Y-104924828D01*
X159984791Y-105226000D01*
X158486493Y-105226000D01*
X158492182Y-105197400D01*
X158492182Y-103998520D01*
X158477397Y-103924191D01*
X158435293Y-103861177D01*
X158372279Y-103819073D01*
X158297950Y-103804288D01*
X156597068Y-103804288D01*
X156598516Y-103804000D01*
X156598517Y-103804000D01*
X156672606Y-103789263D01*
X156756624Y-103733124D01*
X156770798Y-103711911D01*
X156959993Y-103522716D01*
X156981204Y-103508544D01*
X157037343Y-103424526D01*
X157043683Y-103392652D01*
X158297950Y-103392652D01*
X158372279Y-103377867D01*
X158435293Y-103335763D01*
X158477397Y-103272749D01*
X158481878Y-103250222D01*
X158627400Y-103310500D01*
X158822532Y-103310500D01*
X159002812Y-103235825D01*
X159140791Y-103097846D01*
X159215466Y-102917566D01*
X159215466Y-102722434D01*
X159140791Y-102542154D01*
X159002812Y-102404175D01*
X158978966Y-102394298D01*
X158978966Y-101870243D01*
X158999209Y-101850000D01*
X160119116Y-101850000D01*
X160199871Y-102255983D01*
X160429842Y-102600158D01*
X160774017Y-102830129D01*
X161077523Y-102890500D01*
X161282477Y-102890500D01*
X161585983Y-102830129D01*
X161930158Y-102600158D01*
X162160129Y-102255983D01*
X162240884Y-101850000D01*
X162160129Y-101444017D01*
X161930158Y-101099842D01*
X161585983Y-100869871D01*
X161282477Y-100809500D01*
X161077523Y-100809500D01*
X160774017Y-100869871D01*
X160429842Y-101099842D01*
X160199871Y-101444017D01*
X160119116Y-101850000D01*
X158999209Y-101850000D01*
X160645172Y-100204037D01*
X160774017Y-100290129D01*
X161077523Y-100350500D01*
X161282477Y-100350500D01*
X161585983Y-100290129D01*
X161930158Y-100060158D01*
X162160129Y-99715983D01*
X162240884Y-99310000D01*
X162160129Y-98904017D01*
X161930158Y-98559842D01*
X161585983Y-98329871D01*
X161282477Y-98269500D01*
X161077523Y-98269500D01*
X160774017Y-98329871D01*
X160597216Y-98448006D01*
X159327730Y-97178520D01*
X159818467Y-97178520D01*
X159928370Y-97443891D01*
X160281532Y-97871572D01*
X160771477Y-98131549D01*
X160989500Y-98035818D01*
X160989500Y-96960500D01*
X159915646Y-96960500D01*
X159818467Y-97178520D01*
X159327730Y-97178520D01*
X158589338Y-96440129D01*
X158575164Y-96418916D01*
X158492182Y-96363469D01*
X158492182Y-96361480D01*
X159818467Y-96361480D01*
X159915646Y-96579500D01*
X160989500Y-96579500D01*
X160989500Y-95504182D01*
X160771477Y-95408451D01*
X160281532Y-95668428D01*
X159928370Y-96096109D01*
X159818467Y-96361480D01*
X158492182Y-96361480D01*
X158492182Y-96002600D01*
X158477397Y-95928271D01*
X158435293Y-95865257D01*
X158372279Y-95823153D01*
X158297950Y-95808368D01*
X158246314Y-95808368D01*
X158275825Y-95778857D01*
X158350500Y-95598577D01*
X158350500Y-95403445D01*
X158342959Y-95385239D01*
X158372279Y-95379407D01*
X158435293Y-95337303D01*
X158477397Y-95274289D01*
X158492182Y-95199960D01*
X158492182Y-94484000D01*
X160169640Y-94484000D01*
X160199871Y-94635983D01*
X160429842Y-94980158D01*
X160774017Y-95210129D01*
X161077523Y-95270500D01*
X161282477Y-95270500D01*
X161585983Y-95210129D01*
X161930158Y-94980158D01*
X162160129Y-94635983D01*
X162240884Y-94230000D01*
X162160129Y-93824017D01*
X161930158Y-93479842D01*
X161585983Y-93249871D01*
X161282477Y-93189500D01*
X161077523Y-93189500D01*
X160774017Y-93249871D01*
X160429842Y-93479842D01*
X160199871Y-93824017D01*
X160169640Y-93976000D01*
X158487193Y-93976000D01*
X158477397Y-93926751D01*
X158435293Y-93863737D01*
X158372279Y-93821633D01*
X158297950Y-93806848D01*
X155298210Y-93806848D01*
X155223881Y-93821633D01*
X155160867Y-93863737D01*
X155118763Y-93926751D01*
X155103978Y-94001080D01*
X155103978Y-94342439D01*
X155099479Y-94341544D01*
X155074464Y-94346520D01*
X155074463Y-94346520D01*
X155000374Y-94361257D01*
X154916356Y-94417396D01*
X154902185Y-94438605D01*
X154054791Y-95286000D01*
X154034232Y-95286000D01*
X154034232Y-95040000D01*
X154019447Y-94965671D01*
X153977343Y-94902657D01*
X153914329Y-94860553D01*
X153840000Y-94845768D01*
X151340000Y-94845768D01*
X151265671Y-94860553D01*
X151202657Y-94902657D01*
X151160553Y-94965671D01*
X151145768Y-95040000D01*
X151145768Y-96040000D01*
X151160553Y-96114329D01*
X151202657Y-96177343D01*
X151265671Y-96219447D01*
X151340000Y-96234232D01*
X153840000Y-96234232D01*
X153914329Y-96219447D01*
X153977343Y-96177343D01*
X154019447Y-96114329D01*
X154034232Y-96040000D01*
X154034232Y-95794000D01*
X154134984Y-95794000D01*
X154160000Y-95798976D01*
X154185016Y-95794000D01*
X154185017Y-95794000D01*
X154259106Y-95779263D01*
X154343124Y-95723124D01*
X154357298Y-95701911D01*
X155103978Y-94955232D01*
X155103978Y-95199960D01*
X155118763Y-95274289D01*
X155160867Y-95337303D01*
X155223881Y-95379407D01*
X155298210Y-95394192D01*
X156552477Y-95394192D01*
X156558817Y-95426065D01*
X156614956Y-95510084D01*
X156636169Y-95524258D01*
X156774834Y-95662924D01*
X156789007Y-95684135D01*
X156873025Y-95740274D01*
X156947114Y-95755011D01*
X156947115Y-95755011D01*
X156972130Y-95759987D01*
X156997145Y-95755011D01*
X157434298Y-95755011D01*
X157444175Y-95778857D01*
X157473686Y-95808368D01*
X155298210Y-95808368D01*
X155223881Y-95823153D01*
X155160867Y-95865257D01*
X155118763Y-95928271D01*
X155103978Y-96002600D01*
X155103978Y-97201480D01*
X155118763Y-97275809D01*
X155160867Y-97338823D01*
X155223881Y-97380927D01*
X155298210Y-97395712D01*
X158297950Y-97395712D01*
X158372279Y-97380927D01*
X158435293Y-97338823D01*
X158477397Y-97275809D01*
X158492182Y-97201480D01*
X158492182Y-97061391D01*
X160253919Y-98823129D01*
X160199871Y-98904017D01*
X160119116Y-99310000D01*
X160120309Y-99316000D01*
X158868679Y-99316000D01*
X158869450Y-99314139D01*
X158869450Y-98934395D01*
X158726575Y-98791520D01*
X156988580Y-98791520D01*
X156988580Y-98811520D01*
X156607580Y-98811520D01*
X156607580Y-98791520D01*
X154869585Y-98791520D01*
X154726710Y-98934395D01*
X154726710Y-99314139D01*
X154813716Y-99524189D01*
X154870159Y-99580631D01*
X154073623Y-100377168D01*
X154052410Y-100391342D01*
X153996272Y-100475360D01*
X153996271Y-100475361D01*
X153976558Y-100574466D01*
X153981534Y-100599482D01*
X153981534Y-100908930D01*
X153977343Y-100902657D01*
X153914329Y-100860553D01*
X153840000Y-100845768D01*
X151340000Y-100845768D01*
X151265671Y-100860553D01*
X151202657Y-100902657D01*
X151160553Y-100965671D01*
X151145768Y-101040000D01*
X151145768Y-101294397D01*
X151137709Y-101296000D01*
X151113894Y-101300737D01*
X151055148Y-101339990D01*
X151029876Y-101356876D01*
X151015706Y-101378083D01*
X150467791Y-101926000D01*
X148175210Y-101926000D01*
X147227298Y-100978089D01*
X147213124Y-100956876D01*
X147129106Y-100900737D01*
X147055017Y-100886000D01*
X147055016Y-100886000D01*
X147030000Y-100881024D01*
X147004984Y-100886000D01*
X145003808Y-100886000D01*
X144978792Y-100881024D01*
X144953775Y-100886000D01*
X144879686Y-100900737D01*
X144795668Y-100956876D01*
X144781496Y-100978086D01*
X143850205Y-101909378D01*
X143826358Y-101899500D01*
X143631226Y-101899500D01*
X143487929Y-101958856D01*
X143481237Y-101925211D01*
X143439133Y-101862197D01*
X143376119Y-101820093D01*
X143301790Y-101805308D01*
X140302050Y-101805308D01*
X140227721Y-101820093D01*
X140190301Y-101845096D01*
X140118414Y-101671548D01*
X139980435Y-101533569D01*
X139800155Y-101458894D01*
X139605023Y-101458894D01*
X139581176Y-101468772D01*
X138545981Y-100433577D01*
X138531807Y-100412364D01*
X138447789Y-100356225D01*
X138373700Y-100341488D01*
X138373699Y-100341488D01*
X138348683Y-100336512D01*
X138323667Y-100341488D01*
X132411190Y-100341488D01*
X132401313Y-100317642D01*
X132263334Y-100179663D01*
X132083054Y-100104988D01*
X131887922Y-100104988D01*
X131864076Y-100114866D01*
X130789210Y-99040000D01*
X132945768Y-99040000D01*
X132945768Y-100040000D01*
X132960553Y-100114329D01*
X133002657Y-100177343D01*
X133065671Y-100219447D01*
X133140000Y-100234232D01*
X135640000Y-100234232D01*
X135714329Y-100219447D01*
X135777343Y-100177343D01*
X135819447Y-100114329D01*
X135834232Y-100040000D01*
X135834232Y-100000560D01*
X140107818Y-100000560D01*
X140107818Y-101199440D01*
X140122603Y-101273769D01*
X140164707Y-101336783D01*
X140227721Y-101378887D01*
X140302050Y-101393672D01*
X143301790Y-101393672D01*
X143376119Y-101378887D01*
X143439133Y-101336783D01*
X143481237Y-101273769D01*
X143496022Y-101199440D01*
X143496022Y-100000560D01*
X143481237Y-99926231D01*
X143439133Y-99863217D01*
X143376119Y-99821113D01*
X143301790Y-99806328D01*
X140302050Y-99806328D01*
X140227721Y-99821113D01*
X140164707Y-99863217D01*
X140122603Y-99926231D01*
X140107818Y-100000560D01*
X135834232Y-100000560D01*
X135834232Y-99040000D01*
X135819447Y-98965671D01*
X135777343Y-98902657D01*
X135714329Y-98860553D01*
X135640000Y-98845768D01*
X133140000Y-98845768D01*
X133065671Y-98860553D01*
X133002657Y-98902657D01*
X132960553Y-98965671D01*
X132945768Y-99040000D01*
X130789210Y-99040000D01*
X129054037Y-97304828D01*
X129140129Y-97175983D01*
X129220884Y-96770000D01*
X129140129Y-96364017D01*
X128910158Y-96019842D01*
X128565983Y-95789871D01*
X128262477Y-95729500D01*
X128057523Y-95729500D01*
X127754017Y-95789871D01*
X127409842Y-96019842D01*
X127179871Y-96364017D01*
X127099116Y-96770000D01*
X127081000Y-96770000D01*
X127081000Y-94230000D01*
X127099116Y-94230000D01*
X127179871Y-94635983D01*
X127409842Y-94980158D01*
X127754017Y-95210129D01*
X128057523Y-95270500D01*
X128262477Y-95270500D01*
X128565983Y-95210129D01*
X128694828Y-95124037D01*
X131662928Y-98092138D01*
X131487566Y-98019500D01*
X131292434Y-98019500D01*
X131112154Y-98094175D01*
X130974175Y-98232154D01*
X130899500Y-98412434D01*
X130899500Y-98607566D01*
X130974175Y-98787846D01*
X131112154Y-98925825D01*
X131292434Y-99000500D01*
X131487566Y-99000500D01*
X131667846Y-98925825D01*
X131805825Y-98787846D01*
X131813689Y-98768862D01*
X131814264Y-98768976D01*
X131839280Y-98764000D01*
X131839281Y-98764000D01*
X131889555Y-98754000D01*
X133105485Y-98754000D01*
X133130501Y-98758976D01*
X133155517Y-98754000D01*
X133155518Y-98754000D01*
X133229607Y-98739263D01*
X133313625Y-98683124D01*
X133327799Y-98661911D01*
X133505210Y-98484501D01*
X135687192Y-98484501D01*
X137076380Y-99873690D01*
X137090552Y-99894900D01*
X137174570Y-99951039D01*
X137248659Y-99965776D01*
X137248660Y-99965776D01*
X137273675Y-99970752D01*
X137298690Y-99965776D01*
X139260591Y-99965776D01*
X139285607Y-99970752D01*
X139310623Y-99965776D01*
X139310624Y-99965776D01*
X139384713Y-99951039D01*
X139468731Y-99894900D01*
X139469056Y-99894414D01*
X139488040Y-99902277D01*
X139683172Y-99902277D01*
X139863452Y-99827602D01*
X140001431Y-99689623D01*
X140076106Y-99509343D01*
X140076106Y-99314211D01*
X140067670Y-99293845D01*
X140074045Y-99289586D01*
X140113732Y-99230190D01*
X140122603Y-99274789D01*
X140164707Y-99337803D01*
X140227721Y-99379907D01*
X140302050Y-99394692D01*
X143301790Y-99394692D01*
X143376119Y-99379907D01*
X143439133Y-99337803D01*
X143481237Y-99274789D01*
X143496022Y-99200460D01*
X143496022Y-99040000D01*
X151145768Y-99040000D01*
X151145768Y-100040000D01*
X151160553Y-100114329D01*
X151202657Y-100177343D01*
X151265671Y-100219447D01*
X151340000Y-100234232D01*
X153840000Y-100234232D01*
X153914329Y-100219447D01*
X153977343Y-100177343D01*
X154019447Y-100114329D01*
X154034232Y-100040000D01*
X154034232Y-100026392D01*
X154092434Y-100050500D01*
X154287566Y-100050500D01*
X154467846Y-99975825D01*
X154605825Y-99837846D01*
X154680500Y-99657566D01*
X154680500Y-99462434D01*
X154605825Y-99282154D01*
X154467846Y-99144175D01*
X154287566Y-99069500D01*
X154092434Y-99069500D01*
X154034232Y-99093608D01*
X154034232Y-99040000D01*
X154019447Y-98965671D01*
X153977343Y-98902657D01*
X153914329Y-98860553D01*
X153840000Y-98845768D01*
X151340000Y-98845768D01*
X151265671Y-98860553D01*
X151202657Y-98902657D01*
X151160553Y-98965671D01*
X151145768Y-99040000D01*
X143496022Y-99040000D01*
X143496022Y-98001580D01*
X143481237Y-97927251D01*
X143445239Y-97873375D01*
X150768500Y-97873375D01*
X150768500Y-98153679D01*
X150855506Y-98363729D01*
X151016272Y-98524494D01*
X151226322Y-98611500D01*
X152256625Y-98611500D01*
X152399500Y-98468625D01*
X152399500Y-97730500D01*
X152780500Y-97730500D01*
X152780500Y-98468625D01*
X152923375Y-98611500D01*
X153953678Y-98611500D01*
X154163728Y-98524494D01*
X154324494Y-98363729D01*
X154411500Y-98153679D01*
X154411500Y-97887901D01*
X154726710Y-97887901D01*
X154726710Y-98267645D01*
X154869585Y-98410520D01*
X156607580Y-98410520D01*
X156607580Y-97572955D01*
X156988580Y-97572955D01*
X156988580Y-98410520D01*
X158726575Y-98410520D01*
X158869450Y-98267645D01*
X158869450Y-97887901D01*
X158782444Y-97677851D01*
X158621678Y-97517086D01*
X158411628Y-97430080D01*
X157131455Y-97430080D01*
X156988580Y-97572955D01*
X156607580Y-97572955D01*
X156464705Y-97430080D01*
X155184532Y-97430080D01*
X154974482Y-97517086D01*
X154813716Y-97677851D01*
X154726710Y-97887901D01*
X154411500Y-97887901D01*
X154411500Y-97873375D01*
X154268625Y-97730500D01*
X152780500Y-97730500D01*
X152399500Y-97730500D01*
X150911375Y-97730500D01*
X150768500Y-97873375D01*
X143445239Y-97873375D01*
X143439133Y-97864237D01*
X143376119Y-97822133D01*
X143301790Y-97807348D01*
X140302050Y-97807348D01*
X140227721Y-97822133D01*
X140164707Y-97864237D01*
X140144921Y-97893849D01*
X140144921Y-97717818D01*
X140467027Y-97395712D01*
X143301790Y-97395712D01*
X143376119Y-97380927D01*
X143439133Y-97338823D01*
X143481237Y-97275809D01*
X143496022Y-97201480D01*
X143496022Y-96926321D01*
X150768500Y-96926321D01*
X150768500Y-97206625D01*
X150911375Y-97349500D01*
X152399500Y-97349500D01*
X152399500Y-96611375D01*
X152780500Y-96611375D01*
X152780500Y-97349500D01*
X154268625Y-97349500D01*
X154411500Y-97206625D01*
X154411500Y-96926321D01*
X154324494Y-96716271D01*
X154163728Y-96555506D01*
X153953678Y-96468500D01*
X152923375Y-96468500D01*
X152780500Y-96611375D01*
X152399500Y-96611375D01*
X152256625Y-96468500D01*
X151226322Y-96468500D01*
X151016272Y-96555506D01*
X150855506Y-96716271D01*
X150768500Y-96926321D01*
X143496022Y-96926321D01*
X143496022Y-96002600D01*
X143481237Y-95928271D01*
X143439133Y-95865257D01*
X143376119Y-95823153D01*
X143301790Y-95808368D01*
X140302050Y-95808368D01*
X140227721Y-95823153D01*
X140164707Y-95865257D01*
X140122603Y-95928271D01*
X140107818Y-96002600D01*
X140107818Y-97036503D01*
X139836077Y-97308244D01*
X139840500Y-97297566D01*
X139840500Y-97102434D01*
X139765825Y-96922154D01*
X139627846Y-96784175D01*
X139604000Y-96774298D01*
X139604000Y-96432114D01*
X139608976Y-96407098D01*
X139589263Y-96307992D01*
X139547841Y-96246000D01*
X139533124Y-96223974D01*
X139511914Y-96209802D01*
X138236007Y-94933895D01*
X139730550Y-94933895D01*
X139730550Y-95313639D01*
X139817556Y-95523689D01*
X139978322Y-95684454D01*
X140188372Y-95771460D01*
X141468545Y-95771460D01*
X141611420Y-95628585D01*
X141611420Y-94791020D01*
X141992420Y-94791020D01*
X141992420Y-95628585D01*
X142135295Y-95771460D01*
X143415468Y-95771460D01*
X143625518Y-95684454D01*
X143786284Y-95523689D01*
X143873290Y-95313639D01*
X143873290Y-94933895D01*
X143730415Y-94791020D01*
X141992420Y-94791020D01*
X141611420Y-94791020D01*
X139873425Y-94791020D01*
X139730550Y-94933895D01*
X138236007Y-94933895D01*
X138220200Y-94918089D01*
X138206026Y-94896876D01*
X138122008Y-94840737D01*
X138047919Y-94826000D01*
X138047918Y-94826000D01*
X138022902Y-94821024D01*
X137997886Y-94826000D01*
X136892308Y-94826000D01*
X136880540Y-94814232D01*
X137670000Y-94814232D01*
X137744329Y-94799447D01*
X137807343Y-94757343D01*
X137820000Y-94738400D01*
X137832657Y-94757343D01*
X137895671Y-94799447D01*
X137970000Y-94814232D01*
X138970000Y-94814232D01*
X139044329Y-94799447D01*
X139107343Y-94757343D01*
X139149447Y-94694329D01*
X139164232Y-94620000D01*
X139164232Y-94115603D01*
X139196106Y-94109263D01*
X139280124Y-94053124D01*
X139294298Y-94031911D01*
X139438808Y-93887401D01*
X139730550Y-93887401D01*
X139730550Y-94267145D01*
X139873425Y-94410020D01*
X141611420Y-94410020D01*
X141611420Y-93572455D01*
X141992420Y-93572455D01*
X141992420Y-94410020D01*
X143730415Y-94410020D01*
X143873290Y-94267145D01*
X143873290Y-93887401D01*
X143786284Y-93677351D01*
X143625518Y-93516586D01*
X143415468Y-93429580D01*
X142135295Y-93429580D01*
X141992420Y-93572455D01*
X141611420Y-93572455D01*
X141468545Y-93429580D01*
X140188372Y-93429580D01*
X139978322Y-93516586D01*
X139817556Y-93677351D01*
X139730550Y-93887401D01*
X139438808Y-93887401D01*
X140079210Y-93247000D01*
X143437791Y-93247000D01*
X144319378Y-94128587D01*
X144309500Y-94152434D01*
X144309500Y-94347566D01*
X144384175Y-94527846D01*
X144522154Y-94665825D01*
X144702434Y-94740500D01*
X144897566Y-94740500D01*
X145077846Y-94665825D01*
X145215825Y-94527846D01*
X145290500Y-94347566D01*
X145290500Y-94152434D01*
X145215825Y-93972154D01*
X145117046Y-93873375D01*
X150768500Y-93873375D01*
X150768500Y-94153679D01*
X150855506Y-94363729D01*
X151016272Y-94524494D01*
X151226322Y-94611500D01*
X152256625Y-94611500D01*
X152399500Y-94468625D01*
X152399500Y-93730500D01*
X152780500Y-93730500D01*
X152780500Y-94468625D01*
X152923375Y-94611500D01*
X153953678Y-94611500D01*
X154163728Y-94524494D01*
X154324494Y-94363729D01*
X154411500Y-94153679D01*
X154411500Y-93873375D01*
X154268625Y-93730500D01*
X152780500Y-93730500D01*
X152399500Y-93730500D01*
X150911375Y-93730500D01*
X150768500Y-93873375D01*
X145117046Y-93873375D01*
X145077846Y-93834175D01*
X144897566Y-93759500D01*
X144702434Y-93759500D01*
X144678587Y-93769378D01*
X143740298Y-92831089D01*
X143726124Y-92809876D01*
X143642106Y-92753737D01*
X143568017Y-92739000D01*
X143568016Y-92739000D01*
X143543000Y-92734024D01*
X143517984Y-92739000D01*
X139999014Y-92739000D01*
X139973999Y-92734024D01*
X139948984Y-92739000D01*
X139948983Y-92739000D01*
X139874894Y-92753737D01*
X139790876Y-92809876D01*
X139776704Y-92831086D01*
X139164232Y-93443559D01*
X139164232Y-93120000D01*
X139149447Y-93045671D01*
X139107343Y-92982657D01*
X139044329Y-92940553D01*
X138970000Y-92925768D01*
X137970000Y-92925768D01*
X137895671Y-92940553D01*
X137832657Y-92982657D01*
X137820000Y-93001600D01*
X137807343Y-92982657D01*
X137744329Y-92940553D01*
X137724001Y-92936509D01*
X137724001Y-92645208D01*
X137785172Y-92584037D01*
X137914017Y-92670129D01*
X138217523Y-92730500D01*
X138422477Y-92730500D01*
X138725983Y-92670129D01*
X139070158Y-92440158D01*
X139300129Y-92095983D01*
X139380884Y-91690000D01*
X139799116Y-91690000D01*
X139879871Y-92095983D01*
X140109842Y-92440158D01*
X140454017Y-92670129D01*
X140757523Y-92730500D01*
X140962477Y-92730500D01*
X141265983Y-92670129D01*
X141610158Y-92440158D01*
X141840129Y-92095983D01*
X141920884Y-91690000D01*
X142339116Y-91690000D01*
X142419871Y-92095983D01*
X142649842Y-92440158D01*
X142994017Y-92670129D01*
X143297523Y-92730500D01*
X143502477Y-92730500D01*
X143805983Y-92670129D01*
X144150158Y-92440158D01*
X144380129Y-92095983D01*
X144460884Y-91690000D01*
X144879116Y-91690000D01*
X144959871Y-92095983D01*
X145189842Y-92440158D01*
X145534017Y-92670129D01*
X145837523Y-92730500D01*
X146042477Y-92730500D01*
X146345983Y-92670129D01*
X146690158Y-92440158D01*
X146920129Y-92095983D01*
X147000884Y-91690000D01*
X147419116Y-91690000D01*
X147499871Y-92095983D01*
X147729842Y-92440158D01*
X148074017Y-92670129D01*
X148377523Y-92730500D01*
X148582477Y-92730500D01*
X148885983Y-92670129D01*
X149230158Y-92440158D01*
X149460129Y-92095983D01*
X149540884Y-91690000D01*
X149959116Y-91690000D01*
X150039871Y-92095983D01*
X150269842Y-92440158D01*
X150614017Y-92670129D01*
X150854782Y-92718020D01*
X150768500Y-92926321D01*
X150768500Y-93206625D01*
X150911375Y-93349500D01*
X152399500Y-93349500D01*
X152399500Y-92611375D01*
X152256625Y-92468500D01*
X151727741Y-92468500D01*
X151770158Y-92440158D01*
X152000129Y-92095983D01*
X152080884Y-91690000D01*
X152499116Y-91690000D01*
X152579871Y-92095983D01*
X152809842Y-92440158D01*
X152894890Y-92496985D01*
X152780500Y-92611375D01*
X152780500Y-93349500D01*
X154268625Y-93349500D01*
X154411500Y-93206625D01*
X154411500Y-92926321D01*
X154333763Y-92738647D01*
X160400761Y-92738647D01*
X160489603Y-92964349D01*
X161029828Y-93131548D01*
X161592916Y-93079285D01*
X161870397Y-92964349D01*
X161959239Y-92738647D01*
X161180000Y-91959408D01*
X160400761Y-92738647D01*
X154333763Y-92738647D01*
X154324494Y-92716271D01*
X154163728Y-92555506D01*
X154147554Y-92548807D01*
X154310158Y-92440158D01*
X154540129Y-92095983D01*
X154620884Y-91690000D01*
X155039116Y-91690000D01*
X155119871Y-92095983D01*
X155349842Y-92440158D01*
X155694017Y-92670129D01*
X155997523Y-92730500D01*
X156202477Y-92730500D01*
X156505983Y-92670129D01*
X156850158Y-92440158D01*
X157080129Y-92095983D01*
X157160884Y-91690000D01*
X157119716Y-91483032D01*
X157599500Y-91483032D01*
X157599500Y-91896968D01*
X157757906Y-92279396D01*
X158050604Y-92572094D01*
X158433032Y-92730500D01*
X158846968Y-92730500D01*
X159229396Y-92572094D01*
X159522094Y-92279396D01*
X159680500Y-91896968D01*
X159680500Y-91539828D01*
X159738452Y-91539828D01*
X159790715Y-92102916D01*
X159905651Y-92380397D01*
X160131353Y-92469239D01*
X160910592Y-91690000D01*
X160131353Y-90910761D01*
X159905651Y-90999603D01*
X159738452Y-91539828D01*
X159680500Y-91539828D01*
X159680500Y-91483032D01*
X159522094Y-91100604D01*
X159229396Y-90807906D01*
X158846968Y-90649500D01*
X158433032Y-90649500D01*
X158050604Y-90807906D01*
X157757906Y-91100604D01*
X157599500Y-91483032D01*
X157119716Y-91483032D01*
X157080129Y-91284017D01*
X156850158Y-90939842D01*
X156505983Y-90709871D01*
X156202477Y-90649500D01*
X155997523Y-90649500D01*
X155694017Y-90709871D01*
X155349842Y-90939842D01*
X155119871Y-91284017D01*
X155039116Y-91690000D01*
X154620884Y-91690000D01*
X154540129Y-91284017D01*
X154310158Y-90939842D01*
X153965983Y-90709871D01*
X153662477Y-90649500D01*
X153457523Y-90649500D01*
X153154017Y-90709871D01*
X152809842Y-90939842D01*
X152579871Y-91284017D01*
X152499116Y-91690000D01*
X152080884Y-91690000D01*
X152000129Y-91284017D01*
X151770158Y-90939842D01*
X151425983Y-90709871D01*
X151122477Y-90649500D01*
X150917523Y-90649500D01*
X150614017Y-90709871D01*
X150269842Y-90939842D01*
X150039871Y-91284017D01*
X149959116Y-91690000D01*
X149540884Y-91690000D01*
X149460129Y-91284017D01*
X149230158Y-90939842D01*
X148885983Y-90709871D01*
X148582477Y-90649500D01*
X148377523Y-90649500D01*
X148074017Y-90709871D01*
X147729842Y-90939842D01*
X147499871Y-91284017D01*
X147419116Y-91690000D01*
X147000884Y-91690000D01*
X146920129Y-91284017D01*
X146690158Y-90939842D01*
X146345983Y-90709871D01*
X146042477Y-90649500D01*
X145837523Y-90649500D01*
X145534017Y-90709871D01*
X145189842Y-90939842D01*
X144959871Y-91284017D01*
X144879116Y-91690000D01*
X144460884Y-91690000D01*
X144380129Y-91284017D01*
X144150158Y-90939842D01*
X143805983Y-90709871D01*
X143502477Y-90649500D01*
X143297523Y-90649500D01*
X142994017Y-90709871D01*
X142649842Y-90939842D01*
X142419871Y-91284017D01*
X142339116Y-91690000D01*
X141920884Y-91690000D01*
X141840129Y-91284017D01*
X141610158Y-90939842D01*
X141265983Y-90709871D01*
X140962477Y-90649500D01*
X140757523Y-90649500D01*
X140454017Y-90709871D01*
X140109842Y-90939842D01*
X139879871Y-91284017D01*
X139799116Y-91690000D01*
X139380884Y-91690000D01*
X139300129Y-91284017D01*
X139070158Y-90939842D01*
X138725983Y-90709871D01*
X138422477Y-90649500D01*
X138217523Y-90649500D01*
X137914017Y-90709871D01*
X137569842Y-90939842D01*
X137339871Y-91284017D01*
X137259116Y-91690000D01*
X137339871Y-92095983D01*
X137425963Y-92224828D01*
X137308090Y-92342701D01*
X137286877Y-92356875D01*
X137231230Y-92440158D01*
X137230738Y-92440894D01*
X137211025Y-92539999D01*
X137216001Y-92565016D01*
X137216001Y-92925768D01*
X136670000Y-92925768D01*
X136595671Y-92940553D01*
X136532657Y-92982657D01*
X136490553Y-93045671D01*
X136475768Y-93120000D01*
X136475768Y-94409461D01*
X136236902Y-94170595D01*
X136236902Y-93065017D01*
X136241878Y-93040000D01*
X136227908Y-92969764D01*
X136222165Y-92940894D01*
X136212058Y-92925768D01*
X136180197Y-92878084D01*
X136180196Y-92878083D01*
X136166026Y-92856876D01*
X136144818Y-92842705D01*
X136007703Y-92705591D01*
X136185983Y-92670129D01*
X136530158Y-92440158D01*
X136760129Y-92095983D01*
X136840884Y-91690000D01*
X136760129Y-91284017D01*
X136530158Y-90939842D01*
X136185983Y-90709871D01*
X135882477Y-90649500D01*
X135677523Y-90649500D01*
X135374017Y-90709871D01*
X135029842Y-90939842D01*
X134799871Y-91284017D01*
X134719116Y-91690000D01*
X134799871Y-92095983D01*
X135029842Y-92440158D01*
X135084233Y-92476501D01*
X134385711Y-92476501D01*
X134287294Y-92378085D01*
X134287293Y-92378083D01*
X134134038Y-92224828D01*
X134220129Y-92095983D01*
X134300884Y-91690000D01*
X134220129Y-91284017D01*
X133990158Y-90939842D01*
X133645983Y-90709871D01*
X133342477Y-90649500D01*
X133137523Y-90649500D01*
X132834017Y-90709871D01*
X132489842Y-90939842D01*
X132259871Y-91284017D01*
X132179116Y-91690000D01*
X132259871Y-92095983D01*
X132489842Y-92440158D01*
X132834017Y-92670129D01*
X133137523Y-92730500D01*
X133342477Y-92730500D01*
X133645983Y-92670129D01*
X133774828Y-92584038D01*
X133928083Y-92737293D01*
X133928085Y-92737294D01*
X134036558Y-92845768D01*
X133140000Y-92845768D01*
X133065671Y-92860553D01*
X133002657Y-92902657D01*
X132960553Y-92965671D01*
X132945768Y-93040000D01*
X132945768Y-94040000D01*
X132960553Y-94114329D01*
X133002657Y-94177343D01*
X133065671Y-94219447D01*
X133140000Y-94234232D01*
X134815023Y-94234232D01*
X135426559Y-94845768D01*
X133140000Y-94845768D01*
X133065671Y-94860553D01*
X133002657Y-94902657D01*
X132960553Y-94965671D01*
X132945768Y-95040000D01*
X132945768Y-95896558D01*
X130954000Y-93904791D01*
X130954000Y-92700360D01*
X131105983Y-92670129D01*
X131450158Y-92440158D01*
X131680129Y-92095983D01*
X131760884Y-91690000D01*
X131680129Y-91284017D01*
X131450158Y-90939842D01*
X131105983Y-90709871D01*
X130802477Y-90649500D01*
X130597523Y-90649500D01*
X130294017Y-90709871D01*
X129949842Y-90939842D01*
X129719871Y-91284017D01*
X129639116Y-91690000D01*
X129719871Y-92095983D01*
X129949842Y-92440158D01*
X130294017Y-92670129D01*
X130446000Y-92700360D01*
X130446001Y-93616790D01*
X129061575Y-92232365D01*
X129200500Y-91896968D01*
X129200500Y-91483032D01*
X129042094Y-91100604D01*
X128749396Y-90807906D01*
X128366968Y-90649500D01*
X127953032Y-90649500D01*
X127570604Y-90807906D01*
X127277906Y-91100604D01*
X127119500Y-91483032D01*
X127119500Y-91896968D01*
X127277906Y-92279396D01*
X127570604Y-92572094D01*
X127953032Y-92730500D01*
X128366968Y-92730500D01*
X128702365Y-92591575D01*
X130191989Y-94081200D01*
X130191989Y-94090198D01*
X130187013Y-94115214D01*
X130191989Y-94140229D01*
X130191989Y-94140231D01*
X130206727Y-94214320D01*
X130262866Y-94298338D01*
X130284076Y-94312510D01*
X132887491Y-96915925D01*
X132901663Y-96937135D01*
X132958654Y-96975215D01*
X132945768Y-97040000D01*
X132945768Y-97976501D01*
X132265711Y-97976501D01*
X129054037Y-94764828D01*
X129140129Y-94635983D01*
X129220884Y-94230000D01*
X129140129Y-93824017D01*
X128910158Y-93479842D01*
X128565983Y-93249871D01*
X128262477Y-93189500D01*
X128057523Y-93189500D01*
X127754017Y-93249871D01*
X127409842Y-93479842D01*
X127179871Y-93824017D01*
X127099116Y-94230000D01*
X127081000Y-94230000D01*
X127081000Y-90611000D01*
X160412709Y-90611000D01*
X160400761Y-90641353D01*
G04 #@! TD*
M02*
