M48
;DRILL file {KiCad 6.0.0-rc1-unknown-a6325aa~66~ubuntu18.04.1} date Thu Sep  6 22:08:48 2018
;FORMAT={-:-/ absolute / inch / decimal}
FMAT,2
INCH,TZ
T1C0.0118
T2C0.0394
%
G90
G05
M72
T1
X5.0961Y-4.2272
X5.1079Y-4.0669
X5.1122Y-3.9209
X5.1181Y-3.9953
X5.1295Y-3.8445
X5.1689Y-4.2437
X5.1768Y-3.8937
X5.1799Y-3.7961
X5.189Y-4.0791
X5.1909Y-4.0118
X5.1933Y-3.9504
X5.2Y-4.2831
X5.2075Y-3.6661
X5.2102Y-4.1835
X5.2121Y-4.1451
X5.3661Y-4.185
X5.4052Y-4.1109
X5.4461Y-4.087
X5.4567Y-4.2559
X5.4612Y-4.1119
X5.4626Y-4.0236
X5.4638Y-3.852
X5.472Y-4.0525
X5.4737Y-3.8952
X5.4756Y-4.1681
X5.4862Y-3.8268
X5.4864Y-3.8696
X5.4894Y-3.9571
X5.4936Y-4.0718
X5.4955Y-3.9138
X5.5001Y-4.0138
X5.5043Y-3.7252
X5.6586Y-4.0311
X5.6808Y-4.0547
X5.6815Y-4.1862
X5.7008Y-3.7106
X5.7028Y-4.0823
X5.7087Y-4.028
X5.7169Y-3.7539
X5.7346Y-4.2575
X5.7476Y-4.0713
X5.7516Y-4.2079
X5.7815Y-3.8976
X5.7898Y-4.0413
X5.8201Y-4.2563
X5.8339Y-3.9736
X5.8453Y-4.1577
X5.8619Y-4.1344
X5.8697Y-4.2445
X5.8764Y-3.7791
X5.8799Y-3.7323
X5.8969Y-3.6492
X5.9063Y-4.0881
X5.9346Y-4.2567
X5.9654Y-4.0386
X6.0705Y-3.9197
X6.085Y-4.1622
X6.0969Y-4.1091
X6.1732Y-3.8819
X6.1972Y-4.2764
X6.215Y-3.7599
X6.249Y-4.048
X6.2787Y-4.2067
X6.2949Y-4.0453
T2
X5.1457Y-3.6098
X5.2457Y-3.6098
X5.3457Y-3.6098
X5.4457Y-3.6098
X5.5457Y-3.6098
X5.6457Y-3.6098
X5.7457Y-3.6098
X5.8457Y-3.6098
X5.9457Y-3.6098
X6.0457Y-3.6098
X6.1457Y-3.6098
X6.2457Y-3.6098
X5.0457Y-3.6098
X5.0457Y-3.7098
X5.0457Y-3.8098
X5.0457Y-3.9098
X5.0457Y-4.0098
X5.0457Y-4.1098
X5.0457Y-4.2098
X5.0457Y-4.3098
X5.1457Y-4.3098
X5.2457Y-4.3098
X5.3457Y-4.3098
X5.4457Y-4.3098
X5.5457Y-4.3098
X5.6457Y-4.3098
X5.7457Y-4.3098
X5.8457Y-4.3098
X5.9457Y-4.3098
X6.0457Y-4.3098
X6.1457Y-4.3098
X6.2457Y-4.3098
X6.3457Y-3.6098
X6.3457Y-3.7098
X6.3457Y-3.8098
X6.3457Y-3.9098
X6.3457Y-4.0098
X6.3457Y-4.1098
X6.3457Y-4.2098
X6.3457Y-4.3098
T0
M30
